<?xml version="1.0" encoding="utf-8" standalone="no"?>
<!DOCTYPE svg PUBLIC "-//W3C//DTD SVG 1.1//EN"
  "http://www.w3.org/Graphics/SVG/1.1/DTD/svg11.dtd">
<svg xmlns:xlink="http://www.w3.org/1999/xlink" width="720pt" height="396pt" viewBox="0 0 720 396" xmlns="http://www.w3.org/2000/svg" version="1.1">
 <metadata>
  <rdf:RDF xmlns:dc="http://purl.org/dc/elements/1.1/" xmlns:cc="http://creativecommons.org/ns#" xmlns:rdf="http://www.w3.org/1999/02/22-rdf-syntax-ns#">
   <cc:Work>
    <dc:type rdf:resource="http://purl.org/dc/dcmitype/StillImage"/>
    <dc:date>2025-05-20T14:56:15.919287</dc:date>
    <dc:format>image/svg+xml</dc:format>
    <dc:creator>
     <cc:Agent>
      <dc:title>Matplotlib v3.9.0, https://matplotlib.org/</dc:title>
     </cc:Agent>
    </dc:creator>
   </cc:Work>
  </rdf:RDF>
 </metadata>
 <defs>
  <style type="text/css">*{stroke-linejoin: round; stroke-linecap: butt}</style>
 </defs>
 <g id="figure_1">
  <g id="patch_1">
   <path d="M 0 396 
L 720 396 
L 720 0 
L 0 0 
z
" style="fill: #ffffff"/>
  </g>
  <g id="axes_1">
   <g id="patch_2">
    <path d="M 75.175501 111.628601 
L 688.905815 111.628601 
L 688.905815 38.4533 
L 75.175501 38.4533 
z
" style="fill: #ffffff"/>
   </g>
   <g id="matplotlib.axis_1">
    <g id="xtick_1">
     <g id="line2d_1">
      <defs>
       <path id="mb1c9a07f9f" d="M 0 0 
L 0 -5 
" style="stroke: #000000; stroke-width: 0.5"/>
      </defs>
      <g>
       <use xlink:href="#mb1c9a07f9f" x="75.788007" y="111.628601" style="stroke: #000000; stroke-width: 0.5"/>
      </g>
     </g>
     <g id="line2d_2">
      <defs>
       <path id="md7093a7b78" d="M 0 0 
L 0 5 
" style="stroke: #000000; stroke-width: 0.5"/>
      </defs>
      <g>
       <use xlink:href="#md7093a7b78" x="75.788007" y="38.4533" style="stroke: #000000; stroke-width: 0.5"/>
      </g>
     </g>
    </g>
    <g id="xtick_2">
     <g id="line2d_3">
      <g>
       <use xlink:href="#mb1c9a07f9f" x="198.289067" y="111.628601" style="stroke: #000000; stroke-width: 0.5"/>
      </g>
     </g>
     <g id="line2d_4">
      <g>
       <use xlink:href="#md7093a7b78" x="198.289067" y="38.4533" style="stroke: #000000; stroke-width: 0.5"/>
      </g>
     </g>
    </g>
    <g id="xtick_3">
     <g id="line2d_5">
      <g>
       <use xlink:href="#mb1c9a07f9f" x="320.790128" y="111.628601" style="stroke: #000000; stroke-width: 0.5"/>
      </g>
     </g>
     <g id="line2d_6">
      <g>
       <use xlink:href="#md7093a7b78" x="320.790128" y="38.4533" style="stroke: #000000; stroke-width: 0.5"/>
      </g>
     </g>
    </g>
    <g id="xtick_4">
     <g id="line2d_7">
      <g>
       <use xlink:href="#mb1c9a07f9f" x="443.291188" y="111.628601" style="stroke: #000000; stroke-width: 0.5"/>
      </g>
     </g>
     <g id="line2d_8">
      <g>
       <use xlink:href="#md7093a7b78" x="443.291188" y="38.4533" style="stroke: #000000; stroke-width: 0.5"/>
      </g>
     </g>
    </g>
    <g id="xtick_5">
     <g id="line2d_9">
      <g>
       <use xlink:href="#mb1c9a07f9f" x="565.792249" y="111.628601" style="stroke: #000000; stroke-width: 0.5"/>
      </g>
     </g>
     <g id="line2d_10">
      <g>
       <use xlink:href="#md7093a7b78" x="565.792249" y="38.4533" style="stroke: #000000; stroke-width: 0.5"/>
      </g>
     </g>
    </g>
    <g id="xtick_6">
     <g id="line2d_11">
      <g>
       <use xlink:href="#mb1c9a07f9f" x="688.293309" y="111.628601" style="stroke: #000000; stroke-width: 0.5"/>
      </g>
     </g>
     <g id="line2d_12">
      <g>
       <use xlink:href="#md7093a7b78" x="688.293309" y="38.4533" style="stroke: #000000; stroke-width: 0.5"/>
      </g>
     </g>
    </g>
    <g id="xtick_7">
     <g id="line2d_13">
      <defs>
       <path id="mb290a65edb" d="M 0 0 
L 0 -2.5 
" style="stroke: #000000; stroke-width: 0.5"/>
      </defs>
      <g>
       <use xlink:href="#mb290a65edb" x="106.413272" y="111.628601" style="stroke: #000000; stroke-width: 0.5"/>
      </g>
     </g>
     <g id="line2d_14">
      <defs>
       <path id="md850935256" d="M 0 0 
L 0 2.5 
" style="stroke: #000000; stroke-width: 0.5"/>
      </defs>
      <g>
       <use xlink:href="#md850935256" x="106.413272" y="38.4533" style="stroke: #000000; stroke-width: 0.5"/>
      </g>
     </g>
    </g>
    <g id="xtick_8">
     <g id="line2d_15">
      <g>
       <use xlink:href="#mb290a65edb" x="137.038537" y="111.628601" style="stroke: #000000; stroke-width: 0.5"/>
      </g>
     </g>
     <g id="line2d_16">
      <g>
       <use xlink:href="#md850935256" x="137.038537" y="38.4533" style="stroke: #000000; stroke-width: 0.5"/>
      </g>
     </g>
    </g>
    <g id="xtick_9">
     <g id="line2d_17">
      <g>
       <use xlink:href="#mb290a65edb" x="167.663802" y="111.628601" style="stroke: #000000; stroke-width: 0.5"/>
      </g>
     </g>
     <g id="line2d_18">
      <g>
       <use xlink:href="#md850935256" x="167.663802" y="38.4533" style="stroke: #000000; stroke-width: 0.5"/>
      </g>
     </g>
    </g>
    <g id="xtick_10">
     <g id="line2d_19">
      <g>
       <use xlink:href="#mb290a65edb" x="228.914332" y="111.628601" style="stroke: #000000; stroke-width: 0.5"/>
      </g>
     </g>
     <g id="line2d_20">
      <g>
       <use xlink:href="#md850935256" x="228.914332" y="38.4533" style="stroke: #000000; stroke-width: 0.5"/>
      </g>
     </g>
    </g>
    <g id="xtick_11">
     <g id="line2d_21">
      <g>
       <use xlink:href="#mb290a65edb" x="259.539597" y="111.628601" style="stroke: #000000; stroke-width: 0.5"/>
      </g>
     </g>
     <g id="line2d_22">
      <g>
       <use xlink:href="#md850935256" x="259.539597" y="38.4533" style="stroke: #000000; stroke-width: 0.5"/>
      </g>
     </g>
    </g>
    <g id="xtick_12">
     <g id="line2d_23">
      <g>
       <use xlink:href="#mb290a65edb" x="290.164862" y="111.628601" style="stroke: #000000; stroke-width: 0.5"/>
      </g>
     </g>
     <g id="line2d_24">
      <g>
       <use xlink:href="#md850935256" x="290.164862" y="38.4533" style="stroke: #000000; stroke-width: 0.5"/>
      </g>
     </g>
    </g>
    <g id="xtick_13">
     <g id="line2d_25">
      <g>
       <use xlink:href="#mb290a65edb" x="351.415393" y="111.628601" style="stroke: #000000; stroke-width: 0.5"/>
      </g>
     </g>
     <g id="line2d_26">
      <g>
       <use xlink:href="#md850935256" x="351.415393" y="38.4533" style="stroke: #000000; stroke-width: 0.5"/>
      </g>
     </g>
    </g>
    <g id="xtick_14">
     <g id="line2d_27">
      <g>
       <use xlink:href="#mb290a65edb" x="382.040658" y="111.628601" style="stroke: #000000; stroke-width: 0.5"/>
      </g>
     </g>
     <g id="line2d_28">
      <g>
       <use xlink:href="#md850935256" x="382.040658" y="38.4533" style="stroke: #000000; stroke-width: 0.5"/>
      </g>
     </g>
    </g>
    <g id="xtick_15">
     <g id="line2d_29">
      <g>
       <use xlink:href="#mb290a65edb" x="412.665923" y="111.628601" style="stroke: #000000; stroke-width: 0.5"/>
      </g>
     </g>
     <g id="line2d_30">
      <g>
       <use xlink:href="#md850935256" x="412.665923" y="38.4533" style="stroke: #000000; stroke-width: 0.5"/>
      </g>
     </g>
    </g>
    <g id="xtick_16">
     <g id="line2d_31">
      <g>
       <use xlink:href="#mb290a65edb" x="473.916453" y="111.628601" style="stroke: #000000; stroke-width: 0.5"/>
      </g>
     </g>
     <g id="line2d_32">
      <g>
       <use xlink:href="#md850935256" x="473.916453" y="38.4533" style="stroke: #000000; stroke-width: 0.5"/>
      </g>
     </g>
    </g>
    <g id="xtick_17">
     <g id="line2d_33">
      <g>
       <use xlink:href="#mb290a65edb" x="504.541718" y="111.628601" style="stroke: #000000; stroke-width: 0.5"/>
      </g>
     </g>
     <g id="line2d_34">
      <g>
       <use xlink:href="#md850935256" x="504.541718" y="38.4533" style="stroke: #000000; stroke-width: 0.5"/>
      </g>
     </g>
    </g>
    <g id="xtick_18">
     <g id="line2d_35">
      <g>
       <use xlink:href="#mb290a65edb" x="535.166984" y="111.628601" style="stroke: #000000; stroke-width: 0.5"/>
      </g>
     </g>
     <g id="line2d_36">
      <g>
       <use xlink:href="#md850935256" x="535.166984" y="38.4533" style="stroke: #000000; stroke-width: 0.5"/>
      </g>
     </g>
    </g>
    <g id="xtick_19">
     <g id="line2d_37">
      <g>
       <use xlink:href="#mb290a65edb" x="596.417514" y="111.628601" style="stroke: #000000; stroke-width: 0.5"/>
      </g>
     </g>
     <g id="line2d_38">
      <g>
       <use xlink:href="#md850935256" x="596.417514" y="38.4533" style="stroke: #000000; stroke-width: 0.5"/>
      </g>
     </g>
    </g>
    <g id="xtick_20">
     <g id="line2d_39">
      <g>
       <use xlink:href="#mb290a65edb" x="627.042779" y="111.628601" style="stroke: #000000; stroke-width: 0.5"/>
      </g>
     </g>
     <g id="line2d_40">
      <g>
       <use xlink:href="#md850935256" x="627.042779" y="38.4533" style="stroke: #000000; stroke-width: 0.5"/>
      </g>
     </g>
    </g>
    <g id="xtick_21">
     <g id="line2d_41">
      <g>
       <use xlink:href="#mb290a65edb" x="657.668044" y="111.628601" style="stroke: #000000; stroke-width: 0.5"/>
      </g>
     </g>
     <g id="line2d_42">
      <g>
       <use xlink:href="#md850935256" x="657.668044" y="38.4533" style="stroke: #000000; stroke-width: 0.5"/>
      </g>
     </g>
    </g>
   </g>
   <g id="matplotlib.axis_2">
    <g id="ytick_1">
     <g id="line2d_43">
      <defs>
       <path id="m4c3455a5a6" d="M 0 0 
L 5 0 
" style="stroke: #000000; stroke-width: 0.5"/>
      </defs>
      <g>
       <use xlink:href="#m4c3455a5a6" x="75.175501" y="83.581246" style="stroke: #000000; stroke-width: 0.5"/>
      </g>
     </g>
     <g id="line2d_44">
      <defs>
       <path id="m47b032e95d" d="M 0 0 
L -5 0 
" style="stroke: #000000; stroke-width: 0.5"/>
      </defs>
      <g>
       <use xlink:href="#m47b032e95d" x="688.905815" y="83.581246" style="stroke: #000000; stroke-width: 0.5"/>
      </g>
     </g>
     <g id="text_1">
      <!-- $\mathdefault{0}$ -->
      <g transform="translate(63.90812 89.461972) scale(0.17 -0.17)">
       <defs>
        <path id="CMR17-30" d="M 2688 2025 
C 2688 2416 2682 3080 2413 3591 
C 2176 4039 1798 4198 1466 4198 
C 1158 4198 768 4058 525 3597 
C 269 3118 243 2524 243 2025 
C 243 1661 250 1106 448 619 
C 723 -39 1216 -128 1466 -128 
C 1760 -128 2208 -7 2470 600 
C 2662 1042 2688 1559 2688 2025 
z
M 1466 -26 
C 1056 -26 813 325 723 812 
C 653 1188 653 1738 653 2096 
C 653 2588 653 2997 736 3387 
C 858 3929 1216 4096 1466 4096 
C 1728 4096 2067 3923 2189 3400 
C 2272 3036 2278 2607 2278 2096 
C 2278 1680 2278 1169 2202 792 
C 2067 95 1690 -26 1466 -26 
z
" transform="scale(0.015625)"/>
       </defs>
       <use xlink:href="#CMR17-30" transform="scale(0.996264)"/>
      </g>
     </g>
    </g>
    <g id="ytick_2">
     <g id="line2d_45">
      <g>
       <use xlink:href="#m4c3455a5a6" x="75.175501" y="45.550273" style="stroke: #000000; stroke-width: 0.5"/>
      </g>
     </g>
     <g id="line2d_46">
      <g>
       <use xlink:href="#m47b032e95d" x="688.905815" y="45.550273" style="stroke: #000000; stroke-width: 0.5"/>
      </g>
     </g>
     <g id="text_2">
      <!-- $\mathdefault{2}$ -->
      <g transform="translate(63.90812 51.430999) scale(0.17 -0.17)">
       <defs>
        <path id="CMR17-32" d="M 2669 989 
L 2554 989 
C 2490 536 2438 459 2413 420 
C 2381 369 1920 369 1830 369 
L 602 369 
C 832 619 1280 1072 1824 1597 
C 2214 1967 2669 2402 2669 3035 
C 2669 3790 2067 4224 1395 4224 
C 691 4224 262 3604 262 3030 
C 262 2780 448 2748 525 2748 
C 589 2748 781 2787 781 3010 
C 781 3207 614 3264 525 3264 
C 486 3264 448 3258 422 3245 
C 544 3790 915 4058 1306 4058 
C 1862 4058 2227 3617 2227 3035 
C 2227 2479 1901 2000 1536 1584 
L 262 146 
L 262 0 
L 2515 0 
L 2669 989 
z
" transform="scale(0.015625)"/>
       </defs>
       <use xlink:href="#CMR17-32" transform="scale(0.996264)"/>
      </g>
     </g>
    </g>
    <g id="ytick_3">
     <g id="line2d_47">
      <defs>
       <path id="m09e4130016" d="M 0 0 
L 2.5 0 
" style="stroke: #000000; stroke-width: 0.5"/>
      </defs>
      <g>
       <use xlink:href="#m09e4130016" x="75.175501" y="102.596732" style="stroke: #000000; stroke-width: 0.5"/>
      </g>
     </g>
     <g id="line2d_48">
      <defs>
       <path id="mda3f501097" d="M 0 0 
L -2.5 0 
" style="stroke: #000000; stroke-width: 0.5"/>
      </defs>
      <g>
       <use xlink:href="#mda3f501097" x="688.905815" y="102.596732" style="stroke: #000000; stroke-width: 0.5"/>
      </g>
     </g>
    </g>
    <g id="ytick_4">
     <g id="line2d_49">
      <g>
       <use xlink:href="#m09e4130016" x="75.175501" y="93.088989" style="stroke: #000000; stroke-width: 0.5"/>
      </g>
     </g>
     <g id="line2d_50">
      <g>
       <use xlink:href="#mda3f501097" x="688.905815" y="93.088989" style="stroke: #000000; stroke-width: 0.5"/>
      </g>
     </g>
    </g>
    <g id="ytick_5">
     <g id="line2d_51">
      <g>
       <use xlink:href="#m09e4130016" x="75.175501" y="74.073503" style="stroke: #000000; stroke-width: 0.5"/>
      </g>
     </g>
     <g id="line2d_52">
      <g>
       <use xlink:href="#mda3f501097" x="688.905815" y="74.073503" style="stroke: #000000; stroke-width: 0.5"/>
      </g>
     </g>
    </g>
    <g id="ytick_6">
     <g id="line2d_53">
      <g>
       <use xlink:href="#m09e4130016" x="75.175501" y="64.56576" style="stroke: #000000; stroke-width: 0.5"/>
      </g>
     </g>
     <g id="line2d_54">
      <g>
       <use xlink:href="#mda3f501097" x="688.905815" y="64.56576" style="stroke: #000000; stroke-width: 0.5"/>
      </g>
     </g>
    </g>
    <g id="ytick_7">
     <g id="line2d_55">
      <g>
       <use xlink:href="#m09e4130016" x="75.175501" y="55.058016" style="stroke: #000000; stroke-width: 0.5"/>
      </g>
     </g>
     <g id="line2d_56">
      <g>
       <use xlink:href="#mda3f501097" x="688.905815" y="55.058016" style="stroke: #000000; stroke-width: 0.5"/>
      </g>
     </g>
    </g>
    <g id="text_3">
     <!-- $q(t)$ -->
     <g transform="translate(33.172861 70.572767) scale(0.18 -0.18)">
      <defs>
       <path id="CMMI12-71" d="M 2822 2759 
C 2822 2790 2797 2816 2765 2816 
C 2714 2816 2464 2585 2342 2362 
C 2227 2646 2029 2816 1754 2816 
C 1030 2816 250 1884 250 939 
C 250 307 621 -64 1056 -64 
C 1395 -64 1677 193 1811 339 
L 1818 333 
L 1574 -615 
L 1517 -842 
C 1459 -1031 1363 -1031 1062 -1031 
C 992 -1031 928 -1031 928 -1152 
C 928 -1197 966 -1216 1011 -1216 
C 1101 -1216 1216 -1216 1306 -1216 
L 1958 -1216 
C 2054 -1216 2163 -1216 2259 -1216 
C 2298 -1216 2374 -1216 2374 -1095 
C 2374 -1031 2323 -1031 2227 -1031 
C 1926 -1031 1907 -986 1907 -935 
C 1907 -904 1914 -898 1933 -815 
L 2822 2759 
z
M 1920 762 
C 1888 652 1888 640 1798 518 
C 1658 339 1376 64 1075 64 
C 813 64 666 301 666 678 
C 666 1030 864 1747 986 2016 
C 1203 2464 1504 2695 1754 2695 
C 2176 2695 2259 2170 2259 2119 
C 2259 2113 2240 2028 2234 2016 
L 1920 762 
z
" transform="scale(0.015625)"/>
       <path id="CMR17-28" d="M 1958 -1561 
C 1958 -1555 1958 -1542 1939 -1523 
C 1645 -1224 858 -407 858 1581 
C 858 3569 1632 4379 1946 4697 
C 1946 4704 1958 4717 1958 4736 
C 1958 4755 1939 4768 1914 4768 
C 1843 4768 1299 4296 986 3594 
C 666 2887 576 2199 576 1588 
C 576 1128 621 351 1005 -471 
C 1312 -1135 1837 -1600 1914 -1600 
C 1946 -1600 1958 -1587 1958 -1561 
z
" transform="scale(0.015625)"/>
       <path id="CMMI12-74" d="M 1286 2566 
L 1875 2566 
C 1997 2566 2061 2566 2061 2681 
C 2061 2752 2022 2752 1894 2752 
L 1331 2752 
L 1568 3692 
C 1594 3781 1594 3794 1594 3840 
C 1594 3943 1510 4000 1427 4000 
C 1376 4000 1229 3981 1178 3775 
L 928 2752 
L 326 2752 
C 198 2752 141 2752 141 2630 
C 141 2566 186 2566 307 2566 
L 877 2566 
L 454 881 
C 403 658 384 594 384 511 
C 384 211 595 -64 954 -64 
C 1600 -64 1946 868 1946 912 
C 1946 951 1920 970 1882 970 
C 1869 970 1843 970 1830 944 
C 1824 938 1818 931 1773 829 
C 1638 511 1344 64 973 64 
C 781 64 768 224 768 364 
C 768 370 768 492 787 568 
L 1286 2566 
z
" transform="scale(0.015625)"/>
       <path id="CMR17-29" d="M 1683 1581 
C 1683 2040 1638 2817 1254 3639 
C 947 4303 422 4768 346 4768 
C 326 4768 301 4761 301 4729 
C 301 4717 307 4710 314 4697 
C 621 4378 1402 3568 1402 1584 
C 1402 -407 627 -1217 314 -1537 
C 307 -1549 301 -1556 301 -1568 
C 301 -1600 326 -1600 346 -1600 
C 416 -1600 960 -1128 1274 -426 
C 1594 281 1683 969 1683 1581 
z
" transform="scale(0.015625)"/>
      </defs>
      <use xlink:href="#CMMI12-71" transform="scale(0.996264)"/>
      <use xlink:href="#CMR17-28" transform="translate(46.826324 0) scale(0.996264)"/>
      <use xlink:href="#CMMI12-74" transform="translate(82.107092 0) scale(0.996264)"/>
      <use xlink:href="#CMR17-29" transform="translate(117.333422 0) scale(0.996264)"/>
     </g>
    </g>
   </g>
   <g id="LineCollection_1">
    <path d="M 75.788007 66.157532 
L 688.293309 66.157532 
" clip-path="url(#p5e1690483b)" style="fill: none; stroke-dasharray: 2.22,0.96; stroke-dashoffset: 0; stroke: #800080; stroke-width: 0.6"/>
   </g>
   <g id="line2d_57">
    <path d="M 75.788007 102.596732 
L 78.24048 102.632021 
L 80.079835 102.470437 
L 81.919191 102.095224 
L 83.758546 101.445647 
L 84.984783 100.822779 
L 86.21102 100.016274 
L 87.437257 98.994458 
L 88.663493 97.721723 
L 89.88973 96.159694 
L 91.115967 94.264356 
L 92.342204 91.985039 
L 93.568441 89.27826 
L 94.794678 86.10848 
L 96.020914 82.448388 
L 97.86027 76.044567 
L 100.312743 66.238338 
L 102.765217 56.503913 
L 103.991454 52.426542 
L 105.217691 49.194839 
L 106.443928 46.864557 
L 107.670164 45.333414 
L 108.896401 44.423107 
L 110.122638 43.961464 
L 111.348875 43.801583 
L 113.18823 43.904272 
L 115.640704 44.374665 
L 119.319414 45.361278 
L 128.516191 48.150658 
L 214.965888 74.982544 
L 303.254941 102.276432 
L 311.22548 104.513879 
L 316.130428 105.694539 
L 319.809138 106.362213 
L 322.87473 106.672139 
L 325.327204 106.675805 
L 327.166559 106.479604 
L 329.005914 106.052514 
L 330.84527 105.320284 
L 332.071507 104.617614 
L 333.297743 103.706538 
L 334.52398 102.55143 
L 335.750217 101.113032 
L 336.976454 99.345959 
L 338.202691 97.19252 
L 339.428928 94.594992 
L 340.655164 91.498923 
L 341.881401 87.853797 
L 343.107638 83.630259 
L 344.946993 76.193323 
L 347.399467 64.833109 
L 349.238822 56.439111 
L 350.465059 51.680349 
L 351.691296 47.946177 
L 352.917533 45.329939 
L 353.530651 44.398539 
L 354.14377 43.683521 
L 354.756888 43.153612 
L 355.983125 42.518502 
L 357.209362 42.279994 
L 358.435599 42.285274 
L 360.274954 42.551454 
L 363.340546 43.305026 
L 369.47173 45.126543 
L 406.258836 56.534547 
L 558.925322 103.81858 
L 567.50898 106.233619 
L 572.413928 107.390566 
L 576.092638 108.022808 
L 578.545112 108.261038 
L 580.997586 108.277789 
L 582.836941 108.086259 
L 584.676296 107.658241 
L 586.515651 106.925162 
L 587.741888 106.227598 
L 588.968125 105.324078 
L 590.194362 104.172989 
L 591.420599 102.728608 
L 592.646836 100.941102 
L 593.873072 98.75653 
L 595.099309 96.116845 
L 596.325546 92.959888 
L 597.551783 89.225109 
L 598.77802 84.870787 
L 600.004257 79.888722 
L 601.843612 71.379884 
L 604.909204 56.436871 
L 606.135441 51.401141 
L 607.361678 47.489303 
L 607.974796 45.990128 
L 608.587915 44.784713 
L 609.201033 43.846012 
L 609.814151 43.132448 
L 610.42727 42.608807 
L 611.653507 42.001154 
L 612.879743 41.788163 
L 614.10598 41.816223 
L 615.945336 42.106712 
L 619.010928 42.881358 
L 625.75523 44.903599 
L 679.709651 61.645869 
L 688.293309 64.310689 
L 688.293309 64.310689 
" clip-path="url(#p5e1690483b)" style="fill: none; stroke: #008000; stroke-width: 1.5; stroke-linecap: square"/>
   </g>
   <g id="patch_3">
    <path d="M 75.175501 111.628601 
L 75.175501 38.4533 
" style="fill: none; stroke: #000000; stroke-width: 0.8; stroke-linejoin: miter; stroke-linecap: square"/>
   </g>
   <g id="patch_4">
    <path d="M 688.905815 111.628601 
L 688.905815 38.4533 
" style="fill: none; stroke: #000000; stroke-width: 0.8; stroke-linejoin: miter; stroke-linecap: square"/>
   </g>
   <g id="patch_5">
    <path d="M 75.175501 111.628601 
L 688.905815 111.628601 
" style="fill: none; stroke: #000000; stroke-width: 0.8; stroke-linejoin: miter; stroke-linecap: square"/>
   </g>
   <g id="patch_6">
    <path d="M 75.175501 38.4533 
L 688.905815 38.4533 
" style="fill: none; stroke: #000000; stroke-width: 0.8; stroke-linejoin: miter; stroke-linecap: square"/>
   </g>
   <g id="text_4">
    <!-- Position vs. Time with $\alpha = 1.0, \beta = 0.4, \gamma = 0.1, \delta = 0.1$ -->
    <g transform="translate(176.065856 32.4533) scale(0.18 -0.18)">
     <defs>
      <path id="CMR17-50" d="M 1267 2042 
L 2291 2042 
C 3117 2042 3718 2578 3718 3184 
C 3718 3791 3130 4352 2291 4352 
L 333 4352 
L 333 4186 
C 774 4186 845 4186 845 3899 
L 845 446 
C 845 160 774 160 333 160 
L 333 0 
C 518 0 858 0 1056 0 
C 1254 0 1594 0 1779 0 
L 1779 160 
C 1338 160 1267 160 1267 446 
L 1267 2042 
z
M 1254 2176 
L 1254 3938 
C 1254 4155 1267 4186 1523 4186 
L 2170 4186 
C 2995 4186 3232 3714 3232 3184 
C 3232 2604 2950 2176 2170 2176 
L 1254 2176 
z
" transform="scale(0.015625)"/>
      <path id="CMR17-6f" d="M 2758 1356 
C 2758 2176 2163 2816 1466 2816 
C 768 2816 173 2176 173 1356 
C 173 551 768 -64 1466 -64 
C 2163 -64 2758 551 2758 1356 
z
M 1466 51 
C 1165 51 909 230 762 480 
C 602 767 582 1126 582 1408 
C 582 1677 595 2010 762 2298 
C 890 2509 1139 2714 1466 2714 
C 1754 2714 1997 2554 2150 2330 
C 2349 2029 2349 1607 2349 1408 
C 2349 1158 2336 775 2163 467 
C 1984 173 1709 51 1466 51 
z
" transform="scale(0.015625)"/>
      <path id="CMR17-73" d="M 1978 2697 
C 1978 2813 1971 2819 1933 2819 
C 1907 2819 1901 2813 1824 2717 
C 1805 2691 1747 2626 1728 2601 
C 1523 2819 1235 2819 1126 2819 
C 416 2819 160 2447 160 2076 
C 160 1498 813 1365 998 1325 
C 1402 1243 1542 1217 1677 1101 
C 1760 1025 1901 884 1901 654 
C 1901 384 1747 38 1158 38 
C 602 38 403 460 288 1021 
C 269 1110 269 1117 218 1117 
C 166 1117 160 1110 160 983 
L 160 63 
C 160 -51 166 -58 205 -58 
C 237 -58 243 -51 275 0 
C 314 57 410 211 448 276 
C 576 103 800 -64 1158 -64 
C 1792 -64 2131 283 2131 784 
C 2131 1112 1958 1285 1875 1362 
C 1683 1561 1459 1606 1190 1657 
C 838 1735 390 1825 390 2217 
C 390 2383 480 2737 1126 2737 
C 1811 2737 1850 2094 1862 1888 
C 1869 1856 1901 1849 1920 1849 
C 1978 1849 1978 1869 1978 1978 
L 1978 2697 
z
" transform="scale(0.015625)"/>
      <path id="CMR17-69" d="M 992 3909 
C 992 4049 877 4170 730 4170 
C 589 4170 467 4056 467 3909 
C 467 3769 582 3648 730 3648 
C 870 3648 992 3763 992 3909 
z
M 243 2706 
L 243 2541 
C 602 2541 653 2502 653 2197 
L 653 427 
C 653 184 627 153 218 153 
L 218 -13 
C 371 0 646 0 806 0 
C 960 0 1222 0 1370 -13 
L 1370 153 
C 992 153 979 191 979 420 
L 979 2776 
L 243 2706 
z
" transform="scale(0.015625)"/>
      <path id="CMR17-74" d="M 966 2560 
L 1862 2560 
L 1862 2725 
L 966 2725 
L 966 3904 
L 851 3904 
C 838 3245 614 2668 70 2668 
L 70 2560 
L 627 2560 
L 627 771 
C 627 650 627 -64 1370 -64 
C 1747 -64 1965 306 1965 777 
L 1965 1140 
L 1850 1140 
L 1850 783 
C 1850 344 1677 51 1408 51 
C 1222 51 966 178 966 758 
L 966 2560 
z
" transform="scale(0.015625)"/>
      <path id="CMR17-6e" d="M 2656 1933 
C 2656 2259 2592 2790 1837 2790 
C 1331 2790 1069 2400 973 2144 
L 966 2144 
L 966 2790 
L 211 2720 
L 211 2554 
C 589 2554 646 2515 646 2208 
L 646 428 
C 646 184 621 153 211 153 
L 211 -13 
C 365 0 646 0 813 0 
C 979 0 1267 0 1421 -13 
L 1421 153 
C 1011 153 986 178 986 428 
L 986 1658 
C 986 2247 1344 2688 1792 2688 
C 2266 2688 2317 2266 2317 1958 
L 2317 428 
C 2317 184 2291 153 1882 153 
L 1882 -13 
C 2035 0 2317 0 2483 0 
C 2650 0 2938 0 3091 -13 
L 3091 153 
C 2682 153 2656 178 2656 428 
L 2656 1933 
z
" transform="scale(0.015625)"/>
      <path id="CMR17-76" d="M 2502 2163 
C 2560 2304 2662 2560 3034 2560 
L 3034 2726 
C 2912 2726 2752 2726 2630 2726 
C 2496 2726 2285 2726 2157 2732 
L 2157 2566 
C 2317 2553 2406 2477 2406 2311 
C 2406 2253 2406 2240 2368 2151 
L 1664 377 
L 902 2286 
C 864 2369 864 2381 864 2407 
C 864 2560 1075 2560 1171 2560 
L 1171 2732 
C 1018 2726 736 2726 576 2726 
C 403 2726 205 2726 64 2732 
L 64 2560 
C 307 2560 442 2560 518 2362 
L 1446 44 
C 1485 -51 1491 -64 1549 -64 
C 1606 -64 1613 -51 1651 44 
L 2502 2163 
z
" transform="scale(0.015625)"/>
      <path id="CMR17-2e" d="M 1062 261 
C 1062 420 934 522 800 522 
C 672 522 538 420 538 261 
C 538 102 666 0 800 0 
C 928 0 1062 102 1062 261 
z
" transform="scale(0.015625)"/>
      <path id="CMR17-54" d="M 3981 4326 
L 288 4326 
L 179 2918 
L 294 2918 
C 378 3976 467 4160 1453 4160 
C 1568 4160 1754 4160 1805 4154 
C 1926 4135 1926 4058 1926 3912 
L 1926 459 
C 1926 230 1907 160 1376 160 
L 1197 160 
L 1197 0 
C 1504 0 1824 0 2138 0 
C 2451 0 2771 0 3078 0 
L 3078 160 
L 2899 160 
C 2368 160 2349 230 2349 459 
L 2349 3912 
C 2349 4052 2349 4129 2464 4154 
C 2515 4160 2701 4160 2816 4160 
C 3795 4160 3891 3976 3974 2918 
L 4090 2918 
L 3981 4326 
z
" transform="scale(0.015625)"/>
      <path id="CMR17-6d" d="M 4326 1933 
C 4326 2252 4269 2790 3507 2790 
C 3072 2790 2771 2496 2656 2151 
L 2650 2151 
C 2573 2676 2195 2790 1837 2790 
C 1331 2790 1069 2400 973 2144 
L 966 2144 
L 966 2790 
L 211 2720 
L 211 2554 
C 589 2554 646 2515 646 2208 
L 646 428 
C 646 184 621 153 211 153 
L 211 -13 
C 365 0 646 0 813 0 
C 979 0 1267 0 1421 -13 
L 1421 153 
C 1011 153 986 178 986 428 
L 986 1658 
C 986 2247 1344 2688 1792 2688 
C 2266 2688 2317 2266 2317 1958 
L 2317 428 
C 2317 184 2291 153 1882 153 
L 1882 -13 
C 2035 0 2317 0 2483 0 
C 2650 0 2938 0 3091 -13 
L 3091 153 
C 2682 153 2656 178 2656 428 
L 2656 1658 
C 2656 2247 3014 2688 3462 2688 
C 3936 2688 3987 2266 3987 1958 
L 3987 428 
C 3987 184 3962 153 3552 153 
L 3552 -13 
C 3706 0 3987 0 4154 0 
C 4320 0 4608 0 4762 -13 
L 4762 153 
C 4352 153 4326 178 4326 428 
L 4326 1933 
z
" transform="scale(0.015625)"/>
      <path id="CMR17-65" d="M 2438 1472 
C 2464 1498 2464 1511 2464 1576 
C 2464 2238 2118 2816 1389 2816 
C 710 2816 173 2169 173 1383 
C 173 551 781 -64 1459 -64 
C 2176 -64 2458 607 2458 740 
C 2458 784 2419 784 2406 784 
C 2362 784 2355 771 2330 696 
C 2189 265 1837 51 1504 51 
C 1229 51 954 203 781 480 
C 582 803 582 1176 582 1472 
L 2438 1472 
z
M 589 1568 
C 634 2505 1126 2714 1382 2714 
C 1818 2714 2112 2297 2118 1568 
L 589 1568 
z
" transform="scale(0.015625)"/>
      <path id="CMR17-77" d="M 3725 2183 
C 3853 2560 4109 2560 4205 2560 
L 4205 2732 
C 4077 2732 3949 2732 3821 2732 
C 3699 2732 3424 2732 3315 2738 
L 3315 2560 
C 3514 2560 3622 2445 3622 2286 
C 3622 2241 3610 2184 3597 2140 
L 2995 407 
L 2342 2275 
C 2330 2319 2310 2370 2310 2395 
C 2310 2560 2528 2560 2630 2560 
L 2630 2738 
C 2483 2732 2214 2732 2061 2732 
C 1901 2732 1734 2732 1587 2738 
L 1587 2560 
C 1939 2560 1939 2547 2074 2149 
L 1485 451 
L 851 2281 
C 819 2363 819 2376 819 2395 
C 819 2560 1037 2560 1139 2560 
L 1139 2738 
C 986 2732 717 2732 557 2732 
C 416 2732 198 2732 64 2738 
L 64 2560 
C 346 2560 416 2541 486 2331 
L 1274 49 
C 1299 -33 1318 -52 1370 -52 
C 1414 -52 1440 -39 1472 56 
L 2131 1980 
L 2797 56 
C 2829 -39 2854 -52 2899 -52 
C 2950 -52 2970 -33 2995 50 
L 3725 2183 
z
" transform="scale(0.015625)"/>
      <path id="CMR17-68" d="M 2656 1933 
C 2656 2259 2592 2790 1837 2790 
C 1312 2790 1056 2368 979 2157 
L 973 2157 
L 973 4396 
L 211 4326 
L 211 4160 
C 589 4160 646 4122 646 3817 
L 646 426 
C 646 184 621 153 211 153 
L 211 -13 
C 365 0 646 0 813 0 
C 979 0 1267 0 1421 -13 
L 1421 153 
C 1011 153 986 178 986 428 
L 986 1658 
C 986 2247 1344 2688 1792 2688 
C 2266 2688 2317 2266 2317 1958 
L 2317 428 
C 2317 184 2291 153 1882 153 
L 1882 -13 
C 2035 0 2317 0 2483 0 
C 2650 0 2938 0 3091 -13 
L 3091 153 
C 2682 153 2656 178 2656 428 
L 2656 1933 
z
" transform="scale(0.015625)"/>
      <path id="CMMI12-b" d="M 2963 1616 
C 2963 2235 2611 2815 1933 2815 
C 1094 2815 256 1902 256 996 
C 256 441 602 -64 1254 -64 
C 1651 -64 2125 89 2579 472 
C 2669 115 2867 -64 3142 -64 
C 3488 -64 3661 294 3661 377 
C 3661 434 3616 434 3597 434 
C 3546 434 3539 415 3520 364 
C 3462 204 3315 64 3162 64 
C 2963 64 2963 472 2963 862 
C 3616 1641 3770 2446 3770 2452 
C 3770 2510 3718 2510 3699 2510 
C 3642 2510 3635 2491 3610 2376 
C 3526 2095 3360 1597 2963 1073 
L 2963 1616 
z
M 2560 626 
C 1997 121 1491 64 1267 64 
C 813 64 685 466 685 766 
C 685 1040 826 1692 1024 2044 
C 1286 2491 1645 2688 1933 2688 
C 2554 2688 2554 1877 2554 1341 
C 2554 1182 2547 1016 2547 856 
C 2547 728 2554 696 2560 626 
z
" transform="scale(0.015625)"/>
      <path id="CMR17-3d" d="M 4115 2017 
C 4211 2017 4307 2017 4307 2125 
C 4307 2240 4198 2240 4090 2240 
L 512 2240 
C 403 2240 294 2240 294 2125 
C 294 2017 390 2017 486 2017 
L 4115 2017 
z
M 4090 896 
C 4198 896 4307 896 4307 1011 
C 4307 1119 4211 1119 4115 1119 
L 486 1119 
C 390 1119 294 1119 294 1011 
C 294 896 403 896 512 896 
L 4090 896 
z
" transform="scale(0.015625)"/>
      <path id="CMR17-31" d="M 1702 4058 
C 1702 4192 1696 4192 1606 4192 
C 1357 3916 979 3827 621 3827 
C 602 3827 570 3827 563 3808 
C 557 3795 557 3782 557 3648 
C 755 3648 1088 3686 1344 3839 
L 1344 461 
C 1344 236 1331 160 781 160 
L 589 160 
L 589 0 
C 896 0 1216 0 1523 0 
C 1830 0 2150 0 2458 0 
L 2458 160 
L 2266 160 
C 1715 160 1702 230 1702 458 
L 1702 4058 
z
" transform="scale(0.015625)"/>
      <path id="CMMI12-3a" d="M 1178 307 
C 1178 492 1024 619 870 619 
C 685 619 557 466 557 313 
C 557 128 710 0 864 0 
C 1050 0 1178 153 1178 307 
z
" transform="scale(0.015625)"/>
      <path id="CMMI12-3b" d="M 1248 -31 
C 1248 343 1126 619 864 619 
C 659 619 557 453 557 313 
C 557 172 653 0 870 0 
C 954 0 1024 26 1082 83 
C 1094 96 1101 96 1107 96 
C 1120 96 1120 5 1120 -27 
C 1120 -240 1082 -659 710 -1080 
C 640 -1157 640 -1170 640 -1183 
C 640 -1216 672 -1248 704 -1248 
C 755 -1248 1248 -771 1248 -31 
z
" transform="scale(0.015625)"/>
      <path id="CMMI12-c" d="M 3622 3701 
C 3622 4081 3296 4480 2714 4480 
C 1888 4480 1363 3477 1197 2816 
L 186 -1172 
C 173 -1223 211 -1236 243 -1236 
C 288 -1236 320 -1230 326 -1198 
L 774 586 
C 838 229 1190 -64 1568 -64 
C 2483 -64 3347 650 3347 1599 
C 3347 1841 3290 2083 3155 2287 
C 3078 2408 2982 2497 2880 2574 
C 3341 2815 3622 3200 3622 3701 
z
M 2509 2580 
C 2406 2542 2304 2529 2182 2529 
C 2093 2529 2010 2523 1894 2561 
C 1958 2606 2054 2618 2189 2618 
C 2304 2618 2419 2606 2509 2580 
z
M 3290 3758 
C 3290 3410 3117 2903 2701 2669 
C 2579 2718 2413 2752 2272 2752 
C 2138 2752 1754 2752 1754 2555 
C 1754 2389 2106 2389 2214 2389 
C 2381 2389 2528 2432 2682 2484 
C 2886 2318 2976 2101 2976 1783 
C 2976 1413 2874 1115 2752 841 
C 2541 369 2042 64 1600 64 
C 1133 64 890 432 890 864 
C 890 922 890 1005 915 1099 
L 1331 2771 
C 1542 3603 2080 4353 2701 4353 
C 3162 4353 3290 4036 3290 3758 
z
" transform="scale(0.015625)"/>
      <path id="CMR17-34" d="M 2150 4122 
C 2150 4256 2144 4256 2029 4256 
L 128 1254 
L 128 1088 
L 1779 1088 
L 1779 457 
C 1779 224 1766 160 1318 160 
L 1197 160 
L 1197 0 
C 1402 0 1747 0 1965 0 
C 2182 0 2528 0 2733 0 
L 2733 160 
L 2611 160 
C 2163 160 2150 224 2150 457 
L 2150 1088 
L 2803 1088 
L 2803 1254 
L 2150 1254 
L 2150 4122 
z
M 1798 3703 
L 1798 1254 
L 256 1254 
L 1798 3703 
z
" transform="scale(0.015625)"/>
      <path id="CMMI12-d" d="M 2419 760 
C 2406 1071 2394 1561 2150 2133 
C 2022 2452 1805 2788 1338 2788 
C 550 2788 122 1790 122 1625 
C 122 1567 166 1567 186 1567 
C 243 1567 243 1580 275 1663 
C 410 2057 819 2368 1261 2368 
C 2150 2368 2278 1383 2278 754 
C 2278 352 2234 220 2195 92 
C 2074 -302 1862 -1090 1862 -1268 
C 1862 -1319 1882 -1376 1933 -1376 
C 2029 -1376 2086 -1166 2157 -912 
C 2310 -353 2349 -73 2381 181 
C 2400 334 2765 1384 3270 2382 
C 3315 2483 3405 2655 3405 2674 
C 3405 2680 3398 2725 3341 2725 
C 3328 2725 3296 2725 3283 2699 
C 3270 2687 3046 2254 2854 1822 
C 2758 1606 2630 1320 2419 760 
z
" transform="scale(0.015625)"/>
      <path id="CMMI12-e" d="M 1664 2795 
C 845 2597 256 1748 256 1001 
C 256 319 717 -64 1229 -64 
C 1984 -64 2496 970 2496 1818 
C 2496 2392 2227 2744 2067 2954 
C 1830 3254 1446 3746 1446 4052 
C 1446 4161 1530 4352 1811 4352 
C 2010 4352 2131 4282 2323 4173 
C 2381 4134 2528 4052 2611 4052 
C 2746 4052 2842 4185 2842 4287 
C 2842 4409 2746 4428 2522 4479 
C 2221 4543 2131 4543 2022 4543 
C 1914 4543 1286 4543 1286 3892 
C 1286 3579 1446 3216 1664 2795 
z
M 1734 2669 
C 1978 2165 2074 1974 2074 1560 
C 2074 1063 1805 63 1235 63 
C 986 63 627 229 627 821 
C 627 1235 864 2439 1734 2669 
z
" transform="scale(0.015625)"/>
     </defs>
     <use xlink:href="#CMR17-50" transform="scale(0.996264)"/>
     <use xlink:href="#CMR17-6f" transform="translate(59.983847 0) scale(0.996264)"/>
     <use xlink:href="#CMR17-73" transform="translate(105.674324 0) scale(0.996264)"/>
     <use xlink:href="#CMR17-69" transform="translate(141.475661 0) scale(0.996264)"/>
     <use xlink:href="#CMR17-74" transform="translate(166.34672 0) scale(0.996264)"/>
     <use xlink:href="#CMR17-69" transform="translate(201.627488 0) scale(0.996264)"/>
     <use xlink:href="#CMR17-6f" transform="translate(226.498546 0) scale(0.996264)"/>
     <use xlink:href="#CMR17-6e" transform="translate(272.189023 0) scale(0.996264)"/>
     <use xlink:href="#CMR17-76" transform="translate(353.160359 0) scale(0.996264)"/>
     <use xlink:href="#CMR17-73" transform="translate(401.453275 0) scale(0.996264)"/>
     <use xlink:href="#CMR17-2e" transform="translate(437.254613 0) scale(0.996264)"/>
     <use xlink:href="#CMR17-54" transform="translate(502.611332 0) scale(0.996264)"/>
     <use xlink:href="#CMR17-69" transform="translate(569.121212 0) scale(0.996264)"/>
     <use xlink:href="#CMR17-6d" transform="translate(593.992271 0) scale(0.996264)"/>
     <use xlink:href="#CMR17-65" transform="translate(670.911861 0) scale(0.996264)"/>
     <use xlink:href="#CMR17-77" transform="translate(741.473487 0) scale(0.996264)"/>
     <use xlink:href="#CMR17-69" transform="translate(807.983368 0) scale(0.996264)"/>
     <use xlink:href="#CMR17-74" transform="translate(832.854427 0) scale(0.996264)"/>
     <use xlink:href="#CMR17-68" transform="translate(868.135194 0) scale(0.996264)"/>
     <use xlink:href="#CMMI12-b" transform="translate(949.10653 0) scale(0.996264)"/>
     <use xlink:href="#CMR17-3d" transform="translate(1039.461562 0) scale(0.996264)"/>
     <use xlink:href="#CMR17-31" transform="translate(1138.850359 0) scale(0.996264)"/>
     <use xlink:href="#CMMI12-3a" transform="translate(1184.540836 0) scale(0.996264)"/>
     <use xlink:href="#CMR17-30" transform="translate(1211.638013 0) scale(0.996264)"/>
     <use xlink:href="#CMMI12-3b" transform="translate(1257.32849 0) scale(0.996264)"/>
     <use xlink:href="#CMMI12-c" transform="translate(1301.030073 0) scale(0.996264)"/>
     <use xlink:href="#CMR17-3d" transform="translate(1389.298097 0) scale(0.996264)"/>
     <use xlink:href="#CMR17-30" transform="translate(1488.686894 0) scale(0.996264)"/>
     <use xlink:href="#CMMI12-3a" transform="translate(1534.377371 0) scale(0.996264)"/>
     <use xlink:href="#CMR17-34" transform="translate(1561.474549 0) scale(0.996264)"/>
     <use xlink:href="#CMMI12-3b" transform="translate(1607.165026 0) scale(0.996264)"/>
     <use xlink:href="#CMMI12-d" transform="translate(1650.866608 0) scale(0.996264)"/>
     <use xlink:href="#CMR17-3d" transform="translate(1734.559185 0) scale(0.996264)"/>
     <use xlink:href="#CMR17-30" transform="translate(1833.947982 0) scale(0.996264)"/>
     <use xlink:href="#CMMI12-3a" transform="translate(1879.638459 0) scale(0.996264)"/>
     <use xlink:href="#CMR17-31" transform="translate(1906.735636 0) scale(0.996264)"/>
     <use xlink:href="#CMMI12-3b" transform="translate(1952.426113 0) scale(0.996264)"/>
     <use xlink:href="#CMMI12-e" transform="translate(1996.127696 0) scale(0.996264)"/>
     <use xlink:href="#CMR17-3d" transform="translate(2070.74309 0) scale(0.996264)"/>
     <use xlink:href="#CMR17-30" transform="translate(2170.131888 0) scale(0.996264)"/>
     <use xlink:href="#CMMI12-3a" transform="translate(2215.822365 0) scale(0.996264)"/>
     <use xlink:href="#CMR17-31" transform="translate(2242.919542 0) scale(0.996264)"/>
    </g>
   </g>
  </g>
  <g id="axes_2">
   <g id="patch_7">
    <path d="M 75.175501 223.585629 
L 688.905815 223.585629 
L 688.905815 150.410328 
L 75.175501 150.410328 
z
" style="fill: #ffffff"/>
   </g>
   <g id="matplotlib.axis_3">
    <g id="xtick_22">
     <g id="line2d_58">
      <g>
       <use xlink:href="#mb1c9a07f9f" x="75.788007" y="223.585629" style="stroke: #000000; stroke-width: 0.5"/>
      </g>
     </g>
     <g id="line2d_59">
      <g>
       <use xlink:href="#md7093a7b78" x="75.788007" y="150.410328" style="stroke: #000000; stroke-width: 0.5"/>
      </g>
     </g>
    </g>
    <g id="xtick_23">
     <g id="line2d_60">
      <g>
       <use xlink:href="#mb1c9a07f9f" x="198.289067" y="223.585629" style="stroke: #000000; stroke-width: 0.5"/>
      </g>
     </g>
     <g id="line2d_61">
      <g>
       <use xlink:href="#md7093a7b78" x="198.289067" y="150.410328" style="stroke: #000000; stroke-width: 0.5"/>
      </g>
     </g>
    </g>
    <g id="xtick_24">
     <g id="line2d_62">
      <g>
       <use xlink:href="#mb1c9a07f9f" x="320.790128" y="223.585629" style="stroke: #000000; stroke-width: 0.5"/>
      </g>
     </g>
     <g id="line2d_63">
      <g>
       <use xlink:href="#md7093a7b78" x="320.790128" y="150.410328" style="stroke: #000000; stroke-width: 0.5"/>
      </g>
     </g>
    </g>
    <g id="xtick_25">
     <g id="line2d_64">
      <g>
       <use xlink:href="#mb1c9a07f9f" x="443.291188" y="223.585629" style="stroke: #000000; stroke-width: 0.5"/>
      </g>
     </g>
     <g id="line2d_65">
      <g>
       <use xlink:href="#md7093a7b78" x="443.291188" y="150.410328" style="stroke: #000000; stroke-width: 0.5"/>
      </g>
     </g>
    </g>
    <g id="xtick_26">
     <g id="line2d_66">
      <g>
       <use xlink:href="#mb1c9a07f9f" x="565.792249" y="223.585629" style="stroke: #000000; stroke-width: 0.5"/>
      </g>
     </g>
     <g id="line2d_67">
      <g>
       <use xlink:href="#md7093a7b78" x="565.792249" y="150.410328" style="stroke: #000000; stroke-width: 0.5"/>
      </g>
     </g>
    </g>
    <g id="xtick_27">
     <g id="line2d_68">
      <g>
       <use xlink:href="#mb1c9a07f9f" x="688.293309" y="223.585629" style="stroke: #000000; stroke-width: 0.5"/>
      </g>
     </g>
     <g id="line2d_69">
      <g>
       <use xlink:href="#md7093a7b78" x="688.293309" y="150.410328" style="stroke: #000000; stroke-width: 0.5"/>
      </g>
     </g>
    </g>
    <g id="xtick_28">
     <g id="line2d_70">
      <g>
       <use xlink:href="#mb290a65edb" x="106.413272" y="223.585629" style="stroke: #000000; stroke-width: 0.5"/>
      </g>
     </g>
     <g id="line2d_71">
      <g>
       <use xlink:href="#md850935256" x="106.413272" y="150.410328" style="stroke: #000000; stroke-width: 0.5"/>
      </g>
     </g>
    </g>
    <g id="xtick_29">
     <g id="line2d_72">
      <g>
       <use xlink:href="#mb290a65edb" x="137.038537" y="223.585629" style="stroke: #000000; stroke-width: 0.5"/>
      </g>
     </g>
     <g id="line2d_73">
      <g>
       <use xlink:href="#md850935256" x="137.038537" y="150.410328" style="stroke: #000000; stroke-width: 0.5"/>
      </g>
     </g>
    </g>
    <g id="xtick_30">
     <g id="line2d_74">
      <g>
       <use xlink:href="#mb290a65edb" x="167.663802" y="223.585629" style="stroke: #000000; stroke-width: 0.5"/>
      </g>
     </g>
     <g id="line2d_75">
      <g>
       <use xlink:href="#md850935256" x="167.663802" y="150.410328" style="stroke: #000000; stroke-width: 0.5"/>
      </g>
     </g>
    </g>
    <g id="xtick_31">
     <g id="line2d_76">
      <g>
       <use xlink:href="#mb290a65edb" x="228.914332" y="223.585629" style="stroke: #000000; stroke-width: 0.5"/>
      </g>
     </g>
     <g id="line2d_77">
      <g>
       <use xlink:href="#md850935256" x="228.914332" y="150.410328" style="stroke: #000000; stroke-width: 0.5"/>
      </g>
     </g>
    </g>
    <g id="xtick_32">
     <g id="line2d_78">
      <g>
       <use xlink:href="#mb290a65edb" x="259.539597" y="223.585629" style="stroke: #000000; stroke-width: 0.5"/>
      </g>
     </g>
     <g id="line2d_79">
      <g>
       <use xlink:href="#md850935256" x="259.539597" y="150.410328" style="stroke: #000000; stroke-width: 0.5"/>
      </g>
     </g>
    </g>
    <g id="xtick_33">
     <g id="line2d_80">
      <g>
       <use xlink:href="#mb290a65edb" x="290.164862" y="223.585629" style="stroke: #000000; stroke-width: 0.5"/>
      </g>
     </g>
     <g id="line2d_81">
      <g>
       <use xlink:href="#md850935256" x="290.164862" y="150.410328" style="stroke: #000000; stroke-width: 0.5"/>
      </g>
     </g>
    </g>
    <g id="xtick_34">
     <g id="line2d_82">
      <g>
       <use xlink:href="#mb290a65edb" x="351.415393" y="223.585629" style="stroke: #000000; stroke-width: 0.5"/>
      </g>
     </g>
     <g id="line2d_83">
      <g>
       <use xlink:href="#md850935256" x="351.415393" y="150.410328" style="stroke: #000000; stroke-width: 0.5"/>
      </g>
     </g>
    </g>
    <g id="xtick_35">
     <g id="line2d_84">
      <g>
       <use xlink:href="#mb290a65edb" x="382.040658" y="223.585629" style="stroke: #000000; stroke-width: 0.5"/>
      </g>
     </g>
     <g id="line2d_85">
      <g>
       <use xlink:href="#md850935256" x="382.040658" y="150.410328" style="stroke: #000000; stroke-width: 0.5"/>
      </g>
     </g>
    </g>
    <g id="xtick_36">
     <g id="line2d_86">
      <g>
       <use xlink:href="#mb290a65edb" x="412.665923" y="223.585629" style="stroke: #000000; stroke-width: 0.5"/>
      </g>
     </g>
     <g id="line2d_87">
      <g>
       <use xlink:href="#md850935256" x="412.665923" y="150.410328" style="stroke: #000000; stroke-width: 0.5"/>
      </g>
     </g>
    </g>
    <g id="xtick_37">
     <g id="line2d_88">
      <g>
       <use xlink:href="#mb290a65edb" x="473.916453" y="223.585629" style="stroke: #000000; stroke-width: 0.5"/>
      </g>
     </g>
     <g id="line2d_89">
      <g>
       <use xlink:href="#md850935256" x="473.916453" y="150.410328" style="stroke: #000000; stroke-width: 0.5"/>
      </g>
     </g>
    </g>
    <g id="xtick_38">
     <g id="line2d_90">
      <g>
       <use xlink:href="#mb290a65edb" x="504.541718" y="223.585629" style="stroke: #000000; stroke-width: 0.5"/>
      </g>
     </g>
     <g id="line2d_91">
      <g>
       <use xlink:href="#md850935256" x="504.541718" y="150.410328" style="stroke: #000000; stroke-width: 0.5"/>
      </g>
     </g>
    </g>
    <g id="xtick_39">
     <g id="line2d_92">
      <g>
       <use xlink:href="#mb290a65edb" x="535.166984" y="223.585629" style="stroke: #000000; stroke-width: 0.5"/>
      </g>
     </g>
     <g id="line2d_93">
      <g>
       <use xlink:href="#md850935256" x="535.166984" y="150.410328" style="stroke: #000000; stroke-width: 0.5"/>
      </g>
     </g>
    </g>
    <g id="xtick_40">
     <g id="line2d_94">
      <g>
       <use xlink:href="#mb290a65edb" x="596.417514" y="223.585629" style="stroke: #000000; stroke-width: 0.5"/>
      </g>
     </g>
     <g id="line2d_95">
      <g>
       <use xlink:href="#md850935256" x="596.417514" y="150.410328" style="stroke: #000000; stroke-width: 0.5"/>
      </g>
     </g>
    </g>
    <g id="xtick_41">
     <g id="line2d_96">
      <g>
       <use xlink:href="#mb290a65edb" x="627.042779" y="223.585629" style="stroke: #000000; stroke-width: 0.5"/>
      </g>
     </g>
     <g id="line2d_97">
      <g>
       <use xlink:href="#md850935256" x="627.042779" y="150.410328" style="stroke: #000000; stroke-width: 0.5"/>
      </g>
     </g>
    </g>
    <g id="xtick_42">
     <g id="line2d_98">
      <g>
       <use xlink:href="#mb290a65edb" x="657.668044" y="223.585629" style="stroke: #000000; stroke-width: 0.5"/>
      </g>
     </g>
     <g id="line2d_99">
      <g>
       <use xlink:href="#md850935256" x="657.668044" y="150.410328" style="stroke: #000000; stroke-width: 0.5"/>
      </g>
     </g>
    </g>
   </g>
   <g id="matplotlib.axis_4">
    <g id="ytick_8">
     <g id="line2d_100">
      <g>
       <use xlink:href="#m4c3455a5a6" x="75.175501" y="216.367358" style="stroke: #000000; stroke-width: 0.5"/>
      </g>
     </g>
     <g id="line2d_101">
      <g>
       <use xlink:href="#m47b032e95d" x="688.905815" y="216.367358" style="stroke: #000000; stroke-width: 0.5"/>
      </g>
     </g>
     <g id="text_5">
      <!-- $\mathdefault{0}$ -->
      <g transform="translate(63.90812 222.248084) scale(0.17 -0.17)">
       <use xlink:href="#CMR17-30" transform="scale(0.996264)"/>
      </g>
     </g>
    </g>
    <g id="ytick_9">
     <g id="line2d_102">
      <g>
       <use xlink:href="#m4c3455a5a6" x="75.175501" y="177.446192" style="stroke: #000000; stroke-width: 0.5"/>
      </g>
     </g>
     <g id="line2d_103">
      <g>
       <use xlink:href="#m47b032e95d" x="688.905815" y="177.446192" style="stroke: #000000; stroke-width: 0.5"/>
      </g>
     </g>
     <g id="text_6">
      <!-- $\mathdefault{1}$ -->
      <g transform="translate(63.90812 183.326918) scale(0.17 -0.17)">
       <use xlink:href="#CMR17-31" transform="scale(0.996264)"/>
      </g>
     </g>
    </g>
    <g id="ytick_10">
     <g id="line2d_104">
      <g>
       <use xlink:href="#m09e4130016" x="75.175501" y="208.583125" style="stroke: #000000; stroke-width: 0.5"/>
      </g>
     </g>
     <g id="line2d_105">
      <g>
       <use xlink:href="#mda3f501097" x="688.905815" y="208.583125" style="stroke: #000000; stroke-width: 0.5"/>
      </g>
     </g>
    </g>
    <g id="ytick_11">
     <g id="line2d_106">
      <g>
       <use xlink:href="#m09e4130016" x="75.175501" y="200.798892" style="stroke: #000000; stroke-width: 0.5"/>
      </g>
     </g>
     <g id="line2d_107">
      <g>
       <use xlink:href="#mda3f501097" x="688.905815" y="200.798892" style="stroke: #000000; stroke-width: 0.5"/>
      </g>
     </g>
    </g>
    <g id="ytick_12">
     <g id="line2d_108">
      <g>
       <use xlink:href="#m09e4130016" x="75.175501" y="193.014659" style="stroke: #000000; stroke-width: 0.5"/>
      </g>
     </g>
     <g id="line2d_109">
      <g>
       <use xlink:href="#mda3f501097" x="688.905815" y="193.014659" style="stroke: #000000; stroke-width: 0.5"/>
      </g>
     </g>
    </g>
    <g id="ytick_13">
     <g id="line2d_110">
      <g>
       <use xlink:href="#m09e4130016" x="75.175501" y="185.230426" style="stroke: #000000; stroke-width: 0.5"/>
      </g>
     </g>
     <g id="line2d_111">
      <g>
       <use xlink:href="#mda3f501097" x="688.905815" y="185.230426" style="stroke: #000000; stroke-width: 0.5"/>
      </g>
     </g>
    </g>
    <g id="ytick_14">
     <g id="line2d_112">
      <g>
       <use xlink:href="#m09e4130016" x="75.175501" y="169.661959" style="stroke: #000000; stroke-width: 0.5"/>
      </g>
     </g>
     <g id="line2d_113">
      <g>
       <use xlink:href="#mda3f501097" x="688.905815" y="169.661959" style="stroke: #000000; stroke-width: 0.5"/>
      </g>
     </g>
    </g>
    <g id="ytick_15">
     <g id="line2d_114">
      <g>
       <use xlink:href="#m09e4130016" x="75.175501" y="161.877726" style="stroke: #000000; stroke-width: 0.5"/>
      </g>
     </g>
     <g id="line2d_115">
      <g>
       <use xlink:href="#mda3f501097" x="688.905815" y="161.877726" style="stroke: #000000; stroke-width: 0.5"/>
      </g>
     </g>
    </g>
    <g id="ytick_16">
     <g id="line2d_116">
      <g>
       <use xlink:href="#m09e4130016" x="75.175501" y="154.093493" style="stroke: #000000; stroke-width: 0.5"/>
      </g>
     </g>
     <g id="line2d_117">
      <g>
       <use xlink:href="#mda3f501097" x="688.905815" y="154.093493" style="stroke: #000000; stroke-width: 0.5"/>
      </g>
     </g>
    </g>
    <g id="text_7">
     <!-- $\dot{q}(t)$ -->
     <g transform="translate(33.172861 182.529795) scale(0.18 -0.18)">
      <defs>
       <path id="CMR17-5f" d="M 1056 3909 
C 1056 4062 934 4170 800 4170 
C 646 4170 538 4049 538 3909 
C 538 3756 659 3648 794 3648 
C 947 3648 1056 3769 1056 3909 
z
" transform="scale(0.015625)"/>
      </defs>
      <use xlink:href="#CMR17-5f" transform="translate(19.106786 0.006461) scale(0.996264)"/>
      <use xlink:href="#CMMI12-71" transform="scale(0.996264)"/>
      <use xlink:href="#CMR17-28" transform="translate(46.826324 0) scale(0.996264)"/>
      <use xlink:href="#CMMI12-74" transform="translate(82.107092 0) scale(0.996264)"/>
      <use xlink:href="#CMR17-29" transform="translate(117.333422 0) scale(0.996264)"/>
     </g>
    </g>
   </g>
   <g id="line2d_118">
    <path d="M 75.788007 217.145781 
L 77.627362 216.236544 
L 79.466717 215.062145 
L 81.306072 213.547822 
L 82.532309 212.305586 
L 83.758546 210.839502 
L 84.984783 209.110783 
L 86.21102 207.079393 
L 87.437257 204.704102 
L 88.663493 201.942482 
L 89.88973 198.758343 
L 91.115967 195.116777 
L 92.955322 188.7391 
L 95.407796 178.929754 
L 97.86027 169.199969 
L 98.473388 167.316976 
L 99.086507 165.862914 
L 99.699625 164.932217 
L 100.312743 164.613043 
L 100.925862 164.98727 
L 101.53898 166.130501 
L 102.152099 168.11206 
L 102.765217 170.975298 
L 103.991454 178.758754 
L 107.057046 200.774951 
L 108.283283 207.171195 
L 109.50952 211.716734 
L 110.735757 214.773934 
L 111.961993 216.755963 
L 113.18823 218.019856 
L 114.414467 218.819429 
L 115.640704 219.32647 
L 117.480059 219.764182 
L 119.932533 220.037879 
L 123.611243 220.187285 
L 132.194901 220.252017 
L 207.608467 220.259464 
L 298.963112 220.153179 
L 306.933651 219.924878 
L 311.838599 219.590148 
L 315.517309 219.136966 
L 318.582901 218.519915 
L 321.035375 217.779884 
L 322.87473 217.026642 
L 324.714086 216.053332 
L 326.553441 214.788759 
L 327.779678 213.738339 
L 329.005914 212.484136 
L 330.232151 210.98905 
L 331.458388 209.211868 
L 332.684625 207.107266 
L 333.910862 204.62581 
L 335.137099 201.713951 
L 336.363336 198.315889 
L 337.589572 194.379845 
L 338.815809 189.851393 
L 340.655164 181.975199 
L 345.560112 159.499684 
L 346.17323 157.85613 
L 346.786349 156.915111 
L 347.399467 156.861973 
L 348.012586 157.880777 
L 348.625704 160.027855 
L 349.238822 163.261935 
L 349.851941 167.4766 
L 351.078178 178.096325 
L 352.917533 194.959288 
L 354.14377 203.789437 
L 355.370007 209.970702 
L 355.983125 212.208591 
L 356.596243 213.981999 
L 357.209362 215.37398 
L 357.82248 216.461047 
L 358.435599 217.305424 
L 359.661836 218.467817 
L 360.888072 219.164466 
L 362.114309 219.584038 
L 363.953664 219.925229 
L 366.406138 220.122568 
L 371.311086 220.233175 
L 389.09152 220.259178 
L 554.633493 220.155576 
L 563.217151 219.90636 
L 568.122099 219.562222 
L 571.800809 219.071377 
L 574.253283 218.556427 
L 576.705757 217.825659 
L 578.545112 217.080721 
L 580.384467 216.108569 
L 582.223822 214.836993 
L 583.450059 213.778313 
L 584.676296 212.51393 
L 585.902533 211.00779 
L 587.12877 209.22579 
L 588.355007 207.128344 
L 589.581243 204.630448 
L 590.80748 201.657963 
L 592.033717 198.152636 
L 593.259954 194.072105 
L 594.486191 189.389894 
L 596.325546 181.21962 
L 598.77802 168.613962 
L 600.617375 159.485482 
L 601.230493 157.029366 
L 601.843612 155.124975 
L 602.45673 153.961948 
L 603.069849 153.736479 
L 603.682967 154.635926 
L 604.296086 156.767656 
L 604.909204 160.147374 
L 605.522322 164.699133 
L 606.748559 176.296215 
L 608.587915 194.626006 
L 609.814151 203.858406 
L 610.42727 207.378211 
L 611.040388 210.229157 
L 611.653507 212.487478 
L 612.266625 214.255032 
L 612.879743 215.630221 
L 613.492862 216.692216 
L 614.10598 217.510023 
L 615.332217 218.619978 
L 616.558454 219.274302 
L 617.784691 219.660537 
L 619.624046 219.969903 
L 622.689638 220.167611 
L 628.820822 220.247396 
L 663.155454 220.259428 
L 688.293309 220.259464 
L 688.293309 220.259464 
" clip-path="url(#pbba03fd3d6)" style="fill: none; stroke: #ffa500; stroke-width: 1.5; stroke-linecap: square"/>
   </g>
   <g id="patch_8">
    <path d="M 75.175501 223.585629 
L 75.175501 150.410328 
" style="fill: none; stroke: #000000; stroke-width: 0.8; stroke-linejoin: miter; stroke-linecap: square"/>
   </g>
   <g id="patch_9">
    <path d="M 688.905815 223.585629 
L 688.905815 150.410328 
" style="fill: none; stroke: #000000; stroke-width: 0.8; stroke-linejoin: miter; stroke-linecap: square"/>
   </g>
   <g id="patch_10">
    <path d="M 75.175501 223.585629 
L 688.905815 223.585629 
" style="fill: none; stroke: #000000; stroke-width: 0.8; stroke-linejoin: miter; stroke-linecap: square"/>
   </g>
   <g id="patch_11">
    <path d="M 75.175501 150.410328 
L 688.905815 150.410328 
" style="fill: none; stroke: #000000; stroke-width: 0.8; stroke-linejoin: miter; stroke-linecap: square"/>
   </g>
   <g id="text_8">
    <!-- Velocity vs. Time with $\alpha = 1.0, \beta = 0.4, \gamma = 0.1, \delta = 0.1$ -->
    <g transform="translate(176.231608 144.410328) scale(0.18 -0.18)">
     <defs>
      <path id="CMR17-56" d="M 3776 3745 
C 3834 3886 3936 4160 4365 4160 
L 4365 4332 
C 4218 4319 4051 4319 3891 4319 
C 3738 4319 3475 4319 3328 4332 
L 3328 4160 
C 3648 4160 3661 3936 3661 3898 
C 3661 3827 3642 3783 3622 3732 
L 2362 446 
L 1043 3886 
C 1024 3931 1011 3963 1011 3994 
C 1011 4160 1267 4160 1402 4160 
L 1402 4319 
C 1197 4319 896 4319 685 4319 
C 518 4319 218 4319 64 4332 
L 64 4160 
C 435 4160 506 4135 582 3931 
L 2106 -26 
C 2138 -115 2144 -128 2214 -128 
C 2285 -128 2291 -115 2323 -26 
L 3776 3745 
z
" transform="scale(0.015625)"/>
      <path id="CMR17-6c" d="M 979 4396 
L 218 4326 
L 218 4160 
C 595 4160 653 4122 653 3817 
L 653 426 
C 653 184 627 153 218 153 
L 218 -13 
C 371 0 653 0 813 0 
C 979 0 1261 0 1414 -13 
L 1414 153 
C 1005 153 979 178 979 426 
L 979 4396 
z
" transform="scale(0.015625)"/>
      <path id="CMR17-63" d="M 2234 2240 
C 2112 2240 1933 2240 1933 2017 
C 1933 1838 2080 1787 2163 1787 
C 2208 1787 2394 1807 2394 2024 
C 2394 2467 1958 2803 1466 2803 
C 787 2803 211 2178 211 1363 
C 211 516 813 -64 1466 -64 
C 2259 -64 2458 677 2458 748 
C 2458 774 2451 793 2406 793 
C 2362 793 2355 787 2330 703 
C 2163 180 1798 51 1523 51 
C 1114 51 621 427 621 1369 
C 621 2338 1094 2688 1472 2688 
C 1722 2688 2093 2573 2234 2240 
z
" transform="scale(0.015625)"/>
      <path id="CMR17-79" d="M 2496 2197 
C 2656 2586 2944 2586 3034 2586 
L 3034 2752 
C 2912 2752 2752 2752 2630 2752 
C 2496 2752 2285 2752 2157 2758 
L 2157 2592 
C 2400 2573 2406 2394 2406 2343 
C 2406 2280 2394 2248 2362 2171 
L 1664 449 
L 902 2306 
C 870 2382 870 2426 870 2433 
C 870 2573 1018 2586 1171 2586 
L 1171 2758 
C 1018 2752 742 2752 582 2752 
C 410 2752 205 2752 64 2758 
L 64 2586 
C 410 2586 448 2554 531 2350 
L 1485 15 
C 1197 -738 1030 -1178 627 -1178 
C 557 -1178 397 -1159 282 -1044 
C 429 -1031 493 -942 493 -833 
C 493 -725 416 -629 288 -629 
C 147 -629 77 -725 77 -840 
C 77 -1095 339 -1280 627 -1280 
C 998 -1280 1229 -922 1357 -604 
L 2496 2197 
z
" transform="scale(0.015625)"/>
     </defs>
     <use xlink:href="#CMR17-56" transform="scale(0.996264)"/>
     <use xlink:href="#CMR17-65" transform="translate(61.265174 0) scale(0.996264)"/>
     <use xlink:href="#CMR17-6c" transform="translate(101.750835 0) scale(0.996264)"/>
     <use xlink:href="#CMR17-6f" transform="translate(126.621893 0) scale(0.996264)"/>
     <use xlink:href="#CMR17-63" transform="translate(174.914809 0) scale(0.996264)"/>
     <use xlink:href="#CMR17-69" transform="translate(215.40047 0) scale(0.996264)"/>
     <use xlink:href="#CMR17-74" transform="translate(240.271528 0) scale(0.996264)"/>
     <use xlink:href="#CMR17-79" transform="translate(272.949842 0) scale(0.996264)"/>
     <use xlink:href="#CMR17-76" transform="translate(351.318724 0) scale(0.996264)"/>
     <use xlink:href="#CMR17-73" transform="translate(399.61164 0) scale(0.996264)"/>
     <use xlink:href="#CMR17-2e" transform="translate(435.412978 0) scale(0.996264)"/>
     <use xlink:href="#CMR17-54" transform="translate(500.769697 0) scale(0.996264)"/>
     <use xlink:href="#CMR17-69" transform="translate(567.279577 0) scale(0.996264)"/>
     <use xlink:href="#CMR17-6d" transform="translate(592.150636 0) scale(0.996264)"/>
     <use xlink:href="#CMR17-65" transform="translate(669.070226 0) scale(0.996264)"/>
     <use xlink:href="#CMR17-77" transform="translate(739.631852 0) scale(0.996264)"/>
     <use xlink:href="#CMR17-69" transform="translate(806.141733 0) scale(0.996264)"/>
     <use xlink:href="#CMR17-74" transform="translate(831.012791 0) scale(0.996264)"/>
     <use xlink:href="#CMR17-68" transform="translate(866.293559 0) scale(0.996264)"/>
     <use xlink:href="#CMMI12-b" transform="translate(947.264895 0) scale(0.996264)"/>
     <use xlink:href="#CMR17-3d" transform="translate(1037.619927 0) scale(0.996264)"/>
     <use xlink:href="#CMR17-31" transform="translate(1137.008724 0) scale(0.996264)"/>
     <use xlink:href="#CMMI12-3a" transform="translate(1182.699201 0) scale(0.996264)"/>
     <use xlink:href="#CMR17-30" transform="translate(1209.796378 0) scale(0.996264)"/>
     <use xlink:href="#CMMI12-3b" transform="translate(1255.486855 0) scale(0.996264)"/>
     <use xlink:href="#CMMI12-c" transform="translate(1299.188438 0) scale(0.996264)"/>
     <use xlink:href="#CMR17-3d" transform="translate(1387.456462 0) scale(0.996264)"/>
     <use xlink:href="#CMR17-30" transform="translate(1486.845259 0) scale(0.996264)"/>
     <use xlink:href="#CMMI12-3a" transform="translate(1532.535736 0) scale(0.996264)"/>
     <use xlink:href="#CMR17-34" transform="translate(1559.632913 0) scale(0.996264)"/>
     <use xlink:href="#CMMI12-3b" transform="translate(1605.323391 0) scale(0.996264)"/>
     <use xlink:href="#CMMI12-d" transform="translate(1649.024973 0) scale(0.996264)"/>
     <use xlink:href="#CMR17-3d" transform="translate(1732.71755 0) scale(0.996264)"/>
     <use xlink:href="#CMR17-30" transform="translate(1832.106347 0) scale(0.996264)"/>
     <use xlink:href="#CMMI12-3a" transform="translate(1877.796824 0) scale(0.996264)"/>
     <use xlink:href="#CMR17-31" transform="translate(1904.894001 0) scale(0.996264)"/>
     <use xlink:href="#CMMI12-3b" transform="translate(1950.584478 0) scale(0.996264)"/>
     <use xlink:href="#CMMI12-e" transform="translate(1994.28606 0) scale(0.996264)"/>
     <use xlink:href="#CMR17-3d" transform="translate(2068.901455 0) scale(0.996264)"/>
     <use xlink:href="#CMR17-30" transform="translate(2168.290252 0) scale(0.996264)"/>
     <use xlink:href="#CMMI12-3a" transform="translate(2213.98073 0) scale(0.996264)"/>
     <use xlink:href="#CMR17-31" transform="translate(2241.077907 0) scale(0.996264)"/>
    </g>
   </g>
  </g>
  <g id="axes_3">
   <g id="patch_12">
    <path d="M 75.175501 335.542657 
L 688.905815 335.542657 
L 688.905815 262.367357 
L 75.175501 262.367357 
z
" style="fill: #ffffff"/>
   </g>
   <g id="matplotlib.axis_5">
    <g id="xtick_43">
     <g id="line2d_119">
      <g>
       <use xlink:href="#mb1c9a07f9f" x="75.788007" y="335.542657" style="stroke: #000000; stroke-width: 0.5"/>
      </g>
     </g>
     <g id="line2d_120">
      <g>
       <use xlink:href="#md7093a7b78" x="75.788007" y="262.367357" style="stroke: #000000; stroke-width: 0.5"/>
      </g>
     </g>
     <g id="text_9">
      <!-- $\mathdefault{0}$ -->
      <g transform="translate(71.904316 350.804109) scale(0.17 -0.17)">
       <use xlink:href="#CMR17-30" transform="scale(0.996264)"/>
      </g>
     </g>
    </g>
    <g id="xtick_44">
     <g id="line2d_121">
      <g>
       <use xlink:href="#mb1c9a07f9f" x="198.289067" y="335.542657" style="stroke: #000000; stroke-width: 0.5"/>
      </g>
     </g>
     <g id="line2d_122">
      <g>
       <use xlink:href="#md7093a7b78" x="198.289067" y="262.367357" style="stroke: #000000; stroke-width: 0.5"/>
      </g>
     </g>
     <g id="text_10">
      <!-- $\mathdefault{20}$ -->
      <g transform="translate(190.521686 350.804109) scale(0.17 -0.17)">
       <use xlink:href="#CMR17-32" transform="scale(0.996264)"/>
       <use xlink:href="#CMR17-30" transform="translate(45.690477 0) scale(0.996264)"/>
      </g>
     </g>
    </g>
    <g id="xtick_45">
     <g id="line2d_123">
      <g>
       <use xlink:href="#mb1c9a07f9f" x="320.790128" y="335.542657" style="stroke: #000000; stroke-width: 0.5"/>
      </g>
     </g>
     <g id="line2d_124">
      <g>
       <use xlink:href="#md7093a7b78" x="320.790128" y="262.367357" style="stroke: #000000; stroke-width: 0.5"/>
      </g>
     </g>
     <g id="text_11">
      <!-- $\mathdefault{40}$ -->
      <g transform="translate(313.022747 350.804109) scale(0.17 -0.17)">
       <use xlink:href="#CMR17-34" transform="scale(0.996264)"/>
       <use xlink:href="#CMR17-30" transform="translate(45.690477 0) scale(0.996264)"/>
      </g>
     </g>
    </g>
    <g id="xtick_46">
     <g id="line2d_125">
      <g>
       <use xlink:href="#mb1c9a07f9f" x="443.291188" y="335.542657" style="stroke: #000000; stroke-width: 0.5"/>
      </g>
     </g>
     <g id="line2d_126">
      <g>
       <use xlink:href="#md7093a7b78" x="443.291188" y="262.367357" style="stroke: #000000; stroke-width: 0.5"/>
      </g>
     </g>
     <g id="text_12">
      <!-- $\mathdefault{60}$ -->
      <g transform="translate(435.523807 350.804109) scale(0.17 -0.17)">
       <defs>
        <path id="CMR17-36" d="M 678 2176 
C 678 3690 1395 4032 1811 4032 
C 1946 4032 2272 4009 2400 3776 
C 2298 3776 2106 3776 2106 3553 
C 2106 3381 2246 3323 2336 3323 
C 2394 3323 2566 3348 2566 3560 
C 2566 3954 2246 4179 1805 4179 
C 1043 4179 243 3390 243 1984 
C 243 253 966 -128 1478 -128 
C 2099 -128 2688 427 2688 1283 
C 2688 2081 2170 2662 1517 2662 
C 1126 2662 838 2407 678 1960 
L 678 2176 
z
M 1478 25 
C 691 25 691 1200 691 1436 
C 691 1896 909 2560 1504 2560 
C 1613 2560 1926 2560 2138 2120 
C 2253 1870 2253 1609 2253 1289 
C 2253 944 2253 690 2118 434 
C 1978 171 1773 25 1478 25 
z
" transform="scale(0.015625)"/>
       </defs>
       <use xlink:href="#CMR17-36" transform="scale(0.996264)"/>
       <use xlink:href="#CMR17-30" transform="translate(45.690477 0) scale(0.996264)"/>
      </g>
     </g>
    </g>
    <g id="xtick_47">
     <g id="line2d_127">
      <g>
       <use xlink:href="#mb1c9a07f9f" x="565.792249" y="335.542657" style="stroke: #000000; stroke-width: 0.5"/>
      </g>
     </g>
     <g id="line2d_128">
      <g>
       <use xlink:href="#md7093a7b78" x="565.792249" y="262.367357" style="stroke: #000000; stroke-width: 0.5"/>
      </g>
     </g>
     <g id="text_13">
      <!-- $\mathdefault{80}$ -->
      <g transform="translate(558.024868 350.804109) scale(0.17 -0.17)">
       <defs>
        <path id="CMR17-38" d="M 1741 2264 
C 2144 2467 2554 2773 2554 3263 
C 2554 3841 1990 4179 1472 4179 
C 890 4179 378 3759 378 3180 
C 378 3021 416 2747 666 2505 
C 730 2442 998 2251 1171 2130 
C 883 1983 211 1634 211 934 
C 211 279 838 -128 1459 -128 
C 2144 -128 2720 362 2720 1010 
C 2720 1590 2330 1857 2074 2029 
L 1741 2264 
z
M 902 2822 
C 851 2854 595 3051 595 3351 
C 595 3739 998 4032 1459 4032 
C 1965 4032 2336 3676 2336 3262 
C 2336 2669 1670 2331 1638 2331 
C 1632 2331 1626 2331 1574 2370 
L 902 2822 
z
M 2080 1519 
C 2176 1449 2483 1240 2483 851 
C 2483 381 2010 25 1472 25 
C 890 25 448 438 448 940 
C 448 1443 838 1862 1280 2060 
L 2080 1519 
z
" transform="scale(0.015625)"/>
       </defs>
       <use xlink:href="#CMR17-38" transform="scale(0.996264)"/>
       <use xlink:href="#CMR17-30" transform="translate(45.690477 0) scale(0.996264)"/>
      </g>
     </g>
    </g>
    <g id="xtick_48">
     <g id="line2d_129">
      <g>
       <use xlink:href="#mb1c9a07f9f" x="688.293309" y="335.542657" style="stroke: #000000; stroke-width: 0.5"/>
      </g>
     </g>
     <g id="line2d_130">
      <g>
       <use xlink:href="#md7093a7b78" x="688.293309" y="262.367357" style="stroke: #000000; stroke-width: 0.5"/>
      </g>
     </g>
     <g id="text_14">
      <!-- $\mathdefault{100}$ -->
      <g transform="translate(676.642238 350.804109) scale(0.17 -0.17)">
       <use xlink:href="#CMR17-31" transform="scale(0.996264)"/>
       <use xlink:href="#CMR17-30" transform="translate(45.690477 0) scale(0.996264)"/>
       <use xlink:href="#CMR17-30" transform="translate(91.380954 0) scale(0.996264)"/>
      </g>
     </g>
    </g>
    <g id="xtick_49">
     <g id="line2d_131">
      <g>
       <use xlink:href="#mb290a65edb" x="106.413272" y="335.542657" style="stroke: #000000; stroke-width: 0.5"/>
      </g>
     </g>
     <g id="line2d_132">
      <g>
       <use xlink:href="#md850935256" x="106.413272" y="262.367357" style="stroke: #000000; stroke-width: 0.5"/>
      </g>
     </g>
    </g>
    <g id="xtick_50">
     <g id="line2d_133">
      <g>
       <use xlink:href="#mb290a65edb" x="137.038537" y="335.542657" style="stroke: #000000; stroke-width: 0.5"/>
      </g>
     </g>
     <g id="line2d_134">
      <g>
       <use xlink:href="#md850935256" x="137.038537" y="262.367357" style="stroke: #000000; stroke-width: 0.5"/>
      </g>
     </g>
    </g>
    <g id="xtick_51">
     <g id="line2d_135">
      <g>
       <use xlink:href="#mb290a65edb" x="167.663802" y="335.542657" style="stroke: #000000; stroke-width: 0.5"/>
      </g>
     </g>
     <g id="line2d_136">
      <g>
       <use xlink:href="#md850935256" x="167.663802" y="262.367357" style="stroke: #000000; stroke-width: 0.5"/>
      </g>
     </g>
    </g>
    <g id="xtick_52">
     <g id="line2d_137">
      <g>
       <use xlink:href="#mb290a65edb" x="228.914332" y="335.542657" style="stroke: #000000; stroke-width: 0.5"/>
      </g>
     </g>
     <g id="line2d_138">
      <g>
       <use xlink:href="#md850935256" x="228.914332" y="262.367357" style="stroke: #000000; stroke-width: 0.5"/>
      </g>
     </g>
    </g>
    <g id="xtick_53">
     <g id="line2d_139">
      <g>
       <use xlink:href="#mb290a65edb" x="259.539597" y="335.542657" style="stroke: #000000; stroke-width: 0.5"/>
      </g>
     </g>
     <g id="line2d_140">
      <g>
       <use xlink:href="#md850935256" x="259.539597" y="262.367357" style="stroke: #000000; stroke-width: 0.5"/>
      </g>
     </g>
    </g>
    <g id="xtick_54">
     <g id="line2d_141">
      <g>
       <use xlink:href="#mb290a65edb" x="290.164862" y="335.542657" style="stroke: #000000; stroke-width: 0.5"/>
      </g>
     </g>
     <g id="line2d_142">
      <g>
       <use xlink:href="#md850935256" x="290.164862" y="262.367357" style="stroke: #000000; stroke-width: 0.5"/>
      </g>
     </g>
    </g>
    <g id="xtick_55">
     <g id="line2d_143">
      <g>
       <use xlink:href="#mb290a65edb" x="351.415393" y="335.542657" style="stroke: #000000; stroke-width: 0.5"/>
      </g>
     </g>
     <g id="line2d_144">
      <g>
       <use xlink:href="#md850935256" x="351.415393" y="262.367357" style="stroke: #000000; stroke-width: 0.5"/>
      </g>
     </g>
    </g>
    <g id="xtick_56">
     <g id="line2d_145">
      <g>
       <use xlink:href="#mb290a65edb" x="382.040658" y="335.542657" style="stroke: #000000; stroke-width: 0.5"/>
      </g>
     </g>
     <g id="line2d_146">
      <g>
       <use xlink:href="#md850935256" x="382.040658" y="262.367357" style="stroke: #000000; stroke-width: 0.5"/>
      </g>
     </g>
    </g>
    <g id="xtick_57">
     <g id="line2d_147">
      <g>
       <use xlink:href="#mb290a65edb" x="412.665923" y="335.542657" style="stroke: #000000; stroke-width: 0.5"/>
      </g>
     </g>
     <g id="line2d_148">
      <g>
       <use xlink:href="#md850935256" x="412.665923" y="262.367357" style="stroke: #000000; stroke-width: 0.5"/>
      </g>
     </g>
    </g>
    <g id="xtick_58">
     <g id="line2d_149">
      <g>
       <use xlink:href="#mb290a65edb" x="473.916453" y="335.542657" style="stroke: #000000; stroke-width: 0.5"/>
      </g>
     </g>
     <g id="line2d_150">
      <g>
       <use xlink:href="#md850935256" x="473.916453" y="262.367357" style="stroke: #000000; stroke-width: 0.5"/>
      </g>
     </g>
    </g>
    <g id="xtick_59">
     <g id="line2d_151">
      <g>
       <use xlink:href="#mb290a65edb" x="504.541718" y="335.542657" style="stroke: #000000; stroke-width: 0.5"/>
      </g>
     </g>
     <g id="line2d_152">
      <g>
       <use xlink:href="#md850935256" x="504.541718" y="262.367357" style="stroke: #000000; stroke-width: 0.5"/>
      </g>
     </g>
    </g>
    <g id="xtick_60">
     <g id="line2d_153">
      <g>
       <use xlink:href="#mb290a65edb" x="535.166984" y="335.542657" style="stroke: #000000; stroke-width: 0.5"/>
      </g>
     </g>
     <g id="line2d_154">
      <g>
       <use xlink:href="#md850935256" x="535.166984" y="262.367357" style="stroke: #000000; stroke-width: 0.5"/>
      </g>
     </g>
    </g>
    <g id="xtick_61">
     <g id="line2d_155">
      <g>
       <use xlink:href="#mb290a65edb" x="596.417514" y="335.542657" style="stroke: #000000; stroke-width: 0.5"/>
      </g>
     </g>
     <g id="line2d_156">
      <g>
       <use xlink:href="#md850935256" x="596.417514" y="262.367357" style="stroke: #000000; stroke-width: 0.5"/>
      </g>
     </g>
    </g>
    <g id="xtick_62">
     <g id="line2d_157">
      <g>
       <use xlink:href="#mb290a65edb" x="627.042779" y="335.542657" style="stroke: #000000; stroke-width: 0.5"/>
      </g>
     </g>
     <g id="line2d_158">
      <g>
       <use xlink:href="#md850935256" x="627.042779" y="262.367357" style="stroke: #000000; stroke-width: 0.5"/>
      </g>
     </g>
    </g>
    <g id="xtick_63">
     <g id="line2d_159">
      <g>
       <use xlink:href="#mb290a65edb" x="657.668044" y="335.542657" style="stroke: #000000; stroke-width: 0.5"/>
      </g>
     </g>
     <g id="line2d_160">
      <g>
       <use xlink:href="#md850935256" x="657.668044" y="262.367357" style="stroke: #000000; stroke-width: 0.5"/>
      </g>
     </g>
    </g>
    <g id="text_15">
     <!-- Time ($t$) -->
     <g transform="translate(351.022173 371.531816) scale(0.18 -0.18)">
      <use xlink:href="#CMR17-54" transform="scale(0.996264)"/>
      <use xlink:href="#CMR17-69" transform="translate(66.509881 0) scale(0.996264)"/>
      <use xlink:href="#CMR17-6d" transform="translate(91.380939 0) scale(0.996264)"/>
      <use xlink:href="#CMR17-65" transform="translate(168.300529 0) scale(0.996264)"/>
      <use xlink:href="#CMR17-28" transform="translate(238.862156 0) scale(0.996264)"/>
      <use xlink:href="#CMMI12-74" transform="translate(274.142924 0) scale(0.996264)"/>
      <use xlink:href="#CMR17-29" transform="translate(309.369254 0) scale(0.996264)"/>
     </g>
    </g>
   </g>
   <g id="matplotlib.axis_6">
    <g id="ytick_17">
     <g id="line2d_161">
      <g>
       <use xlink:href="#m4c3455a5a6" x="75.175501" y="315.518311" style="stroke: #000000; stroke-width: 0.5"/>
      </g>
     </g>
     <g id="line2d_162">
      <g>
       <use xlink:href="#m47b032e95d" x="688.905815" y="315.518311" style="stroke: #000000; stroke-width: 0.5"/>
      </g>
     </g>
     <g id="text_16">
      <!-- $\mathdefault{1}$ -->
      <g transform="translate(50.735259 321.399037) scale(0.17 -0.17)">
       <defs>
        <path id="CMSY10-0" d="M 4218 1472 
C 4326 1472 4442 1472 4442 1600 
C 4442 1728 4326 1728 4218 1728 
L 755 1728 
C 646 1728 531 1728 531 1600 
C 531 1472 646 1472 755 1472 
L 4218 1472 
z
" transform="scale(0.015625)"/>
       </defs>
       <use xlink:href="#CMSY10-0" transform="scale(0.996264)"/>
       <use xlink:href="#CMR17-31" transform="translate(77.487468 0) scale(0.996264)"/>
      </g>
     </g>
    </g>
    <g id="ytick_18">
     <g id="line2d_163">
      <g>
       <use xlink:href="#m4c3455a5a6" x="75.175501" y="288.305869" style="stroke: #000000; stroke-width: 0.5"/>
      </g>
     </g>
     <g id="line2d_164">
      <g>
       <use xlink:href="#m47b032e95d" x="688.905815" y="288.305869" style="stroke: #000000; stroke-width: 0.5"/>
      </g>
     </g>
     <g id="text_17">
      <!-- $\mathdefault{0}$ -->
      <g transform="translate(63.90812 294.186595) scale(0.17 -0.17)">
       <use xlink:href="#CMR17-30" transform="scale(0.996264)"/>
      </g>
     </g>
    </g>
    <g id="ytick_19">
     <g id="line2d_165">
      <g>
       <use xlink:href="#m09e4130016" x="75.175501" y="331.845777" style="stroke: #000000; stroke-width: 0.5"/>
      </g>
     </g>
     <g id="line2d_166">
      <g>
       <use xlink:href="#mda3f501097" x="688.905815" y="331.845777" style="stroke: #000000; stroke-width: 0.5"/>
      </g>
     </g>
    </g>
    <g id="ytick_20">
     <g id="line2d_167">
      <g>
       <use xlink:href="#m09e4130016" x="75.175501" y="326.403289" style="stroke: #000000; stroke-width: 0.5"/>
      </g>
     </g>
     <g id="line2d_168">
      <g>
       <use xlink:href="#mda3f501097" x="688.905815" y="326.403289" style="stroke: #000000; stroke-width: 0.5"/>
      </g>
     </g>
    </g>
    <g id="ytick_21">
     <g id="line2d_169">
      <g>
       <use xlink:href="#m09e4130016" x="75.175501" y="320.9608" style="stroke: #000000; stroke-width: 0.5"/>
      </g>
     </g>
     <g id="line2d_170">
      <g>
       <use xlink:href="#mda3f501097" x="688.905815" y="320.9608" style="stroke: #000000; stroke-width: 0.5"/>
      </g>
     </g>
    </g>
    <g id="ytick_22">
     <g id="line2d_171">
      <g>
       <use xlink:href="#m09e4130016" x="75.175501" y="310.075823" style="stroke: #000000; stroke-width: 0.5"/>
      </g>
     </g>
     <g id="line2d_172">
      <g>
       <use xlink:href="#mda3f501097" x="688.905815" y="310.075823" style="stroke: #000000; stroke-width: 0.5"/>
      </g>
     </g>
    </g>
    <g id="ytick_23">
     <g id="line2d_173">
      <g>
       <use xlink:href="#m09e4130016" x="75.175501" y="304.633334" style="stroke: #000000; stroke-width: 0.5"/>
      </g>
     </g>
     <g id="line2d_174">
      <g>
       <use xlink:href="#mda3f501097" x="688.905815" y="304.633334" style="stroke: #000000; stroke-width: 0.5"/>
      </g>
     </g>
    </g>
    <g id="ytick_24">
     <g id="line2d_175">
      <g>
       <use xlink:href="#m09e4130016" x="75.175501" y="299.190846" style="stroke: #000000; stroke-width: 0.5"/>
      </g>
     </g>
     <g id="line2d_176">
      <g>
       <use xlink:href="#mda3f501097" x="688.905815" y="299.190846" style="stroke: #000000; stroke-width: 0.5"/>
      </g>
     </g>
    </g>
    <g id="ytick_25">
     <g id="line2d_177">
      <g>
       <use xlink:href="#m09e4130016" x="75.175501" y="293.748357" style="stroke: #000000; stroke-width: 0.5"/>
      </g>
     </g>
     <g id="line2d_178">
      <g>
       <use xlink:href="#mda3f501097" x="688.905815" y="293.748357" style="stroke: #000000; stroke-width: 0.5"/>
      </g>
     </g>
    </g>
    <g id="ytick_26">
     <g id="line2d_179">
      <g>
       <use xlink:href="#m09e4130016" x="75.175501" y="282.86338" style="stroke: #000000; stroke-width: 0.5"/>
      </g>
     </g>
     <g id="line2d_180">
      <g>
       <use xlink:href="#mda3f501097" x="688.905815" y="282.86338" style="stroke: #000000; stroke-width: 0.5"/>
      </g>
     </g>
    </g>
    <g id="ytick_27">
     <g id="line2d_181">
      <g>
       <use xlink:href="#m09e4130016" x="75.175501" y="277.420891" style="stroke: #000000; stroke-width: 0.5"/>
      </g>
     </g>
     <g id="line2d_182">
      <g>
       <use xlink:href="#mda3f501097" x="688.905815" y="277.420891" style="stroke: #000000; stroke-width: 0.5"/>
      </g>
     </g>
    </g>
    <g id="ytick_28">
     <g id="line2d_183">
      <g>
       <use xlink:href="#m09e4130016" x="75.175501" y="271.978403" style="stroke: #000000; stroke-width: 0.5"/>
      </g>
     </g>
     <g id="line2d_184">
      <g>
       <use xlink:href="#mda3f501097" x="688.905815" y="271.978403" style="stroke: #000000; stroke-width: 0.5"/>
      </g>
     </g>
    </g>
    <g id="ytick_29">
     <g id="line2d_185">
      <g>
       <use xlink:href="#m09e4130016" x="75.175501" y="266.535914" style="stroke: #000000; stroke-width: 0.5"/>
      </g>
     </g>
     <g id="line2d_186">
      <g>
       <use xlink:href="#mda3f501097" x="688.905815" y="266.535914" style="stroke: #000000; stroke-width: 0.5"/>
      </g>
     </g>
    </g>
    <g id="text_18">
     <!-- $\ddot{q}(t)$ -->
     <g transform="translate(20 294.486823) scale(0.18 -0.18)">
      <defs>
       <path id="CMR17-7f" d="M 1133 3961 
C 1133 4120 1005 4215 883 4215 
C 717 4215 627 4075 627 3967 
C 627 3840 730 3712 883 3712 
C 1018 3712 1133 3821 1133 3961 
z
M 2304 3961 
C 2304 4088 2202 4215 2048 4215 
C 1914 4215 1798 4107 1798 3967 
C 1798 3808 1926 3712 2048 3712 
C 2214 3712 2304 3852 2304 3961 
z
" transform="scale(0.015625)"/>
      </defs>
      <use xlink:href="#CMR17-7f" transform="translate(8.697077 0.006461) scale(0.996264)"/>
      <use xlink:href="#CMMI12-71" transform="scale(0.996264)"/>
      <use xlink:href="#CMR17-28" transform="translate(46.826324 0) scale(0.996264)"/>
      <use xlink:href="#CMMI12-74" transform="translate(82.107092 0) scale(0.996264)"/>
      <use xlink:href="#CMR17-29" transform="translate(117.333422 0) scale(0.996264)"/>
     </g>
    </g>
   </g>
   <g id="line2d_187">
    <path d="M 75.788007 286.449222 
L 78.24048 285.692357 
L 80.079835 284.93469 
L 81.919191 283.96882 
L 83.758546 282.749365 
L 85.597901 281.226004 
L 87.437257 279.36424 
L 89.276612 277.168264 
L 93.568441 271.646837 
L 94.181559 271.078684 
L 94.794678 270.680918 
L 95.407796 270.51528 
L 96.020914 270.653316 
L 96.634033 271.17265 
L 97.247151 272.192484 
L 97.86027 273.831719 
L 98.473388 276.193612 
L 99.086507 279.354322 
L 99.699625 283.346973 
L 100.925862 293.616665 
L 102.765217 311.096963 
L 103.378335 315.730213 
L 103.991454 319.026311 
L 104.604572 320.728772 
L 105.217691 320.79844 
L 105.830809 319.442504 
L 106.443928 317.047062 
L 107.670164 310.625441 
L 108.896401 304.140537 
L 110.122638 298.912248 
L 111.348875 295.173866 
L 112.575112 292.679486 
L 113.801349 291.07528 
L 115.027585 290.060009 
L 116.253822 289.423193 
L 117.480059 289.021794 
L 119.319414 288.680602 
L 121.771888 288.468697 
L 126.676835 288.340883 
L 142.617914 288.306544 
L 303.254941 288.189091 
L 311.22548 287.933653 
L 316.130428 287.55679 
L 319.19602 287.138321 
L 322.261612 286.482671 
L 324.714086 285.713818 
L 326.553441 284.937693 
L 328.392796 283.932753 
L 330.232151 282.63856 
L 332.071507 280.992014 
L 333.910862 278.93666 
L 335.750217 276.440916 
L 337.589572 273.545561 
L 340.655164 268.599136 
L 341.268283 267.851824 
L 341.881401 267.310754 
L 342.49452 267.059679 
L 343.107638 267.210202 
L 343.720757 267.897574 
L 344.333875 269.275941 
L 344.946993 271.510076 
L 345.560112 274.760086 
L 346.17323 279.155926 
L 346.786349 284.75829 
L 348.012586 299.139999 
L 349.238822 314.889964 
L 349.851941 321.544225 
L 350.465059 326.410337 
L 351.078178 328.971835 
L 351.691296 329.076641 
L 352.304414 327.064085 
L 352.917533 323.508367 
L 355.370007 305.715555 
L 356.596243 299.257802 
L 357.209362 296.880359 
L 357.82248 294.982753 
L 358.435599 293.488486 
L 359.048717 292.320857 
L 359.661836 291.413858 
L 360.888072 290.171611 
L 362.114309 289.431671 
L 363.340546 288.991816 
L 365.179901 288.638085 
L 367.632375 288.436888 
L 372.537322 288.329326 
L 392.157112 288.306095 
L 558.312204 288.199438 
L 566.282743 287.97602 
L 571.187691 287.634613 
L 574.866401 287.14894 
L 577.931993 286.495172 
L 580.384467 285.720099 
L 582.223822 284.930726 
L 584.063178 283.90549 
L 585.902533 282.58426 
L 587.741888 280.91276 
L 589.581243 278.81194 
L 591.420599 276.196085 
L 593.259954 273.10094 
L 596.325546 267.67776 
L 597.551783 266.103028 
L 598.164901 265.69818 
L 598.77802 265.693507 
L 599.391138 266.2301 
L 600.004257 267.475215 
L 600.617375 269.619877 
L 601.230493 272.860369 
L 601.843612 277.369356 
L 602.45673 283.252199 
L 603.682967 298.798018 
L 605.522322 323.8826 
L 606.135441 329.351637 
L 606.748559 332.182352 
L 607.361678 332.216507 
L 607.974796 329.755665 
L 608.587915 325.530857 
L 611.040388 305.958951 
L 612.266625 299.176053 
L 612.879743 296.728326 
L 613.492862 294.800251 
L 614.10598 293.298006 
L 614.719099 292.136877 
L 615.332217 291.245794 
L 616.558454 290.039757 
L 617.784691 289.336553 
L 619.010928 288.922767 
L 620.850283 288.598995 
L 623.302757 288.418822 
L 628.820822 288.321992 
L 653.345559 288.305893 
L 688.293309 288.305869 
L 688.293309 288.305869 
" clip-path="url(#p190e3c2421)" style="fill: none; stroke: #ff0000; stroke-width: 1.5; stroke-linecap: square"/>
   </g>
   <g id="patch_13">
    <path d="M 75.175501 335.542657 
L 75.175501 262.367357 
" style="fill: none; stroke: #000000; stroke-width: 0.8; stroke-linejoin: miter; stroke-linecap: square"/>
   </g>
   <g id="patch_14">
    <path d="M 688.905815 335.542657 
L 688.905815 262.367357 
" style="fill: none; stroke: #000000; stroke-width: 0.8; stroke-linejoin: miter; stroke-linecap: square"/>
   </g>
   <g id="patch_15">
    <path d="M 75.175501 335.542657 
L 688.905815 335.542657 
" style="fill: none; stroke: #000000; stroke-width: 0.8; stroke-linejoin: miter; stroke-linecap: square"/>
   </g>
   <g id="patch_16">
    <path d="M 75.175501 262.367357 
L 688.905815 262.367357 
" style="fill: none; stroke: #000000; stroke-width: 0.8; stroke-linejoin: miter; stroke-linecap: square"/>
   </g>
   <g id="text_19">
    <!-- Acceleration vs. Time with $\alpha = 1.0, \beta = 0.4, \gamma = 0.1, \delta = 0.1$ -->
    <g transform="translate(160.7199 256.367357) scale(0.18 -0.18)">
     <defs>
      <path id="CMR17-41" d="M 2323 4378 
C 2291 4461 2278 4480 2214 4480 
C 2150 4480 2138 4461 2106 4378 
L 749 566 
C 627 223 371 153 147 153 
L 147 -13 
C 262 0 518 0 640 0 
C 800 0 1056 0 1210 -13 
L 1210 153 
C 909 153 864 361 864 439 
C 864 497 877 530 890 569 
L 1229 1536 
L 2906 1536 
L 3290 442 
C 3322 365 3322 352 3322 327 
C 3322 153 3046 153 2925 153 
L 2925 0 
C 3110 0 3443 0 3642 0 
C 3808 0 4128 0 4282 -13 
L 4282 153 
C 3942 153 3827 153 3744 387 
L 2323 4378 
z
M 2067 3893 
L 2848 1702 
L 1286 1702 
L 2067 3893 
z
" transform="scale(0.015625)"/>
      <path id="CMR17-72" d="M 960 1497 
C 960 2112 1222 2688 1702 2688 
C 1747 2688 1792 2682 1837 2662 
C 1837 2662 1696 2617 1696 2452 
C 1696 2298 1818 2234 1914 2234 
C 1990 2234 2131 2279 2131 2458 
C 2131 2663 1926 2790 1709 2790 
C 1222 2790 1011 2317 947 2093 
L 941 2093 
L 941 2790 
L 198 2720 
L 198 2554 
C 576 2554 634 2515 634 2208 
L 634 428 
C 634 184 608 153 198 153 
L 198 -13 
C 352 0 646 0 813 0 
C 998 0 1325 0 1498 -13 
L 1498 153 
C 1037 153 960 153 960 440 
L 960 1497 
z
" transform="scale(0.015625)"/>
      <path id="CMR17-61" d="M 2304 1653 
C 2304 2072 2304 2294 2035 2543 
C 1798 2752 1523 2816 1306 2816 
C 800 2816 435 2407 435 1971 
C 435 1728 627 1728 666 1728 
C 749 1728 896 1778 896 1954 
C 896 2112 774 2181 666 2181 
C 640 2181 608 2174 589 2168 
C 723 2592 1069 2714 1293 2714 
C 1613 2714 1965 2429 1965 1885 
L 1965 1600 
C 1587 1600 1133 1549 774 1357 
C 371 1133 256 813 256 570 
C 256 77 832 -64 1171 -64 
C 1523 -64 1850 139 1990 511 
C 2003 233 2182 -18 2464 -18 
C 2598 -18 2938 70 2938 567 
L 2938 920 
L 2822 920 
L 2822 562 
C 2822 178 2650 128 2566 128 
C 2304 128 2304 458 2304 738 
L 2304 1653 
z
M 1965 870 
C 1965 317 1568 38 1216 38 
C 896 38 646 275 646 570 
C 646 761 730 1100 1101 1305 
C 1408 1478 1760 1504 1965 1504 
L 1965 870 
z
" transform="scale(0.015625)"/>
     </defs>
     <use xlink:href="#CMR17-41" transform="scale(0.996264)"/>
     <use xlink:href="#CMR17-63" transform="translate(69.07243 0) scale(0.996264)"/>
     <use xlink:href="#CMR17-63" transform="translate(109.55809 0) scale(0.996264)"/>
     <use xlink:href="#CMR17-65" transform="translate(150.043751 0) scale(0.996264)"/>
     <use xlink:href="#CMR17-6c" transform="translate(190.529411 0) scale(0.996264)"/>
     <use xlink:href="#CMR17-65" transform="translate(215.40047 0) scale(0.996264)"/>
     <use xlink:href="#CMR17-72" transform="translate(255.88613 0) scale(0.996264)"/>
     <use xlink:href="#CMR17-61" transform="translate(291.166898 0) scale(0.996264)"/>
     <use xlink:href="#CMR17-74" transform="translate(336.857375 0) scale(0.996264)"/>
     <use xlink:href="#CMR17-69" transform="translate(372.138143 0) scale(0.996264)"/>
     <use xlink:href="#CMR17-6f" transform="translate(397.009201 0) scale(0.996264)"/>
     <use xlink:href="#CMR17-6e" transform="translate(442.699678 0) scale(0.996264)"/>
     <use xlink:href="#CMR17-76" transform="translate(523.671015 0) scale(0.996264)"/>
     <use xlink:href="#CMR17-73" transform="translate(571.96393 0) scale(0.996264)"/>
     <use xlink:href="#CMR17-2e" transform="translate(607.765268 0) scale(0.996264)"/>
     <use xlink:href="#CMR17-54" transform="translate(673.121987 0) scale(0.996264)"/>
     <use xlink:href="#CMR17-69" transform="translate(739.631868 0) scale(0.996264)"/>
     <use xlink:href="#CMR17-6d" transform="translate(764.502926 0) scale(0.996264)"/>
     <use xlink:href="#CMR17-65" transform="translate(841.422516 0) scale(0.996264)"/>
     <use xlink:href="#CMR17-77" transform="translate(911.984143 0) scale(0.996264)"/>
     <use xlink:href="#CMR17-69" transform="translate(978.494023 0) scale(0.996264)"/>
     <use xlink:href="#CMR17-74" transform="translate(1003.365082 0) scale(0.996264)"/>
     <use xlink:href="#CMR17-68" transform="translate(1038.64585 0) scale(0.996264)"/>
     <use xlink:href="#CMMI12-b" transform="translate(1119.617186 0) scale(0.996264)"/>
     <use xlink:href="#CMR17-3d" transform="translate(1209.972217 0) scale(0.996264)"/>
     <use xlink:href="#CMR17-31" transform="translate(1309.361014 0) scale(0.996264)"/>
     <use xlink:href="#CMMI12-3a" transform="translate(1355.051491 0) scale(0.996264)"/>
     <use xlink:href="#CMR17-30" transform="translate(1382.148669 0) scale(0.996264)"/>
     <use xlink:href="#CMMI12-3b" transform="translate(1427.839146 0) scale(0.996264)"/>
     <use xlink:href="#CMMI12-c" transform="translate(1471.540728 0) scale(0.996264)"/>
     <use xlink:href="#CMR17-3d" transform="translate(1559.808752 0) scale(0.996264)"/>
     <use xlink:href="#CMR17-30" transform="translate(1659.19755 0) scale(0.996264)"/>
     <use xlink:href="#CMMI12-3a" transform="translate(1704.888027 0) scale(0.996264)"/>
     <use xlink:href="#CMR17-34" transform="translate(1731.985204 0) scale(0.996264)"/>
     <use xlink:href="#CMMI12-3b" transform="translate(1777.675681 0) scale(0.996264)"/>
     <use xlink:href="#CMMI12-d" transform="translate(1821.377263 0) scale(0.996264)"/>
     <use xlink:href="#CMR17-3d" transform="translate(1905.06984 0) scale(0.996264)"/>
     <use xlink:href="#CMR17-30" transform="translate(2004.458637 0) scale(0.996264)"/>
     <use xlink:href="#CMMI12-3a" transform="translate(2050.149114 0) scale(0.996264)"/>
     <use xlink:href="#CMR17-31" transform="translate(2077.246291 0) scale(0.996264)"/>
     <use xlink:href="#CMMI12-3b" transform="translate(2122.936768 0) scale(0.996264)"/>
     <use xlink:href="#CMMI12-e" transform="translate(2166.638351 0) scale(0.996264)"/>
     <use xlink:href="#CMR17-3d" transform="translate(2241.253746 0) scale(0.996264)"/>
     <use xlink:href="#CMR17-30" transform="translate(2340.642543 0) scale(0.996264)"/>
     <use xlink:href="#CMMI12-3a" transform="translate(2386.33302 0) scale(0.996264)"/>
     <use xlink:href="#CMR17-31" transform="translate(2413.430197 0) scale(0.996264)"/>
    </g>
   </g>
  </g>
 </g>
 <defs>
  <clipPath id="p5e1690483b">
   <rect x="75.175501" y="38.4533" width="613.730313" height="73.175301"/>
  </clipPath>
  <clipPath id="pbba03fd3d6">
   <rect x="75.175501" y="150.410328" width="613.730313" height="73.175301"/>
  </clipPath>
  <clipPath id="p190e3c2421">
   <rect x="75.175501" y="262.367357" width="613.730313" height="73.175301"/>
  </clipPath>
 </defs>
</svg>
