<?xml version="1.0" encoding="utf-8" standalone="no"?>
<!DOCTYPE svg PUBLIC "-//W3C//DTD SVG 1.1//EN"
  "http://www.w3.org/Graphics/SVG/1.1/DTD/svg11.dtd">
<svg xmlns:xlink="http://www.w3.org/1999/xlink" width="720pt" height="396pt" viewBox="0 0 720 396" xmlns="http://www.w3.org/2000/svg" version="1.1">
 <metadata>
  <rdf:RDF xmlns:dc="http://purl.org/dc/elements/1.1/" xmlns:cc="http://creativecommons.org/ns#" xmlns:rdf="http://www.w3.org/1999/02/22-rdf-syntax-ns#">
   <cc:Work>
    <dc:type rdf:resource="http://purl.org/dc/dcmitype/StillImage"/>
    <dc:date>2025-05-19T16:43:31.871927</dc:date>
    <dc:format>image/svg+xml</dc:format>
    <dc:creator>
     <cc:Agent>
      <dc:title>Matplotlib v3.9.0, https://matplotlib.org/</dc:title>
     </cc:Agent>
    </dc:creator>
   </cc:Work>
  </rdf:RDF>
 </metadata>
 <defs>
  <style type="text/css">*{stroke-linejoin: round; stroke-linecap: butt}</style>
 </defs>
 <g id="figure_1">
  <g id="patch_1">
   <path d="M 0 396 
L 720 396 
L 720 0 
L 0 0 
z
" style="fill: #ffffff"/>
  </g>
  <g id="axes_1">
   <g id="patch_2">
    <path d="M 63.495174 115.68059 
L 700 115.68059 
L 700 34.30218 
L 63.495174 34.30218 
z
" style="fill: #ffffff"/>
   </g>
   <g id="matplotlib.axis_1">
    <g id="xtick_1">
     <g id="line2d_1">
      <defs>
       <path id="m686a66f52b" d="M 0 0 
L 0 -5 
" style="stroke: #000000; stroke-width: 0.5"/>
      </defs>
      <g>
       <use xlink:href="#m686a66f52b" x="64.90337" y="115.68059" style="stroke: #000000; stroke-width: 0.5"/>
      </g>
     </g>
     <g id="line2d_2">
      <defs>
       <path id="m19aff3a096" d="M 0 0 
L 0 5 
" style="stroke: #000000; stroke-width: 0.5"/>
      </defs>
      <g>
       <use xlink:href="#m19aff3a096" x="64.90337" y="34.30218" style="stroke: #000000; stroke-width: 0.5"/>
      </g>
     </g>
    </g>
    <g id="xtick_2">
     <g id="line2d_3">
      <g>
       <use xlink:href="#m686a66f52b" x="205.723022" y="115.68059" style="stroke: #000000; stroke-width: 0.5"/>
      </g>
     </g>
     <g id="line2d_4">
      <g>
       <use xlink:href="#m19aff3a096" x="205.723022" y="34.30218" style="stroke: #000000; stroke-width: 0.5"/>
      </g>
     </g>
    </g>
    <g id="xtick_3">
     <g id="line2d_5">
      <g>
       <use xlink:href="#m686a66f52b" x="346.542674" y="115.68059" style="stroke: #000000; stroke-width: 0.5"/>
      </g>
     </g>
     <g id="line2d_6">
      <g>
       <use xlink:href="#m19aff3a096" x="346.542674" y="34.30218" style="stroke: #000000; stroke-width: 0.5"/>
      </g>
     </g>
    </g>
    <g id="xtick_4">
     <g id="line2d_7">
      <g>
       <use xlink:href="#m686a66f52b" x="487.362326" y="115.68059" style="stroke: #000000; stroke-width: 0.5"/>
      </g>
     </g>
     <g id="line2d_8">
      <g>
       <use xlink:href="#m19aff3a096" x="487.362326" y="34.30218" style="stroke: #000000; stroke-width: 0.5"/>
      </g>
     </g>
    </g>
    <g id="xtick_5">
     <g id="line2d_9">
      <g>
       <use xlink:href="#m686a66f52b" x="628.181978" y="115.68059" style="stroke: #000000; stroke-width: 0.5"/>
      </g>
     </g>
     <g id="line2d_10">
      <g>
       <use xlink:href="#m19aff3a096" x="628.181978" y="34.30218" style="stroke: #000000; stroke-width: 0.5"/>
      </g>
     </g>
    </g>
    <g id="xtick_6">
     <g id="line2d_11">
      <defs>
       <path id="m4ea75abe7a" d="M 0 0 
L 0 -2.5 
" style="stroke: #000000; stroke-width: 0.5"/>
      </defs>
      <g>
       <use xlink:href="#m4ea75abe7a" x="93.067301" y="115.68059" style="stroke: #000000; stroke-width: 0.5"/>
      </g>
     </g>
     <g id="line2d_12">
      <defs>
       <path id="maa45d63cc3" d="M 0 0 
L 0 2.5 
" style="stroke: #000000; stroke-width: 0.5"/>
      </defs>
      <g>
       <use xlink:href="#maa45d63cc3" x="93.067301" y="34.30218" style="stroke: #000000; stroke-width: 0.5"/>
      </g>
     </g>
    </g>
    <g id="xtick_7">
     <g id="line2d_13">
      <g>
       <use xlink:href="#m4ea75abe7a" x="121.231231" y="115.68059" style="stroke: #000000; stroke-width: 0.5"/>
      </g>
     </g>
     <g id="line2d_14">
      <g>
       <use xlink:href="#maa45d63cc3" x="121.231231" y="34.30218" style="stroke: #000000; stroke-width: 0.5"/>
      </g>
     </g>
    </g>
    <g id="xtick_8">
     <g id="line2d_15">
      <g>
       <use xlink:href="#m4ea75abe7a" x="149.395161" y="115.68059" style="stroke: #000000; stroke-width: 0.5"/>
      </g>
     </g>
     <g id="line2d_16">
      <g>
       <use xlink:href="#maa45d63cc3" x="149.395161" y="34.30218" style="stroke: #000000; stroke-width: 0.5"/>
      </g>
     </g>
    </g>
    <g id="xtick_9">
     <g id="line2d_17">
      <g>
       <use xlink:href="#m4ea75abe7a" x="177.559092" y="115.68059" style="stroke: #000000; stroke-width: 0.5"/>
      </g>
     </g>
     <g id="line2d_18">
      <g>
       <use xlink:href="#maa45d63cc3" x="177.559092" y="34.30218" style="stroke: #000000; stroke-width: 0.5"/>
      </g>
     </g>
    </g>
    <g id="xtick_10">
     <g id="line2d_19">
      <g>
       <use xlink:href="#m4ea75abe7a" x="233.886952" y="115.68059" style="stroke: #000000; stroke-width: 0.5"/>
      </g>
     </g>
     <g id="line2d_20">
      <g>
       <use xlink:href="#maa45d63cc3" x="233.886952" y="34.30218" style="stroke: #000000; stroke-width: 0.5"/>
      </g>
     </g>
    </g>
    <g id="xtick_11">
     <g id="line2d_21">
      <g>
       <use xlink:href="#m4ea75abe7a" x="262.050883" y="115.68059" style="stroke: #000000; stroke-width: 0.5"/>
      </g>
     </g>
     <g id="line2d_22">
      <g>
       <use xlink:href="#maa45d63cc3" x="262.050883" y="34.30218" style="stroke: #000000; stroke-width: 0.5"/>
      </g>
     </g>
    </g>
    <g id="xtick_12">
     <g id="line2d_23">
      <g>
       <use xlink:href="#m4ea75abe7a" x="290.214813" y="115.68059" style="stroke: #000000; stroke-width: 0.5"/>
      </g>
     </g>
     <g id="line2d_24">
      <g>
       <use xlink:href="#maa45d63cc3" x="290.214813" y="34.30218" style="stroke: #000000; stroke-width: 0.5"/>
      </g>
     </g>
    </g>
    <g id="xtick_13">
     <g id="line2d_25">
      <g>
       <use xlink:href="#m4ea75abe7a" x="318.378744" y="115.68059" style="stroke: #000000; stroke-width: 0.5"/>
      </g>
     </g>
     <g id="line2d_26">
      <g>
       <use xlink:href="#maa45d63cc3" x="318.378744" y="34.30218" style="stroke: #000000; stroke-width: 0.5"/>
      </g>
     </g>
    </g>
    <g id="xtick_14">
     <g id="line2d_27">
      <g>
       <use xlink:href="#m4ea75abe7a" x="374.706604" y="115.68059" style="stroke: #000000; stroke-width: 0.5"/>
      </g>
     </g>
     <g id="line2d_28">
      <g>
       <use xlink:href="#maa45d63cc3" x="374.706604" y="34.30218" style="stroke: #000000; stroke-width: 0.5"/>
      </g>
     </g>
    </g>
    <g id="xtick_15">
     <g id="line2d_29">
      <g>
       <use xlink:href="#m4ea75abe7a" x="402.870535" y="115.68059" style="stroke: #000000; stroke-width: 0.5"/>
      </g>
     </g>
     <g id="line2d_30">
      <g>
       <use xlink:href="#maa45d63cc3" x="402.870535" y="34.30218" style="stroke: #000000; stroke-width: 0.5"/>
      </g>
     </g>
    </g>
    <g id="xtick_16">
     <g id="line2d_31">
      <g>
       <use xlink:href="#m4ea75abe7a" x="431.034465" y="115.68059" style="stroke: #000000; stroke-width: 0.5"/>
      </g>
     </g>
     <g id="line2d_32">
      <g>
       <use xlink:href="#maa45d63cc3" x="431.034465" y="34.30218" style="stroke: #000000; stroke-width: 0.5"/>
      </g>
     </g>
    </g>
    <g id="xtick_17">
     <g id="line2d_33">
      <g>
       <use xlink:href="#m4ea75abe7a" x="459.198395" y="115.68059" style="stroke: #000000; stroke-width: 0.5"/>
      </g>
     </g>
     <g id="line2d_34">
      <g>
       <use xlink:href="#maa45d63cc3" x="459.198395" y="34.30218" style="stroke: #000000; stroke-width: 0.5"/>
      </g>
     </g>
    </g>
    <g id="xtick_18">
     <g id="line2d_35">
      <g>
       <use xlink:href="#m4ea75abe7a" x="515.526256" y="115.68059" style="stroke: #000000; stroke-width: 0.5"/>
      </g>
     </g>
     <g id="line2d_36">
      <g>
       <use xlink:href="#maa45d63cc3" x="515.526256" y="34.30218" style="stroke: #000000; stroke-width: 0.5"/>
      </g>
     </g>
    </g>
    <g id="xtick_19">
     <g id="line2d_37">
      <g>
       <use xlink:href="#m4ea75abe7a" x="543.690186" y="115.68059" style="stroke: #000000; stroke-width: 0.5"/>
      </g>
     </g>
     <g id="line2d_38">
      <g>
       <use xlink:href="#maa45d63cc3" x="543.690186" y="34.30218" style="stroke: #000000; stroke-width: 0.5"/>
      </g>
     </g>
    </g>
    <g id="xtick_20">
     <g id="line2d_39">
      <g>
       <use xlink:href="#m4ea75abe7a" x="571.854117" y="115.68059" style="stroke: #000000; stroke-width: 0.5"/>
      </g>
     </g>
     <g id="line2d_40">
      <g>
       <use xlink:href="#maa45d63cc3" x="571.854117" y="34.30218" style="stroke: #000000; stroke-width: 0.5"/>
      </g>
     </g>
    </g>
    <g id="xtick_21">
     <g id="line2d_41">
      <g>
       <use xlink:href="#m4ea75abe7a" x="600.018047" y="115.68059" style="stroke: #000000; stroke-width: 0.5"/>
      </g>
     </g>
     <g id="line2d_42">
      <g>
       <use xlink:href="#maa45d63cc3" x="600.018047" y="34.30218" style="stroke: #000000; stroke-width: 0.5"/>
      </g>
     </g>
    </g>
    <g id="xtick_22">
     <g id="line2d_43">
      <g>
       <use xlink:href="#m4ea75abe7a" x="656.345908" y="115.68059" style="stroke: #000000; stroke-width: 0.5"/>
      </g>
     </g>
     <g id="line2d_44">
      <g>
       <use xlink:href="#maa45d63cc3" x="656.345908" y="34.30218" style="stroke: #000000; stroke-width: 0.5"/>
      </g>
     </g>
    </g>
    <g id="xtick_23">
     <g id="line2d_45">
      <g>
       <use xlink:href="#m4ea75abe7a" x="684.509838" y="115.68059" style="stroke: #000000; stroke-width: 0.5"/>
      </g>
     </g>
     <g id="line2d_46">
      <g>
       <use xlink:href="#maa45d63cc3" x="684.509838" y="34.30218" style="stroke: #000000; stroke-width: 0.5"/>
      </g>
     </g>
    </g>
   </g>
   <g id="matplotlib.axis_2">
    <g id="ytick_1">
     <g id="line2d_47">
      <defs>
       <path id="m0cd2d5ce5d" d="M 0 0 
L 5 0 
" style="stroke: #000000; stroke-width: 0.5"/>
      </defs>
      <g>
       <use xlink:href="#m0cd2d5ce5d" x="63.495174" y="111.981571" style="stroke: #000000; stroke-width: 0.5"/>
      </g>
     </g>
     <g id="line2d_48">
      <defs>
       <path id="m75a6f2b7e8" d="M 0 0 
L -5 0 
" style="stroke: #000000; stroke-width: 0.5"/>
      </defs>
      <g>
       <use xlink:href="#m75a6f2b7e8" x="700" y="111.981571" style="stroke: #000000; stroke-width: 0.5"/>
      </g>
     </g>
     <g id="text_1">
      <!-- $\mathdefault{−5}$ -->
      <g transform="translate(47.265095 115.44082) scale(0.1 -0.1)">
       <defs>
        <path id="CMSY10-0" d="M 4218 1472 
C 4326 1472 4442 1472 4442 1600 
C 4442 1728 4326 1728 4218 1728 
L 755 1728 
C 646 1728 531 1728 531 1600 
C 531 1472 646 1472 755 1472 
L 4218 1472 
z
" transform="scale(0.015625)"/>
        <path id="CMR17-35" d="M 730 3692 
C 794 3666 1056 3584 1325 3584 
C 1920 3584 2246 3911 2432 4100 
C 2432 4157 2432 4192 2394 4192 
C 2387 4192 2374 4192 2323 4163 
C 2099 4058 1837 3973 1517 3973 
C 1325 3973 1037 3999 723 4139 
C 653 4171 640 4171 634 4171 
C 602 4171 595 4164 595 4037 
L 595 2203 
C 595 2089 595 2057 659 2057 
C 691 2057 704 2070 736 2114 
C 941 2401 1222 2522 1542 2522 
C 1766 2522 2246 2382 2246 1289 
C 2246 1085 2246 715 2054 421 
C 1894 159 1645 25 1370 25 
C 947 25 518 320 403 814 
C 429 807 480 795 506 795 
C 589 795 749 840 749 1038 
C 749 1210 627 1280 506 1280 
C 358 1280 262 1190 262 1011 
C 262 454 704 -128 1382 -128 
C 2042 -128 2669 440 2669 1264 
C 2669 2030 2170 2624 1549 2624 
C 1222 2624 947 2503 730 2274 
L 730 3692 
z
" transform="scale(0.015625)"/>
       </defs>
       <use xlink:href="#CMSY10-0" transform="scale(0.996264)"/>
       <use xlink:href="#CMR17-35" transform="translate(77.487468 0) scale(0.996264)"/>
      </g>
     </g>
    </g>
    <g id="ytick_2">
     <g id="line2d_49">
      <g>
       <use xlink:href="#m0cd2d5ce5d" x="63.495174" y="74.991385" style="stroke: #000000; stroke-width: 0.5"/>
      </g>
     </g>
     <g id="line2d_50">
      <g>
       <use xlink:href="#m75a6f2b7e8" x="700" y="74.991385" style="stroke: #000000; stroke-width: 0.5"/>
      </g>
     </g>
     <g id="text_2">
      <!-- $\mathdefault{0}$ -->
      <g transform="translate(55.013838 78.450634) scale(0.1 -0.1)">
       <defs>
        <path id="CMR17-30" d="M 2688 2025 
C 2688 2416 2682 3080 2413 3591 
C 2176 4039 1798 4198 1466 4198 
C 1158 4198 768 4058 525 3597 
C 269 3118 243 2524 243 2025 
C 243 1661 250 1106 448 619 
C 723 -39 1216 -128 1466 -128 
C 1760 -128 2208 -7 2470 600 
C 2662 1042 2688 1559 2688 2025 
z
M 1466 -26 
C 1056 -26 813 325 723 812 
C 653 1188 653 1738 653 2096 
C 653 2588 653 2997 736 3387 
C 858 3929 1216 4096 1466 4096 
C 1728 4096 2067 3923 2189 3400 
C 2272 3036 2278 2607 2278 2096 
C 2278 1680 2278 1169 2202 792 
C 2067 95 1690 -26 1466 -26 
z
" transform="scale(0.015625)"/>
       </defs>
       <use xlink:href="#CMR17-30" transform="scale(0.996264)"/>
      </g>
     </g>
    </g>
    <g id="ytick_3">
     <g id="line2d_51">
      <g>
       <use xlink:href="#m0cd2d5ce5d" x="63.495174" y="38.001198" style="stroke: #000000; stroke-width: 0.5"/>
      </g>
     </g>
     <g id="line2d_52">
      <g>
       <use xlink:href="#m75a6f2b7e8" x="700" y="38.001198" style="stroke: #000000; stroke-width: 0.5"/>
      </g>
     </g>
     <g id="text_3">
      <!-- $\mathdefault{5}$ -->
      <g transform="translate(55.013838 41.460448) scale(0.1 -0.1)">
       <use xlink:href="#CMR17-35" transform="scale(0.996264)"/>
      </g>
     </g>
    </g>
    <g id="ytick_4">
     <g id="line2d_53">
      <defs>
       <path id="m1dcdebc688" d="M 0 0 
L 2.5 0 
" style="stroke: #000000; stroke-width: 0.5"/>
      </defs>
      <g>
       <use xlink:href="#m1dcdebc688" x="63.495174" y="104.583534" style="stroke: #000000; stroke-width: 0.5"/>
      </g>
     </g>
     <g id="line2d_54">
      <defs>
       <path id="m4504504226" d="M 0 0 
L -2.5 0 
" style="stroke: #000000; stroke-width: 0.5"/>
      </defs>
      <g>
       <use xlink:href="#m4504504226" x="700" y="104.583534" style="stroke: #000000; stroke-width: 0.5"/>
      </g>
     </g>
    </g>
    <g id="ytick_5">
     <g id="line2d_55">
      <g>
       <use xlink:href="#m1dcdebc688" x="63.495174" y="97.185497" style="stroke: #000000; stroke-width: 0.5"/>
      </g>
     </g>
     <g id="line2d_56">
      <g>
       <use xlink:href="#m4504504226" x="700" y="97.185497" style="stroke: #000000; stroke-width: 0.5"/>
      </g>
     </g>
    </g>
    <g id="ytick_6">
     <g id="line2d_57">
      <g>
       <use xlink:href="#m1dcdebc688" x="63.495174" y="89.787459" style="stroke: #000000; stroke-width: 0.5"/>
      </g>
     </g>
     <g id="line2d_58">
      <g>
       <use xlink:href="#m4504504226" x="700" y="89.787459" style="stroke: #000000; stroke-width: 0.5"/>
      </g>
     </g>
    </g>
    <g id="ytick_7">
     <g id="line2d_59">
      <g>
       <use xlink:href="#m1dcdebc688" x="63.495174" y="82.389422" style="stroke: #000000; stroke-width: 0.5"/>
      </g>
     </g>
     <g id="line2d_60">
      <g>
       <use xlink:href="#m4504504226" x="700" y="82.389422" style="stroke: #000000; stroke-width: 0.5"/>
      </g>
     </g>
    </g>
    <g id="ytick_8">
     <g id="line2d_61">
      <g>
       <use xlink:href="#m1dcdebc688" x="63.495174" y="67.593348" style="stroke: #000000; stroke-width: 0.5"/>
      </g>
     </g>
     <g id="line2d_62">
      <g>
       <use xlink:href="#m4504504226" x="700" y="67.593348" style="stroke: #000000; stroke-width: 0.5"/>
      </g>
     </g>
    </g>
    <g id="ytick_9">
     <g id="line2d_63">
      <g>
       <use xlink:href="#m1dcdebc688" x="63.495174" y="60.19531" style="stroke: #000000; stroke-width: 0.5"/>
      </g>
     </g>
     <g id="line2d_64">
      <g>
       <use xlink:href="#m4504504226" x="700" y="60.19531" style="stroke: #000000; stroke-width: 0.5"/>
      </g>
     </g>
    </g>
    <g id="ytick_10">
     <g id="line2d_65">
      <g>
       <use xlink:href="#m1dcdebc688" x="63.495174" y="52.797273" style="stroke: #000000; stroke-width: 0.5"/>
      </g>
     </g>
     <g id="line2d_66">
      <g>
       <use xlink:href="#m4504504226" x="700" y="52.797273" style="stroke: #000000; stroke-width: 0.5"/>
      </g>
     </g>
    </g>
    <g id="ytick_11">
     <g id="line2d_67">
      <g>
       <use xlink:href="#m1dcdebc688" x="63.495174" y="45.399236" style="stroke: #000000; stroke-width: 0.5"/>
      </g>
     </g>
     <g id="line2d_68">
      <g>
       <use xlink:href="#m4504504226" x="700" y="45.399236" style="stroke: #000000; stroke-width: 0.5"/>
      </g>
     </g>
    </g>
    <g id="text_4">
     <!-- $q(t)$ -->
     <g transform="translate(20 71.753527) scale(0.13 -0.13)">
      <defs>
       <path id="CMMI12-71" d="M 2822 2759 
C 2822 2790 2797 2816 2765 2816 
C 2714 2816 2464 2585 2342 2362 
C 2227 2646 2029 2816 1754 2816 
C 1030 2816 250 1884 250 939 
C 250 307 621 -64 1056 -64 
C 1395 -64 1677 193 1811 339 
L 1818 333 
L 1574 -615 
L 1517 -842 
C 1459 -1031 1363 -1031 1062 -1031 
C 992 -1031 928 -1031 928 -1152 
C 928 -1197 966 -1216 1011 -1216 
C 1101 -1216 1216 -1216 1306 -1216 
L 1958 -1216 
C 2054 -1216 2163 -1216 2259 -1216 
C 2298 -1216 2374 -1216 2374 -1095 
C 2374 -1031 2323 -1031 2227 -1031 
C 1926 -1031 1907 -986 1907 -935 
C 1907 -904 1914 -898 1933 -815 
L 2822 2759 
z
M 1920 762 
C 1888 652 1888 640 1798 518 
C 1658 339 1376 64 1075 64 
C 813 64 666 301 666 678 
C 666 1030 864 1747 986 2016 
C 1203 2464 1504 2695 1754 2695 
C 2176 2695 2259 2170 2259 2119 
C 2259 2113 2240 2028 2234 2016 
L 1920 762 
z
" transform="scale(0.015625)"/>
       <path id="CMR17-28" d="M 1958 -1561 
C 1958 -1555 1958 -1542 1939 -1523 
C 1645 -1224 858 -407 858 1581 
C 858 3569 1632 4379 1946 4697 
C 1946 4704 1958 4717 1958 4736 
C 1958 4755 1939 4768 1914 4768 
C 1843 4768 1299 4296 986 3594 
C 666 2887 576 2199 576 1588 
C 576 1128 621 351 1005 -471 
C 1312 -1135 1837 -1600 1914 -1600 
C 1946 -1600 1958 -1587 1958 -1561 
z
" transform="scale(0.015625)"/>
       <path id="CMMI12-74" d="M 1286 2566 
L 1875 2566 
C 1997 2566 2061 2566 2061 2681 
C 2061 2752 2022 2752 1894 2752 
L 1331 2752 
L 1568 3692 
C 1594 3781 1594 3794 1594 3840 
C 1594 3943 1510 4000 1427 4000 
C 1376 4000 1229 3981 1178 3775 
L 928 2752 
L 326 2752 
C 198 2752 141 2752 141 2630 
C 141 2566 186 2566 307 2566 
L 877 2566 
L 454 881 
C 403 658 384 594 384 511 
C 384 211 595 -64 954 -64 
C 1600 -64 1946 868 1946 912 
C 1946 951 1920 970 1882 970 
C 1869 970 1843 970 1830 944 
C 1824 938 1818 931 1773 829 
C 1638 511 1344 64 973 64 
C 781 64 768 224 768 364 
C 768 370 768 492 787 568 
L 1286 2566 
z
" transform="scale(0.015625)"/>
       <path id="CMR17-29" d="M 1683 1581 
C 1683 2040 1638 2817 1254 3639 
C 947 4303 422 4768 346 4768 
C 326 4768 301 4761 301 4729 
C 301 4717 307 4710 314 4697 
C 621 4378 1402 3568 1402 1584 
C 1402 -407 627 -1217 314 -1537 
C 307 -1549 301 -1556 301 -1568 
C 301 -1600 326 -1600 346 -1600 
C 416 -1600 960 -1128 1274 -426 
C 1594 281 1683 969 1683 1581 
z
" transform="scale(0.015625)"/>
      </defs>
      <use xlink:href="#CMMI12-71" transform="scale(0.996264)"/>
      <use xlink:href="#CMR17-28" transform="translate(46.826324 0) scale(0.996264)"/>
      <use xlink:href="#CMMI12-74" transform="translate(82.107092 0) scale(0.996264)"/>
      <use xlink:href="#CMR17-29" transform="translate(117.333422 0) scale(0.996264)"/>
     </g>
    </g>
   </g>
   <g id="LineCollection_1">
    <path d="M 64.90337 80.119369 
L 698.591803 80.119369 
" clip-path="url(#p08893621ea)" style="fill: none; stroke-dasharray: 2.22,0.96; stroke-dashoffset: 0; stroke: #800080; stroke-width: 0.6"/>
   </g>
   <g id="line2d_69">
    <path d="M 64.90337 67.593348 
L 66.172016 67.66866 
L 68.074984 68.026429 
L 70.612275 68.801434 
L 73.783889 70.036663 
L 78.858471 72.301283 
L 87.738989 76.567253 
L 118.820805 91.671022 
L 128.969969 96.285923 
L 136.581842 99.516468 
L 142.925069 101.97809 
L 148.633974 103.943748 
L 153.074233 105.261186 
L 157.514493 106.350608 
L 161.320429 107.067114 
L 165.126366 107.538681 
L 168.297979 107.710551 
L 171.469593 107.646542 
L 174.006884 107.400017 
L 176.544175 106.956232 
L 179.081466 106.291083 
L 181.618757 105.378329 
L 184.156048 104.189583 
L 186.693339 102.69336 
L 188.596308 101.348105 
L 190.499276 99.794982 
L 192.402244 98.019034 
L 194.305212 96.005944 
L 196.208181 93.743146 
L 198.745472 90.328164 
L 201.282763 86.473752 
L 204.454377 81.157836 
L 208.260313 74.736186 
L 210.163281 71.978433 
L 211.431927 70.474706 
L 212.700572 69.290186 
L 213.969218 68.440004 
L 215.237863 67.899879 
L 216.506509 67.626422 
L 217.775154 67.572007 
L 219.678123 67.793228 
L 221.581091 68.265776 
L 224.118382 69.132766 
L 227.924319 70.706803 
L 233.633223 73.33904 
L 245.051033 78.901031 
L 267.886652 90.035836 
L 278.670139 95.03227 
L 286.916335 98.628333 
L 293.893885 101.432124 
L 299.60279 103.489011 
L 304.677372 105.07675 
L 309.117631 106.231739 
L 312.923568 107.011775 
L 316.729504 107.564325 
L 319.901118 107.817265 
L 323.072732 107.847401 
L 326.244346 107.619297 
L 328.781637 107.223513 
L 331.318928 106.612761 
L 333.856219 105.761204 
L 336.39351 104.643292 
L 338.930801 103.227331 
L 340.833769 101.944209 
L 342.736737 100.453693 
L 344.639706 98.741677 
L 346.542674 96.795853 
L 348.445642 94.605711 
L 350.982933 91.29067 
L 353.520224 87.524141 
L 356.057515 83.358283 
L 361.76642 73.738391 
L 363.669388 71.154443 
L 364.938034 69.801607 
L 366.206679 68.782817 
L 367.475325 68.091841 
L 368.74397 67.697774 
L 370.012616 67.547871 
L 371.281261 67.589569 
L 373.18423 67.915848 
L 375.721521 68.666006 
L 378.893134 69.890439 
L 383.967717 72.153609 
L 392.848235 76.425099 
L 425.198696 92.165547 
L 434.713537 96.500278 
L 442.32541 99.73857 
L 448.668638 102.204303 
L 454.377542 104.178458 
L 459.452124 105.684508 
L 463.892384 106.757468 
L 467.69832 107.454542 
L 471.504257 107.902635 
L 474.675871 108.049447 
L 477.847484 107.953877 
L 480.384775 107.676985 
L 482.922066 107.198307 
L 485.459357 106.494097 
L 487.996648 105.538781 
L 490.53394 104.303846 
L 493.071231 102.754704 
L 494.974199 101.365553 
L 496.877167 99.764591 
L 498.780135 97.936507 
L 500.683104 95.867165 
L 502.586072 93.544735 
L 505.123363 90.044624 
L 507.660654 86.10137 
L 510.832268 80.698152 
L 514.638204 74.251146 
L 516.541173 71.546321 
L 517.809818 70.099355 
L 519.078464 68.985625 
L 520.347109 68.209829 
L 521.615755 67.744535 
L 522.8844 67.537895 
L 524.153046 67.534945 
L 526.056014 67.811576 
L 527.958982 68.317686 
L 530.496273 69.211037 
L 534.30221 70.811454 
L 540.645437 73.767687 
L 553.966215 80.29552 
L 573.630221 89.893707 
L 584.413707 94.922049 
L 592.659903 98.54781 
L 599.637454 101.378495 
L 605.346358 103.464882 
L 610.42094 105.092374 
L 614.8612 106.299841 
L 618.667136 107.1368 
L 622.473073 107.752621 
L 625.644687 108.06596 
L 628.8163 108.16539 
L 631.987914 108.01552 
L 634.525205 107.689204 
L 637.062496 107.154722 
L 639.599787 106.387146 
L 642.137078 105.359533 
L 644.674369 104.042924 
L 647.21166 102.404167 
L 649.114629 100.941277 
L 651.017597 99.260894 
L 652.920565 97.347843 
L 654.823533 95.188226 
L 657.360824 91.908839 
L 659.898115 88.168634 
L 662.435406 84.014916 
L 668.778634 73.274029 
L 670.047279 71.524227 
L 671.315925 70.072124 
L 672.58457 68.955351 
L 673.853216 68.180524 
L 675.121862 67.723263 
L 676.390507 67.526579 
L 677.659153 67.532559 
L 679.562121 67.823816 
L 681.465089 68.343994 
L 684.00238 69.249244 
L 687.808317 70.857096 
L 694.151544 73.817939 
L 698.591803 75.97395 
L 698.591803 75.97395 
" clip-path="url(#p08893621ea)" style="fill: none; stroke: #008000; stroke-width: 1.5; stroke-linecap: square"/>
   </g>
   <g id="patch_3">
    <path d="M 63.495174 115.68059 
L 63.495174 34.30218 
" style="fill: none; stroke: #000000; stroke-width: 0.8; stroke-linejoin: miter; stroke-linecap: square"/>
   </g>
   <g id="patch_4">
    <path d="M 700 115.68059 
L 700 34.30218 
" style="fill: none; stroke: #000000; stroke-width: 0.8; stroke-linejoin: miter; stroke-linecap: square"/>
   </g>
   <g id="patch_5">
    <path d="M 63.495174 115.68059 
L 700 115.68059 
" style="fill: none; stroke: #000000; stroke-width: 0.8; stroke-linejoin: miter; stroke-linecap: square"/>
   </g>
   <g id="patch_6">
    <path d="M 63.495174 34.30218 
L 700 34.30218 
" style="fill: none; stroke: #000000; stroke-width: 0.8; stroke-linejoin: miter; stroke-linecap: square"/>
   </g>
   <g id="text_5">
    <!-- Position vs. Time with $\alpha = 0.66666, \beta = 1.33333, \gamma = 1.0, \delta = 1.0$ -->
    <g transform="translate(214.536045 28.30218) scale(0.12 -0.12)">
     <defs>
      <path id="CMR17-50" d="M 1267 2042 
L 2291 2042 
C 3117 2042 3718 2578 3718 3184 
C 3718 3791 3130 4352 2291 4352 
L 333 4352 
L 333 4186 
C 774 4186 845 4186 845 3899 
L 845 446 
C 845 160 774 160 333 160 
L 333 0 
C 518 0 858 0 1056 0 
C 1254 0 1594 0 1779 0 
L 1779 160 
C 1338 160 1267 160 1267 446 
L 1267 2042 
z
M 1254 2176 
L 1254 3938 
C 1254 4155 1267 4186 1523 4186 
L 2170 4186 
C 2995 4186 3232 3714 3232 3184 
C 3232 2604 2950 2176 2170 2176 
L 1254 2176 
z
" transform="scale(0.015625)"/>
      <path id="CMR17-6f" d="M 2758 1356 
C 2758 2176 2163 2816 1466 2816 
C 768 2816 173 2176 173 1356 
C 173 551 768 -64 1466 -64 
C 2163 -64 2758 551 2758 1356 
z
M 1466 51 
C 1165 51 909 230 762 480 
C 602 767 582 1126 582 1408 
C 582 1677 595 2010 762 2298 
C 890 2509 1139 2714 1466 2714 
C 1754 2714 1997 2554 2150 2330 
C 2349 2029 2349 1607 2349 1408 
C 2349 1158 2336 775 2163 467 
C 1984 173 1709 51 1466 51 
z
" transform="scale(0.015625)"/>
      <path id="CMR17-73" d="M 1978 2697 
C 1978 2813 1971 2819 1933 2819 
C 1907 2819 1901 2813 1824 2717 
C 1805 2691 1747 2626 1728 2601 
C 1523 2819 1235 2819 1126 2819 
C 416 2819 160 2447 160 2076 
C 160 1498 813 1365 998 1325 
C 1402 1243 1542 1217 1677 1101 
C 1760 1025 1901 884 1901 654 
C 1901 384 1747 38 1158 38 
C 602 38 403 460 288 1021 
C 269 1110 269 1117 218 1117 
C 166 1117 160 1110 160 983 
L 160 63 
C 160 -51 166 -58 205 -58 
C 237 -58 243 -51 275 0 
C 314 57 410 211 448 276 
C 576 103 800 -64 1158 -64 
C 1792 -64 2131 283 2131 784 
C 2131 1112 1958 1285 1875 1362 
C 1683 1561 1459 1606 1190 1657 
C 838 1735 390 1825 390 2217 
C 390 2383 480 2737 1126 2737 
C 1811 2737 1850 2094 1862 1888 
C 1869 1856 1901 1849 1920 1849 
C 1978 1849 1978 1869 1978 1978 
L 1978 2697 
z
" transform="scale(0.015625)"/>
      <path id="CMR17-69" d="M 992 3909 
C 992 4049 877 4170 730 4170 
C 589 4170 467 4056 467 3909 
C 467 3769 582 3648 730 3648 
C 870 3648 992 3763 992 3909 
z
M 243 2706 
L 243 2541 
C 602 2541 653 2502 653 2197 
L 653 427 
C 653 184 627 153 218 153 
L 218 -13 
C 371 0 646 0 806 0 
C 960 0 1222 0 1370 -13 
L 1370 153 
C 992 153 979 191 979 420 
L 979 2776 
L 243 2706 
z
" transform="scale(0.015625)"/>
      <path id="CMR17-74" d="M 966 2560 
L 1862 2560 
L 1862 2725 
L 966 2725 
L 966 3904 
L 851 3904 
C 838 3245 614 2668 70 2668 
L 70 2560 
L 627 2560 
L 627 771 
C 627 650 627 -64 1370 -64 
C 1747 -64 1965 306 1965 777 
L 1965 1140 
L 1850 1140 
L 1850 783 
C 1850 344 1677 51 1408 51 
C 1222 51 966 178 966 758 
L 966 2560 
z
" transform="scale(0.015625)"/>
      <path id="CMR17-6e" d="M 2656 1933 
C 2656 2259 2592 2790 1837 2790 
C 1331 2790 1069 2400 973 2144 
L 966 2144 
L 966 2790 
L 211 2720 
L 211 2554 
C 589 2554 646 2515 646 2208 
L 646 428 
C 646 184 621 153 211 153 
L 211 -13 
C 365 0 646 0 813 0 
C 979 0 1267 0 1421 -13 
L 1421 153 
C 1011 153 986 178 986 428 
L 986 1658 
C 986 2247 1344 2688 1792 2688 
C 2266 2688 2317 2266 2317 1958 
L 2317 428 
C 2317 184 2291 153 1882 153 
L 1882 -13 
C 2035 0 2317 0 2483 0 
C 2650 0 2938 0 3091 -13 
L 3091 153 
C 2682 153 2656 178 2656 428 
L 2656 1933 
z
" transform="scale(0.015625)"/>
      <path id="CMR17-76" d="M 2502 2163 
C 2560 2304 2662 2560 3034 2560 
L 3034 2726 
C 2912 2726 2752 2726 2630 2726 
C 2496 2726 2285 2726 2157 2732 
L 2157 2566 
C 2317 2553 2406 2477 2406 2311 
C 2406 2253 2406 2240 2368 2151 
L 1664 377 
L 902 2286 
C 864 2369 864 2381 864 2407 
C 864 2560 1075 2560 1171 2560 
L 1171 2732 
C 1018 2726 736 2726 576 2726 
C 403 2726 205 2726 64 2732 
L 64 2560 
C 307 2560 442 2560 518 2362 
L 1446 44 
C 1485 -51 1491 -64 1549 -64 
C 1606 -64 1613 -51 1651 44 
L 2502 2163 
z
" transform="scale(0.015625)"/>
      <path id="CMR17-2e" d="M 1062 261 
C 1062 420 934 522 800 522 
C 672 522 538 420 538 261 
C 538 102 666 0 800 0 
C 928 0 1062 102 1062 261 
z
" transform="scale(0.015625)"/>
      <path id="CMR17-54" d="M 3981 4326 
L 288 4326 
L 179 2918 
L 294 2918 
C 378 3976 467 4160 1453 4160 
C 1568 4160 1754 4160 1805 4154 
C 1926 4135 1926 4058 1926 3912 
L 1926 459 
C 1926 230 1907 160 1376 160 
L 1197 160 
L 1197 0 
C 1504 0 1824 0 2138 0 
C 2451 0 2771 0 3078 0 
L 3078 160 
L 2899 160 
C 2368 160 2349 230 2349 459 
L 2349 3912 
C 2349 4052 2349 4129 2464 4154 
C 2515 4160 2701 4160 2816 4160 
C 3795 4160 3891 3976 3974 2918 
L 4090 2918 
L 3981 4326 
z
" transform="scale(0.015625)"/>
      <path id="CMR17-6d" d="M 4326 1933 
C 4326 2252 4269 2790 3507 2790 
C 3072 2790 2771 2496 2656 2151 
L 2650 2151 
C 2573 2676 2195 2790 1837 2790 
C 1331 2790 1069 2400 973 2144 
L 966 2144 
L 966 2790 
L 211 2720 
L 211 2554 
C 589 2554 646 2515 646 2208 
L 646 428 
C 646 184 621 153 211 153 
L 211 -13 
C 365 0 646 0 813 0 
C 979 0 1267 0 1421 -13 
L 1421 153 
C 1011 153 986 178 986 428 
L 986 1658 
C 986 2247 1344 2688 1792 2688 
C 2266 2688 2317 2266 2317 1958 
L 2317 428 
C 2317 184 2291 153 1882 153 
L 1882 -13 
C 2035 0 2317 0 2483 0 
C 2650 0 2938 0 3091 -13 
L 3091 153 
C 2682 153 2656 178 2656 428 
L 2656 1658 
C 2656 2247 3014 2688 3462 2688 
C 3936 2688 3987 2266 3987 1958 
L 3987 428 
C 3987 184 3962 153 3552 153 
L 3552 -13 
C 3706 0 3987 0 4154 0 
C 4320 0 4608 0 4762 -13 
L 4762 153 
C 4352 153 4326 178 4326 428 
L 4326 1933 
z
" transform="scale(0.015625)"/>
      <path id="CMR17-65" d="M 2438 1472 
C 2464 1498 2464 1511 2464 1576 
C 2464 2238 2118 2816 1389 2816 
C 710 2816 173 2169 173 1383 
C 173 551 781 -64 1459 -64 
C 2176 -64 2458 607 2458 740 
C 2458 784 2419 784 2406 784 
C 2362 784 2355 771 2330 696 
C 2189 265 1837 51 1504 51 
C 1229 51 954 203 781 480 
C 582 803 582 1176 582 1472 
L 2438 1472 
z
M 589 1568 
C 634 2505 1126 2714 1382 2714 
C 1818 2714 2112 2297 2118 1568 
L 589 1568 
z
" transform="scale(0.015625)"/>
      <path id="CMR17-77" d="M 3725 2183 
C 3853 2560 4109 2560 4205 2560 
L 4205 2732 
C 4077 2732 3949 2732 3821 2732 
C 3699 2732 3424 2732 3315 2738 
L 3315 2560 
C 3514 2560 3622 2445 3622 2286 
C 3622 2241 3610 2184 3597 2140 
L 2995 407 
L 2342 2275 
C 2330 2319 2310 2370 2310 2395 
C 2310 2560 2528 2560 2630 2560 
L 2630 2738 
C 2483 2732 2214 2732 2061 2732 
C 1901 2732 1734 2732 1587 2738 
L 1587 2560 
C 1939 2560 1939 2547 2074 2149 
L 1485 451 
L 851 2281 
C 819 2363 819 2376 819 2395 
C 819 2560 1037 2560 1139 2560 
L 1139 2738 
C 986 2732 717 2732 557 2732 
C 416 2732 198 2732 64 2738 
L 64 2560 
C 346 2560 416 2541 486 2331 
L 1274 49 
C 1299 -33 1318 -52 1370 -52 
C 1414 -52 1440 -39 1472 56 
L 2131 1980 
L 2797 56 
C 2829 -39 2854 -52 2899 -52 
C 2950 -52 2970 -33 2995 50 
L 3725 2183 
z
" transform="scale(0.015625)"/>
      <path id="CMR17-68" d="M 2656 1933 
C 2656 2259 2592 2790 1837 2790 
C 1312 2790 1056 2368 979 2157 
L 973 2157 
L 973 4396 
L 211 4326 
L 211 4160 
C 589 4160 646 4122 646 3817 
L 646 426 
C 646 184 621 153 211 153 
L 211 -13 
C 365 0 646 0 813 0 
C 979 0 1267 0 1421 -13 
L 1421 153 
C 1011 153 986 178 986 428 
L 986 1658 
C 986 2247 1344 2688 1792 2688 
C 2266 2688 2317 2266 2317 1958 
L 2317 428 
C 2317 184 2291 153 1882 153 
L 1882 -13 
C 2035 0 2317 0 2483 0 
C 2650 0 2938 0 3091 -13 
L 3091 153 
C 2682 153 2656 178 2656 428 
L 2656 1933 
z
" transform="scale(0.015625)"/>
      <path id="CMMI12-b" d="M 2963 1616 
C 2963 2235 2611 2815 1933 2815 
C 1094 2815 256 1902 256 996 
C 256 441 602 -64 1254 -64 
C 1651 -64 2125 89 2579 472 
C 2669 115 2867 -64 3142 -64 
C 3488 -64 3661 294 3661 377 
C 3661 434 3616 434 3597 434 
C 3546 434 3539 415 3520 364 
C 3462 204 3315 64 3162 64 
C 2963 64 2963 472 2963 862 
C 3616 1641 3770 2446 3770 2452 
C 3770 2510 3718 2510 3699 2510 
C 3642 2510 3635 2491 3610 2376 
C 3526 2095 3360 1597 2963 1073 
L 2963 1616 
z
M 2560 626 
C 1997 121 1491 64 1267 64 
C 813 64 685 466 685 766 
C 685 1040 826 1692 1024 2044 
C 1286 2491 1645 2688 1933 2688 
C 2554 2688 2554 1877 2554 1341 
C 2554 1182 2547 1016 2547 856 
C 2547 728 2554 696 2560 626 
z
" transform="scale(0.015625)"/>
      <path id="CMR17-3d" d="M 4115 2017 
C 4211 2017 4307 2017 4307 2125 
C 4307 2240 4198 2240 4090 2240 
L 512 2240 
C 403 2240 294 2240 294 2125 
C 294 2017 390 2017 486 2017 
L 4115 2017 
z
M 4090 896 
C 4198 896 4307 896 4307 1011 
C 4307 1119 4211 1119 4115 1119 
L 486 1119 
C 390 1119 294 1119 294 1011 
C 294 896 403 896 512 896 
L 4090 896 
z
" transform="scale(0.015625)"/>
      <path id="CMMI12-3a" d="M 1178 307 
C 1178 492 1024 619 870 619 
C 685 619 557 466 557 313 
C 557 128 710 0 864 0 
C 1050 0 1178 153 1178 307 
z
" transform="scale(0.015625)"/>
      <path id="CMR17-36" d="M 678 2176 
C 678 3690 1395 4032 1811 4032 
C 1946 4032 2272 4009 2400 3776 
C 2298 3776 2106 3776 2106 3553 
C 2106 3381 2246 3323 2336 3323 
C 2394 3323 2566 3348 2566 3560 
C 2566 3954 2246 4179 1805 4179 
C 1043 4179 243 3390 243 1984 
C 243 253 966 -128 1478 -128 
C 2099 -128 2688 427 2688 1283 
C 2688 2081 2170 2662 1517 2662 
C 1126 2662 838 2407 678 1960 
L 678 2176 
z
M 1478 25 
C 691 25 691 1200 691 1436 
C 691 1896 909 2560 1504 2560 
C 1613 2560 1926 2560 2138 2120 
C 2253 1870 2253 1609 2253 1289 
C 2253 944 2253 690 2118 434 
C 1978 171 1773 25 1478 25 
z
" transform="scale(0.015625)"/>
      <path id="CMMI12-3b" d="M 1248 -31 
C 1248 343 1126 619 864 619 
C 659 619 557 453 557 313 
C 557 172 653 0 870 0 
C 954 0 1024 26 1082 83 
C 1094 96 1101 96 1107 96 
C 1120 96 1120 5 1120 -27 
C 1120 -240 1082 -659 710 -1080 
C 640 -1157 640 -1170 640 -1183 
C 640 -1216 672 -1248 704 -1248 
C 755 -1248 1248 -771 1248 -31 
z
" transform="scale(0.015625)"/>
      <path id="CMMI12-c" d="M 3622 3701 
C 3622 4081 3296 4480 2714 4480 
C 1888 4480 1363 3477 1197 2816 
L 186 -1172 
C 173 -1223 211 -1236 243 -1236 
C 288 -1236 320 -1230 326 -1198 
L 774 586 
C 838 229 1190 -64 1568 -64 
C 2483 -64 3347 650 3347 1599 
C 3347 1841 3290 2083 3155 2287 
C 3078 2408 2982 2497 2880 2574 
C 3341 2815 3622 3200 3622 3701 
z
M 2509 2580 
C 2406 2542 2304 2529 2182 2529 
C 2093 2529 2010 2523 1894 2561 
C 1958 2606 2054 2618 2189 2618 
C 2304 2618 2419 2606 2509 2580 
z
M 3290 3758 
C 3290 3410 3117 2903 2701 2669 
C 2579 2718 2413 2752 2272 2752 
C 2138 2752 1754 2752 1754 2555 
C 1754 2389 2106 2389 2214 2389 
C 2381 2389 2528 2432 2682 2484 
C 2886 2318 2976 2101 2976 1783 
C 2976 1413 2874 1115 2752 841 
C 2541 369 2042 64 1600 64 
C 1133 64 890 432 890 864 
C 890 922 890 1005 915 1099 
L 1331 2771 
C 1542 3603 2080 4353 2701 4353 
C 3162 4353 3290 4036 3290 3758 
z
" transform="scale(0.015625)"/>
      <path id="CMR17-31" d="M 1702 4058 
C 1702 4192 1696 4192 1606 4192 
C 1357 3916 979 3827 621 3827 
C 602 3827 570 3827 563 3808 
C 557 3795 557 3782 557 3648 
C 755 3648 1088 3686 1344 3839 
L 1344 461 
C 1344 236 1331 160 781 160 
L 589 160 
L 589 0 
C 896 0 1216 0 1523 0 
C 1830 0 2150 0 2458 0 
L 2458 160 
L 2266 160 
C 1715 160 1702 230 1702 458 
L 1702 4058 
z
" transform="scale(0.015625)"/>
      <path id="CMR17-33" d="M 1414 2157 
C 1984 2157 2234 1662 2234 1090 
C 2234 320 1824 25 1453 25 
C 1114 25 563 194 390 693 
C 422 680 454 680 486 680 
C 640 680 755 782 755 948 
C 755 1133 614 1216 486 1216 
C 378 1216 211 1165 211 926 
C 211 335 787 -128 1466 -128 
C 2176 -128 2720 430 2720 1085 
C 2720 1707 2208 2157 1600 2227 
C 2086 2328 2554 2756 2554 3329 
C 2554 3820 2048 4179 1472 4179 
C 890 4179 378 3829 378 3329 
C 378 3110 544 3072 627 3072 
C 762 3072 877 3155 877 3321 
C 877 3486 762 3569 627 3569 
C 602 3569 570 3569 544 3557 
C 730 3959 1235 4032 1459 4032 
C 1683 4032 2106 3925 2106 3320 
C 2106 3143 2080 2828 1862 2550 
C 1670 2304 1453 2304 1242 2284 
C 1210 2284 1062 2269 1037 2269 
C 992 2263 966 2257 966 2208 
C 966 2163 973 2157 1101 2157 
L 1414 2157 
z
" transform="scale(0.015625)"/>
      <path id="CMMI12-d" d="M 2419 760 
C 2406 1071 2394 1561 2150 2133 
C 2022 2452 1805 2788 1338 2788 
C 550 2788 122 1790 122 1625 
C 122 1567 166 1567 186 1567 
C 243 1567 243 1580 275 1663 
C 410 2057 819 2368 1261 2368 
C 2150 2368 2278 1383 2278 754 
C 2278 352 2234 220 2195 92 
C 2074 -302 1862 -1090 1862 -1268 
C 1862 -1319 1882 -1376 1933 -1376 
C 2029 -1376 2086 -1166 2157 -912 
C 2310 -353 2349 -73 2381 181 
C 2400 334 2765 1384 3270 2382 
C 3315 2483 3405 2655 3405 2674 
C 3405 2680 3398 2725 3341 2725 
C 3328 2725 3296 2725 3283 2699 
C 3270 2687 3046 2254 2854 1822 
C 2758 1606 2630 1320 2419 760 
z
" transform="scale(0.015625)"/>
      <path id="CMMI12-e" d="M 1664 2795 
C 845 2597 256 1748 256 1001 
C 256 319 717 -64 1229 -64 
C 1984 -64 2496 970 2496 1818 
C 2496 2392 2227 2744 2067 2954 
C 1830 3254 1446 3746 1446 4052 
C 1446 4161 1530 4352 1811 4352 
C 2010 4352 2131 4282 2323 4173 
C 2381 4134 2528 4052 2611 4052 
C 2746 4052 2842 4185 2842 4287 
C 2842 4409 2746 4428 2522 4479 
C 2221 4543 2131 4543 2022 4543 
C 1914 4543 1286 4543 1286 3892 
C 1286 3579 1446 3216 1664 2795 
z
M 1734 2669 
C 1978 2165 2074 1974 2074 1560 
C 2074 1063 1805 63 1235 63 
C 986 63 627 229 627 821 
C 627 1235 864 2439 1734 2669 
z
" transform="scale(0.015625)"/>
     </defs>
     <use xlink:href="#CMR17-50" transform="scale(0.996264)"/>
     <use xlink:href="#CMR17-6f" transform="translate(59.983847 0) scale(0.996264)"/>
     <use xlink:href="#CMR17-73" transform="translate(105.674324 0) scale(0.996264)"/>
     <use xlink:href="#CMR17-69" transform="translate(141.475661 0) scale(0.996264)"/>
     <use xlink:href="#CMR17-74" transform="translate(166.34672 0) scale(0.996264)"/>
     <use xlink:href="#CMR17-69" transform="translate(201.627488 0) scale(0.996264)"/>
     <use xlink:href="#CMR17-6f" transform="translate(226.498546 0) scale(0.996264)"/>
     <use xlink:href="#CMR17-6e" transform="translate(272.189023 0) scale(0.996264)"/>
     <use xlink:href="#CMR17-76" transform="translate(353.160359 0) scale(0.996264)"/>
     <use xlink:href="#CMR17-73" transform="translate(401.453275 0) scale(0.996264)"/>
     <use xlink:href="#CMR17-2e" transform="translate(437.254613 0) scale(0.996264)"/>
     <use xlink:href="#CMR17-54" transform="translate(502.611332 0) scale(0.996264)"/>
     <use xlink:href="#CMR17-69" transform="translate(569.121212 0) scale(0.996264)"/>
     <use xlink:href="#CMR17-6d" transform="translate(593.992271 0) scale(0.996264)"/>
     <use xlink:href="#CMR17-65" transform="translate(670.911861 0) scale(0.996264)"/>
     <use xlink:href="#CMR17-77" transform="translate(741.473487 0) scale(0.996264)"/>
     <use xlink:href="#CMR17-69" transform="translate(807.983368 0) scale(0.996264)"/>
     <use xlink:href="#CMR17-74" transform="translate(832.854427 0) scale(0.996264)"/>
     <use xlink:href="#CMR17-68" transform="translate(868.135194 0) scale(0.996264)"/>
     <use xlink:href="#CMMI12-b" transform="translate(949.10653 0) scale(0.996264)"/>
     <use xlink:href="#CMR17-3d" transform="translate(1039.461562 0) scale(0.996264)"/>
     <use xlink:href="#CMR17-30" transform="translate(1138.850359 0) scale(0.996264)"/>
     <use xlink:href="#CMMI12-3a" transform="translate(1184.540836 0) scale(0.996264)"/>
     <use xlink:href="#CMR17-36" transform="translate(1211.638013 0) scale(0.996264)"/>
     <use xlink:href="#CMR17-36" transform="translate(1257.32849 0) scale(0.996264)"/>
     <use xlink:href="#CMR17-36" transform="translate(1303.018968 0) scale(0.996264)"/>
     <use xlink:href="#CMR17-36" transform="translate(1348.709445 0) scale(0.996264)"/>
     <use xlink:href="#CMR17-36" transform="translate(1394.399922 0) scale(0.996264)"/>
     <use xlink:href="#CMMI12-3b" transform="translate(1440.090399 0) scale(0.996264)"/>
     <use xlink:href="#CMMI12-c" transform="translate(1483.791981 0) scale(0.996264)"/>
     <use xlink:href="#CMR17-3d" transform="translate(1572.060006 0) scale(0.996264)"/>
     <use xlink:href="#CMR17-31" transform="translate(1671.448803 0) scale(0.996264)"/>
     <use xlink:href="#CMMI12-3a" transform="translate(1717.13928 0) scale(0.996264)"/>
     <use xlink:href="#CMR17-33" transform="translate(1744.236457 0) scale(0.996264)"/>
     <use xlink:href="#CMR17-33" transform="translate(1789.926934 0) scale(0.996264)"/>
     <use xlink:href="#CMR17-33" transform="translate(1835.617411 0) scale(0.996264)"/>
     <use xlink:href="#CMR17-33" transform="translate(1881.307888 0) scale(0.996264)"/>
     <use xlink:href="#CMR17-33" transform="translate(1926.998366 0) scale(0.996264)"/>
     <use xlink:href="#CMMI12-3b" transform="translate(1972.688843 0) scale(0.996264)"/>
     <use xlink:href="#CMMI12-d" transform="translate(2016.390425 0) scale(0.996264)"/>
     <use xlink:href="#CMR17-3d" transform="translate(2100.083002 0) scale(0.996264)"/>
     <use xlink:href="#CMR17-31" transform="translate(2199.471799 0) scale(0.996264)"/>
     <use xlink:href="#CMMI12-3a" transform="translate(2245.162276 0) scale(0.996264)"/>
     <use xlink:href="#CMR17-30" transform="translate(2272.259453 0) scale(0.996264)"/>
     <use xlink:href="#CMMI12-3b" transform="translate(2317.94993 0) scale(0.996264)"/>
     <use xlink:href="#CMMI12-e" transform="translate(2361.651513 0) scale(0.996264)"/>
     <use xlink:href="#CMR17-3d" transform="translate(2436.266907 0) scale(0.996264)"/>
     <use xlink:href="#CMR17-31" transform="translate(2535.655705 0) scale(0.996264)"/>
     <use xlink:href="#CMMI12-3a" transform="translate(2581.346182 0) scale(0.996264)"/>
     <use xlink:href="#CMR17-30" transform="translate(2608.443359 0) scale(0.996264)"/>
    </g>
   </g>
  </g>
  <g id="axes_2">
   <g id="patch_7">
    <path d="M 63.495174 232.681136 
L 700 232.681136 
L 700 151.302727 
L 63.495174 151.302727 
z
" style="fill: #ffffff"/>
   </g>
   <g id="matplotlib.axis_3">
    <g id="xtick_24">
     <g id="line2d_70">
      <g>
       <use xlink:href="#m686a66f52b" x="64.90337" y="232.681136" style="stroke: #000000; stroke-width: 0.5"/>
      </g>
     </g>
     <g id="line2d_71">
      <g>
       <use xlink:href="#m19aff3a096" x="64.90337" y="151.302727" style="stroke: #000000; stroke-width: 0.5"/>
      </g>
     </g>
    </g>
    <g id="xtick_25">
     <g id="line2d_72">
      <g>
       <use xlink:href="#m686a66f52b" x="205.723022" y="232.681136" style="stroke: #000000; stroke-width: 0.5"/>
      </g>
     </g>
     <g id="line2d_73">
      <g>
       <use xlink:href="#m19aff3a096" x="205.723022" y="151.302727" style="stroke: #000000; stroke-width: 0.5"/>
      </g>
     </g>
    </g>
    <g id="xtick_26">
     <g id="line2d_74">
      <g>
       <use xlink:href="#m686a66f52b" x="346.542674" y="232.681136" style="stroke: #000000; stroke-width: 0.5"/>
      </g>
     </g>
     <g id="line2d_75">
      <g>
       <use xlink:href="#m19aff3a096" x="346.542674" y="151.302727" style="stroke: #000000; stroke-width: 0.5"/>
      </g>
     </g>
    </g>
    <g id="xtick_27">
     <g id="line2d_76">
      <g>
       <use xlink:href="#m686a66f52b" x="487.362326" y="232.681136" style="stroke: #000000; stroke-width: 0.5"/>
      </g>
     </g>
     <g id="line2d_77">
      <g>
       <use xlink:href="#m19aff3a096" x="487.362326" y="151.302727" style="stroke: #000000; stroke-width: 0.5"/>
      </g>
     </g>
    </g>
    <g id="xtick_28">
     <g id="line2d_78">
      <g>
       <use xlink:href="#m686a66f52b" x="628.181978" y="232.681136" style="stroke: #000000; stroke-width: 0.5"/>
      </g>
     </g>
     <g id="line2d_79">
      <g>
       <use xlink:href="#m19aff3a096" x="628.181978" y="151.302727" style="stroke: #000000; stroke-width: 0.5"/>
      </g>
     </g>
    </g>
    <g id="xtick_29">
     <g id="line2d_80">
      <g>
       <use xlink:href="#m4ea75abe7a" x="93.067301" y="232.681136" style="stroke: #000000; stroke-width: 0.5"/>
      </g>
     </g>
     <g id="line2d_81">
      <g>
       <use xlink:href="#maa45d63cc3" x="93.067301" y="151.302727" style="stroke: #000000; stroke-width: 0.5"/>
      </g>
     </g>
    </g>
    <g id="xtick_30">
     <g id="line2d_82">
      <g>
       <use xlink:href="#m4ea75abe7a" x="121.231231" y="232.681136" style="stroke: #000000; stroke-width: 0.5"/>
      </g>
     </g>
     <g id="line2d_83">
      <g>
       <use xlink:href="#maa45d63cc3" x="121.231231" y="151.302727" style="stroke: #000000; stroke-width: 0.5"/>
      </g>
     </g>
    </g>
    <g id="xtick_31">
     <g id="line2d_84">
      <g>
       <use xlink:href="#m4ea75abe7a" x="149.395161" y="232.681136" style="stroke: #000000; stroke-width: 0.5"/>
      </g>
     </g>
     <g id="line2d_85">
      <g>
       <use xlink:href="#maa45d63cc3" x="149.395161" y="151.302727" style="stroke: #000000; stroke-width: 0.5"/>
      </g>
     </g>
    </g>
    <g id="xtick_32">
     <g id="line2d_86">
      <g>
       <use xlink:href="#m4ea75abe7a" x="177.559092" y="232.681136" style="stroke: #000000; stroke-width: 0.5"/>
      </g>
     </g>
     <g id="line2d_87">
      <g>
       <use xlink:href="#maa45d63cc3" x="177.559092" y="151.302727" style="stroke: #000000; stroke-width: 0.5"/>
      </g>
     </g>
    </g>
    <g id="xtick_33">
     <g id="line2d_88">
      <g>
       <use xlink:href="#m4ea75abe7a" x="233.886952" y="232.681136" style="stroke: #000000; stroke-width: 0.5"/>
      </g>
     </g>
     <g id="line2d_89">
      <g>
       <use xlink:href="#maa45d63cc3" x="233.886952" y="151.302727" style="stroke: #000000; stroke-width: 0.5"/>
      </g>
     </g>
    </g>
    <g id="xtick_34">
     <g id="line2d_90">
      <g>
       <use xlink:href="#m4ea75abe7a" x="262.050883" y="232.681136" style="stroke: #000000; stroke-width: 0.5"/>
      </g>
     </g>
     <g id="line2d_91">
      <g>
       <use xlink:href="#maa45d63cc3" x="262.050883" y="151.302727" style="stroke: #000000; stroke-width: 0.5"/>
      </g>
     </g>
    </g>
    <g id="xtick_35">
     <g id="line2d_92">
      <g>
       <use xlink:href="#m4ea75abe7a" x="290.214813" y="232.681136" style="stroke: #000000; stroke-width: 0.5"/>
      </g>
     </g>
     <g id="line2d_93">
      <g>
       <use xlink:href="#maa45d63cc3" x="290.214813" y="151.302727" style="stroke: #000000; stroke-width: 0.5"/>
      </g>
     </g>
    </g>
    <g id="xtick_36">
     <g id="line2d_94">
      <g>
       <use xlink:href="#m4ea75abe7a" x="318.378744" y="232.681136" style="stroke: #000000; stroke-width: 0.5"/>
      </g>
     </g>
     <g id="line2d_95">
      <g>
       <use xlink:href="#maa45d63cc3" x="318.378744" y="151.302727" style="stroke: #000000; stroke-width: 0.5"/>
      </g>
     </g>
    </g>
    <g id="xtick_37">
     <g id="line2d_96">
      <g>
       <use xlink:href="#m4ea75abe7a" x="374.706604" y="232.681136" style="stroke: #000000; stroke-width: 0.5"/>
      </g>
     </g>
     <g id="line2d_97">
      <g>
       <use xlink:href="#maa45d63cc3" x="374.706604" y="151.302727" style="stroke: #000000; stroke-width: 0.5"/>
      </g>
     </g>
    </g>
    <g id="xtick_38">
     <g id="line2d_98">
      <g>
       <use xlink:href="#m4ea75abe7a" x="402.870535" y="232.681136" style="stroke: #000000; stroke-width: 0.5"/>
      </g>
     </g>
     <g id="line2d_99">
      <g>
       <use xlink:href="#maa45d63cc3" x="402.870535" y="151.302727" style="stroke: #000000; stroke-width: 0.5"/>
      </g>
     </g>
    </g>
    <g id="xtick_39">
     <g id="line2d_100">
      <g>
       <use xlink:href="#m4ea75abe7a" x="431.034465" y="232.681136" style="stroke: #000000; stroke-width: 0.5"/>
      </g>
     </g>
     <g id="line2d_101">
      <g>
       <use xlink:href="#maa45d63cc3" x="431.034465" y="151.302727" style="stroke: #000000; stroke-width: 0.5"/>
      </g>
     </g>
    </g>
    <g id="xtick_40">
     <g id="line2d_102">
      <g>
       <use xlink:href="#m4ea75abe7a" x="459.198395" y="232.681136" style="stroke: #000000; stroke-width: 0.5"/>
      </g>
     </g>
     <g id="line2d_103">
      <g>
       <use xlink:href="#maa45d63cc3" x="459.198395" y="151.302727" style="stroke: #000000; stroke-width: 0.5"/>
      </g>
     </g>
    </g>
    <g id="xtick_41">
     <g id="line2d_104">
      <g>
       <use xlink:href="#m4ea75abe7a" x="515.526256" y="232.681136" style="stroke: #000000; stroke-width: 0.5"/>
      </g>
     </g>
     <g id="line2d_105">
      <g>
       <use xlink:href="#maa45d63cc3" x="515.526256" y="151.302727" style="stroke: #000000; stroke-width: 0.5"/>
      </g>
     </g>
    </g>
    <g id="xtick_42">
     <g id="line2d_106">
      <g>
       <use xlink:href="#m4ea75abe7a" x="543.690186" y="232.681136" style="stroke: #000000; stroke-width: 0.5"/>
      </g>
     </g>
     <g id="line2d_107">
      <g>
       <use xlink:href="#maa45d63cc3" x="543.690186" y="151.302727" style="stroke: #000000; stroke-width: 0.5"/>
      </g>
     </g>
    </g>
    <g id="xtick_43">
     <g id="line2d_108">
      <g>
       <use xlink:href="#m4ea75abe7a" x="571.854117" y="232.681136" style="stroke: #000000; stroke-width: 0.5"/>
      </g>
     </g>
     <g id="line2d_109">
      <g>
       <use xlink:href="#maa45d63cc3" x="571.854117" y="151.302727" style="stroke: #000000; stroke-width: 0.5"/>
      </g>
     </g>
    </g>
    <g id="xtick_44">
     <g id="line2d_110">
      <g>
       <use xlink:href="#m4ea75abe7a" x="600.018047" y="232.681136" style="stroke: #000000; stroke-width: 0.5"/>
      </g>
     </g>
     <g id="line2d_111">
      <g>
       <use xlink:href="#maa45d63cc3" x="600.018047" y="151.302727" style="stroke: #000000; stroke-width: 0.5"/>
      </g>
     </g>
    </g>
    <g id="xtick_45">
     <g id="line2d_112">
      <g>
       <use xlink:href="#m4ea75abe7a" x="656.345908" y="232.681136" style="stroke: #000000; stroke-width: 0.5"/>
      </g>
     </g>
     <g id="line2d_113">
      <g>
       <use xlink:href="#maa45d63cc3" x="656.345908" y="151.302727" style="stroke: #000000; stroke-width: 0.5"/>
      </g>
     </g>
    </g>
    <g id="xtick_46">
     <g id="line2d_114">
      <g>
       <use xlink:href="#m4ea75abe7a" x="684.509838" y="232.681136" style="stroke: #000000; stroke-width: 0.5"/>
      </g>
     </g>
     <g id="line2d_115">
      <g>
       <use xlink:href="#maa45d63cc3" x="684.509838" y="151.302727" style="stroke: #000000; stroke-width: 0.5"/>
      </g>
     </g>
    </g>
   </g>
   <g id="matplotlib.axis_4">
    <g id="ytick_12">
     <g id="line2d_116">
      <g>
       <use xlink:href="#m0cd2d5ce5d" x="63.495174" y="228.982118" style="stroke: #000000; stroke-width: 0.5"/>
      </g>
     </g>
     <g id="line2d_117">
      <g>
       <use xlink:href="#m75a6f2b7e8" x="700" y="228.982118" style="stroke: #000000; stroke-width: 0.5"/>
      </g>
     </g>
     <g id="text_6">
      <!-- $\mathdefault{−5}$ -->
      <g transform="translate(47.265095 232.441367) scale(0.1 -0.1)">
       <use xlink:href="#CMSY10-0" transform="scale(0.996264)"/>
       <use xlink:href="#CMR17-35" transform="translate(77.487468 0) scale(0.996264)"/>
      </g>
     </g>
    </g>
    <g id="ytick_13">
     <g id="line2d_118">
      <g>
       <use xlink:href="#m0cd2d5ce5d" x="63.495174" y="191.991932" style="stroke: #000000; stroke-width: 0.5"/>
      </g>
     </g>
     <g id="line2d_119">
      <g>
       <use xlink:href="#m75a6f2b7e8" x="700" y="191.991932" style="stroke: #000000; stroke-width: 0.5"/>
      </g>
     </g>
     <g id="text_7">
      <!-- $\mathdefault{0}$ -->
      <g transform="translate(55.013838 195.451181) scale(0.1 -0.1)">
       <use xlink:href="#CMR17-30" transform="scale(0.996264)"/>
      </g>
     </g>
    </g>
    <g id="ytick_14">
     <g id="line2d_120">
      <g>
       <use xlink:href="#m0cd2d5ce5d" x="63.495174" y="155.001745" style="stroke: #000000; stroke-width: 0.5"/>
      </g>
     </g>
     <g id="line2d_121">
      <g>
       <use xlink:href="#m75a6f2b7e8" x="700" y="155.001745" style="stroke: #000000; stroke-width: 0.5"/>
      </g>
     </g>
     <g id="text_8">
      <!-- $\mathdefault{5}$ -->
      <g transform="translate(55.013838 158.460994) scale(0.1 -0.1)">
       <use xlink:href="#CMR17-35" transform="scale(0.996264)"/>
      </g>
     </g>
    </g>
    <g id="ytick_15">
     <g id="line2d_122">
      <g>
       <use xlink:href="#m1dcdebc688" x="63.495174" y="221.584081" style="stroke: #000000; stroke-width: 0.5"/>
      </g>
     </g>
     <g id="line2d_123">
      <g>
       <use xlink:href="#m4504504226" x="700" y="221.584081" style="stroke: #000000; stroke-width: 0.5"/>
      </g>
     </g>
    </g>
    <g id="ytick_16">
     <g id="line2d_124">
      <g>
       <use xlink:href="#m1dcdebc688" x="63.495174" y="214.186043" style="stroke: #000000; stroke-width: 0.5"/>
      </g>
     </g>
     <g id="line2d_125">
      <g>
       <use xlink:href="#m4504504226" x="700" y="214.186043" style="stroke: #000000; stroke-width: 0.5"/>
      </g>
     </g>
    </g>
    <g id="ytick_17">
     <g id="line2d_126">
      <g>
       <use xlink:href="#m1dcdebc688" x="63.495174" y="206.788006" style="stroke: #000000; stroke-width: 0.5"/>
      </g>
     </g>
     <g id="line2d_127">
      <g>
       <use xlink:href="#m4504504226" x="700" y="206.788006" style="stroke: #000000; stroke-width: 0.5"/>
      </g>
     </g>
    </g>
    <g id="ytick_18">
     <g id="line2d_128">
      <g>
       <use xlink:href="#m1dcdebc688" x="63.495174" y="199.389969" style="stroke: #000000; stroke-width: 0.5"/>
      </g>
     </g>
     <g id="line2d_129">
      <g>
       <use xlink:href="#m4504504226" x="700" y="199.389969" style="stroke: #000000; stroke-width: 0.5"/>
      </g>
     </g>
    </g>
    <g id="ytick_19">
     <g id="line2d_130">
      <g>
       <use xlink:href="#m1dcdebc688" x="63.495174" y="184.593894" style="stroke: #000000; stroke-width: 0.5"/>
      </g>
     </g>
     <g id="line2d_131">
      <g>
       <use xlink:href="#m4504504226" x="700" y="184.593894" style="stroke: #000000; stroke-width: 0.5"/>
      </g>
     </g>
    </g>
    <g id="ytick_20">
     <g id="line2d_132">
      <g>
       <use xlink:href="#m1dcdebc688" x="63.495174" y="177.195857" style="stroke: #000000; stroke-width: 0.5"/>
      </g>
     </g>
     <g id="line2d_133">
      <g>
       <use xlink:href="#m4504504226" x="700" y="177.195857" style="stroke: #000000; stroke-width: 0.5"/>
      </g>
     </g>
    </g>
    <g id="ytick_21">
     <g id="line2d_134">
      <g>
       <use xlink:href="#m1dcdebc688" x="63.495174" y="169.79782" style="stroke: #000000; stroke-width: 0.5"/>
      </g>
     </g>
     <g id="line2d_135">
      <g>
       <use xlink:href="#m4504504226" x="700" y="169.79782" style="stroke: #000000; stroke-width: 0.5"/>
      </g>
     </g>
    </g>
    <g id="ytick_22">
     <g id="line2d_136">
      <g>
       <use xlink:href="#m1dcdebc688" x="63.495174" y="162.399782" style="stroke: #000000; stroke-width: 0.5"/>
      </g>
     </g>
     <g id="line2d_137">
      <g>
       <use xlink:href="#m4504504226" x="700" y="162.399782" style="stroke: #000000; stroke-width: 0.5"/>
      </g>
     </g>
    </g>
    <g id="text_9">
     <!-- $\dot{q}(t)$ -->
     <g transform="translate(20 188.754073) scale(0.13 -0.13)">
      <defs>
       <path id="CMR17-5f" d="M 1056 3909 
C 1056 4062 934 4170 800 4170 
C 646 4170 538 4049 538 3909 
C 538 3756 659 3648 794 3648 
C 947 3648 1056 3769 1056 3909 
z
" transform="scale(0.015625)"/>
      </defs>
      <use xlink:href="#CMR17-5f" transform="translate(19.106786 0.006461) scale(0.996264)"/>
      <use xlink:href="#CMMI12-71" transform="scale(0.996264)"/>
      <use xlink:href="#CMR17-28" transform="translate(46.826324 0) scale(0.996264)"/>
      <use xlink:href="#CMMI12-74" transform="translate(82.107092 0) scale(0.996264)"/>
      <use xlink:href="#CMR17-29" transform="translate(117.333422 0) scale(0.996264)"/>
     </g>
    </g>
   </g>
   <g id="line2d_138">
    <path d="M 64.90337 191.917951 
L 66.172016 193.659092 
L 67.440661 194.966215 
L 68.709307 195.940546 
L 69.977952 196.661583 
L 71.880921 197.407331 
L 73.783889 197.895238 
L 76.32118 198.303005 
L 80.127116 198.631722 
L 85.836021 198.846423 
L 95.350863 198.927712 
L 108.67164 198.812392 
L 121.358096 198.496437 
L 131.50726 198.036697 
L 139.753455 197.455266 
L 146.731006 196.743472 
L 152.439911 195.953444 
L 157.514493 195.04867 
L 162.589075 193.906132 
L 167.029334 192.65959 
L 170.835271 191.364873 
L 174.641207 189.820517 
L 177.812821 188.311934 
L 180.984435 186.573036 
L 184.156048 184.574646 
L 187.327662 182.287573 
L 190.499276 179.692212 
L 193.67089 176.796488 
L 201.917086 168.954935 
L 203.185731 168.152733 
L 204.454377 167.697396 
L 205.088699 167.641083 
L 205.723022 167.72357 
L 206.357345 167.964872 
L 206.991668 168.386277 
L 207.62599 169.010347 
L 208.260313 169.854043 
L 209.528959 172.182279 
L 210.797604 175.253764 
L 213.334895 182.540622 
L 215.237863 187.578757 
L 216.506509 190.285666 
L 217.775154 192.415906 
L 219.0438 194.03869 
L 220.312445 195.257205 
L 221.581091 196.166408 
L 222.849736 196.833285 
L 224.752705 197.522108 
L 226.655673 197.974203 
L 229.192964 198.351707 
L 232.998901 198.65871 
L 238.707805 198.859478 
L 248.222647 198.933181 
L 262.177747 198.803531 
L 274.864202 198.472533 
L 285.013367 197.997569 
L 293.259562 197.40022 
L 300.237113 196.668139 
L 305.946018 195.853037 
L 311.0206 194.916372 
L 315.460859 193.895421 
L 319.901118 192.644691 
L 323.707055 191.347182 
L 327.512991 189.80054 
L 330.684605 188.289784 
L 333.856219 186.547502 
L 337.027833 184.552491 
L 340.199446 182.262143 
L 343.37106 179.6372 
L 346.542674 176.70945 
L 354.78887 168.850022 
L 356.057515 168.032949 
L 357.326161 167.560069 
L 357.960484 167.497607 
L 358.594806 167.578574 
L 359.229129 167.823863 
L 359.863452 168.254619 
L 360.497775 168.889228 
L 361.132097 169.737733 
L 362.400743 172.074691 
L 363.669388 175.178196 
L 368.74397 189.081317 
L 370.012616 191.483244 
L 371.281261 193.347212 
L 372.549907 194.7537 
L 373.818552 195.79101 
L 375.087198 196.551847 
L 376.990166 197.346922 
L 378.893134 197.876476 
L 381.430425 198.299936 
L 385.236362 198.638571 
L 390.310944 198.841862 
L 399.191463 198.941076 
L 412.512241 198.852932 
L 425.833018 198.552983 
L 436.616505 198.094061 
L 444.862701 197.533301 
L 451.840251 196.846365 
L 458.183479 195.991559 
L 463.258061 195.101315 
L 467.69832 194.12896 
L 472.13858 192.93142 
L 475.944516 191.686855 
L 479.750453 190.201553 
L 482.922066 188.74961 
L 486.09368 187.074393 
L 489.265294 185.146774 
L 492.436908 182.936289 
L 495.608522 180.418672 
L 498.780135 177.587918 
L 502.586072 173.84889 
L 506.392008 170.087511 
L 508.294977 168.512693 
L 509.563622 167.752708 
L 510.832268 167.36933 
L 511.46659 167.364948 
L 512.100913 167.515703 
L 512.735236 167.845506 
L 513.369559 168.372497 
L 514.003881 169.109047 
L 514.638204 170.061753 
L 515.90685 172.613141 
L 517.175495 175.907434 
L 520.981432 186.84759 
L 522.250077 189.705679 
L 523.518723 191.986503 
L 524.787368 193.732123 
L 526.056014 195.023348 
L 527.324659 195.979273 
L 528.593305 196.693623 
L 530.496273 197.440598 
L 532.399241 197.940082 
L 534.936532 198.340407 
L 538.742469 198.660514 
L 544.451374 198.867347 
L 553.966215 198.946662 
L 567.921316 198.825872 
L 580.607771 198.510771 
L 590.756935 198.057957 
L 599.003131 197.480591 
L 605.980681 196.772252 
L 611.689586 195.98859 
L 616.764168 195.095312 
L 621.204427 194.121733 
L 625.644687 192.922747 
L 629.450623 191.676067 
L 633.25656 190.187548 
L 636.428173 188.732079 
L 639.599787 187.052718 
L 642.771401 185.120622 
L 645.943015 182.905123 
L 649.114629 180.380792 
L 652.286242 177.542248 
L 656.092179 173.789674 
L 659.898115 170.010265 
L 661.801084 168.424144 
L 663.069729 167.659697 
L 664.338375 167.264152 
L 664.972697 167.258694 
L 665.60702 167.413627 
L 666.241343 167.748434 
L 666.875666 168.278811 
L 667.509988 169.016668 
L 668.144311 169.970124 
L 669.412957 172.535011 
L 670.681602 175.836872 
L 675.121862 188.498592 
L 676.390507 191.031425 
L 677.659153 193.010118 
L 678.927798 194.518085 
L 680.196444 195.636929 
L 681.465089 196.448309 
L 682.733735 197.043638 
L 684.636703 197.670094 
L 686.539671 198.085942 
L 689.711285 198.48524 
L 694.151544 198.759965 
L 698.591803 198.883043 
L 698.591803 198.883043 
" clip-path="url(#p0f275e22e4)" style="fill: none; stroke: #ffa500; stroke-width: 1.5; stroke-linecap: square"/>
   </g>
   <g id="patch_8">
    <path d="M 63.495174 232.681136 
L 63.495174 151.302727 
" style="fill: none; stroke: #000000; stroke-width: 0.8; stroke-linejoin: miter; stroke-linecap: square"/>
   </g>
   <g id="patch_9">
    <path d="M 700 232.681136 
L 700 151.302727 
" style="fill: none; stroke: #000000; stroke-width: 0.8; stroke-linejoin: miter; stroke-linecap: square"/>
   </g>
   <g id="patch_10">
    <path d="M 63.495174 232.681136 
L 700 232.681136 
" style="fill: none; stroke: #000000; stroke-width: 0.8; stroke-linejoin: miter; stroke-linecap: square"/>
   </g>
   <g id="patch_11">
    <path d="M 63.495174 151.302727 
L 700 151.302727 
" style="fill: none; stroke: #000000; stroke-width: 0.8; stroke-linejoin: miter; stroke-linecap: square"/>
   </g>
   <g id="text_10">
    <!-- Velocity vs. Time with $\alpha = 0.66666, \beta = 1.33333, \gamma = 1.0, \delta = 1.0$ -->
    <g transform="translate(214.650895 145.302727) scale(0.12 -0.12)">
     <defs>
      <path id="CMR17-56" d="M 3776 3745 
C 3834 3886 3936 4160 4365 4160 
L 4365 4332 
C 4218 4319 4051 4319 3891 4319 
C 3738 4319 3475 4319 3328 4332 
L 3328 4160 
C 3648 4160 3661 3936 3661 3898 
C 3661 3827 3642 3783 3622 3732 
L 2362 446 
L 1043 3886 
C 1024 3931 1011 3963 1011 3994 
C 1011 4160 1267 4160 1402 4160 
L 1402 4319 
C 1197 4319 896 4319 685 4319 
C 518 4319 218 4319 64 4332 
L 64 4160 
C 435 4160 506 4135 582 3931 
L 2106 -26 
C 2138 -115 2144 -128 2214 -128 
C 2285 -128 2291 -115 2323 -26 
L 3776 3745 
z
" transform="scale(0.015625)"/>
      <path id="CMR17-6c" d="M 979 4396 
L 218 4326 
L 218 4160 
C 595 4160 653 4122 653 3817 
L 653 426 
C 653 184 627 153 218 153 
L 218 -13 
C 371 0 653 0 813 0 
C 979 0 1261 0 1414 -13 
L 1414 153 
C 1005 153 979 178 979 426 
L 979 4396 
z
" transform="scale(0.015625)"/>
      <path id="CMR17-63" d="M 2234 2240 
C 2112 2240 1933 2240 1933 2017 
C 1933 1838 2080 1787 2163 1787 
C 2208 1787 2394 1807 2394 2024 
C 2394 2467 1958 2803 1466 2803 
C 787 2803 211 2178 211 1363 
C 211 516 813 -64 1466 -64 
C 2259 -64 2458 677 2458 748 
C 2458 774 2451 793 2406 793 
C 2362 793 2355 787 2330 703 
C 2163 180 1798 51 1523 51 
C 1114 51 621 427 621 1369 
C 621 2338 1094 2688 1472 2688 
C 1722 2688 2093 2573 2234 2240 
z
" transform="scale(0.015625)"/>
      <path id="CMR17-79" d="M 2496 2197 
C 2656 2586 2944 2586 3034 2586 
L 3034 2752 
C 2912 2752 2752 2752 2630 2752 
C 2496 2752 2285 2752 2157 2758 
L 2157 2592 
C 2400 2573 2406 2394 2406 2343 
C 2406 2280 2394 2248 2362 2171 
L 1664 449 
L 902 2306 
C 870 2382 870 2426 870 2433 
C 870 2573 1018 2586 1171 2586 
L 1171 2758 
C 1018 2752 742 2752 582 2752 
C 410 2752 205 2752 64 2758 
L 64 2586 
C 410 2586 448 2554 531 2350 
L 1485 15 
C 1197 -738 1030 -1178 627 -1178 
C 557 -1178 397 -1159 282 -1044 
C 429 -1031 493 -942 493 -833 
C 493 -725 416 -629 288 -629 
C 147 -629 77 -725 77 -840 
C 77 -1095 339 -1280 627 -1280 
C 998 -1280 1229 -922 1357 -604 
L 2496 2197 
z
" transform="scale(0.015625)"/>
     </defs>
     <use xlink:href="#CMR17-56" transform="scale(0.996264)"/>
     <use xlink:href="#CMR17-65" transform="translate(61.265174 0) scale(0.996264)"/>
     <use xlink:href="#CMR17-6c" transform="translate(101.750835 0) scale(0.996264)"/>
     <use xlink:href="#CMR17-6f" transform="translate(126.621893 0) scale(0.996264)"/>
     <use xlink:href="#CMR17-63" transform="translate(174.914809 0) scale(0.996264)"/>
     <use xlink:href="#CMR17-69" transform="translate(215.40047 0) scale(0.996264)"/>
     <use xlink:href="#CMR17-74" transform="translate(240.271528 0) scale(0.996264)"/>
     <use xlink:href="#CMR17-79" transform="translate(272.949842 0) scale(0.996264)"/>
     <use xlink:href="#CMR17-76" transform="translate(351.318724 0) scale(0.996264)"/>
     <use xlink:href="#CMR17-73" transform="translate(399.61164 0) scale(0.996264)"/>
     <use xlink:href="#CMR17-2e" transform="translate(435.412978 0) scale(0.996264)"/>
     <use xlink:href="#CMR17-54" transform="translate(500.769697 0) scale(0.996264)"/>
     <use xlink:href="#CMR17-69" transform="translate(567.279577 0) scale(0.996264)"/>
     <use xlink:href="#CMR17-6d" transform="translate(592.150636 0) scale(0.996264)"/>
     <use xlink:href="#CMR17-65" transform="translate(669.070226 0) scale(0.996264)"/>
     <use xlink:href="#CMR17-77" transform="translate(739.631852 0) scale(0.996264)"/>
     <use xlink:href="#CMR17-69" transform="translate(806.141733 0) scale(0.996264)"/>
     <use xlink:href="#CMR17-74" transform="translate(831.012791 0) scale(0.996264)"/>
     <use xlink:href="#CMR17-68" transform="translate(866.293559 0) scale(0.996264)"/>
     <use xlink:href="#CMMI12-b" transform="translate(947.264895 0) scale(0.996264)"/>
     <use xlink:href="#CMR17-3d" transform="translate(1037.619927 0) scale(0.996264)"/>
     <use xlink:href="#CMR17-30" transform="translate(1137.008724 0) scale(0.996264)"/>
     <use xlink:href="#CMMI12-3a" transform="translate(1182.699201 0) scale(0.996264)"/>
     <use xlink:href="#CMR17-36" transform="translate(1209.796378 0) scale(0.996264)"/>
     <use xlink:href="#CMR17-36" transform="translate(1255.486855 0) scale(0.996264)"/>
     <use xlink:href="#CMR17-36" transform="translate(1301.177332 0) scale(0.996264)"/>
     <use xlink:href="#CMR17-36" transform="translate(1346.86781 0) scale(0.996264)"/>
     <use xlink:href="#CMR17-36" transform="translate(1392.558287 0) scale(0.996264)"/>
     <use xlink:href="#CMMI12-3b" transform="translate(1438.248764 0) scale(0.996264)"/>
     <use xlink:href="#CMMI12-c" transform="translate(1481.950346 0) scale(0.996264)"/>
     <use xlink:href="#CMR17-3d" transform="translate(1570.218371 0) scale(0.996264)"/>
     <use xlink:href="#CMR17-31" transform="translate(1669.607168 0) scale(0.996264)"/>
     <use xlink:href="#CMMI12-3a" transform="translate(1715.297645 0) scale(0.996264)"/>
     <use xlink:href="#CMR17-33" transform="translate(1742.394822 0) scale(0.996264)"/>
     <use xlink:href="#CMR17-33" transform="translate(1788.085299 0) scale(0.996264)"/>
     <use xlink:href="#CMR17-33" transform="translate(1833.775776 0) scale(0.996264)"/>
     <use xlink:href="#CMR17-33" transform="translate(1879.466253 0) scale(0.996264)"/>
     <use xlink:href="#CMR17-33" transform="translate(1925.15673 0) scale(0.996264)"/>
     <use xlink:href="#CMMI12-3b" transform="translate(1970.847207 0) scale(0.996264)"/>
     <use xlink:href="#CMMI12-d" transform="translate(2014.54879 0) scale(0.996264)"/>
     <use xlink:href="#CMR17-3d" transform="translate(2098.241367 0) scale(0.996264)"/>
     <use xlink:href="#CMR17-31" transform="translate(2197.630164 0) scale(0.996264)"/>
     <use xlink:href="#CMMI12-3a" transform="translate(2243.320641 0) scale(0.996264)"/>
     <use xlink:href="#CMR17-30" transform="translate(2270.417818 0) scale(0.996264)"/>
     <use xlink:href="#CMMI12-3b" transform="translate(2316.108295 0) scale(0.996264)"/>
     <use xlink:href="#CMMI12-e" transform="translate(2359.809877 0) scale(0.996264)"/>
     <use xlink:href="#CMR17-3d" transform="translate(2434.425272 0) scale(0.996264)"/>
     <use xlink:href="#CMR17-31" transform="translate(2533.814069 0) scale(0.996264)"/>
     <use xlink:href="#CMMI12-3a" transform="translate(2579.504547 0) scale(0.996264)"/>
     <use xlink:href="#CMR17-30" transform="translate(2606.601724 0) scale(0.996264)"/>
    </g>
   </g>
  </g>
  <g id="axes_3">
   <g id="patch_12">
    <path d="M 63.495174 349.681683 
L 700 349.681683 
L 700 268.303273 
L 63.495174 268.303273 
z
" style="fill: #ffffff"/>
   </g>
   <g id="matplotlib.axis_5">
    <g id="xtick_47">
     <g id="line2d_139">
      <g>
       <use xlink:href="#m686a66f52b" x="64.90337" y="349.681683" style="stroke: #000000; stroke-width: 0.5"/>
      </g>
     </g>
     <g id="line2d_140">
      <g>
       <use xlink:href="#m19aff3a096" x="64.90337" y="268.303273" style="stroke: #000000; stroke-width: 0.5"/>
      </g>
     </g>
     <g id="text_11">
      <!-- $\mathdefault{0}$ -->
      <g transform="translate(62.412703 360.100182) scale(0.1 -0.1)">
       <use xlink:href="#CMR17-30" transform="scale(0.996264)"/>
      </g>
     </g>
    </g>
    <g id="xtick_48">
     <g id="line2d_141">
      <g>
       <use xlink:href="#m686a66f52b" x="205.723022" y="349.681683" style="stroke: #000000; stroke-width: 0.5"/>
      </g>
     </g>
     <g id="line2d_142">
      <g>
       <use xlink:href="#m19aff3a096" x="205.723022" y="268.303273" style="stroke: #000000; stroke-width: 0.5"/>
      </g>
     </g>
     <g id="text_12">
      <!-- $\mathdefault{10}$ -->
      <g transform="translate(200.741687 360.100182) scale(0.1 -0.1)">
       <use xlink:href="#CMR17-31" transform="scale(0.996264)"/>
       <use xlink:href="#CMR17-30" transform="translate(45.690477 0) scale(0.996264)"/>
      </g>
     </g>
    </g>
    <g id="xtick_49">
     <g id="line2d_143">
      <g>
       <use xlink:href="#m686a66f52b" x="346.542674" y="349.681683" style="stroke: #000000; stroke-width: 0.5"/>
      </g>
     </g>
     <g id="line2d_144">
      <g>
       <use xlink:href="#m19aff3a096" x="346.542674" y="268.303273" style="stroke: #000000; stroke-width: 0.5"/>
      </g>
     </g>
     <g id="text_13">
      <!-- $\mathdefault{20}$ -->
      <g transform="translate(341.561339 360.100182) scale(0.1 -0.1)">
       <defs>
        <path id="CMR17-32" d="M 2669 989 
L 2554 989 
C 2490 536 2438 459 2413 420 
C 2381 369 1920 369 1830 369 
L 602 369 
C 832 619 1280 1072 1824 1597 
C 2214 1967 2669 2402 2669 3035 
C 2669 3790 2067 4224 1395 4224 
C 691 4224 262 3604 262 3030 
C 262 2780 448 2748 525 2748 
C 589 2748 781 2787 781 3010 
C 781 3207 614 3264 525 3264 
C 486 3264 448 3258 422 3245 
C 544 3790 915 4058 1306 4058 
C 1862 4058 2227 3617 2227 3035 
C 2227 2479 1901 2000 1536 1584 
L 262 146 
L 262 0 
L 2515 0 
L 2669 989 
z
" transform="scale(0.015625)"/>
       </defs>
       <use xlink:href="#CMR17-32" transform="scale(0.996264)"/>
       <use xlink:href="#CMR17-30" transform="translate(45.690477 0) scale(0.996264)"/>
      </g>
     </g>
    </g>
    <g id="xtick_50">
     <g id="line2d_145">
      <g>
       <use xlink:href="#m686a66f52b" x="487.362326" y="349.681683" style="stroke: #000000; stroke-width: 0.5"/>
      </g>
     </g>
     <g id="line2d_146">
      <g>
       <use xlink:href="#m19aff3a096" x="487.362326" y="268.303273" style="stroke: #000000; stroke-width: 0.5"/>
      </g>
     </g>
     <g id="text_14">
      <!-- $\mathdefault{30}$ -->
      <g transform="translate(482.38099 360.100182) scale(0.1 -0.1)">
       <use xlink:href="#CMR17-33" transform="scale(0.996264)"/>
       <use xlink:href="#CMR17-30" transform="translate(45.690477 0) scale(0.996264)"/>
      </g>
     </g>
    </g>
    <g id="xtick_51">
     <g id="line2d_147">
      <g>
       <use xlink:href="#m686a66f52b" x="628.181978" y="349.681683" style="stroke: #000000; stroke-width: 0.5"/>
      </g>
     </g>
     <g id="line2d_148">
      <g>
       <use xlink:href="#m19aff3a096" x="628.181978" y="268.303273" style="stroke: #000000; stroke-width: 0.5"/>
      </g>
     </g>
     <g id="text_15">
      <!-- $\mathdefault{40}$ -->
      <g transform="translate(623.200642 360.100182) scale(0.1 -0.1)">
       <defs>
        <path id="CMR17-34" d="M 2150 4122 
C 2150 4256 2144 4256 2029 4256 
L 128 1254 
L 128 1088 
L 1779 1088 
L 1779 457 
C 1779 224 1766 160 1318 160 
L 1197 160 
L 1197 0 
C 1402 0 1747 0 1965 0 
C 2182 0 2528 0 2733 0 
L 2733 160 
L 2611 160 
C 2163 160 2150 224 2150 457 
L 2150 1088 
L 2803 1088 
L 2803 1254 
L 2150 1254 
L 2150 4122 
z
M 1798 3703 
L 1798 1254 
L 256 1254 
L 1798 3703 
z
" transform="scale(0.015625)"/>
       </defs>
       <use xlink:href="#CMR17-34" transform="scale(0.996264)"/>
       <use xlink:href="#CMR17-30" transform="translate(45.690477 0) scale(0.996264)"/>
      </g>
     </g>
    </g>
    <g id="xtick_52">
     <g id="line2d_149">
      <g>
       <use xlink:href="#m4ea75abe7a" x="93.067301" y="349.681683" style="stroke: #000000; stroke-width: 0.5"/>
      </g>
     </g>
     <g id="line2d_150">
      <g>
       <use xlink:href="#maa45d63cc3" x="93.067301" y="268.303273" style="stroke: #000000; stroke-width: 0.5"/>
      </g>
     </g>
    </g>
    <g id="xtick_53">
     <g id="line2d_151">
      <g>
       <use xlink:href="#m4ea75abe7a" x="121.231231" y="349.681683" style="stroke: #000000; stroke-width: 0.5"/>
      </g>
     </g>
     <g id="line2d_152">
      <g>
       <use xlink:href="#maa45d63cc3" x="121.231231" y="268.303273" style="stroke: #000000; stroke-width: 0.5"/>
      </g>
     </g>
    </g>
    <g id="xtick_54">
     <g id="line2d_153">
      <g>
       <use xlink:href="#m4ea75abe7a" x="149.395161" y="349.681683" style="stroke: #000000; stroke-width: 0.5"/>
      </g>
     </g>
     <g id="line2d_154">
      <g>
       <use xlink:href="#maa45d63cc3" x="149.395161" y="268.303273" style="stroke: #000000; stroke-width: 0.5"/>
      </g>
     </g>
    </g>
    <g id="xtick_55">
     <g id="line2d_155">
      <g>
       <use xlink:href="#m4ea75abe7a" x="177.559092" y="349.681683" style="stroke: #000000; stroke-width: 0.5"/>
      </g>
     </g>
     <g id="line2d_156">
      <g>
       <use xlink:href="#maa45d63cc3" x="177.559092" y="268.303273" style="stroke: #000000; stroke-width: 0.5"/>
      </g>
     </g>
    </g>
    <g id="xtick_56">
     <g id="line2d_157">
      <g>
       <use xlink:href="#m4ea75abe7a" x="233.886952" y="349.681683" style="stroke: #000000; stroke-width: 0.5"/>
      </g>
     </g>
     <g id="line2d_158">
      <g>
       <use xlink:href="#maa45d63cc3" x="233.886952" y="268.303273" style="stroke: #000000; stroke-width: 0.5"/>
      </g>
     </g>
    </g>
    <g id="xtick_57">
     <g id="line2d_159">
      <g>
       <use xlink:href="#m4ea75abe7a" x="262.050883" y="349.681683" style="stroke: #000000; stroke-width: 0.5"/>
      </g>
     </g>
     <g id="line2d_160">
      <g>
       <use xlink:href="#maa45d63cc3" x="262.050883" y="268.303273" style="stroke: #000000; stroke-width: 0.5"/>
      </g>
     </g>
    </g>
    <g id="xtick_58">
     <g id="line2d_161">
      <g>
       <use xlink:href="#m4ea75abe7a" x="290.214813" y="349.681683" style="stroke: #000000; stroke-width: 0.5"/>
      </g>
     </g>
     <g id="line2d_162">
      <g>
       <use xlink:href="#maa45d63cc3" x="290.214813" y="268.303273" style="stroke: #000000; stroke-width: 0.5"/>
      </g>
     </g>
    </g>
    <g id="xtick_59">
     <g id="line2d_163">
      <g>
       <use xlink:href="#m4ea75abe7a" x="318.378744" y="349.681683" style="stroke: #000000; stroke-width: 0.5"/>
      </g>
     </g>
     <g id="line2d_164">
      <g>
       <use xlink:href="#maa45d63cc3" x="318.378744" y="268.303273" style="stroke: #000000; stroke-width: 0.5"/>
      </g>
     </g>
    </g>
    <g id="xtick_60">
     <g id="line2d_165">
      <g>
       <use xlink:href="#m4ea75abe7a" x="374.706604" y="349.681683" style="stroke: #000000; stroke-width: 0.5"/>
      </g>
     </g>
     <g id="line2d_166">
      <g>
       <use xlink:href="#maa45d63cc3" x="374.706604" y="268.303273" style="stroke: #000000; stroke-width: 0.5"/>
      </g>
     </g>
    </g>
    <g id="xtick_61">
     <g id="line2d_167">
      <g>
       <use xlink:href="#m4ea75abe7a" x="402.870535" y="349.681683" style="stroke: #000000; stroke-width: 0.5"/>
      </g>
     </g>
     <g id="line2d_168">
      <g>
       <use xlink:href="#maa45d63cc3" x="402.870535" y="268.303273" style="stroke: #000000; stroke-width: 0.5"/>
      </g>
     </g>
    </g>
    <g id="xtick_62">
     <g id="line2d_169">
      <g>
       <use xlink:href="#m4ea75abe7a" x="431.034465" y="349.681683" style="stroke: #000000; stroke-width: 0.5"/>
      </g>
     </g>
     <g id="line2d_170">
      <g>
       <use xlink:href="#maa45d63cc3" x="431.034465" y="268.303273" style="stroke: #000000; stroke-width: 0.5"/>
      </g>
     </g>
    </g>
    <g id="xtick_63">
     <g id="line2d_171">
      <g>
       <use xlink:href="#m4ea75abe7a" x="459.198395" y="349.681683" style="stroke: #000000; stroke-width: 0.5"/>
      </g>
     </g>
     <g id="line2d_172">
      <g>
       <use xlink:href="#maa45d63cc3" x="459.198395" y="268.303273" style="stroke: #000000; stroke-width: 0.5"/>
      </g>
     </g>
    </g>
    <g id="xtick_64">
     <g id="line2d_173">
      <g>
       <use xlink:href="#m4ea75abe7a" x="515.526256" y="349.681683" style="stroke: #000000; stroke-width: 0.5"/>
      </g>
     </g>
     <g id="line2d_174">
      <g>
       <use xlink:href="#maa45d63cc3" x="515.526256" y="268.303273" style="stroke: #000000; stroke-width: 0.5"/>
      </g>
     </g>
    </g>
    <g id="xtick_65">
     <g id="line2d_175">
      <g>
       <use xlink:href="#m4ea75abe7a" x="543.690186" y="349.681683" style="stroke: #000000; stroke-width: 0.5"/>
      </g>
     </g>
     <g id="line2d_176">
      <g>
       <use xlink:href="#maa45d63cc3" x="543.690186" y="268.303273" style="stroke: #000000; stroke-width: 0.5"/>
      </g>
     </g>
    </g>
    <g id="xtick_66">
     <g id="line2d_177">
      <g>
       <use xlink:href="#m4ea75abe7a" x="571.854117" y="349.681683" style="stroke: #000000; stroke-width: 0.5"/>
      </g>
     </g>
     <g id="line2d_178">
      <g>
       <use xlink:href="#maa45d63cc3" x="571.854117" y="268.303273" style="stroke: #000000; stroke-width: 0.5"/>
      </g>
     </g>
    </g>
    <g id="xtick_67">
     <g id="line2d_179">
      <g>
       <use xlink:href="#m4ea75abe7a" x="600.018047" y="349.681683" style="stroke: #000000; stroke-width: 0.5"/>
      </g>
     </g>
     <g id="line2d_180">
      <g>
       <use xlink:href="#maa45d63cc3" x="600.018047" y="268.303273" style="stroke: #000000; stroke-width: 0.5"/>
      </g>
     </g>
    </g>
    <g id="xtick_68">
     <g id="line2d_181">
      <g>
       <use xlink:href="#m4ea75abe7a" x="656.345908" y="349.681683" style="stroke: #000000; stroke-width: 0.5"/>
      </g>
     </g>
     <g id="line2d_182">
      <g>
       <use xlink:href="#maa45d63cc3" x="656.345908" y="268.303273" style="stroke: #000000; stroke-width: 0.5"/>
      </g>
     </g>
    </g>
    <g id="xtick_69">
     <g id="line2d_183">
      <g>
       <use xlink:href="#m4ea75abe7a" x="684.509838" y="349.681683" style="stroke: #000000; stroke-width: 0.5"/>
      </g>
     </g>
     <g id="line2d_184">
      <g>
       <use xlink:href="#maa45d63cc3" x="684.509838" y="268.303273" style="stroke: #000000; stroke-width: 0.5"/>
      </g>
     </g>
    </g>
    <g id="text_16">
     <!-- Time ($t$) -->
     <g transform="translate(363.067606 373.50934) scale(0.1 -0.1)">
      <use xlink:href="#CMR17-54" transform="scale(0.996264)"/>
      <use xlink:href="#CMR17-69" transform="translate(66.509881 0) scale(0.996264)"/>
      <use xlink:href="#CMR17-6d" transform="translate(91.380939 0) scale(0.996264)"/>
      <use xlink:href="#CMR17-65" transform="translate(168.300529 0) scale(0.996264)"/>
      <use xlink:href="#CMR17-28" transform="translate(238.862156 0) scale(0.996264)"/>
      <use xlink:href="#CMMI12-74" transform="translate(274.142924 0) scale(0.996264)"/>
      <use xlink:href="#CMR17-29" transform="translate(309.369254 0) scale(0.996264)"/>
     </g>
    </g>
   </g>
   <g id="matplotlib.axis_6">
    <g id="ytick_23">
     <g id="line2d_185">
      <g>
       <use xlink:href="#m0cd2d5ce5d" x="63.495174" y="342.283646" style="stroke: #000000; stroke-width: 0.5"/>
      </g>
     </g>
     <g id="line2d_186">
      <g>
       <use xlink:href="#m75a6f2b7e8" x="700" y="342.283646" style="stroke: #000000; stroke-width: 0.5"/>
      </g>
     </g>
     <g id="text_17">
      <!-- $\mathdefault{−5}$ -->
      <g transform="translate(47.265095 345.742895) scale(0.1 -0.1)">
       <use xlink:href="#CMSY10-0" transform="scale(0.996264)"/>
       <use xlink:href="#CMR17-35" transform="translate(77.487468 0) scale(0.996264)"/>
      </g>
     </g>
    </g>
    <g id="ytick_24">
     <g id="line2d_187">
      <g>
       <use xlink:href="#m0cd2d5ce5d" x="63.495174" y="305.29346" style="stroke: #000000; stroke-width: 0.5"/>
      </g>
     </g>
     <g id="line2d_188">
      <g>
       <use xlink:href="#m75a6f2b7e8" x="700" y="305.29346" style="stroke: #000000; stroke-width: 0.5"/>
      </g>
     </g>
     <g id="text_18">
      <!-- $\mathdefault{0}$ -->
      <g transform="translate(55.013838 308.752709) scale(0.1 -0.1)">
       <use xlink:href="#CMR17-30" transform="scale(0.996264)"/>
      </g>
     </g>
    </g>
    <g id="ytick_25">
     <g id="line2d_189">
      <g>
       <use xlink:href="#m0cd2d5ce5d" x="63.495174" y="268.303273" style="stroke: #000000; stroke-width: 0.5"/>
      </g>
     </g>
     <g id="line2d_190">
      <g>
       <use xlink:href="#m75a6f2b7e8" x="700" y="268.303273" style="stroke: #000000; stroke-width: 0.5"/>
      </g>
     </g>
     <g id="text_19">
      <!-- $\mathdefault{5}$ -->
      <g transform="translate(55.013838 271.762522) scale(0.1 -0.1)">
       <use xlink:href="#CMR17-35" transform="scale(0.996264)"/>
      </g>
     </g>
    </g>
    <g id="ytick_26">
     <g id="line2d_191">
      <g>
       <use xlink:href="#m1dcdebc688" x="63.495174" y="349.681683" style="stroke: #000000; stroke-width: 0.5"/>
      </g>
     </g>
     <g id="line2d_192">
      <g>
       <use xlink:href="#m4504504226" x="700" y="349.681683" style="stroke: #000000; stroke-width: 0.5"/>
      </g>
     </g>
    </g>
    <g id="ytick_27">
     <g id="line2d_193">
      <g>
       <use xlink:href="#m1dcdebc688" x="63.495174" y="334.885609" style="stroke: #000000; stroke-width: 0.5"/>
      </g>
     </g>
     <g id="line2d_194">
      <g>
       <use xlink:href="#m4504504226" x="700" y="334.885609" style="stroke: #000000; stroke-width: 0.5"/>
      </g>
     </g>
    </g>
    <g id="ytick_28">
     <g id="line2d_195">
      <g>
       <use xlink:href="#m1dcdebc688" x="63.495174" y="327.487571" style="stroke: #000000; stroke-width: 0.5"/>
      </g>
     </g>
     <g id="line2d_196">
      <g>
       <use xlink:href="#m4504504226" x="700" y="327.487571" style="stroke: #000000; stroke-width: 0.5"/>
      </g>
     </g>
    </g>
    <g id="ytick_29">
     <g id="line2d_197">
      <g>
       <use xlink:href="#m1dcdebc688" x="63.495174" y="320.089534" style="stroke: #000000; stroke-width: 0.5"/>
      </g>
     </g>
     <g id="line2d_198">
      <g>
       <use xlink:href="#m4504504226" x="700" y="320.089534" style="stroke: #000000; stroke-width: 0.5"/>
      </g>
     </g>
    </g>
    <g id="ytick_30">
     <g id="line2d_199">
      <g>
       <use xlink:href="#m1dcdebc688" x="63.495174" y="312.691497" style="stroke: #000000; stroke-width: 0.5"/>
      </g>
     </g>
     <g id="line2d_200">
      <g>
       <use xlink:href="#m4504504226" x="700" y="312.691497" style="stroke: #000000; stroke-width: 0.5"/>
      </g>
     </g>
    </g>
    <g id="ytick_31">
     <g id="line2d_201">
      <g>
       <use xlink:href="#m1dcdebc688" x="63.495174" y="297.895422" style="stroke: #000000; stroke-width: 0.5"/>
      </g>
     </g>
     <g id="line2d_202">
      <g>
       <use xlink:href="#m4504504226" x="700" y="297.895422" style="stroke: #000000; stroke-width: 0.5"/>
      </g>
     </g>
    </g>
    <g id="ytick_32">
     <g id="line2d_203">
      <g>
       <use xlink:href="#m1dcdebc688" x="63.495174" y="290.497385" style="stroke: #000000; stroke-width: 0.5"/>
      </g>
     </g>
     <g id="line2d_204">
      <g>
       <use xlink:href="#m4504504226" x="700" y="290.497385" style="stroke: #000000; stroke-width: 0.5"/>
      </g>
     </g>
    </g>
    <g id="ytick_33">
     <g id="line2d_205">
      <g>
       <use xlink:href="#m1dcdebc688" x="63.495174" y="283.099348" style="stroke: #000000; stroke-width: 0.5"/>
      </g>
     </g>
     <g id="line2d_206">
      <g>
       <use xlink:href="#m4504504226" x="700" y="283.099348" style="stroke: #000000; stroke-width: 0.5"/>
      </g>
     </g>
    </g>
    <g id="ytick_34">
     <g id="line2d_207">
      <g>
       <use xlink:href="#m1dcdebc688" x="63.495174" y="275.70131" style="stroke: #000000; stroke-width: 0.5"/>
      </g>
     </g>
     <g id="line2d_208">
      <g>
       <use xlink:href="#m4504504226" x="700" y="275.70131" style="stroke: #000000; stroke-width: 0.5"/>
      </g>
     </g>
    </g>
    <g id="text_20">
     <!-- $\ddot{q}(t)$ -->
     <g transform="translate(20 305.75462) scale(0.13 -0.13)">
      <defs>
       <path id="CMR17-7f" d="M 1133 3961 
C 1133 4120 1005 4215 883 4215 
C 717 4215 627 4075 627 3967 
C 627 3840 730 3712 883 3712 
C 1018 3712 1133 3821 1133 3961 
z
M 2304 3961 
C 2304 4088 2202 4215 2048 4215 
C 1914 4215 1798 4107 1798 3967 
C 1798 3808 1926 3712 2048 3712 
C 2214 3712 2304 3852 2304 3961 
z
" transform="scale(0.015625)"/>
      </defs>
      <use xlink:href="#CMR17-7f" transform="translate(8.697077 0.006461) scale(0.996264)"/>
      <use xlink:href="#CMMI12-71" transform="scale(0.996264)"/>
      <use xlink:href="#CMR17-28" transform="translate(46.826324 0) scale(0.996264)"/>
      <use xlink:href="#CMMI12-74" transform="translate(82.107092 0) scale(0.996264)"/>
      <use xlink:href="#CMR17-29" transform="translate(117.333422 0) scale(0.996264)"/>
     </g>
    </g>
   </g>
   <g id="line2d_209">
    <path d="M 64.90337 327.393496 
L 66.172016 322.033335 
L 67.440661 317.767628 
L 68.709307 314.520049 
L 69.977952 312.123166 
L 71.246598 310.383569 
L 72.515243 309.117655 
L 73.783889 308.190683 
L 75.052534 307.508988 
L 76.955503 306.807067 
L 78.858471 306.348602 
L 81.395762 305.959435 
L 85.201698 305.632171 
L 90.910603 305.39171 
L 103.597058 305.145296 
L 125.164032 304.698221 
L 137.216164 304.220854 
L 146.096683 303.655939 
L 153.708556 302.944076 
L 160.051784 302.128374 
L 165.760688 301.165109 
L 170.835271 300.072404 
L 175.27553 298.893003 
L 179.715789 297.473246 
L 184.156048 295.798266 
L 189.864953 293.354832 
L 193.036567 292.055102 
L 194.939535 291.456712 
L 196.208181 291.222601 
L 197.476826 291.206388 
L 198.745472 291.517093 
L 199.379795 291.839977 
L 200.014117 292.305585 
L 200.64844 292.943846 
L 201.282763 293.788808 
L 201.917086 294.878431 
L 202.551408 296.253984 
L 203.185731 297.958819 
L 203.820054 300.036278 
L 205.088699 305.461298 
L 206.357345 312.711234 
L 207.62599 321.578362 
L 209.528959 335.686767 
L 210.163281 339.723101 
L 210.797604 343.010642 
L 211.431927 345.342784 
L 212.06625 346.58549 
L 212.700572 346.704434 
L 213.334895 345.771668 
L 213.969218 343.946122 
L 215.237863 338.490081 
L 217.775154 325.993712 
L 219.0438 320.87929 
L 220.312445 316.854474 
L 221.581091 313.812704 
L 222.849736 311.596421 
L 224.118382 309.995446 
L 225.387028 308.830711 
L 226.655673 307.977748 
L 227.924319 307.3521 
L 229.827287 306.704211 
L 232.364578 306.171025 
L 235.536192 305.790986 
L 239.976451 305.514107 
L 247.588324 305.292145 
L 285.013367 304.450022 
L 295.162531 303.92589 
L 302.774404 303.331203 
L 309.751954 302.562248 
L 315.460859 301.722066 
L 320.535441 300.772068 
L 324.9757 299.743658 
L 329.41596 298.495868 
L 333.856219 296.99937 
L 338.296478 295.254908 
L 347.176997 291.556261 
L 349.079965 291.145198 
L 350.34861 291.126781 
L 351.617256 291.431518 
L 352.251579 291.752309 
L 352.885901 292.217446 
L 353.520224 292.856173 
L 354.154547 293.702222 
L 354.78887 294.793616 
L 355.423192 296.172071 
L 356.057515 297.881783 
L 356.691838 299.967344 
L 357.960484 305.425223 
L 359.229129 312.746659 
L 360.497775 321.720699 
L 362.400743 335.973293 
L 363.035066 340.057312 
L 363.669388 343.378508 
L 364.303711 345.711412 
L 364.938034 346.93445 
L 365.572357 347.024932 
L 366.206679 346.049124 
L 366.841002 344.15491 
L 368.109648 338.501469 
L 370.646939 325.893148 
L 371.915584 320.740194 
L 373.18423 316.722531 
L 374.452875 313.735709 
L 375.721521 311.551303 
L 376.990166 309.949338 
L 378.258812 308.76996 
L 379.527457 307.914379 
L 380.796103 307.304618 
L 382.699071 306.671287 
L 385.236362 306.149179 
L 388.407976 305.779191 
L 392.848235 305.508706 
L 401.094431 305.279001 
L 436.616505 304.513857 
L 446.765669 304.02067 
L 455.011865 303.407491 
L 461.989416 302.674213 
L 467.69832 301.87331 
L 472.772902 300.962077 
L 477.847484 299.815028 
L 482.287744 298.578753 
L 486.728003 297.094245 
L 491.168262 295.351161 
L 500.683104 291.411514 
L 501.951749 291.119142 
L 503.220395 291.019186 
L 504.48904 291.212069 
L 505.123363 291.46099 
L 505.757686 291.840758 
L 506.392008 292.378259 
L 507.026331 293.104821 
L 507.660654 294.056415 
L 508.294977 295.273394 
L 508.929299 296.799673 
L 509.563622 298.681191 
L 510.197945 300.963346 
L 511.46659 306.884115 
L 512.735236 314.700537 
L 514.638204 328.960869 
L 515.90685 338.22772 
L 516.541173 342.027555 
L 517.175495 344.941292 
L 517.809818 346.78978 
L 518.444141 347.477806 
L 519.078464 347.011783 
L 519.712786 345.505412 
L 520.347109 343.171785 
L 521.615755 337.137301 
L 523.518723 327.479727 
L 524.787368 322.023675 
L 526.056014 317.748616 
L 527.324659 314.51696 
L 528.593305 312.115948 
L 529.86195 310.36419 
L 531.130596 309.0766 
L 532.399241 308.130556 
L 533.667887 307.454647 
L 535.570855 306.766585 
L 537.473823 306.318111 
L 540.011114 305.938809 
L 543.817051 305.621637 
L 550.160279 305.371542 
L 564.115379 305.12247 
L 584.413707 304.703619 
L 596.46584 304.232192 
L 605.346358 303.670383 
L 612.958231 302.964317 
L 619.301459 302.158179 
L 625.010364 301.203069 
L 630.084946 300.117438 
L 634.525205 298.943821 
L 638.965464 297.528195 
L 643.405724 295.852277 
L 648.480306 293.663359 
L 652.920565 291.784306 
L 654.823533 291.195389 
L 656.092179 290.98362 
L 657.360824 291.009998 
L 658.62947 291.393739 
L 659.263793 291.770443 
L 659.898115 292.305419 
L 660.532438 293.030381 
L 661.166761 293.981503 
L 661.801084 295.199246 
L 662.435406 296.727793 
L 663.069729 298.61391 
L 663.704052 300.905271 
L 664.972697 306.863107 
L 666.241343 314.726418 
L 668.144311 329.099282 
L 669.412957 338.454092 
L 670.047279 342.29571 
L 670.681602 345.2472 
L 671.315925 347.116656 
L 671.950248 347.794618 
L 672.58457 347.274842 
L 673.218893 345.663236 
L 673.853216 343.172754 
L 675.756184 333.526046 
L 677.659153 324.353966 
L 678.927798 319.460379 
L 680.196444 315.706314 
L 681.465089 312.965308 
L 682.733735 310.979811 
L 684.00238 309.533947 
L 685.271026 308.474524 
L 686.539671 307.702623 
L 688.442639 306.924874 
L 690.345608 306.4224 
L 692.882899 306.00111 
L 696.688835 305.653529 
L 698.591803 305.547348 
L 698.591803 305.547348 
" clip-path="url(#p8728e0aca1)" style="fill: none; stroke: #ff0000; stroke-width: 1.5; stroke-linecap: square"/>
   </g>
   <g id="patch_13">
    <path d="M 63.495174 349.681683 
L 63.495174 268.303273 
" style="fill: none; stroke: #000000; stroke-width: 0.8; stroke-linejoin: miter; stroke-linecap: square"/>
   </g>
   <g id="patch_14">
    <path d="M 700 349.681683 
L 700 268.303273 
" style="fill: none; stroke: #000000; stroke-width: 0.8; stroke-linejoin: miter; stroke-linecap: square"/>
   </g>
   <g id="patch_15">
    <path d="M 63.495174 349.681683 
L 700 349.681683 
" style="fill: none; stroke: #000000; stroke-width: 0.8; stroke-linejoin: miter; stroke-linecap: square"/>
   </g>
   <g id="patch_16">
    <path d="M 63.495174 268.303273 
L 700 268.303273 
" style="fill: none; stroke: #000000; stroke-width: 0.8; stroke-linejoin: miter; stroke-linecap: square"/>
   </g>
   <g id="text_21">
    <!-- Acceleration vs. Time with $\alpha = 0.66666, \beta = 1.33333, \gamma = 1.0, \delta = 1.0$ -->
    <g transform="translate(203.595246 262.303273) scale(0.12 -0.12)">
     <defs>
      <path id="CMR17-41" d="M 2323 4378 
C 2291 4461 2278 4480 2214 4480 
C 2150 4480 2138 4461 2106 4378 
L 749 566 
C 627 223 371 153 147 153 
L 147 -13 
C 262 0 518 0 640 0 
C 800 0 1056 0 1210 -13 
L 1210 153 
C 909 153 864 361 864 439 
C 864 497 877 530 890 569 
L 1229 1536 
L 2906 1536 
L 3290 442 
C 3322 365 3322 352 3322 327 
C 3322 153 3046 153 2925 153 
L 2925 0 
C 3110 0 3443 0 3642 0 
C 3808 0 4128 0 4282 -13 
L 4282 153 
C 3942 153 3827 153 3744 387 
L 2323 4378 
z
M 2067 3893 
L 2848 1702 
L 1286 1702 
L 2067 3893 
z
" transform="scale(0.015625)"/>
      <path id="CMR17-72" d="M 960 1497 
C 960 2112 1222 2688 1702 2688 
C 1747 2688 1792 2682 1837 2662 
C 1837 2662 1696 2617 1696 2452 
C 1696 2298 1818 2234 1914 2234 
C 1990 2234 2131 2279 2131 2458 
C 2131 2663 1926 2790 1709 2790 
C 1222 2790 1011 2317 947 2093 
L 941 2093 
L 941 2790 
L 198 2720 
L 198 2554 
C 576 2554 634 2515 634 2208 
L 634 428 
C 634 184 608 153 198 153 
L 198 -13 
C 352 0 646 0 813 0 
C 998 0 1325 0 1498 -13 
L 1498 153 
C 1037 153 960 153 960 440 
L 960 1497 
z
" transform="scale(0.015625)"/>
      <path id="CMR17-61" d="M 2304 1653 
C 2304 2072 2304 2294 2035 2543 
C 1798 2752 1523 2816 1306 2816 
C 800 2816 435 2407 435 1971 
C 435 1728 627 1728 666 1728 
C 749 1728 896 1778 896 1954 
C 896 2112 774 2181 666 2181 
C 640 2181 608 2174 589 2168 
C 723 2592 1069 2714 1293 2714 
C 1613 2714 1965 2429 1965 1885 
L 1965 1600 
C 1587 1600 1133 1549 774 1357 
C 371 1133 256 813 256 570 
C 256 77 832 -64 1171 -64 
C 1523 -64 1850 139 1990 511 
C 2003 233 2182 -18 2464 -18 
C 2598 -18 2938 70 2938 567 
L 2938 920 
L 2822 920 
L 2822 562 
C 2822 178 2650 128 2566 128 
C 2304 128 2304 458 2304 738 
L 2304 1653 
z
M 1965 870 
C 1965 317 1568 38 1216 38 
C 896 38 646 275 646 570 
C 646 761 730 1100 1101 1305 
C 1408 1478 1760 1504 1965 1504 
L 1965 870 
z
" transform="scale(0.015625)"/>
     </defs>
     <use xlink:href="#CMR17-41" transform="scale(0.996264)"/>
     <use xlink:href="#CMR17-63" transform="translate(69.07243 0) scale(0.996264)"/>
     <use xlink:href="#CMR17-63" transform="translate(109.55809 0) scale(0.996264)"/>
     <use xlink:href="#CMR17-65" transform="translate(150.043751 0) scale(0.996264)"/>
     <use xlink:href="#CMR17-6c" transform="translate(190.529411 0) scale(0.996264)"/>
     <use xlink:href="#CMR17-65" transform="translate(215.40047 0) scale(0.996264)"/>
     <use xlink:href="#CMR17-72" transform="translate(255.88613 0) scale(0.996264)"/>
     <use xlink:href="#CMR17-61" transform="translate(291.166898 0) scale(0.996264)"/>
     <use xlink:href="#CMR17-74" transform="translate(336.857375 0) scale(0.996264)"/>
     <use xlink:href="#CMR17-69" transform="translate(372.138143 0) scale(0.996264)"/>
     <use xlink:href="#CMR17-6f" transform="translate(397.009201 0) scale(0.996264)"/>
     <use xlink:href="#CMR17-6e" transform="translate(442.699678 0) scale(0.996264)"/>
     <use xlink:href="#CMR17-76" transform="translate(523.671015 0) scale(0.996264)"/>
     <use xlink:href="#CMR17-73" transform="translate(571.96393 0) scale(0.996264)"/>
     <use xlink:href="#CMR17-2e" transform="translate(607.765268 0) scale(0.996264)"/>
     <use xlink:href="#CMR17-54" transform="translate(673.121987 0) scale(0.996264)"/>
     <use xlink:href="#CMR17-69" transform="translate(739.631868 0) scale(0.996264)"/>
     <use xlink:href="#CMR17-6d" transform="translate(764.502926 0) scale(0.996264)"/>
     <use xlink:href="#CMR17-65" transform="translate(841.422516 0) scale(0.996264)"/>
     <use xlink:href="#CMR17-77" transform="translate(911.984143 0) scale(0.996264)"/>
     <use xlink:href="#CMR17-69" transform="translate(978.494023 0) scale(0.996264)"/>
     <use xlink:href="#CMR17-74" transform="translate(1003.365082 0) scale(0.996264)"/>
     <use xlink:href="#CMR17-68" transform="translate(1038.64585 0) scale(0.996264)"/>
     <use xlink:href="#CMMI12-b" transform="translate(1119.617186 0) scale(0.996264)"/>
     <use xlink:href="#CMR17-3d" transform="translate(1209.972217 0) scale(0.996264)"/>
     <use xlink:href="#CMR17-30" transform="translate(1309.361014 0) scale(0.996264)"/>
     <use xlink:href="#CMMI12-3a" transform="translate(1355.051491 0) scale(0.996264)"/>
     <use xlink:href="#CMR17-36" transform="translate(1382.148669 0) scale(0.996264)"/>
     <use xlink:href="#CMR17-36" transform="translate(1427.839146 0) scale(0.996264)"/>
     <use xlink:href="#CMR17-36" transform="translate(1473.529623 0) scale(0.996264)"/>
     <use xlink:href="#CMR17-36" transform="translate(1519.2201 0) scale(0.996264)"/>
     <use xlink:href="#CMR17-36" transform="translate(1564.910577 0) scale(0.996264)"/>
     <use xlink:href="#CMMI12-3b" transform="translate(1610.601054 0) scale(0.996264)"/>
     <use xlink:href="#CMMI12-c" transform="translate(1654.302636 0) scale(0.996264)"/>
     <use xlink:href="#CMR17-3d" transform="translate(1742.570661 0) scale(0.996264)"/>
     <use xlink:href="#CMR17-31" transform="translate(1841.959458 0) scale(0.996264)"/>
     <use xlink:href="#CMMI12-3a" transform="translate(1887.649935 0) scale(0.996264)"/>
     <use xlink:href="#CMR17-33" transform="translate(1914.747112 0) scale(0.996264)"/>
     <use xlink:href="#CMR17-33" transform="translate(1960.437589 0) scale(0.996264)"/>
     <use xlink:href="#CMR17-33" transform="translate(2006.128067 0) scale(0.996264)"/>
     <use xlink:href="#CMR17-33" transform="translate(2051.818544 0) scale(0.996264)"/>
     <use xlink:href="#CMR17-33" transform="translate(2097.509021 0) scale(0.996264)"/>
     <use xlink:href="#CMMI12-3b" transform="translate(2143.199498 0) scale(0.996264)"/>
     <use xlink:href="#CMMI12-d" transform="translate(2186.90108 0) scale(0.996264)"/>
     <use xlink:href="#CMR17-3d" transform="translate(2270.593657 0) scale(0.996264)"/>
     <use xlink:href="#CMR17-31" transform="translate(2369.982454 0) scale(0.996264)"/>
     <use xlink:href="#CMMI12-3a" transform="translate(2415.672931 0) scale(0.996264)"/>
     <use xlink:href="#CMR17-30" transform="translate(2442.770108 0) scale(0.996264)"/>
     <use xlink:href="#CMMI12-3b" transform="translate(2488.460585 0) scale(0.996264)"/>
     <use xlink:href="#CMMI12-e" transform="translate(2532.162168 0) scale(0.996264)"/>
     <use xlink:href="#CMR17-3d" transform="translate(2606.777563 0) scale(0.996264)"/>
     <use xlink:href="#CMR17-31" transform="translate(2706.16636 0) scale(0.996264)"/>
     <use xlink:href="#CMMI12-3a" transform="translate(2751.856837 0) scale(0.996264)"/>
     <use xlink:href="#CMR17-30" transform="translate(2778.954014 0) scale(0.996264)"/>
    </g>
   </g>
  </g>
 </g>
 <defs>
  <clipPath id="p08893621ea">
   <rect x="63.495174" y="34.30218" width="636.504826" height="81.37841"/>
  </clipPath>
  <clipPath id="p0f275e22e4">
   <rect x="63.495174" y="151.302727" width="636.504826" height="81.37841"/>
  </clipPath>
  <clipPath id="p8728e0aca1">
   <rect x="63.495174" y="268.303273" width="636.504826" height="81.37841"/>
  </clipPath>
 </defs>
</svg>
