<?xml version="1.0" encoding="utf-8" standalone="no"?>
<!DOCTYPE svg PUBLIC "-//W3C//DTD SVG 1.1//EN"
  "http://www.w3.org/Graphics/SVG/1.1/DTD/svg11.dtd">
<svg xmlns:xlink="http://www.w3.org/1999/xlink" width="720pt" height="396pt" viewBox="0 0 720 396" xmlns="http://www.w3.org/2000/svg" version="1.1">
 <metadata>
  <rdf:RDF xmlns:dc="http://purl.org/dc/elements/1.1/" xmlns:cc="http://creativecommons.org/ns#" xmlns:rdf="http://www.w3.org/1999/02/22-rdf-syntax-ns#">
   <cc:Work>
    <dc:type rdf:resource="http://purl.org/dc/dcmitype/StillImage"/>
    <dc:date>2025-05-19T16:26:08.367424</dc:date>
    <dc:format>image/svg+xml</dc:format>
    <dc:creator>
     <cc:Agent>
      <dc:title>Matplotlib v3.9.0, https://matplotlib.org/</dc:title>
     </cc:Agent>
    </dc:creator>
   </cc:Work>
  </rdf:RDF>
 </metadata>
 <defs>
  <style type="text/css">*{stroke-linejoin: round; stroke-linecap: butt}</style>
 </defs>
 <g id="figure_1">
  <g id="patch_1">
   <path d="M 0 396 
L 720 396 
L 720 0 
L 0 0 
z
" style="fill: #ffffff"/>
  </g>
  <g id="axes_1">
   <g id="patch_2">
    <path d="M 63.243917 116.560561 
L 700 116.560561 
L 700 34.30218 
L 63.243917 34.30218 
z
" style="fill: #ffffff"/>
   </g>
   <g id="matplotlib.axis_1">
    <g id="xtick_1">
     <g id="line2d_1">
      <defs>
       <path id="mcd817f4004" d="M 0 0 
L 0 -5 
" style="stroke: #000000; stroke-width: 0.5"/>
      </defs>
      <g>
       <use xlink:href="#mcd817f4004" x="64.65267" y="116.560561" style="stroke: #000000; stroke-width: 0.5"/>
      </g>
     </g>
     <g id="line2d_2">
      <defs>
       <path id="m09b6bc37ac" d="M 0 0 
L 0 5 
" style="stroke: #000000; stroke-width: 0.5"/>
      </defs>
      <g>
       <use xlink:href="#m09b6bc37ac" x="64.65267" y="34.30218" style="stroke: #000000; stroke-width: 0.5"/>
      </g>
     </g>
    </g>
    <g id="xtick_2">
     <g id="line2d_3">
      <g>
       <use xlink:href="#mcd817f4004" x="205.527909" y="116.560561" style="stroke: #000000; stroke-width: 0.5"/>
      </g>
     </g>
     <g id="line2d_4">
      <g>
       <use xlink:href="#m09b6bc37ac" x="205.527909" y="34.30218" style="stroke: #000000; stroke-width: 0.5"/>
      </g>
     </g>
    </g>
    <g id="xtick_3">
     <g id="line2d_5">
      <g>
       <use xlink:href="#mcd817f4004" x="346.403149" y="116.560561" style="stroke: #000000; stroke-width: 0.5"/>
      </g>
     </g>
     <g id="line2d_6">
      <g>
       <use xlink:href="#m09b6bc37ac" x="346.403149" y="34.30218" style="stroke: #000000; stroke-width: 0.5"/>
      </g>
     </g>
    </g>
    <g id="xtick_4">
     <g id="line2d_7">
      <g>
       <use xlink:href="#mcd817f4004" x="487.278388" y="116.560561" style="stroke: #000000; stroke-width: 0.5"/>
      </g>
     </g>
     <g id="line2d_8">
      <g>
       <use xlink:href="#m09b6bc37ac" x="487.278388" y="34.30218" style="stroke: #000000; stroke-width: 0.5"/>
      </g>
     </g>
    </g>
    <g id="xtick_5">
     <g id="line2d_9">
      <g>
       <use xlink:href="#mcd817f4004" x="628.153628" y="116.560561" style="stroke: #000000; stroke-width: 0.5"/>
      </g>
     </g>
     <g id="line2d_10">
      <g>
       <use xlink:href="#m09b6bc37ac" x="628.153628" y="34.30218" style="stroke: #000000; stroke-width: 0.5"/>
      </g>
     </g>
    </g>
    <g id="xtick_6">
     <g id="line2d_11">
      <defs>
       <path id="md3e942d530" d="M 0 0 
L 0 -2.5 
" style="stroke: #000000; stroke-width: 0.5"/>
      </defs>
      <g>
       <use xlink:href="#md3e942d530" x="92.827718" y="116.560561" style="stroke: #000000; stroke-width: 0.5"/>
      </g>
     </g>
     <g id="line2d_12">
      <defs>
       <path id="mcbf5a56001" d="M 0 0 
L 0 2.5 
" style="stroke: #000000; stroke-width: 0.5"/>
      </defs>
      <g>
       <use xlink:href="#mcbf5a56001" x="92.827718" y="34.30218" style="stroke: #000000; stroke-width: 0.5"/>
      </g>
     </g>
    </g>
    <g id="xtick_7">
     <g id="line2d_13">
      <g>
       <use xlink:href="#md3e942d530" x="121.002766" y="116.560561" style="stroke: #000000; stroke-width: 0.5"/>
      </g>
     </g>
     <g id="line2d_14">
      <g>
       <use xlink:href="#mcbf5a56001" x="121.002766" y="34.30218" style="stroke: #000000; stroke-width: 0.5"/>
      </g>
     </g>
    </g>
    <g id="xtick_8">
     <g id="line2d_15">
      <g>
       <use xlink:href="#md3e942d530" x="149.177814" y="116.560561" style="stroke: #000000; stroke-width: 0.5"/>
      </g>
     </g>
     <g id="line2d_16">
      <g>
       <use xlink:href="#mcbf5a56001" x="149.177814" y="34.30218" style="stroke: #000000; stroke-width: 0.5"/>
      </g>
     </g>
    </g>
    <g id="xtick_9">
     <g id="line2d_17">
      <g>
       <use xlink:href="#md3e942d530" x="177.352861" y="116.560561" style="stroke: #000000; stroke-width: 0.5"/>
      </g>
     </g>
     <g id="line2d_18">
      <g>
       <use xlink:href="#mcbf5a56001" x="177.352861" y="34.30218" style="stroke: #000000; stroke-width: 0.5"/>
      </g>
     </g>
    </g>
    <g id="xtick_10">
     <g id="line2d_19">
      <g>
       <use xlink:href="#md3e942d530" x="233.702957" y="116.560561" style="stroke: #000000; stroke-width: 0.5"/>
      </g>
     </g>
     <g id="line2d_20">
      <g>
       <use xlink:href="#mcbf5a56001" x="233.702957" y="34.30218" style="stroke: #000000; stroke-width: 0.5"/>
      </g>
     </g>
    </g>
    <g id="xtick_11">
     <g id="line2d_21">
      <g>
       <use xlink:href="#md3e942d530" x="261.878005" y="116.560561" style="stroke: #000000; stroke-width: 0.5"/>
      </g>
     </g>
     <g id="line2d_22">
      <g>
       <use xlink:href="#mcbf5a56001" x="261.878005" y="34.30218" style="stroke: #000000; stroke-width: 0.5"/>
      </g>
     </g>
    </g>
    <g id="xtick_12">
     <g id="line2d_23">
      <g>
       <use xlink:href="#md3e942d530" x="290.053053" y="116.560561" style="stroke: #000000; stroke-width: 0.5"/>
      </g>
     </g>
     <g id="line2d_24">
      <g>
       <use xlink:href="#mcbf5a56001" x="290.053053" y="34.30218" style="stroke: #000000; stroke-width: 0.5"/>
      </g>
     </g>
    </g>
    <g id="xtick_13">
     <g id="line2d_25">
      <g>
       <use xlink:href="#md3e942d530" x="318.228101" y="116.560561" style="stroke: #000000; stroke-width: 0.5"/>
      </g>
     </g>
     <g id="line2d_26">
      <g>
       <use xlink:href="#mcbf5a56001" x="318.228101" y="34.30218" style="stroke: #000000; stroke-width: 0.5"/>
      </g>
     </g>
    </g>
    <g id="xtick_14">
     <g id="line2d_27">
      <g>
       <use xlink:href="#md3e942d530" x="374.578197" y="116.560561" style="stroke: #000000; stroke-width: 0.5"/>
      </g>
     </g>
     <g id="line2d_28">
      <g>
       <use xlink:href="#mcbf5a56001" x="374.578197" y="34.30218" style="stroke: #000000; stroke-width: 0.5"/>
      </g>
     </g>
    </g>
    <g id="xtick_15">
     <g id="line2d_29">
      <g>
       <use xlink:href="#md3e942d530" x="402.753245" y="116.560561" style="stroke: #000000; stroke-width: 0.5"/>
      </g>
     </g>
     <g id="line2d_30">
      <g>
       <use xlink:href="#mcbf5a56001" x="402.753245" y="34.30218" style="stroke: #000000; stroke-width: 0.5"/>
      </g>
     </g>
    </g>
    <g id="xtick_16">
     <g id="line2d_31">
      <g>
       <use xlink:href="#md3e942d530" x="430.928293" y="116.560561" style="stroke: #000000; stroke-width: 0.5"/>
      </g>
     </g>
     <g id="line2d_32">
      <g>
       <use xlink:href="#mcbf5a56001" x="430.928293" y="34.30218" style="stroke: #000000; stroke-width: 0.5"/>
      </g>
     </g>
    </g>
    <g id="xtick_17">
     <g id="line2d_33">
      <g>
       <use xlink:href="#md3e942d530" x="459.10334" y="116.560561" style="stroke: #000000; stroke-width: 0.5"/>
      </g>
     </g>
     <g id="line2d_34">
      <g>
       <use xlink:href="#mcbf5a56001" x="459.10334" y="34.30218" style="stroke: #000000; stroke-width: 0.5"/>
      </g>
     </g>
    </g>
    <g id="xtick_18">
     <g id="line2d_35">
      <g>
       <use xlink:href="#md3e942d530" x="515.453436" y="116.560561" style="stroke: #000000; stroke-width: 0.5"/>
      </g>
     </g>
     <g id="line2d_36">
      <g>
       <use xlink:href="#mcbf5a56001" x="515.453436" y="34.30218" style="stroke: #000000; stroke-width: 0.5"/>
      </g>
     </g>
    </g>
    <g id="xtick_19">
     <g id="line2d_37">
      <g>
       <use xlink:href="#md3e942d530" x="543.628484" y="116.560561" style="stroke: #000000; stroke-width: 0.5"/>
      </g>
     </g>
     <g id="line2d_38">
      <g>
       <use xlink:href="#mcbf5a56001" x="543.628484" y="34.30218" style="stroke: #000000; stroke-width: 0.5"/>
      </g>
     </g>
    </g>
    <g id="xtick_20">
     <g id="line2d_39">
      <g>
       <use xlink:href="#md3e942d530" x="571.803532" y="116.560561" style="stroke: #000000; stroke-width: 0.5"/>
      </g>
     </g>
     <g id="line2d_40">
      <g>
       <use xlink:href="#mcbf5a56001" x="571.803532" y="34.30218" style="stroke: #000000; stroke-width: 0.5"/>
      </g>
     </g>
    </g>
    <g id="xtick_21">
     <g id="line2d_41">
      <g>
       <use xlink:href="#md3e942d530" x="599.97858" y="116.560561" style="stroke: #000000; stroke-width: 0.5"/>
      </g>
     </g>
     <g id="line2d_42">
      <g>
       <use xlink:href="#mcbf5a56001" x="599.97858" y="34.30218" style="stroke: #000000; stroke-width: 0.5"/>
      </g>
     </g>
    </g>
    <g id="xtick_22">
     <g id="line2d_43">
      <g>
       <use xlink:href="#md3e942d530" x="656.328676" y="116.560561" style="stroke: #000000; stroke-width: 0.5"/>
      </g>
     </g>
     <g id="line2d_44">
      <g>
       <use xlink:href="#mcbf5a56001" x="656.328676" y="34.30218" style="stroke: #000000; stroke-width: 0.5"/>
      </g>
     </g>
    </g>
    <g id="xtick_23">
     <g id="line2d_45">
      <g>
       <use xlink:href="#md3e942d530" x="684.503724" y="116.560561" style="stroke: #000000; stroke-width: 0.5"/>
      </g>
     </g>
     <g id="line2d_46">
      <g>
       <use xlink:href="#mcbf5a56001" x="684.503724" y="34.30218" style="stroke: #000000; stroke-width: 0.5"/>
      </g>
     </g>
    </g>
   </g>
   <g id="matplotlib.axis_2">
    <g id="ytick_1">
     <g id="line2d_47">
      <defs>
       <path id="m786f08791e" d="M 0 0 
L 5 0 
" style="stroke: #000000; stroke-width: 0.5"/>
      </defs>
      <g>
       <use xlink:href="#m786f08791e" x="63.243917" y="106.233631" style="stroke: #000000; stroke-width: 0.5"/>
      </g>
     </g>
     <g id="line2d_48">
      <defs>
       <path id="meb17ba33e3" d="M 0 0 
L -5 0 
" style="stroke: #000000; stroke-width: 0.5"/>
      </defs>
      <g>
       <use xlink:href="#meb17ba33e3" x="700" y="106.233631" style="stroke: #000000; stroke-width: 0.5"/>
      </g>
     </g>
     <g id="text_1">
      <!-- $\mathdefault{−4}$ -->
      <g transform="translate(47.013838 109.69288) scale(0.1 -0.1)">
       <defs>
        <path id="CMSY10-0" d="M 4218 1472 
C 4326 1472 4442 1472 4442 1600 
C 4442 1728 4326 1728 4218 1728 
L 755 1728 
C 646 1728 531 1728 531 1600 
C 531 1472 646 1472 755 1472 
L 4218 1472 
z
" transform="scale(0.015625)"/>
        <path id="CMR17-34" d="M 2150 4122 
C 2150 4256 2144 4256 2029 4256 
L 128 1254 
L 128 1088 
L 1779 1088 
L 1779 457 
C 1779 224 1766 160 1318 160 
L 1197 160 
L 1197 0 
C 1402 0 1747 0 1965 0 
C 2182 0 2528 0 2733 0 
L 2733 160 
L 2611 160 
C 2163 160 2150 224 2150 457 
L 2150 1088 
L 2803 1088 
L 2803 1254 
L 2150 1254 
L 2150 4122 
z
M 1798 3703 
L 1798 1254 
L 256 1254 
L 1798 3703 
z
" transform="scale(0.015625)"/>
       </defs>
       <use xlink:href="#CMSY10-0" transform="scale(0.996264)"/>
       <use xlink:href="#CMR17-34" transform="translate(77.487468 0) scale(0.996264)"/>
      </g>
     </g>
    </g>
    <g id="ytick_2">
     <g id="line2d_49">
      <g>
       <use xlink:href="#m786f08791e" x="63.243917" y="79.020014" style="stroke: #000000; stroke-width: 0.5"/>
      </g>
     </g>
     <g id="line2d_50">
      <g>
       <use xlink:href="#meb17ba33e3" x="700" y="79.020014" style="stroke: #000000; stroke-width: 0.5"/>
      </g>
     </g>
     <g id="text_2">
      <!-- $\mathdefault{−2}$ -->
      <g transform="translate(47.013838 82.479264) scale(0.1 -0.1)">
       <defs>
        <path id="CMR17-32" d="M 2669 989 
L 2554 989 
C 2490 536 2438 459 2413 420 
C 2381 369 1920 369 1830 369 
L 602 369 
C 832 619 1280 1072 1824 1597 
C 2214 1967 2669 2402 2669 3035 
C 2669 3790 2067 4224 1395 4224 
C 691 4224 262 3604 262 3030 
C 262 2780 448 2748 525 2748 
C 589 2748 781 2787 781 3010 
C 781 3207 614 3264 525 3264 
C 486 3264 448 3258 422 3245 
C 544 3790 915 4058 1306 4058 
C 1862 4058 2227 3617 2227 3035 
C 2227 2479 1901 2000 1536 1584 
L 262 146 
L 262 0 
L 2515 0 
L 2669 989 
z
" transform="scale(0.015625)"/>
       </defs>
       <use xlink:href="#CMSY10-0" transform="scale(0.996264)"/>
       <use xlink:href="#CMR17-32" transform="translate(77.487468 0) scale(0.996264)"/>
      </g>
     </g>
    </g>
    <g id="ytick_3">
     <g id="line2d_51">
      <g>
       <use xlink:href="#m786f08791e" x="63.243917" y="51.806398" style="stroke: #000000; stroke-width: 0.5"/>
      </g>
     </g>
     <g id="line2d_52">
      <g>
       <use xlink:href="#meb17ba33e3" x="700" y="51.806398" style="stroke: #000000; stroke-width: 0.5"/>
      </g>
     </g>
     <g id="text_3">
      <!-- $\mathdefault{0}$ -->
      <g transform="translate(54.762582 55.265647) scale(0.1 -0.1)">
       <defs>
        <path id="CMR17-30" d="M 2688 2025 
C 2688 2416 2682 3080 2413 3591 
C 2176 4039 1798 4198 1466 4198 
C 1158 4198 768 4058 525 3597 
C 269 3118 243 2524 243 2025 
C 243 1661 250 1106 448 619 
C 723 -39 1216 -128 1466 -128 
C 1760 -128 2208 -7 2470 600 
C 2662 1042 2688 1559 2688 2025 
z
M 1466 -26 
C 1056 -26 813 325 723 812 
C 653 1188 653 1738 653 2096 
C 653 2588 653 2997 736 3387 
C 858 3929 1216 4096 1466 4096 
C 1728 4096 2067 3923 2189 3400 
C 2272 3036 2278 2607 2278 2096 
C 2278 1680 2278 1169 2202 792 
C 2067 95 1690 -26 1466 -26 
z
" transform="scale(0.015625)"/>
       </defs>
       <use xlink:href="#CMR17-30" transform="scale(0.996264)"/>
      </g>
     </g>
    </g>
    <g id="ytick_4">
     <g id="line2d_53">
      <defs>
       <path id="m179c1bd663" d="M 0 0 
L 2.5 0 
" style="stroke: #000000; stroke-width: 0.5"/>
      </defs>
      <g>
       <use xlink:href="#m179c1bd663" x="63.243917" y="113.037035" style="stroke: #000000; stroke-width: 0.5"/>
      </g>
     </g>
     <g id="line2d_54">
      <defs>
       <path id="m577ab609b6" d="M 0 0 
L -2.5 0 
" style="stroke: #000000; stroke-width: 0.5"/>
      </defs>
      <g>
       <use xlink:href="#m577ab609b6" x="700" y="113.037035" style="stroke: #000000; stroke-width: 0.5"/>
      </g>
     </g>
    </g>
    <g id="ytick_5">
     <g id="line2d_55">
      <g>
       <use xlink:href="#m179c1bd663" x="63.243917" y="99.430227" style="stroke: #000000; stroke-width: 0.5"/>
      </g>
     </g>
     <g id="line2d_56">
      <g>
       <use xlink:href="#m577ab609b6" x="700" y="99.430227" style="stroke: #000000; stroke-width: 0.5"/>
      </g>
     </g>
    </g>
    <g id="ytick_6">
     <g id="line2d_57">
      <g>
       <use xlink:href="#m179c1bd663" x="63.243917" y="92.626823" style="stroke: #000000; stroke-width: 0.5"/>
      </g>
     </g>
     <g id="line2d_58">
      <g>
       <use xlink:href="#m577ab609b6" x="700" y="92.626823" style="stroke: #000000; stroke-width: 0.5"/>
      </g>
     </g>
    </g>
    <g id="ytick_7">
     <g id="line2d_59">
      <g>
       <use xlink:href="#m179c1bd663" x="63.243917" y="85.823419" style="stroke: #000000; stroke-width: 0.5"/>
      </g>
     </g>
     <g id="line2d_60">
      <g>
       <use xlink:href="#m577ab609b6" x="700" y="85.823419" style="stroke: #000000; stroke-width: 0.5"/>
      </g>
     </g>
    </g>
    <g id="ytick_8">
     <g id="line2d_61">
      <g>
       <use xlink:href="#m179c1bd663" x="63.243917" y="72.21661" style="stroke: #000000; stroke-width: 0.5"/>
      </g>
     </g>
     <g id="line2d_62">
      <g>
       <use xlink:href="#m577ab609b6" x="700" y="72.21661" style="stroke: #000000; stroke-width: 0.5"/>
      </g>
     </g>
    </g>
    <g id="ytick_9">
     <g id="line2d_63">
      <g>
       <use xlink:href="#m179c1bd663" x="63.243917" y="65.413206" style="stroke: #000000; stroke-width: 0.5"/>
      </g>
     </g>
     <g id="line2d_64">
      <g>
       <use xlink:href="#m577ab609b6" x="700" y="65.413206" style="stroke: #000000; stroke-width: 0.5"/>
      </g>
     </g>
    </g>
    <g id="ytick_10">
     <g id="line2d_65">
      <g>
       <use xlink:href="#m179c1bd663" x="63.243917" y="58.609802" style="stroke: #000000; stroke-width: 0.5"/>
      </g>
     </g>
     <g id="line2d_66">
      <g>
       <use xlink:href="#m577ab609b6" x="700" y="58.609802" style="stroke: #000000; stroke-width: 0.5"/>
      </g>
     </g>
    </g>
    <g id="ytick_11">
     <g id="line2d_67">
      <g>
       <use xlink:href="#m179c1bd663" x="63.243917" y="45.002994" style="stroke: #000000; stroke-width: 0.5"/>
      </g>
     </g>
     <g id="line2d_68">
      <g>
       <use xlink:href="#m577ab609b6" x="700" y="45.002994" style="stroke: #000000; stroke-width: 0.5"/>
      </g>
     </g>
    </g>
    <g id="ytick_12">
     <g id="line2d_69">
      <g>
       <use xlink:href="#m179c1bd663" x="63.243917" y="38.19959" style="stroke: #000000; stroke-width: 0.5"/>
      </g>
     </g>
     <g id="line2d_70">
      <g>
       <use xlink:href="#m577ab609b6" x="700" y="38.19959" style="stroke: #000000; stroke-width: 0.5"/>
      </g>
     </g>
    </g>
    <g id="text_4">
     <!-- $q(t)$ -->
     <g transform="translate(27.748744 72.193512) scale(0.13 -0.13)">
      <defs>
       <path id="CMMI12-71" d="M 2822 2759 
C 2822 2790 2797 2816 2765 2816 
C 2714 2816 2464 2585 2342 2362 
C 2227 2646 2029 2816 1754 2816 
C 1030 2816 250 1884 250 939 
C 250 307 621 -64 1056 -64 
C 1395 -64 1677 193 1811 339 
L 1818 333 
L 1574 -615 
L 1517 -842 
C 1459 -1031 1363 -1031 1062 -1031 
C 992 -1031 928 -1031 928 -1152 
C 928 -1197 966 -1216 1011 -1216 
C 1101 -1216 1216 -1216 1306 -1216 
L 1958 -1216 
C 2054 -1216 2163 -1216 2259 -1216 
C 2298 -1216 2374 -1216 2374 -1095 
C 2374 -1031 2323 -1031 2227 -1031 
C 1926 -1031 1907 -986 1907 -935 
C 1907 -904 1914 -898 1933 -815 
L 2822 2759 
z
M 1920 762 
C 1888 652 1888 640 1798 518 
C 1658 339 1376 64 1075 64 
C 813 64 666 301 666 678 
C 666 1030 864 1747 986 2016 
C 1203 2464 1504 2695 1754 2695 
C 2176 2695 2259 2170 2259 2119 
C 2259 2113 2240 2028 2234 2016 
L 1920 762 
z
" transform="scale(0.015625)"/>
       <path id="CMR17-28" d="M 1958 -1561 
C 1958 -1555 1958 -1542 1939 -1523 
C 1645 -1224 858 -407 858 1581 
C 858 3569 1632 4379 1946 4697 
C 1946 4704 1958 4717 1958 4736 
C 1958 4755 1939 4768 1914 4768 
C 1843 4768 1299 4296 986 3594 
C 666 2887 576 2199 576 1588 
C 576 1128 621 351 1005 -471 
C 1312 -1135 1837 -1600 1914 -1600 
C 1946 -1600 1958 -1587 1958 -1561 
z
" transform="scale(0.015625)"/>
       <path id="CMMI12-74" d="M 1286 2566 
L 1875 2566 
C 1997 2566 2061 2566 2061 2681 
C 2061 2752 2022 2752 1894 2752 
L 1331 2752 
L 1568 3692 
C 1594 3781 1594 3794 1594 3840 
C 1594 3943 1510 4000 1427 4000 
C 1376 4000 1229 3981 1178 3775 
L 928 2752 
L 326 2752 
C 198 2752 141 2752 141 2630 
C 141 2566 186 2566 307 2566 
L 877 2566 
L 454 881 
C 403 658 384 594 384 511 
C 384 211 595 -64 954 -64 
C 1600 -64 1946 868 1946 912 
C 1946 951 1920 970 1882 970 
C 1869 970 1843 970 1830 944 
C 1824 938 1818 931 1773 829 
C 1638 511 1344 64 973 64 
C 781 64 768 224 768 364 
C 768 370 768 492 787 568 
L 1286 2566 
z
" transform="scale(0.015625)"/>
       <path id="CMR17-29" d="M 1683 1581 
C 1683 2040 1638 2817 1254 3639 
C 947 4303 422 4768 346 4768 
C 326 4768 301 4761 301 4729 
C 301 4717 307 4710 314 4697 
C 621 4378 1402 3568 1402 1584 
C 1402 -407 627 -1217 314 -1537 
C 307 -1549 301 -1556 301 -1568 
C 301 -1600 326 -1600 346 -1600 
C 416 -1600 960 -1128 1274 -426 
C 1594 281 1683 969 1683 1581 
z
" transform="scale(0.015625)"/>
      </defs>
      <use xlink:href="#CMMI12-71" transform="scale(0.996264)"/>
      <use xlink:href="#CMR17-28" transform="translate(46.826324 0) scale(0.996264)"/>
      <use xlink:href="#CMMI12-74" transform="translate(82.107092 0) scale(0.996264)"/>
      <use xlink:href="#CMR17-29" transform="translate(117.333422 0) scale(0.996264)"/>
     </g>
    </g>
   </g>
   <g id="LineCollection_1">
    <path d="M 64.65267 61.238021 
L 698.591248 61.238021 
" clip-path="url(#p85a7dc939e)" style="fill: none; stroke-dasharray: 2.22,0.96; stroke-dashoffset: 0; stroke: #000000; stroke-width: 0.6"/>
   </g>
   <g id="line2d_71">
    <path d="M 64.65267 38.19959 
L 65.921816 38.338108 
L 67.190962 38.727376 
L 69.094682 39.649246 
L 70.998401 40.842282 
L 73.536694 42.693449 
L 77.344133 45.780892 
L 83.055291 50.735574 
L 94.477608 61.011454 
L 112.245656 76.956712 
L 121.764253 85.190378 
L 129.379131 91.484003 
L 135.724863 96.437498 
L 140.801448 100.132853 
L 145.24346 103.110079 
L 149.050899 105.425883 
L 152.858338 107.48 
L 156.031204 108.958609 
L 159.204069 110.19395 
L 161.742362 110.979541 
L 164.280655 111.559094 
L 166.818947 111.906989 
L 169.35724 111.993669 
L 171.260959 111.867254 
L 173.164679 111.559558 
L 175.068398 111.05375 
L 176.972118 110.33175 
L 178.875837 109.374234 
L 180.779556 108.160631 
L 182.683276 106.669125 
L 184.586995 104.876631 
L 186.490715 102.757137 
L 188.394434 100.282882 
L 190.298154 97.426308 
L 192.201873 94.159902 
L 194.105593 90.457336 
L 196.009312 86.295494 
L 197.913032 81.663202 
L 200.451324 74.769693 
L 202.989617 67.145946 
L 208.700775 49.542707 
L 209.969921 46.26484 
L 211.239068 43.499117 
L 212.508214 41.320494 
L 213.77736 39.756799 
L 215.046507 38.763378 
L 216.315653 38.260423 
L 217.584799 38.16034 
L 218.853946 38.370212 
L 220.123092 38.815117 
L 222.026811 39.79784 
L 224.565104 41.481148 
L 227.73797 43.926 
L 232.179982 47.662715 
L 239.79486 54.411912 
L 269.619798 81.133378 
L 277.869249 88.14051 
L 284.849553 93.796134 
L 290.560712 98.155124 
L 295.637297 101.748968 
L 300.079309 104.610661 
L 303.886748 106.802343 
L 307.059614 108.409508 
L 310.232479 109.786021 
L 313.405345 110.899916 
L 315.943638 111.578835 
L 318.48193 112.041038 
L 321.020223 112.256023 
L 323.558515 112.19304 
L 325.462235 111.942522 
L 327.365954 111.499788 
L 329.269674 110.847221 
L 331.173393 109.965878 
L 333.077113 108.83549 
L 334.980832 107.435148 
L 336.884552 105.747016 
L 338.788271 103.73924 
L 340.69199 101.379264 
L 342.59571 98.637839 
L 344.499429 95.489021 
L 346.403149 91.910173 
L 348.306868 87.881963 
L 350.210588 83.388367 
L 352.114307 78.422304 
L 354.6526 71.104082 
L 358.460039 59.127741 
L 360.998331 51.300873 
L 362.902051 46.210856 
L 364.171197 43.429515 
L 365.440343 41.247068 
L 366.70949 39.679005 
L 367.978636 38.691117 
L 369.247782 38.204137 
L 370.516929 38.115661 
L 371.786075 38.337046 
L 373.055221 38.792748 
L 374.958941 39.782394 
L 376.86266 41.021426 
L 380.035526 43.420729 
L 384.477538 47.132436 
L 391.457843 53.301766 
L 425.09022 83.393902 
L 433.339671 90.331971 
L 439.685402 95.390631 
L 445.39656 99.647579 
L 449.838572 102.705566 
L 454.280585 105.488597 
L 458.088023 107.612957 
L 461.260889 109.161373 
L 464.433755 110.474056 
L 467.606621 111.514121 
L 470.144913 112.11986 
L 472.683206 112.495554 
L 475.221498 112.61097 
L 477.125218 112.506645 
L 479.028937 112.221676 
L 480.932657 111.739588 
L 482.836376 111.042841 
L 484.740096 110.112833 
L 486.643815 108.929897 
L 488.547535 107.473304 
L 490.451254 105.719216 
L 492.354974 103.639946 
L 494.258693 101.208521 
L 496.162412 98.396988 
L 498.066132 95.176955 
L 499.969851 91.521547 
L 501.873571 87.407222 
L 503.77729 82.817566 
L 505.68101 77.752914 
L 508.219302 70.314287 
L 512.026741 58.223383 
L 514.565034 50.444916 
L 515.83418 47.011488 
L 517.103326 44.065686 
L 518.372473 41.705985 
L 519.641619 39.971 
L 520.910765 38.839411 
L 522.179912 38.234791 
L 523.449058 38.053829 
L 524.718204 38.202266 
L 525.987351 38.600966 
L 527.89107 39.531827 
L 529.794789 40.731714 
L 532.333082 42.597262 
L 536.140521 45.704566 
L 541.851679 50.68014 
L 553.908569 61.562006 
L 571.042044 76.980216 
L 580.560642 85.253525 
L 588.175519 91.597597 
L 594.521251 96.599324 
L 599.597836 100.338777 
L 604.039848 103.362476 
L 607.847287 105.727944 
L 611.654726 107.845247 
L 614.827592 109.390341 
L 618.000457 110.699522 
L 621.173323 111.734532 
L 623.711616 112.336307 
L 626.249908 112.708671 
L 628.788201 112.821544 
L 630.69192 112.715721 
L 632.59564 112.429379 
L 634.499359 111.945721 
L 636.403079 111.246776 
L 638.306798 110.313396 
L 640.210518 109.125263 
L 642.114237 107.660884 
L 644.017957 105.897592 
L 645.921676 103.81073 
L 647.825396 101.371064 
L 649.729115 98.550261 
L 651.632834 95.320051 
L 653.536554 91.652867 
L 655.440273 87.525084 
L 657.343993 82.921753 
L 659.247712 77.839999 
L 661.786005 70.372735 
L 665.593444 58.231464 
L 668.131736 50.424698 
L 669.400883 46.97673 
L 670.670029 44.019948 
L 671.939175 41.652469 
L 673.208322 39.914951 
L 674.477468 38.791067 
L 675.746614 38.205378 
L 677.01576 38.041197 
L 678.284907 38.206468 
L 679.554053 38.623478 
L 681.457773 39.580214 
L 683.361492 40.797821 
L 685.899785 42.676137 
L 689.707223 45.792032 
L 696.052955 51.338818 
L 698.591248 53.613578 
L 698.591248 53.613578 
" clip-path="url(#p85a7dc939e)" style="fill: none; stroke: #008000; stroke-width: 1.5; stroke-linecap: square"/>
   </g>
   <g id="patch_3">
    <path d="M 63.243917 116.560561 
L 63.243917 34.30218 
" style="fill: none; stroke: #000000; stroke-width: 0.8; stroke-linejoin: miter; stroke-linecap: square"/>
   </g>
   <g id="patch_4">
    <path d="M 700 116.560561 
L 700 34.30218 
" style="fill: none; stroke: #000000; stroke-width: 0.8; stroke-linejoin: miter; stroke-linecap: square"/>
   </g>
   <g id="patch_5">
    <path d="M 63.243917 116.560561 
L 700 116.560561 
" style="fill: none; stroke: #000000; stroke-width: 0.8; stroke-linejoin: miter; stroke-linecap: square"/>
   </g>
   <g id="patch_6">
    <path d="M 63.243917 34.30218 
L 700 34.30218 
" style="fill: none; stroke: #000000; stroke-width: 0.8; stroke-linejoin: miter; stroke-linecap: square"/>
   </g>
   <g id="text_5">
    <!-- Position vs. Time -->
    <g transform="translate(335.95341 28.30218) scale(0.12 -0.12)">
     <defs>
      <path id="CMR17-50" d="M 1267 2042 
L 2291 2042 
C 3117 2042 3718 2578 3718 3184 
C 3718 3791 3130 4352 2291 4352 
L 333 4352 
L 333 4186 
C 774 4186 845 4186 845 3899 
L 845 446 
C 845 160 774 160 333 160 
L 333 0 
C 518 0 858 0 1056 0 
C 1254 0 1594 0 1779 0 
L 1779 160 
C 1338 160 1267 160 1267 446 
L 1267 2042 
z
M 1254 2176 
L 1254 3938 
C 1254 4155 1267 4186 1523 4186 
L 2170 4186 
C 2995 4186 3232 3714 3232 3184 
C 3232 2604 2950 2176 2170 2176 
L 1254 2176 
z
" transform="scale(0.015625)"/>
      <path id="CMR17-6f" d="M 2758 1356 
C 2758 2176 2163 2816 1466 2816 
C 768 2816 173 2176 173 1356 
C 173 551 768 -64 1466 -64 
C 2163 -64 2758 551 2758 1356 
z
M 1466 51 
C 1165 51 909 230 762 480 
C 602 767 582 1126 582 1408 
C 582 1677 595 2010 762 2298 
C 890 2509 1139 2714 1466 2714 
C 1754 2714 1997 2554 2150 2330 
C 2349 2029 2349 1607 2349 1408 
C 2349 1158 2336 775 2163 467 
C 1984 173 1709 51 1466 51 
z
" transform="scale(0.015625)"/>
      <path id="CMR17-73" d="M 1978 2697 
C 1978 2813 1971 2819 1933 2819 
C 1907 2819 1901 2813 1824 2717 
C 1805 2691 1747 2626 1728 2601 
C 1523 2819 1235 2819 1126 2819 
C 416 2819 160 2447 160 2076 
C 160 1498 813 1365 998 1325 
C 1402 1243 1542 1217 1677 1101 
C 1760 1025 1901 884 1901 654 
C 1901 384 1747 38 1158 38 
C 602 38 403 460 288 1021 
C 269 1110 269 1117 218 1117 
C 166 1117 160 1110 160 983 
L 160 63 
C 160 -51 166 -58 205 -58 
C 237 -58 243 -51 275 0 
C 314 57 410 211 448 276 
C 576 103 800 -64 1158 -64 
C 1792 -64 2131 283 2131 784 
C 2131 1112 1958 1285 1875 1362 
C 1683 1561 1459 1606 1190 1657 
C 838 1735 390 1825 390 2217 
C 390 2383 480 2737 1126 2737 
C 1811 2737 1850 2094 1862 1888 
C 1869 1856 1901 1849 1920 1849 
C 1978 1849 1978 1869 1978 1978 
L 1978 2697 
z
" transform="scale(0.015625)"/>
      <path id="CMR17-69" d="M 992 3909 
C 992 4049 877 4170 730 4170 
C 589 4170 467 4056 467 3909 
C 467 3769 582 3648 730 3648 
C 870 3648 992 3763 992 3909 
z
M 243 2706 
L 243 2541 
C 602 2541 653 2502 653 2197 
L 653 427 
C 653 184 627 153 218 153 
L 218 -13 
C 371 0 646 0 806 0 
C 960 0 1222 0 1370 -13 
L 1370 153 
C 992 153 979 191 979 420 
L 979 2776 
L 243 2706 
z
" transform="scale(0.015625)"/>
      <path id="CMR17-74" d="M 966 2560 
L 1862 2560 
L 1862 2725 
L 966 2725 
L 966 3904 
L 851 3904 
C 838 3245 614 2668 70 2668 
L 70 2560 
L 627 2560 
L 627 771 
C 627 650 627 -64 1370 -64 
C 1747 -64 1965 306 1965 777 
L 1965 1140 
L 1850 1140 
L 1850 783 
C 1850 344 1677 51 1408 51 
C 1222 51 966 178 966 758 
L 966 2560 
z
" transform="scale(0.015625)"/>
      <path id="CMR17-6e" d="M 2656 1933 
C 2656 2259 2592 2790 1837 2790 
C 1331 2790 1069 2400 973 2144 
L 966 2144 
L 966 2790 
L 211 2720 
L 211 2554 
C 589 2554 646 2515 646 2208 
L 646 428 
C 646 184 621 153 211 153 
L 211 -13 
C 365 0 646 0 813 0 
C 979 0 1267 0 1421 -13 
L 1421 153 
C 1011 153 986 178 986 428 
L 986 1658 
C 986 2247 1344 2688 1792 2688 
C 2266 2688 2317 2266 2317 1958 
L 2317 428 
C 2317 184 2291 153 1882 153 
L 1882 -13 
C 2035 0 2317 0 2483 0 
C 2650 0 2938 0 3091 -13 
L 3091 153 
C 2682 153 2656 178 2656 428 
L 2656 1933 
z
" transform="scale(0.015625)"/>
      <path id="CMR17-76" d="M 2502 2163 
C 2560 2304 2662 2560 3034 2560 
L 3034 2726 
C 2912 2726 2752 2726 2630 2726 
C 2496 2726 2285 2726 2157 2732 
L 2157 2566 
C 2317 2553 2406 2477 2406 2311 
C 2406 2253 2406 2240 2368 2151 
L 1664 377 
L 902 2286 
C 864 2369 864 2381 864 2407 
C 864 2560 1075 2560 1171 2560 
L 1171 2732 
C 1018 2726 736 2726 576 2726 
C 403 2726 205 2726 64 2732 
L 64 2560 
C 307 2560 442 2560 518 2362 
L 1446 44 
C 1485 -51 1491 -64 1549 -64 
C 1606 -64 1613 -51 1651 44 
L 2502 2163 
z
" transform="scale(0.015625)"/>
      <path id="CMR17-2e" d="M 1062 261 
C 1062 420 934 522 800 522 
C 672 522 538 420 538 261 
C 538 102 666 0 800 0 
C 928 0 1062 102 1062 261 
z
" transform="scale(0.015625)"/>
      <path id="CMR17-54" d="M 3981 4326 
L 288 4326 
L 179 2918 
L 294 2918 
C 378 3976 467 4160 1453 4160 
C 1568 4160 1754 4160 1805 4154 
C 1926 4135 1926 4058 1926 3912 
L 1926 459 
C 1926 230 1907 160 1376 160 
L 1197 160 
L 1197 0 
C 1504 0 1824 0 2138 0 
C 2451 0 2771 0 3078 0 
L 3078 160 
L 2899 160 
C 2368 160 2349 230 2349 459 
L 2349 3912 
C 2349 4052 2349 4129 2464 4154 
C 2515 4160 2701 4160 2816 4160 
C 3795 4160 3891 3976 3974 2918 
L 4090 2918 
L 3981 4326 
z
" transform="scale(0.015625)"/>
      <path id="CMR17-6d" d="M 4326 1933 
C 4326 2252 4269 2790 3507 2790 
C 3072 2790 2771 2496 2656 2151 
L 2650 2151 
C 2573 2676 2195 2790 1837 2790 
C 1331 2790 1069 2400 973 2144 
L 966 2144 
L 966 2790 
L 211 2720 
L 211 2554 
C 589 2554 646 2515 646 2208 
L 646 428 
C 646 184 621 153 211 153 
L 211 -13 
C 365 0 646 0 813 0 
C 979 0 1267 0 1421 -13 
L 1421 153 
C 1011 153 986 178 986 428 
L 986 1658 
C 986 2247 1344 2688 1792 2688 
C 2266 2688 2317 2266 2317 1958 
L 2317 428 
C 2317 184 2291 153 1882 153 
L 1882 -13 
C 2035 0 2317 0 2483 0 
C 2650 0 2938 0 3091 -13 
L 3091 153 
C 2682 153 2656 178 2656 428 
L 2656 1658 
C 2656 2247 3014 2688 3462 2688 
C 3936 2688 3987 2266 3987 1958 
L 3987 428 
C 3987 184 3962 153 3552 153 
L 3552 -13 
C 3706 0 3987 0 4154 0 
C 4320 0 4608 0 4762 -13 
L 4762 153 
C 4352 153 4326 178 4326 428 
L 4326 1933 
z
" transform="scale(0.015625)"/>
      <path id="CMR17-65" d="M 2438 1472 
C 2464 1498 2464 1511 2464 1576 
C 2464 2238 2118 2816 1389 2816 
C 710 2816 173 2169 173 1383 
C 173 551 781 -64 1459 -64 
C 2176 -64 2458 607 2458 740 
C 2458 784 2419 784 2406 784 
C 2362 784 2355 771 2330 696 
C 2189 265 1837 51 1504 51 
C 1229 51 954 203 781 480 
C 582 803 582 1176 582 1472 
L 2438 1472 
z
M 589 1568 
C 634 2505 1126 2714 1382 2714 
C 1818 2714 2112 2297 2118 1568 
L 589 1568 
z
" transform="scale(0.015625)"/>
     </defs>
     <use xlink:href="#CMR17-50" transform="scale(0.996264)"/>
     <use xlink:href="#CMR17-6f" transform="translate(59.983847 0) scale(0.996264)"/>
     <use xlink:href="#CMR17-73" transform="translate(105.674324 0) scale(0.996264)"/>
     <use xlink:href="#CMR17-69" transform="translate(141.475661 0) scale(0.996264)"/>
     <use xlink:href="#CMR17-74" transform="translate(166.34672 0) scale(0.996264)"/>
     <use xlink:href="#CMR17-69" transform="translate(201.627488 0) scale(0.996264)"/>
     <use xlink:href="#CMR17-6f" transform="translate(226.498546 0) scale(0.996264)"/>
     <use xlink:href="#CMR17-6e" transform="translate(272.189023 0) scale(0.996264)"/>
     <use xlink:href="#CMR17-76" transform="translate(353.160359 0) scale(0.996264)"/>
     <use xlink:href="#CMR17-73" transform="translate(401.453275 0) scale(0.996264)"/>
     <use xlink:href="#CMR17-2e" transform="translate(437.254613 0) scale(0.996264)"/>
     <use xlink:href="#CMR17-54" transform="translate(502.611332 0) scale(0.996264)"/>
     <use xlink:href="#CMR17-69" transform="translate(569.121212 0) scale(0.996264)"/>
     <use xlink:href="#CMR17-6d" transform="translate(593.992271 0) scale(0.996264)"/>
     <use xlink:href="#CMR17-65" transform="translate(670.911861 0) scale(0.996264)"/>
    </g>
   </g>
  </g>
  <g id="axes_2">
   <g id="patch_7">
    <path d="M 63.243917 233.121122 
L 700 233.121122 
L 700 150.862741 
L 63.243917 150.862741 
z
" style="fill: #ffffff"/>
   </g>
   <g id="matplotlib.axis_3">
    <g id="xtick_24">
     <g id="line2d_72">
      <g>
       <use xlink:href="#mcd817f4004" x="64.65267" y="233.121122" style="stroke: #000000; stroke-width: 0.5"/>
      </g>
     </g>
     <g id="line2d_73">
      <g>
       <use xlink:href="#m09b6bc37ac" x="64.65267" y="150.862741" style="stroke: #000000; stroke-width: 0.5"/>
      </g>
     </g>
    </g>
    <g id="xtick_25">
     <g id="line2d_74">
      <g>
       <use xlink:href="#mcd817f4004" x="205.527909" y="233.121122" style="stroke: #000000; stroke-width: 0.5"/>
      </g>
     </g>
     <g id="line2d_75">
      <g>
       <use xlink:href="#m09b6bc37ac" x="205.527909" y="150.862741" style="stroke: #000000; stroke-width: 0.5"/>
      </g>
     </g>
    </g>
    <g id="xtick_26">
     <g id="line2d_76">
      <g>
       <use xlink:href="#mcd817f4004" x="346.403149" y="233.121122" style="stroke: #000000; stroke-width: 0.5"/>
      </g>
     </g>
     <g id="line2d_77">
      <g>
       <use xlink:href="#m09b6bc37ac" x="346.403149" y="150.862741" style="stroke: #000000; stroke-width: 0.5"/>
      </g>
     </g>
    </g>
    <g id="xtick_27">
     <g id="line2d_78">
      <g>
       <use xlink:href="#mcd817f4004" x="487.278388" y="233.121122" style="stroke: #000000; stroke-width: 0.5"/>
      </g>
     </g>
     <g id="line2d_79">
      <g>
       <use xlink:href="#m09b6bc37ac" x="487.278388" y="150.862741" style="stroke: #000000; stroke-width: 0.5"/>
      </g>
     </g>
    </g>
    <g id="xtick_28">
     <g id="line2d_80">
      <g>
       <use xlink:href="#mcd817f4004" x="628.153628" y="233.121122" style="stroke: #000000; stroke-width: 0.5"/>
      </g>
     </g>
     <g id="line2d_81">
      <g>
       <use xlink:href="#m09b6bc37ac" x="628.153628" y="150.862741" style="stroke: #000000; stroke-width: 0.5"/>
      </g>
     </g>
    </g>
    <g id="xtick_29">
     <g id="line2d_82">
      <g>
       <use xlink:href="#md3e942d530" x="92.827718" y="233.121122" style="stroke: #000000; stroke-width: 0.5"/>
      </g>
     </g>
     <g id="line2d_83">
      <g>
       <use xlink:href="#mcbf5a56001" x="92.827718" y="150.862741" style="stroke: #000000; stroke-width: 0.5"/>
      </g>
     </g>
    </g>
    <g id="xtick_30">
     <g id="line2d_84">
      <g>
       <use xlink:href="#md3e942d530" x="121.002766" y="233.121122" style="stroke: #000000; stroke-width: 0.5"/>
      </g>
     </g>
     <g id="line2d_85">
      <g>
       <use xlink:href="#mcbf5a56001" x="121.002766" y="150.862741" style="stroke: #000000; stroke-width: 0.5"/>
      </g>
     </g>
    </g>
    <g id="xtick_31">
     <g id="line2d_86">
      <g>
       <use xlink:href="#md3e942d530" x="149.177814" y="233.121122" style="stroke: #000000; stroke-width: 0.5"/>
      </g>
     </g>
     <g id="line2d_87">
      <g>
       <use xlink:href="#mcbf5a56001" x="149.177814" y="150.862741" style="stroke: #000000; stroke-width: 0.5"/>
      </g>
     </g>
    </g>
    <g id="xtick_32">
     <g id="line2d_88">
      <g>
       <use xlink:href="#md3e942d530" x="177.352861" y="233.121122" style="stroke: #000000; stroke-width: 0.5"/>
      </g>
     </g>
     <g id="line2d_89">
      <g>
       <use xlink:href="#mcbf5a56001" x="177.352861" y="150.862741" style="stroke: #000000; stroke-width: 0.5"/>
      </g>
     </g>
    </g>
    <g id="xtick_33">
     <g id="line2d_90">
      <g>
       <use xlink:href="#md3e942d530" x="233.702957" y="233.121122" style="stroke: #000000; stroke-width: 0.5"/>
      </g>
     </g>
     <g id="line2d_91">
      <g>
       <use xlink:href="#mcbf5a56001" x="233.702957" y="150.862741" style="stroke: #000000; stroke-width: 0.5"/>
      </g>
     </g>
    </g>
    <g id="xtick_34">
     <g id="line2d_92">
      <g>
       <use xlink:href="#md3e942d530" x="261.878005" y="233.121122" style="stroke: #000000; stroke-width: 0.5"/>
      </g>
     </g>
     <g id="line2d_93">
      <g>
       <use xlink:href="#mcbf5a56001" x="261.878005" y="150.862741" style="stroke: #000000; stroke-width: 0.5"/>
      </g>
     </g>
    </g>
    <g id="xtick_35">
     <g id="line2d_94">
      <g>
       <use xlink:href="#md3e942d530" x="290.053053" y="233.121122" style="stroke: #000000; stroke-width: 0.5"/>
      </g>
     </g>
     <g id="line2d_95">
      <g>
       <use xlink:href="#mcbf5a56001" x="290.053053" y="150.862741" style="stroke: #000000; stroke-width: 0.5"/>
      </g>
     </g>
    </g>
    <g id="xtick_36">
     <g id="line2d_96">
      <g>
       <use xlink:href="#md3e942d530" x="318.228101" y="233.121122" style="stroke: #000000; stroke-width: 0.5"/>
      </g>
     </g>
     <g id="line2d_97">
      <g>
       <use xlink:href="#mcbf5a56001" x="318.228101" y="150.862741" style="stroke: #000000; stroke-width: 0.5"/>
      </g>
     </g>
    </g>
    <g id="xtick_37">
     <g id="line2d_98">
      <g>
       <use xlink:href="#md3e942d530" x="374.578197" y="233.121122" style="stroke: #000000; stroke-width: 0.5"/>
      </g>
     </g>
     <g id="line2d_99">
      <g>
       <use xlink:href="#mcbf5a56001" x="374.578197" y="150.862741" style="stroke: #000000; stroke-width: 0.5"/>
      </g>
     </g>
    </g>
    <g id="xtick_38">
     <g id="line2d_100">
      <g>
       <use xlink:href="#md3e942d530" x="402.753245" y="233.121122" style="stroke: #000000; stroke-width: 0.5"/>
      </g>
     </g>
     <g id="line2d_101">
      <g>
       <use xlink:href="#mcbf5a56001" x="402.753245" y="150.862741" style="stroke: #000000; stroke-width: 0.5"/>
      </g>
     </g>
    </g>
    <g id="xtick_39">
     <g id="line2d_102">
      <g>
       <use xlink:href="#md3e942d530" x="430.928293" y="233.121122" style="stroke: #000000; stroke-width: 0.5"/>
      </g>
     </g>
     <g id="line2d_103">
      <g>
       <use xlink:href="#mcbf5a56001" x="430.928293" y="150.862741" style="stroke: #000000; stroke-width: 0.5"/>
      </g>
     </g>
    </g>
    <g id="xtick_40">
     <g id="line2d_104">
      <g>
       <use xlink:href="#md3e942d530" x="459.10334" y="233.121122" style="stroke: #000000; stroke-width: 0.5"/>
      </g>
     </g>
     <g id="line2d_105">
      <g>
       <use xlink:href="#mcbf5a56001" x="459.10334" y="150.862741" style="stroke: #000000; stroke-width: 0.5"/>
      </g>
     </g>
    </g>
    <g id="xtick_41">
     <g id="line2d_106">
      <g>
       <use xlink:href="#md3e942d530" x="515.453436" y="233.121122" style="stroke: #000000; stroke-width: 0.5"/>
      </g>
     </g>
     <g id="line2d_107">
      <g>
       <use xlink:href="#mcbf5a56001" x="515.453436" y="150.862741" style="stroke: #000000; stroke-width: 0.5"/>
      </g>
     </g>
    </g>
    <g id="xtick_42">
     <g id="line2d_108">
      <g>
       <use xlink:href="#md3e942d530" x="543.628484" y="233.121122" style="stroke: #000000; stroke-width: 0.5"/>
      </g>
     </g>
     <g id="line2d_109">
      <g>
       <use xlink:href="#mcbf5a56001" x="543.628484" y="150.862741" style="stroke: #000000; stroke-width: 0.5"/>
      </g>
     </g>
    </g>
    <g id="xtick_43">
     <g id="line2d_110">
      <g>
       <use xlink:href="#md3e942d530" x="571.803532" y="233.121122" style="stroke: #000000; stroke-width: 0.5"/>
      </g>
     </g>
     <g id="line2d_111">
      <g>
       <use xlink:href="#mcbf5a56001" x="571.803532" y="150.862741" style="stroke: #000000; stroke-width: 0.5"/>
      </g>
     </g>
    </g>
    <g id="xtick_44">
     <g id="line2d_112">
      <g>
       <use xlink:href="#md3e942d530" x="599.97858" y="233.121122" style="stroke: #000000; stroke-width: 0.5"/>
      </g>
     </g>
     <g id="line2d_113">
      <g>
       <use xlink:href="#mcbf5a56001" x="599.97858" y="150.862741" style="stroke: #000000; stroke-width: 0.5"/>
      </g>
     </g>
    </g>
    <g id="xtick_45">
     <g id="line2d_114">
      <g>
       <use xlink:href="#md3e942d530" x="656.328676" y="233.121122" style="stroke: #000000; stroke-width: 0.5"/>
      </g>
     </g>
     <g id="line2d_115">
      <g>
       <use xlink:href="#mcbf5a56001" x="656.328676" y="150.862741" style="stroke: #000000; stroke-width: 0.5"/>
      </g>
     </g>
    </g>
    <g id="xtick_46">
     <g id="line2d_116">
      <g>
       <use xlink:href="#md3e942d530" x="684.503724" y="233.121122" style="stroke: #000000; stroke-width: 0.5"/>
      </g>
     </g>
     <g id="line2d_117">
      <g>
       <use xlink:href="#mcbf5a56001" x="684.503724" y="150.862741" style="stroke: #000000; stroke-width: 0.5"/>
      </g>
     </g>
    </g>
   </g>
   <g id="matplotlib.axis_4">
    <g id="ytick_13">
     <g id="line2d_118">
      <g>
       <use xlink:href="#m786f08791e" x="63.243917" y="212.969656" style="stroke: #000000; stroke-width: 0.5"/>
      </g>
     </g>
     <g id="line2d_119">
      <g>
       <use xlink:href="#meb17ba33e3" x="700" y="212.969656" style="stroke: #000000; stroke-width: 0.5"/>
      </g>
     </g>
     <g id="text_6">
      <!-- $\mathdefault{0}$ -->
      <g transform="translate(54.762582 216.428905) scale(0.1 -0.1)">
       <use xlink:href="#CMR17-30" transform="scale(0.996264)"/>
      </g>
     </g>
    </g>
    <g id="ytick_14">
     <g id="line2d_120">
      <g>
       <use xlink:href="#m786f08791e" x="63.243917" y="178.052441" style="stroke: #000000; stroke-width: 0.5"/>
      </g>
     </g>
     <g id="line2d_121">
      <g>
       <use xlink:href="#meb17ba33e3" x="700" y="178.052441" style="stroke: #000000; stroke-width: 0.5"/>
      </g>
     </g>
     <g id="text_7">
      <!-- $\mathdefault{2}$ -->
      <g transform="translate(54.762582 181.51169) scale(0.1 -0.1)">
       <use xlink:href="#CMR17-32" transform="scale(0.996264)"/>
      </g>
     </g>
    </g>
    <g id="ytick_15">
     <g id="line2d_122">
      <g>
       <use xlink:href="#m179c1bd663" x="63.243917" y="230.428264" style="stroke: #000000; stroke-width: 0.5"/>
      </g>
     </g>
     <g id="line2d_123">
      <g>
       <use xlink:href="#m577ab609b6" x="700" y="230.428264" style="stroke: #000000; stroke-width: 0.5"/>
      </g>
     </g>
    </g>
    <g id="ytick_16">
     <g id="line2d_124">
      <g>
       <use xlink:href="#m179c1bd663" x="63.243917" y="221.69896" style="stroke: #000000; stroke-width: 0.5"/>
      </g>
     </g>
     <g id="line2d_125">
      <g>
       <use xlink:href="#m577ab609b6" x="700" y="221.69896" style="stroke: #000000; stroke-width: 0.5"/>
      </g>
     </g>
    </g>
    <g id="ytick_17">
     <g id="line2d_126">
      <g>
       <use xlink:href="#m179c1bd663" x="63.243917" y="204.240352" style="stroke: #000000; stroke-width: 0.5"/>
      </g>
     </g>
     <g id="line2d_127">
      <g>
       <use xlink:href="#m577ab609b6" x="700" y="204.240352" style="stroke: #000000; stroke-width: 0.5"/>
      </g>
     </g>
    </g>
    <g id="ytick_18">
     <g id="line2d_128">
      <g>
       <use xlink:href="#m179c1bd663" x="63.243917" y="195.511048" style="stroke: #000000; stroke-width: 0.5"/>
      </g>
     </g>
     <g id="line2d_129">
      <g>
       <use xlink:href="#m577ab609b6" x="700" y="195.511048" style="stroke: #000000; stroke-width: 0.5"/>
      </g>
     </g>
    </g>
    <g id="ytick_19">
     <g id="line2d_130">
      <g>
       <use xlink:href="#m179c1bd663" x="63.243917" y="186.781744" style="stroke: #000000; stroke-width: 0.5"/>
      </g>
     </g>
     <g id="line2d_131">
      <g>
       <use xlink:href="#m577ab609b6" x="700" y="186.781744" style="stroke: #000000; stroke-width: 0.5"/>
      </g>
     </g>
    </g>
    <g id="ytick_20">
     <g id="line2d_132">
      <g>
       <use xlink:href="#m179c1bd663" x="63.243917" y="169.323137" style="stroke: #000000; stroke-width: 0.5"/>
      </g>
     </g>
     <g id="line2d_133">
      <g>
       <use xlink:href="#m577ab609b6" x="700" y="169.323137" style="stroke: #000000; stroke-width: 0.5"/>
      </g>
     </g>
    </g>
    <g id="ytick_21">
     <g id="line2d_134">
      <g>
       <use xlink:href="#m179c1bd663" x="63.243917" y="160.593833" style="stroke: #000000; stroke-width: 0.5"/>
      </g>
     </g>
     <g id="line2d_135">
      <g>
       <use xlink:href="#m577ab609b6" x="700" y="160.593833" style="stroke: #000000; stroke-width: 0.5"/>
      </g>
     </g>
    </g>
    <g id="ytick_22">
     <g id="line2d_136">
      <g>
       <use xlink:href="#m179c1bd663" x="63.243917" y="151.864529" style="stroke: #000000; stroke-width: 0.5"/>
      </g>
     </g>
     <g id="line2d_137">
      <g>
       <use xlink:href="#m577ab609b6" x="700" y="151.864529" style="stroke: #000000; stroke-width: 0.5"/>
      </g>
     </g>
    </g>
    <g id="text_8">
     <!-- $\dot{q}(t)$ -->
     <g transform="translate(35.497487 188.754073) scale(0.13 -0.13)">
      <defs>
       <path id="CMR17-5f" d="M 1056 3909 
C 1056 4062 934 4170 800 4170 
C 646 4170 538 4049 538 3909 
C 538 3756 659 3648 794 3648 
C 947 3648 1056 3769 1056 3909 
z
" transform="scale(0.015625)"/>
      </defs>
      <use xlink:href="#CMR17-5f" transform="translate(19.106786 0.006461) scale(0.996264)"/>
      <use xlink:href="#CMMI12-71" transform="scale(0.996264)"/>
      <use xlink:href="#CMR17-28" transform="translate(46.826324 0) scale(0.996264)"/>
      <use xlink:href="#CMMI12-74" transform="translate(82.107092 0) scale(0.996264)"/>
      <use xlink:href="#CMR17-29" transform="translate(117.333422 0) scale(0.996264)"/>
     </g>
    </g>
   </g>
   <g id="line2d_138">
    <path d="M 64.65267 212.79507 
L 65.921816 216.903985 
L 67.190962 219.988658 
L 68.460109 222.287982 
L 69.729255 223.989555 
L 70.998401 225.245988 
L 72.267548 226.186576 
L 73.536694 226.900853 
L 75.440413 227.668694 
L 77.344133 228.185758 
L 79.882425 228.63888 
L 83.055291 228.982295 
L 87.497303 229.226155 
L 93.843035 229.336178 
L 102.092486 229.255717 
L 110.97651 228.958342 
L 119.225961 228.468941 
L 126.206265 227.843728 
L 132.551997 227.057655 
L 137.628582 226.229769 
L 142.705167 225.169328 
L 147.147179 223.999944 
L 150.954618 222.777639 
L 154.762057 221.313591 
L 157.934923 219.879529 
L 161.107789 218.221431 
L 164.280655 216.300552 
L 167.45352 214.072928 
L 169.991813 212.037409 
L 172.530106 209.747356 
L 175.068398 207.173659 
L 177.606691 204.285241 
L 180.144983 201.049062 
L 182.683276 197.430113 
L 185.221569 193.391827 
L 187.759861 188.902261 
L 190.298154 183.943582 
L 192.836446 178.528934 
L 196.009312 171.232189 
L 199.816751 162.402449 
L 201.085897 159.772083 
L 202.355044 157.573816 
L 202.989617 156.711598 
L 203.62419 156.053271 
L 204.258763 155.637049 
L 204.893336 155.504155 
L 205.527909 155.698816 
L 206.162483 156.268264 
L 206.797056 157.262737 
L 207.431629 158.735478 
L 208.066202 160.726515 
L 208.700775 163.230237 
L 209.969921 169.654629 
L 211.239068 177.584657 
L 214.411933 198.860167 
L 215.68108 205.922317 
L 216.950226 211.618513 
L 218.219372 216.020956 
L 219.488519 219.341207 
L 220.757665 221.828122 
L 222.026811 223.671168 
L 223.295958 225.01723 
L 224.565104 226.020304 
L 225.83425 226.778311 
L 227.73797 227.591698 
L 229.641689 228.137542 
L 232.179982 228.613729 
L 235.352847 228.973663 
L 239.79486 229.229344 
L 246.140591 229.348396 
L 254.390042 229.276691 
L 263.274066 228.990415 
L 271.523517 228.514509 
L 278.503822 227.904692 
L 284.849553 227.142344 
L 290.560712 226.227954 
L 295.637297 225.171729 
L 300.079309 224.005025 
L 303.886748 222.782442 
L 307.694187 221.3138 
L 310.867052 219.871034 
L 314.039918 218.200317 
L 317.212784 216.27078 
L 320.38565 214.036543 
L 322.923942 211.99664 
L 325.462235 209.702859 
L 328.000527 207.125601 
L 330.53882 204.232968 
L 333.077113 200.990761 
L 335.615405 197.369906 
L 338.153698 193.343807 
L 340.69199 188.832658 
L 343.230283 183.813758 
L 345.768576 178.334246 
L 349.576015 169.526314 
L 353.383454 160.816201 
L 354.6526 158.357129 
L 355.921746 156.42892 
L 356.556319 155.74925 
L 357.190892 155.312972 
L 357.825466 155.165568 
L 358.460039 155.356641 
L 359.094612 155.935497 
L 359.729185 156.952038 
L 360.363758 158.449651 
L 360.998331 160.452034 
L 361.632904 162.963109 
L 362.902051 169.428108 
L 364.171197 177.471078 
L 367.344063 198.985456 
L 368.613209 206.100905 
L 369.882355 211.769205 
L 371.151502 216.167979 
L 372.420648 219.487145 
L 373.689794 221.93509 
L 374.958941 223.730587 
L 376.228087 225.066015 
L 377.497233 226.080484 
L 378.76638 226.856577 
L 380.035526 227.42683 
L 381.939245 228.032324 
L 384.477538 228.557608 
L 387.650404 228.948584 
L 392.092416 229.22753 
L 398.438147 229.365499 
L 406.687598 229.308806 
L 416.206195 229.014752 
L 424.455646 228.545879 
L 432.070524 227.887546 
L 438.416256 227.11076 
L 443.492841 226.286928 
L 448.569426 225.230174 
L 453.011438 224.068331 
L 456.818877 222.860437 
L 460.626316 221.419977 
L 463.799182 220.008145 
L 466.972048 218.370583 
L 470.144913 216.47034 
L 473.317779 214.265167 
L 475.856072 212.249706 
L 478.394364 209.981976 
L 480.932657 207.433022 
L 483.470949 204.571719 
L 486.009242 201.36477 
L 488.547535 197.77671 
L 491.085827 193.770286 
L 493.62412 189.311882 
L 496.162412 184.380171 
L 498.700705 178.977664 
L 501.873571 171.665767 
L 506.315583 161.277475 
L 507.584729 158.693937 
L 508.853875 156.573798 
L 509.488449 155.767579 
L 510.123022 155.182411 
L 510.757595 154.862848 
L 511.392168 154.852506 
L 512.026741 155.208271 
L 512.661314 155.986572 
L 513.295888 157.230218 
L 513.930461 158.9684 
L 514.565034 161.216688 
L 515.199607 163.977037 
L 516.468753 170.948502 
L 518.372473 183.78642 
L 520.276192 196.923252 
L 521.545339 204.374855 
L 522.814485 210.431816 
L 524.083631 215.16469 
L 525.352777 218.718458 
L 526.621924 221.329543 
L 527.89107 223.286548 
L 529.160216 224.736728 
L 530.429363 225.827949 
L 531.698509 226.66518 
L 532.967655 227.299733 
L 534.871375 227.951405 
L 537.409667 228.511301 
L 540.582533 228.927206 
L 545.024545 229.224046 
L 551.370277 229.373596 
L 559.619728 229.327519 
L 569.138325 229.045886 
L 577.387776 228.590973 
L 585.002654 227.950753 
L 591.348385 227.198612 
L 597.059543 226.287676 
L 602.136129 225.232227 
L 606.578141 224.068968 
L 610.38558 222.856055 
L 614.193019 221.408461 
L 617.365884 219.993486 
L 620.53875 218.353908 
L 623.711616 216.451563 
L 626.884482 214.243299 
L 629.422774 212.224249 
L 631.961067 209.951759 
L 634.499359 207.396848 
L 637.037652 204.52849 
L 639.575945 201.31362 
L 642.114237 197.71713 
L 644.65253 193.701872 
L 647.190822 189.232541 
L 649.729115 184.287223 
L 652.267408 178.869887 
L 655.440273 171.53114 
L 659.882285 161.095183 
L 661.151432 158.491728 
L 662.420578 156.359653 
L 663.055151 155.548083 
L 663.689724 154.951105 
L 664.324297 154.614638 
L 664.958871 154.601758 
L 665.593444 154.967383 
L 666.228017 155.757493 
L 666.86259 157.009129 
L 667.497163 158.750394 
L 668.131736 161.000454 
L 668.76631 163.769533 
L 670.035456 170.774347 
L 671.939175 183.677907 
L 674.477468 201.125534 
L 675.746614 207.890281 
L 677.01576 213.188777 
L 678.284907 217.278517 
L 679.554053 220.354213 
L 680.823199 222.606309 
L 682.092346 224.241143 
L 683.361492 225.453499 
L 684.630638 226.369536 
L 685.899785 227.069453 
L 687.803504 227.801683 
L 689.707223 228.293197 
L 692.245516 228.725411 
L 695.418382 229.049028 
L 698.591248 229.231972 
L 698.591248 229.231972 
" clip-path="url(#p36bd4d334e)" style="fill: none; stroke: #ffa500; stroke-width: 1.5; stroke-linecap: square"/>
   </g>
   <g id="patch_8">
    <path d="M 63.243917 233.121122 
L 63.243917 150.862741 
" style="fill: none; stroke: #000000; stroke-width: 0.8; stroke-linejoin: miter; stroke-linecap: square"/>
   </g>
   <g id="patch_9">
    <path d="M 700 233.121122 
L 700 150.862741 
" style="fill: none; stroke: #000000; stroke-width: 0.8; stroke-linejoin: miter; stroke-linecap: square"/>
   </g>
   <g id="patch_10">
    <path d="M 63.243917 233.121122 
L 700 233.121122 
" style="fill: none; stroke: #000000; stroke-width: 0.8; stroke-linejoin: miter; stroke-linecap: square"/>
   </g>
   <g id="patch_11">
    <path d="M 63.243917 150.862741 
L 700 150.862741 
" style="fill: none; stroke: #000000; stroke-width: 0.8; stroke-linejoin: miter; stroke-linecap: square"/>
   </g>
   <g id="text_9">
    <!-- Velocity vs. Time -->
    <g transform="translate(336.06826 144.862741) scale(0.12 -0.12)">
     <defs>
      <path id="CMR17-56" d="M 3776 3745 
C 3834 3886 3936 4160 4365 4160 
L 4365 4332 
C 4218 4319 4051 4319 3891 4319 
C 3738 4319 3475 4319 3328 4332 
L 3328 4160 
C 3648 4160 3661 3936 3661 3898 
C 3661 3827 3642 3783 3622 3732 
L 2362 446 
L 1043 3886 
C 1024 3931 1011 3963 1011 3994 
C 1011 4160 1267 4160 1402 4160 
L 1402 4319 
C 1197 4319 896 4319 685 4319 
C 518 4319 218 4319 64 4332 
L 64 4160 
C 435 4160 506 4135 582 3931 
L 2106 -26 
C 2138 -115 2144 -128 2214 -128 
C 2285 -128 2291 -115 2323 -26 
L 3776 3745 
z
" transform="scale(0.015625)"/>
      <path id="CMR17-6c" d="M 979 4396 
L 218 4326 
L 218 4160 
C 595 4160 653 4122 653 3817 
L 653 426 
C 653 184 627 153 218 153 
L 218 -13 
C 371 0 653 0 813 0 
C 979 0 1261 0 1414 -13 
L 1414 153 
C 1005 153 979 178 979 426 
L 979 4396 
z
" transform="scale(0.015625)"/>
      <path id="CMR17-63" d="M 2234 2240 
C 2112 2240 1933 2240 1933 2017 
C 1933 1838 2080 1787 2163 1787 
C 2208 1787 2394 1807 2394 2024 
C 2394 2467 1958 2803 1466 2803 
C 787 2803 211 2178 211 1363 
C 211 516 813 -64 1466 -64 
C 2259 -64 2458 677 2458 748 
C 2458 774 2451 793 2406 793 
C 2362 793 2355 787 2330 703 
C 2163 180 1798 51 1523 51 
C 1114 51 621 427 621 1369 
C 621 2338 1094 2688 1472 2688 
C 1722 2688 2093 2573 2234 2240 
z
" transform="scale(0.015625)"/>
      <path id="CMR17-79" d="M 2496 2197 
C 2656 2586 2944 2586 3034 2586 
L 3034 2752 
C 2912 2752 2752 2752 2630 2752 
C 2496 2752 2285 2752 2157 2758 
L 2157 2592 
C 2400 2573 2406 2394 2406 2343 
C 2406 2280 2394 2248 2362 2171 
L 1664 449 
L 902 2306 
C 870 2382 870 2426 870 2433 
C 870 2573 1018 2586 1171 2586 
L 1171 2758 
C 1018 2752 742 2752 582 2752 
C 410 2752 205 2752 64 2758 
L 64 2586 
C 410 2586 448 2554 531 2350 
L 1485 15 
C 1197 -738 1030 -1178 627 -1178 
C 557 -1178 397 -1159 282 -1044 
C 429 -1031 493 -942 493 -833 
C 493 -725 416 -629 288 -629 
C 147 -629 77 -725 77 -840 
C 77 -1095 339 -1280 627 -1280 
C 998 -1280 1229 -922 1357 -604 
L 2496 2197 
z
" transform="scale(0.015625)"/>
     </defs>
     <use xlink:href="#CMR17-56" transform="scale(0.996264)"/>
     <use xlink:href="#CMR17-65" transform="translate(61.265174 0) scale(0.996264)"/>
     <use xlink:href="#CMR17-6c" transform="translate(101.750835 0) scale(0.996264)"/>
     <use xlink:href="#CMR17-6f" transform="translate(126.621893 0) scale(0.996264)"/>
     <use xlink:href="#CMR17-63" transform="translate(174.914809 0) scale(0.996264)"/>
     <use xlink:href="#CMR17-69" transform="translate(215.40047 0) scale(0.996264)"/>
     <use xlink:href="#CMR17-74" transform="translate(240.271528 0) scale(0.996264)"/>
     <use xlink:href="#CMR17-79" transform="translate(272.949842 0) scale(0.996264)"/>
     <use xlink:href="#CMR17-76" transform="translate(351.318724 0) scale(0.996264)"/>
     <use xlink:href="#CMR17-73" transform="translate(399.61164 0) scale(0.996264)"/>
     <use xlink:href="#CMR17-2e" transform="translate(435.412978 0) scale(0.996264)"/>
     <use xlink:href="#CMR17-54" transform="translate(500.769697 0) scale(0.996264)"/>
     <use xlink:href="#CMR17-69" transform="translate(567.279577 0) scale(0.996264)"/>
     <use xlink:href="#CMR17-6d" transform="translate(592.150636 0) scale(0.996264)"/>
     <use xlink:href="#CMR17-65" transform="translate(669.070226 0) scale(0.996264)"/>
    </g>
   </g>
  </g>
  <g id="axes_3">
   <g id="patch_12">
    <path d="M 63.243917 349.681683 
L 700 349.681683 
L 700 267.423302 
L 63.243917 267.423302 
z
" style="fill: #ffffff"/>
   </g>
   <g id="matplotlib.axis_5">
    <g id="xtick_47">
     <g id="line2d_139">
      <g>
       <use xlink:href="#mcd817f4004" x="64.65267" y="349.681683" style="stroke: #000000; stroke-width: 0.5"/>
      </g>
     </g>
     <g id="line2d_140">
      <g>
       <use xlink:href="#m09b6bc37ac" x="64.65267" y="267.423302" style="stroke: #000000; stroke-width: 0.5"/>
      </g>
     </g>
     <g id="text_10">
      <!-- $\mathdefault{0}$ -->
      <g transform="translate(62.162002 360.100182) scale(0.1 -0.1)">
       <use xlink:href="#CMR17-30" transform="scale(0.996264)"/>
      </g>
     </g>
    </g>
    <g id="xtick_48">
     <g id="line2d_141">
      <g>
       <use xlink:href="#mcd817f4004" x="205.527909" y="349.681683" style="stroke: #000000; stroke-width: 0.5"/>
      </g>
     </g>
     <g id="line2d_142">
      <g>
       <use xlink:href="#m09b6bc37ac" x="205.527909" y="267.423302" style="stroke: #000000; stroke-width: 0.5"/>
      </g>
     </g>
     <g id="text_11">
      <!-- $\mathdefault{10}$ -->
      <g transform="translate(200.546574 360.100182) scale(0.1 -0.1)">
       <defs>
        <path id="CMR17-31" d="M 1702 4058 
C 1702 4192 1696 4192 1606 4192 
C 1357 3916 979 3827 621 3827 
C 602 3827 570 3827 563 3808 
C 557 3795 557 3782 557 3648 
C 755 3648 1088 3686 1344 3839 
L 1344 461 
C 1344 236 1331 160 781 160 
L 589 160 
L 589 0 
C 896 0 1216 0 1523 0 
C 1830 0 2150 0 2458 0 
L 2458 160 
L 2266 160 
C 1715 160 1702 230 1702 458 
L 1702 4058 
z
" transform="scale(0.015625)"/>
       </defs>
       <use xlink:href="#CMR17-31" transform="scale(0.996264)"/>
       <use xlink:href="#CMR17-30" transform="translate(45.690477 0) scale(0.996264)"/>
      </g>
     </g>
    </g>
    <g id="xtick_49">
     <g id="line2d_143">
      <g>
       <use xlink:href="#mcd817f4004" x="346.403149" y="349.681683" style="stroke: #000000; stroke-width: 0.5"/>
      </g>
     </g>
     <g id="line2d_144">
      <g>
       <use xlink:href="#m09b6bc37ac" x="346.403149" y="267.423302" style="stroke: #000000; stroke-width: 0.5"/>
      </g>
     </g>
     <g id="text_12">
      <!-- $\mathdefault{20}$ -->
      <g transform="translate(341.421814 360.100182) scale(0.1 -0.1)">
       <use xlink:href="#CMR17-32" transform="scale(0.996264)"/>
       <use xlink:href="#CMR17-30" transform="translate(45.690477 0) scale(0.996264)"/>
      </g>
     </g>
    </g>
    <g id="xtick_50">
     <g id="line2d_145">
      <g>
       <use xlink:href="#mcd817f4004" x="487.278388" y="349.681683" style="stroke: #000000; stroke-width: 0.5"/>
      </g>
     </g>
     <g id="line2d_146">
      <g>
       <use xlink:href="#m09b6bc37ac" x="487.278388" y="267.423302" style="stroke: #000000; stroke-width: 0.5"/>
      </g>
     </g>
     <g id="text_13">
      <!-- $\mathdefault{30}$ -->
      <g transform="translate(482.297053 360.100182) scale(0.1 -0.1)">
       <defs>
        <path id="CMR17-33" d="M 1414 2157 
C 1984 2157 2234 1662 2234 1090 
C 2234 320 1824 25 1453 25 
C 1114 25 563 194 390 693 
C 422 680 454 680 486 680 
C 640 680 755 782 755 948 
C 755 1133 614 1216 486 1216 
C 378 1216 211 1165 211 926 
C 211 335 787 -128 1466 -128 
C 2176 -128 2720 430 2720 1085 
C 2720 1707 2208 2157 1600 2227 
C 2086 2328 2554 2756 2554 3329 
C 2554 3820 2048 4179 1472 4179 
C 890 4179 378 3829 378 3329 
C 378 3110 544 3072 627 3072 
C 762 3072 877 3155 877 3321 
C 877 3486 762 3569 627 3569 
C 602 3569 570 3569 544 3557 
C 730 3959 1235 4032 1459 4032 
C 1683 4032 2106 3925 2106 3320 
C 2106 3143 2080 2828 1862 2550 
C 1670 2304 1453 2304 1242 2284 
C 1210 2284 1062 2269 1037 2269 
C 992 2263 966 2257 966 2208 
C 966 2163 973 2157 1101 2157 
L 1414 2157 
z
" transform="scale(0.015625)"/>
       </defs>
       <use xlink:href="#CMR17-33" transform="scale(0.996264)"/>
       <use xlink:href="#CMR17-30" transform="translate(45.690477 0) scale(0.996264)"/>
      </g>
     </g>
    </g>
    <g id="xtick_51">
     <g id="line2d_147">
      <g>
       <use xlink:href="#mcd817f4004" x="628.153628" y="349.681683" style="stroke: #000000; stroke-width: 0.5"/>
      </g>
     </g>
     <g id="line2d_148">
      <g>
       <use xlink:href="#m09b6bc37ac" x="628.153628" y="267.423302" style="stroke: #000000; stroke-width: 0.5"/>
      </g>
     </g>
     <g id="text_14">
      <!-- $\mathdefault{40}$ -->
      <g transform="translate(623.172293 360.100182) scale(0.1 -0.1)">
       <use xlink:href="#CMR17-34" transform="scale(0.996264)"/>
       <use xlink:href="#CMR17-30" transform="translate(45.690477 0) scale(0.996264)"/>
      </g>
     </g>
    </g>
    <g id="xtick_52">
     <g id="line2d_149">
      <g>
       <use xlink:href="#md3e942d530" x="92.827718" y="349.681683" style="stroke: #000000; stroke-width: 0.5"/>
      </g>
     </g>
     <g id="line2d_150">
      <g>
       <use xlink:href="#mcbf5a56001" x="92.827718" y="267.423302" style="stroke: #000000; stroke-width: 0.5"/>
      </g>
     </g>
    </g>
    <g id="xtick_53">
     <g id="line2d_151">
      <g>
       <use xlink:href="#md3e942d530" x="121.002766" y="349.681683" style="stroke: #000000; stroke-width: 0.5"/>
      </g>
     </g>
     <g id="line2d_152">
      <g>
       <use xlink:href="#mcbf5a56001" x="121.002766" y="267.423302" style="stroke: #000000; stroke-width: 0.5"/>
      </g>
     </g>
    </g>
    <g id="xtick_54">
     <g id="line2d_153">
      <g>
       <use xlink:href="#md3e942d530" x="149.177814" y="349.681683" style="stroke: #000000; stroke-width: 0.5"/>
      </g>
     </g>
     <g id="line2d_154">
      <g>
       <use xlink:href="#mcbf5a56001" x="149.177814" y="267.423302" style="stroke: #000000; stroke-width: 0.5"/>
      </g>
     </g>
    </g>
    <g id="xtick_55">
     <g id="line2d_155">
      <g>
       <use xlink:href="#md3e942d530" x="177.352861" y="349.681683" style="stroke: #000000; stroke-width: 0.5"/>
      </g>
     </g>
     <g id="line2d_156">
      <g>
       <use xlink:href="#mcbf5a56001" x="177.352861" y="267.423302" style="stroke: #000000; stroke-width: 0.5"/>
      </g>
     </g>
    </g>
    <g id="xtick_56">
     <g id="line2d_157">
      <g>
       <use xlink:href="#md3e942d530" x="233.702957" y="349.681683" style="stroke: #000000; stroke-width: 0.5"/>
      </g>
     </g>
     <g id="line2d_158">
      <g>
       <use xlink:href="#mcbf5a56001" x="233.702957" y="267.423302" style="stroke: #000000; stroke-width: 0.5"/>
      </g>
     </g>
    </g>
    <g id="xtick_57">
     <g id="line2d_159">
      <g>
       <use xlink:href="#md3e942d530" x="261.878005" y="349.681683" style="stroke: #000000; stroke-width: 0.5"/>
      </g>
     </g>
     <g id="line2d_160">
      <g>
       <use xlink:href="#mcbf5a56001" x="261.878005" y="267.423302" style="stroke: #000000; stroke-width: 0.5"/>
      </g>
     </g>
    </g>
    <g id="xtick_58">
     <g id="line2d_161">
      <g>
       <use xlink:href="#md3e942d530" x="290.053053" y="349.681683" style="stroke: #000000; stroke-width: 0.5"/>
      </g>
     </g>
     <g id="line2d_162">
      <g>
       <use xlink:href="#mcbf5a56001" x="290.053053" y="267.423302" style="stroke: #000000; stroke-width: 0.5"/>
      </g>
     </g>
    </g>
    <g id="xtick_59">
     <g id="line2d_163">
      <g>
       <use xlink:href="#md3e942d530" x="318.228101" y="349.681683" style="stroke: #000000; stroke-width: 0.5"/>
      </g>
     </g>
     <g id="line2d_164">
      <g>
       <use xlink:href="#mcbf5a56001" x="318.228101" y="267.423302" style="stroke: #000000; stroke-width: 0.5"/>
      </g>
     </g>
    </g>
    <g id="xtick_60">
     <g id="line2d_165">
      <g>
       <use xlink:href="#md3e942d530" x="374.578197" y="349.681683" style="stroke: #000000; stroke-width: 0.5"/>
      </g>
     </g>
     <g id="line2d_166">
      <g>
       <use xlink:href="#mcbf5a56001" x="374.578197" y="267.423302" style="stroke: #000000; stroke-width: 0.5"/>
      </g>
     </g>
    </g>
    <g id="xtick_61">
     <g id="line2d_167">
      <g>
       <use xlink:href="#md3e942d530" x="402.753245" y="349.681683" style="stroke: #000000; stroke-width: 0.5"/>
      </g>
     </g>
     <g id="line2d_168">
      <g>
       <use xlink:href="#mcbf5a56001" x="402.753245" y="267.423302" style="stroke: #000000; stroke-width: 0.5"/>
      </g>
     </g>
    </g>
    <g id="xtick_62">
     <g id="line2d_169">
      <g>
       <use xlink:href="#md3e942d530" x="430.928293" y="349.681683" style="stroke: #000000; stroke-width: 0.5"/>
      </g>
     </g>
     <g id="line2d_170">
      <g>
       <use xlink:href="#mcbf5a56001" x="430.928293" y="267.423302" style="stroke: #000000; stroke-width: 0.5"/>
      </g>
     </g>
    </g>
    <g id="xtick_63">
     <g id="line2d_171">
      <g>
       <use xlink:href="#md3e942d530" x="459.10334" y="349.681683" style="stroke: #000000; stroke-width: 0.5"/>
      </g>
     </g>
     <g id="line2d_172">
      <g>
       <use xlink:href="#mcbf5a56001" x="459.10334" y="267.423302" style="stroke: #000000; stroke-width: 0.5"/>
      </g>
     </g>
    </g>
    <g id="xtick_64">
     <g id="line2d_173">
      <g>
       <use xlink:href="#md3e942d530" x="515.453436" y="349.681683" style="stroke: #000000; stroke-width: 0.5"/>
      </g>
     </g>
     <g id="line2d_174">
      <g>
       <use xlink:href="#mcbf5a56001" x="515.453436" y="267.423302" style="stroke: #000000; stroke-width: 0.5"/>
      </g>
     </g>
    </g>
    <g id="xtick_65">
     <g id="line2d_175">
      <g>
       <use xlink:href="#md3e942d530" x="543.628484" y="349.681683" style="stroke: #000000; stroke-width: 0.5"/>
      </g>
     </g>
     <g id="line2d_176">
      <g>
       <use xlink:href="#mcbf5a56001" x="543.628484" y="267.423302" style="stroke: #000000; stroke-width: 0.5"/>
      </g>
     </g>
    </g>
    <g id="xtick_66">
     <g id="line2d_177">
      <g>
       <use xlink:href="#md3e942d530" x="571.803532" y="349.681683" style="stroke: #000000; stroke-width: 0.5"/>
      </g>
     </g>
     <g id="line2d_178">
      <g>
       <use xlink:href="#mcbf5a56001" x="571.803532" y="267.423302" style="stroke: #000000; stroke-width: 0.5"/>
      </g>
     </g>
    </g>
    <g id="xtick_67">
     <g id="line2d_179">
      <g>
       <use xlink:href="#md3e942d530" x="599.97858" y="349.681683" style="stroke: #000000; stroke-width: 0.5"/>
      </g>
     </g>
     <g id="line2d_180">
      <g>
       <use xlink:href="#mcbf5a56001" x="599.97858" y="267.423302" style="stroke: #000000; stroke-width: 0.5"/>
      </g>
     </g>
    </g>
    <g id="xtick_68">
     <g id="line2d_181">
      <g>
       <use xlink:href="#md3e942d530" x="656.328676" y="349.681683" style="stroke: #000000; stroke-width: 0.5"/>
      </g>
     </g>
     <g id="line2d_182">
      <g>
       <use xlink:href="#mcbf5a56001" x="656.328676" y="267.423302" style="stroke: #000000; stroke-width: 0.5"/>
      </g>
     </g>
    </g>
    <g id="xtick_69">
     <g id="line2d_183">
      <g>
       <use xlink:href="#md3e942d530" x="684.503724" y="349.681683" style="stroke: #000000; stroke-width: 0.5"/>
      </g>
     </g>
     <g id="line2d_184">
      <g>
       <use xlink:href="#mcbf5a56001" x="684.503724" y="267.423302" style="stroke: #000000; stroke-width: 0.5"/>
      </g>
     </g>
    </g>
    <g id="text_15">
     <!-- Time ($t$) -->
     <g transform="translate(362.941978 373.50934) scale(0.1 -0.1)">
      <use xlink:href="#CMR17-54" transform="scale(0.996264)"/>
      <use xlink:href="#CMR17-69" transform="translate(66.509881 0) scale(0.996264)"/>
      <use xlink:href="#CMR17-6d" transform="translate(91.380939 0) scale(0.996264)"/>
      <use xlink:href="#CMR17-65" transform="translate(168.300529 0) scale(0.996264)"/>
      <use xlink:href="#CMR17-28" transform="translate(238.862156 0) scale(0.996264)"/>
      <use xlink:href="#CMMI12-74" transform="translate(274.142924 0) scale(0.996264)"/>
      <use xlink:href="#CMR17-29" transform="translate(309.369254 0) scale(0.996264)"/>
     </g>
    </g>
   </g>
   <g id="matplotlib.axis_6">
    <g id="ytick_23">
     <g id="line2d_185">
      <g>
       <use xlink:href="#m786f08791e" x="63.243917" y="338.691522" style="stroke: #000000; stroke-width: 0.5"/>
      </g>
     </g>
     <g id="line2d_186">
      <g>
       <use xlink:href="#meb17ba33e3" x="700" y="338.691522" style="stroke: #000000; stroke-width: 0.5"/>
      </g>
     </g>
     <g id="text_16">
      <!-- $\mathdefault{−5.0}$ -->
      <g transform="translate(39.265095 342.150772) scale(0.1 -0.1)">
       <defs>
        <path id="CMR17-35" d="M 730 3692 
C 794 3666 1056 3584 1325 3584 
C 1920 3584 2246 3911 2432 4100 
C 2432 4157 2432 4192 2394 4192 
C 2387 4192 2374 4192 2323 4163 
C 2099 4058 1837 3973 1517 3973 
C 1325 3973 1037 3999 723 4139 
C 653 4171 640 4171 634 4171 
C 602 4171 595 4164 595 4037 
L 595 2203 
C 595 2089 595 2057 659 2057 
C 691 2057 704 2070 736 2114 
C 941 2401 1222 2522 1542 2522 
C 1766 2522 2246 2382 2246 1289 
C 2246 1085 2246 715 2054 421 
C 1894 159 1645 25 1370 25 
C 947 25 518 320 403 814 
C 429 807 480 795 506 795 
C 589 795 749 840 749 1038 
C 749 1210 627 1280 506 1280 
C 358 1280 262 1190 262 1011 
C 262 454 704 -128 1382 -128 
C 2042 -128 2669 440 2669 1264 
C 2669 2030 2170 2624 1549 2624 
C 1222 2624 947 2503 730 2274 
L 730 3692 
z
" transform="scale(0.015625)"/>
        <path id="CMMI12-3a" d="M 1178 307 
C 1178 492 1024 619 870 619 
C 685 619 557 466 557 313 
C 557 128 710 0 864 0 
C 1050 0 1178 153 1178 307 
z
" transform="scale(0.015625)"/>
       </defs>
       <use xlink:href="#CMSY10-0" transform="scale(0.996264)"/>
       <use xlink:href="#CMR17-35" transform="translate(77.487468 0) scale(0.996264)"/>
       <use xlink:href="#CMMI12-3a" transform="translate(123.177945 0) scale(0.996264)"/>
       <use xlink:href="#CMR17-30" transform="translate(150.275122 0) scale(0.996264)"/>
      </g>
     </g>
    </g>
    <g id="ytick_24">
     <g id="line2d_187">
      <g>
       <use xlink:href="#m786f08791e" x="63.243917" y="314.356329" style="stroke: #000000; stroke-width: 0.5"/>
      </g>
     </g>
     <g id="line2d_188">
      <g>
       <use xlink:href="#meb17ba33e3" x="700" y="314.356329" style="stroke: #000000; stroke-width: 0.5"/>
      </g>
     </g>
     <g id="text_17">
      <!-- $\mathdefault{−2.5}$ -->
      <g transform="translate(39.265095 317.815579) scale(0.1 -0.1)">
       <use xlink:href="#CMSY10-0" transform="scale(0.996264)"/>
       <use xlink:href="#CMR17-32" transform="translate(77.487468 0) scale(0.996264)"/>
       <use xlink:href="#CMMI12-3a" transform="translate(123.177945 0) scale(0.996264)"/>
       <use xlink:href="#CMR17-35" transform="translate(150.275122 0) scale(0.996264)"/>
      </g>
     </g>
    </g>
    <g id="ytick_25">
     <g id="line2d_189">
      <g>
       <use xlink:href="#m786f08791e" x="63.243917" y="290.021137" style="stroke: #000000; stroke-width: 0.5"/>
      </g>
     </g>
     <g id="line2d_190">
      <g>
       <use xlink:href="#meb17ba33e3" x="700" y="290.021137" style="stroke: #000000; stroke-width: 0.5"/>
      </g>
     </g>
     <g id="text_18">
      <!-- $\mathdefault{0.0}$ -->
      <g transform="translate(47.013838 293.480386) scale(0.1 -0.1)">
       <use xlink:href="#CMR17-30" transform="scale(0.996264)"/>
       <use xlink:href="#CMMI12-3a" transform="translate(45.690477 0) scale(0.996264)"/>
       <use xlink:href="#CMR17-30" transform="translate(72.787654 0) scale(0.996264)"/>
      </g>
     </g>
    </g>
    <g id="ytick_26">
     <g id="line2d_191">
      <g>
       <use xlink:href="#m179c1bd663" x="63.243917" y="348.4256" style="stroke: #000000; stroke-width: 0.5"/>
      </g>
     </g>
     <g id="line2d_192">
      <g>
       <use xlink:href="#m577ab609b6" x="700" y="348.4256" style="stroke: #000000; stroke-width: 0.5"/>
      </g>
     </g>
    </g>
    <g id="ytick_27">
     <g id="line2d_193">
      <g>
       <use xlink:href="#m179c1bd663" x="63.243917" y="343.558561" style="stroke: #000000; stroke-width: 0.5"/>
      </g>
     </g>
     <g id="line2d_194">
      <g>
       <use xlink:href="#m577ab609b6" x="700" y="343.558561" style="stroke: #000000; stroke-width: 0.5"/>
      </g>
     </g>
    </g>
    <g id="ytick_28">
     <g id="line2d_195">
      <g>
       <use xlink:href="#m179c1bd663" x="63.243917" y="333.824484" style="stroke: #000000; stroke-width: 0.5"/>
      </g>
     </g>
     <g id="line2d_196">
      <g>
       <use xlink:href="#m577ab609b6" x="700" y="333.824484" style="stroke: #000000; stroke-width: 0.5"/>
      </g>
     </g>
    </g>
    <g id="ytick_29">
     <g id="line2d_197">
      <g>
       <use xlink:href="#m179c1bd663" x="63.243917" y="328.957445" style="stroke: #000000; stroke-width: 0.5"/>
      </g>
     </g>
     <g id="line2d_198">
      <g>
       <use xlink:href="#m577ab609b6" x="700" y="328.957445" style="stroke: #000000; stroke-width: 0.5"/>
      </g>
     </g>
    </g>
    <g id="ytick_30">
     <g id="line2d_199">
      <g>
       <use xlink:href="#m179c1bd663" x="63.243917" y="324.090407" style="stroke: #000000; stroke-width: 0.5"/>
      </g>
     </g>
     <g id="line2d_200">
      <g>
       <use xlink:href="#m577ab609b6" x="700" y="324.090407" style="stroke: #000000; stroke-width: 0.5"/>
      </g>
     </g>
    </g>
    <g id="ytick_31">
     <g id="line2d_201">
      <g>
       <use xlink:href="#m179c1bd663" x="63.243917" y="319.223368" style="stroke: #000000; stroke-width: 0.5"/>
      </g>
     </g>
     <g id="line2d_202">
      <g>
       <use xlink:href="#m577ab609b6" x="700" y="319.223368" style="stroke: #000000; stroke-width: 0.5"/>
      </g>
     </g>
    </g>
    <g id="ytick_32">
     <g id="line2d_203">
      <g>
       <use xlink:href="#m179c1bd663" x="63.243917" y="309.489291" style="stroke: #000000; stroke-width: 0.5"/>
      </g>
     </g>
     <g id="line2d_204">
      <g>
       <use xlink:href="#m577ab609b6" x="700" y="309.489291" style="stroke: #000000; stroke-width: 0.5"/>
      </g>
     </g>
    </g>
    <g id="ytick_33">
     <g id="line2d_205">
      <g>
       <use xlink:href="#m179c1bd663" x="63.243917" y="304.622252" style="stroke: #000000; stroke-width: 0.5"/>
      </g>
     </g>
     <g id="line2d_206">
      <g>
       <use xlink:href="#m577ab609b6" x="700" y="304.622252" style="stroke: #000000; stroke-width: 0.5"/>
      </g>
     </g>
    </g>
    <g id="ytick_34">
     <g id="line2d_207">
      <g>
       <use xlink:href="#m179c1bd663" x="63.243917" y="299.755214" style="stroke: #000000; stroke-width: 0.5"/>
      </g>
     </g>
     <g id="line2d_208">
      <g>
       <use xlink:href="#m577ab609b6" x="700" y="299.755214" style="stroke: #000000; stroke-width: 0.5"/>
      </g>
     </g>
    </g>
    <g id="ytick_35">
     <g id="line2d_209">
      <g>
       <use xlink:href="#m179c1bd663" x="63.243917" y="294.888175" style="stroke: #000000; stroke-width: 0.5"/>
      </g>
     </g>
     <g id="line2d_210">
      <g>
       <use xlink:href="#m577ab609b6" x="700" y="294.888175" style="stroke: #000000; stroke-width: 0.5"/>
      </g>
     </g>
    </g>
    <g id="ytick_36">
     <g id="line2d_211">
      <g>
       <use xlink:href="#m179c1bd663" x="63.243917" y="285.154098" style="stroke: #000000; stroke-width: 0.5"/>
      </g>
     </g>
     <g id="line2d_212">
      <g>
       <use xlink:href="#m577ab609b6" x="700" y="285.154098" style="stroke: #000000; stroke-width: 0.5"/>
      </g>
     </g>
    </g>
    <g id="ytick_37">
     <g id="line2d_213">
      <g>
       <use xlink:href="#m179c1bd663" x="63.243917" y="280.287059" style="stroke: #000000; stroke-width: 0.5"/>
      </g>
     </g>
     <g id="line2d_214">
      <g>
       <use xlink:href="#m577ab609b6" x="700" y="280.287059" style="stroke: #000000; stroke-width: 0.5"/>
      </g>
     </g>
    </g>
    <g id="ytick_38">
     <g id="line2d_215">
      <g>
       <use xlink:href="#m179c1bd663" x="63.243917" y="275.420021" style="stroke: #000000; stroke-width: 0.5"/>
      </g>
     </g>
     <g id="line2d_216">
      <g>
       <use xlink:href="#m577ab609b6" x="700" y="275.420021" style="stroke: #000000; stroke-width: 0.5"/>
      </g>
     </g>
    </g>
    <g id="ytick_39">
     <g id="line2d_217">
      <g>
       <use xlink:href="#m179c1bd663" x="63.243917" y="270.552982" style="stroke: #000000; stroke-width: 0.5"/>
      </g>
     </g>
     <g id="line2d_218">
      <g>
       <use xlink:href="#m577ab609b6" x="700" y="270.552982" style="stroke: #000000; stroke-width: 0.5"/>
      </g>
     </g>
    </g>
    <g id="text_19">
     <!-- $\ddot{q}(t)$ -->
     <g transform="translate(20 305.314635) scale(0.13 -0.13)">
      <defs>
       <path id="CMR17-7f" d="M 1133 3961 
C 1133 4120 1005 4215 883 4215 
C 717 4215 627 4075 627 3967 
C 627 3840 730 3712 883 3712 
C 1018 3712 1133 3821 1133 3961 
z
M 2304 3961 
C 2304 4088 2202 4215 2048 4215 
C 1914 4215 1798 4107 1798 3967 
C 1798 3808 1926 3712 2048 3712 
C 2214 3712 2304 3852 2304 3961 
z
" transform="scale(0.015625)"/>
      </defs>
      <use xlink:href="#CMR17-7f" transform="translate(8.697077 0.006461) scale(0.996264)"/>
      <use xlink:href="#CMMI12-71" transform="scale(0.996264)"/>
      <use xlink:href="#CMR17-28" transform="translate(46.826324 0) scale(0.996264)"/>
      <use xlink:href="#CMMI12-74" transform="translate(82.107092 0) scale(0.996264)"/>
      <use xlink:href="#CMR17-29" transform="translate(117.333422 0) scale(0.996264)"/>
     </g>
    </g>
   </g>
   <g id="line2d_219">
    <path d="M 64.65267 319.099587 
L 65.921816 312.046876 
L 67.190962 306.434209 
L 68.460109 302.161158 
L 69.729255 299.007425 
L 70.998401 296.718523 
L 72.267548 295.052879 
L 73.536694 293.833202 
L 74.80584 292.93625 
L 76.074987 292.276909 
L 77.978706 291.583843 
L 79.882425 291.121821 
L 82.420718 290.720613 
L 86.228157 290.373796 
L 91.939315 290.10489 
L 104.630778 289.799889 
L 123.0334 289.310505 
L 133.821143 288.809076 
L 142.070594 288.223347 
L 149.050899 287.516233 
L 155.39663 286.639505 
L 160.473216 285.731488 
L 165.549801 284.589198 
L 169.991813 283.349564 
L 173.799252 282.073719 
L 177.606691 280.572945 
L 181.41413 278.827802 
L 185.221569 276.840024 
L 193.471019 272.308914 
L 195.374739 271.632536 
L 196.643885 271.452878 
L 197.913032 271.625489 
L 198.547605 271.894678 
L 199.182178 272.319517 
L 199.816751 272.932148 
L 200.451324 273.77195 
L 201.085897 274.883721 
L 201.72047 276.317409 
L 202.355044 278.127313 
L 202.989617 280.370474 
L 203.62419 283.103922 
L 204.258763 286.380378 
L 205.527909 294.711538 
L 206.797056 305.398121 
L 209.969921 335.322447 
L 210.604495 339.648078 
L 211.239068 342.716628 
L 211.873641 344.351737 
L 212.508214 344.50824 
L 213.142787 343.280939 
L 213.77736 340.87895 
L 214.411933 337.585241 
L 216.315653 325.25819 
L 217.584799 317.2578 
L 218.853946 310.528423 
L 220.123092 305.232713 
L 221.392238 301.230459 
L 222.661384 298.314352 
L 223.930531 296.207845 
L 225.199677 294.675327 
L 226.468823 293.553029 
L 227.73797 292.729823 
L 229.007116 292.121545 
L 230.910835 291.480144 
L 233.449128 290.939188 
L 236.621994 290.544162 
L 241.064006 290.244247 
L 248.678884 289.987008 
L 281.042114 289.098906 
L 290.560712 288.563447 
L 298.175589 287.929756 
L 304.521321 287.195262 
L 310.232479 286.318247 
L 315.309064 285.322022 
L 319.751077 284.244389 
L 324.193089 282.928855 
L 328.000527 281.57814 
L 331.807966 279.993781 
L 335.615405 278.161852 
L 339.422844 276.1008 
L 346.403149 272.214654 
L 347.672295 271.715426 
L 348.941441 271.405352 
L 350.210588 271.38112 
L 350.845161 271.517249 
L 351.479734 271.782081 
L 352.114307 272.204168 
L 352.74888 272.816178 
L 353.383454 273.656593 
L 354.018027 274.769794 
L 354.6526 276.205811 
L 355.287173 278.019534 
L 355.921746 280.269113 
L 356.556319 283.013221 
L 357.190892 286.306752 
L 358.460039 294.702386 
L 359.729185 305.51416 
L 362.902051 335.76219 
L 363.536624 340.132104 
L 364.171197 343.201656 
L 364.80577 344.810887 
L 365.440343 344.929939 
L 366.074917 343.646006 
L 366.70949 341.153666 
L 367.978636 333.715067 
L 370.516929 317.125482 
L 371.786075 310.345406 
L 373.055221 305.059106 
L 374.324367 301.129152 
L 375.593514 298.254987 
L 376.86266 296.147177 
L 378.131806 294.595394 
L 379.400953 293.46965 
L 380.670099 292.667348 
L 382.573818 291.834034 
L 384.477538 291.286458 
L 387.015831 290.820972 
L 390.188696 290.476969 
L 395.265281 290.182251 
L 404.783879 289.915261 
L 430.166805 289.271989 
L 440.954548 288.748666 
L 449.203999 288.130145 
L 456.184304 287.386161 
L 461.895462 286.574824 
L 466.972048 285.652215 
L 471.41406 284.648369 
L 475.856072 283.419293 
L 479.663511 282.153424 
L 483.470949 280.662763 
L 487.278388 278.92578 
L 491.085827 276.93941 
L 500.604425 271.755761 
L 501.873571 271.371068 
L 503.142717 271.23955 
L 503.77729 271.308023 
L 504.411863 271.493338 
L 505.046437 271.82086 
L 505.68101 272.320545 
L 506.315583 273.02777 
L 506.950156 273.983754 
L 507.584729 275.235829 
L 508.219302 276.837086 
L 508.853875 278.845311 
L 509.488449 281.320946 
L 510.123022 284.323725 
L 511.392168 292.114065 
L 512.661314 302.398638 
L 514.565034 321.161882 
L 515.83418 333.354878 
L 516.468753 338.354567 
L 517.103326 342.188359 
L 517.7379 344.620535 
L 518.372473 345.525815 
L 519.007046 344.912639 
L 519.641619 342.930609 
L 520.276192 339.860104 
L 521.545339 331.920143 
L 523.449058 319.213047 
L 524.718204 312.034165 
L 525.987351 306.409193 
L 527.256497 302.157094 
L 528.525643 298.997927 
L 529.794789 296.693025 
L 531.063936 294.99886 
L 532.333082 293.754088 
L 533.602228 292.864751 
L 534.871375 292.218102 
L 536.775094 291.539893 
L 539.313387 290.972445 
L 542.486252 290.562945 
L 546.928265 290.25518 
L 554.543142 289.996214 
L 588.175519 289.084119 
L 597.694117 288.537131 
L 605.308994 287.885549 
L 611.654726 287.134642 
L 617.365884 286.246712 
L 622.442469 285.23852 
L 626.884482 284.141614 
L 631.326494 282.7997 
L 635.133933 281.420768 
L 638.941371 279.803875 
L 642.74881 277.934508 
L 647.190822 275.46186 
L 652.901981 272.246268 
L 654.8057 271.471391 
L 656.074846 271.192753 
L 657.343993 271.227461 
L 657.978566 271.409012 
L 658.613139 271.732373 
L 659.247712 272.228027 
L 659.882285 272.93193 
L 660.516859 273.885809 
L 661.151432 275.137262 
L 661.786005 276.739526 
L 662.420578 278.750734 
L 663.055151 281.23242 
L 663.689724 284.247313 
L 664.958871 292.086424 
L 666.228017 302.432691 
L 668.131736 321.344 
L 669.400883 333.65273 
L 670.035456 338.707396 
L 670.670029 342.590863 
L 671.304602 345.050628 
L 671.939175 345.942666 
L 672.573748 345.258762 
L 673.208322 343.138269 
L 673.842895 339.86138 
L 675.746614 327.168581 
L 677.650334 315.10028 
L 678.91948 308.66147 
L 680.188626 303.722004 
L 681.457773 300.115484 
L 682.726919 297.503038 
L 683.996065 295.600621 
L 685.265211 294.206669 
L 686.534358 293.191028 
L 687.803504 292.459232 
L 689.707223 291.696972 
L 691.610943 291.194075 
L 694.149236 290.763742 
L 697.956674 290.39734 
L 698.591248 290.355194 
L 698.591248 290.355194 
" clip-path="url(#p1d64e96ae3)" style="fill: none; stroke: #ff0000; stroke-width: 1.5; stroke-linecap: square"/>
   </g>
   <g id="patch_13">
    <path d="M 63.243917 349.681683 
L 63.243917 267.423302 
" style="fill: none; stroke: #000000; stroke-width: 0.8; stroke-linejoin: miter; stroke-linecap: square"/>
   </g>
   <g id="patch_14">
    <path d="M 700 349.681683 
L 700 267.423302 
" style="fill: none; stroke: #000000; stroke-width: 0.8; stroke-linejoin: miter; stroke-linecap: square"/>
   </g>
   <g id="patch_15">
    <path d="M 63.243917 349.681683 
L 700 349.681683 
" style="fill: none; stroke: #000000; stroke-width: 0.8; stroke-linejoin: miter; stroke-linecap: square"/>
   </g>
   <g id="patch_16">
    <path d="M 63.243917 267.423302 
L 700 267.423302 
" style="fill: none; stroke: #000000; stroke-width: 0.8; stroke-linejoin: miter; stroke-linecap: square"/>
   </g>
   <g id="text_20">
    <!-- Acceleration vs. Time -->
    <g transform="translate(325.012611 261.423302) scale(0.12 -0.12)">
     <defs>
      <path id="CMR17-41" d="M 2323 4378 
C 2291 4461 2278 4480 2214 4480 
C 2150 4480 2138 4461 2106 4378 
L 749 566 
C 627 223 371 153 147 153 
L 147 -13 
C 262 0 518 0 640 0 
C 800 0 1056 0 1210 -13 
L 1210 153 
C 909 153 864 361 864 439 
C 864 497 877 530 890 569 
L 1229 1536 
L 2906 1536 
L 3290 442 
C 3322 365 3322 352 3322 327 
C 3322 153 3046 153 2925 153 
L 2925 0 
C 3110 0 3443 0 3642 0 
C 3808 0 4128 0 4282 -13 
L 4282 153 
C 3942 153 3827 153 3744 387 
L 2323 4378 
z
M 2067 3893 
L 2848 1702 
L 1286 1702 
L 2067 3893 
z
" transform="scale(0.015625)"/>
      <path id="CMR17-72" d="M 960 1497 
C 960 2112 1222 2688 1702 2688 
C 1747 2688 1792 2682 1837 2662 
C 1837 2662 1696 2617 1696 2452 
C 1696 2298 1818 2234 1914 2234 
C 1990 2234 2131 2279 2131 2458 
C 2131 2663 1926 2790 1709 2790 
C 1222 2790 1011 2317 947 2093 
L 941 2093 
L 941 2790 
L 198 2720 
L 198 2554 
C 576 2554 634 2515 634 2208 
L 634 428 
C 634 184 608 153 198 153 
L 198 -13 
C 352 0 646 0 813 0 
C 998 0 1325 0 1498 -13 
L 1498 153 
C 1037 153 960 153 960 440 
L 960 1497 
z
" transform="scale(0.015625)"/>
      <path id="CMR17-61" d="M 2304 1653 
C 2304 2072 2304 2294 2035 2543 
C 1798 2752 1523 2816 1306 2816 
C 800 2816 435 2407 435 1971 
C 435 1728 627 1728 666 1728 
C 749 1728 896 1778 896 1954 
C 896 2112 774 2181 666 2181 
C 640 2181 608 2174 589 2168 
C 723 2592 1069 2714 1293 2714 
C 1613 2714 1965 2429 1965 1885 
L 1965 1600 
C 1587 1600 1133 1549 774 1357 
C 371 1133 256 813 256 570 
C 256 77 832 -64 1171 -64 
C 1523 -64 1850 139 1990 511 
C 2003 233 2182 -18 2464 -18 
C 2598 -18 2938 70 2938 567 
L 2938 920 
L 2822 920 
L 2822 562 
C 2822 178 2650 128 2566 128 
C 2304 128 2304 458 2304 738 
L 2304 1653 
z
M 1965 870 
C 1965 317 1568 38 1216 38 
C 896 38 646 275 646 570 
C 646 761 730 1100 1101 1305 
C 1408 1478 1760 1504 1965 1504 
L 1965 870 
z
" transform="scale(0.015625)"/>
     </defs>
     <use xlink:href="#CMR17-41" transform="scale(0.996264)"/>
     <use xlink:href="#CMR17-63" transform="translate(69.07243 0) scale(0.996264)"/>
     <use xlink:href="#CMR17-63" transform="translate(109.55809 0) scale(0.996264)"/>
     <use xlink:href="#CMR17-65" transform="translate(150.043751 0) scale(0.996264)"/>
     <use xlink:href="#CMR17-6c" transform="translate(190.529411 0) scale(0.996264)"/>
     <use xlink:href="#CMR17-65" transform="translate(215.40047 0) scale(0.996264)"/>
     <use xlink:href="#CMR17-72" transform="translate(255.88613 0) scale(0.996264)"/>
     <use xlink:href="#CMR17-61" transform="translate(291.166898 0) scale(0.996264)"/>
     <use xlink:href="#CMR17-74" transform="translate(336.857375 0) scale(0.996264)"/>
     <use xlink:href="#CMR17-69" transform="translate(372.138143 0) scale(0.996264)"/>
     <use xlink:href="#CMR17-6f" transform="translate(397.009201 0) scale(0.996264)"/>
     <use xlink:href="#CMR17-6e" transform="translate(442.699678 0) scale(0.996264)"/>
     <use xlink:href="#CMR17-76" transform="translate(523.671015 0) scale(0.996264)"/>
     <use xlink:href="#CMR17-73" transform="translate(571.96393 0) scale(0.996264)"/>
     <use xlink:href="#CMR17-2e" transform="translate(607.765268 0) scale(0.996264)"/>
     <use xlink:href="#CMR17-54" transform="translate(673.121987 0) scale(0.996264)"/>
     <use xlink:href="#CMR17-69" transform="translate(739.631868 0) scale(0.996264)"/>
     <use xlink:href="#CMR17-6d" transform="translate(764.502926 0) scale(0.996264)"/>
     <use xlink:href="#CMR17-65" transform="translate(841.422516 0) scale(0.996264)"/>
    </g>
   </g>
  </g>
 </g>
 <defs>
  <clipPath id="p85a7dc939e">
   <rect x="63.243917" y="34.30218" width="636.756083" height="82.258381"/>
  </clipPath>
  <clipPath id="p36bd4d334e">
   <rect x="63.243917" y="150.862741" width="636.756083" height="82.258381"/>
  </clipPath>
  <clipPath id="p1d64e96ae3">
   <rect x="63.243917" y="267.423302" width="636.756083" height="82.258381"/>
  </clipPath>
 </defs>
</svg>
