<?xml version="1.0" encoding="utf-8" standalone="no"?>
<!DOCTYPE svg PUBLIC "-//W3C//DTD SVG 1.1//EN"
  "http://www.w3.org/Graphics/SVG/1.1/DTD/svg11.dtd">
<svg xmlns:xlink="http://www.w3.org/1999/xlink" width="720pt" height="396pt" viewBox="0 0 720 396" xmlns="http://www.w3.org/2000/svg" version="1.1">
 <metadata>
  <rdf:RDF xmlns:dc="http://purl.org/dc/elements/1.1/" xmlns:cc="http://creativecommons.org/ns#" xmlns:rdf="http://www.w3.org/1999/02/22-rdf-syntax-ns#">
   <cc:Work>
    <dc:type rdf:resource="http://purl.org/dc/dcmitype/StillImage"/>
    <dc:date>2025-05-19T16:47:45.172989</dc:date>
    <dc:format>image/svg+xml</dc:format>
    <dc:creator>
     <cc:Agent>
      <dc:title>Matplotlib v3.9.0, https://matplotlib.org/</dc:title>
     </cc:Agent>
    </dc:creator>
   </cc:Work>
  </rdf:RDF>
 </metadata>
 <defs>
  <style type="text/css">*{stroke-linejoin: round; stroke-linecap: butt}</style>
 </defs>
 <g id="figure_1">
  <g id="patch_1">
   <path d="M 0 396 
L 720 396 
L 720 0 
L 0 0 
z
" style="fill: #ffffff"/>
  </g>
  <g id="axes_1">
   <g id="patch_2">
    <path d="M 75.175501 108.448524 
L 700 108.448524 
L 700 38.4533 
L 75.175501 38.4533 
z
" style="fill: #ffffff"/>
   </g>
   <g id="matplotlib.axis_1">
    <g id="xtick_1">
     <g id="line2d_1">
      <defs>
       <path id="me19f8b740a" d="M 0 0 
L 0 -5 
" style="stroke: #000000; stroke-width: 0.5"/>
      </defs>
      <g>
       <use xlink:href="#me19f8b740a" x="76.557856" y="108.448524" style="stroke: #000000; stroke-width: 0.5"/>
      </g>
     </g>
     <g id="line2d_2">
      <defs>
       <path id="me9be7beb80" d="M 0 0 
L 0 5 
" style="stroke: #000000; stroke-width: 0.5"/>
      </defs>
      <g>
       <use xlink:href="#me9be7beb80" x="76.557856" y="38.4533" style="stroke: #000000; stroke-width: 0.5"/>
      </g>
     </g>
    </g>
    <g id="xtick_2">
     <g id="line2d_3">
      <g>
       <use xlink:href="#me19f8b740a" x="214.793365" y="108.448524" style="stroke: #000000; stroke-width: 0.5"/>
      </g>
     </g>
     <g id="line2d_4">
      <g>
       <use xlink:href="#me9be7beb80" x="214.793365" y="38.4533" style="stroke: #000000; stroke-width: 0.5"/>
      </g>
     </g>
    </g>
    <g id="xtick_3">
     <g id="line2d_5">
      <g>
       <use xlink:href="#me19f8b740a" x="353.028873" y="108.448524" style="stroke: #000000; stroke-width: 0.5"/>
      </g>
     </g>
     <g id="line2d_6">
      <g>
       <use xlink:href="#me9be7beb80" x="353.028873" y="38.4533" style="stroke: #000000; stroke-width: 0.5"/>
      </g>
     </g>
    </g>
    <g id="xtick_4">
     <g id="line2d_7">
      <g>
       <use xlink:href="#me19f8b740a" x="491.264382" y="108.448524" style="stroke: #000000; stroke-width: 0.5"/>
      </g>
     </g>
     <g id="line2d_8">
      <g>
       <use xlink:href="#me9be7beb80" x="491.264382" y="38.4533" style="stroke: #000000; stroke-width: 0.5"/>
      </g>
     </g>
    </g>
    <g id="xtick_5">
     <g id="line2d_9">
      <g>
       <use xlink:href="#me19f8b740a" x="629.499891" y="108.448524" style="stroke: #000000; stroke-width: 0.5"/>
      </g>
     </g>
     <g id="line2d_10">
      <g>
       <use xlink:href="#me9be7beb80" x="629.499891" y="38.4533" style="stroke: #000000; stroke-width: 0.5"/>
      </g>
     </g>
    </g>
    <g id="xtick_6">
     <g id="line2d_11">
      <defs>
       <path id="mb4e426a9b0" d="M 0 0 
L 0 -2.5 
" style="stroke: #000000; stroke-width: 0.5"/>
      </defs>
      <g>
       <use xlink:href="#mb4e426a9b0" x="104.204958" y="108.448524" style="stroke: #000000; stroke-width: 0.5"/>
      </g>
     </g>
     <g id="line2d_12">
      <defs>
       <path id="m10a7936796" d="M 0 0 
L 0 2.5 
" style="stroke: #000000; stroke-width: 0.5"/>
      </defs>
      <g>
       <use xlink:href="#m10a7936796" x="104.204958" y="38.4533" style="stroke: #000000; stroke-width: 0.5"/>
      </g>
     </g>
    </g>
    <g id="xtick_7">
     <g id="line2d_13">
      <g>
       <use xlink:href="#mb4e426a9b0" x="131.85206" y="108.448524" style="stroke: #000000; stroke-width: 0.5"/>
      </g>
     </g>
     <g id="line2d_14">
      <g>
       <use xlink:href="#m10a7936796" x="131.85206" y="38.4533" style="stroke: #000000; stroke-width: 0.5"/>
      </g>
     </g>
    </g>
    <g id="xtick_8">
     <g id="line2d_15">
      <g>
       <use xlink:href="#mb4e426a9b0" x="159.499161" y="108.448524" style="stroke: #000000; stroke-width: 0.5"/>
      </g>
     </g>
     <g id="line2d_16">
      <g>
       <use xlink:href="#m10a7936796" x="159.499161" y="38.4533" style="stroke: #000000; stroke-width: 0.5"/>
      </g>
     </g>
    </g>
    <g id="xtick_9">
     <g id="line2d_17">
      <g>
       <use xlink:href="#mb4e426a9b0" x="187.146263" y="108.448524" style="stroke: #000000; stroke-width: 0.5"/>
      </g>
     </g>
     <g id="line2d_18">
      <g>
       <use xlink:href="#m10a7936796" x="187.146263" y="38.4533" style="stroke: #000000; stroke-width: 0.5"/>
      </g>
     </g>
    </g>
    <g id="xtick_10">
     <g id="line2d_19">
      <g>
       <use xlink:href="#mb4e426a9b0" x="242.440467" y="108.448524" style="stroke: #000000; stroke-width: 0.5"/>
      </g>
     </g>
     <g id="line2d_20">
      <g>
       <use xlink:href="#m10a7936796" x="242.440467" y="38.4533" style="stroke: #000000; stroke-width: 0.5"/>
      </g>
     </g>
    </g>
    <g id="xtick_11">
     <g id="line2d_21">
      <g>
       <use xlink:href="#mb4e426a9b0" x="270.087568" y="108.448524" style="stroke: #000000; stroke-width: 0.5"/>
      </g>
     </g>
     <g id="line2d_22">
      <g>
       <use xlink:href="#m10a7936796" x="270.087568" y="38.4533" style="stroke: #000000; stroke-width: 0.5"/>
      </g>
     </g>
    </g>
    <g id="xtick_12">
     <g id="line2d_23">
      <g>
       <use xlink:href="#mb4e426a9b0" x="297.73467" y="108.448524" style="stroke: #000000; stroke-width: 0.5"/>
      </g>
     </g>
     <g id="line2d_24">
      <g>
       <use xlink:href="#m10a7936796" x="297.73467" y="38.4533" style="stroke: #000000; stroke-width: 0.5"/>
      </g>
     </g>
    </g>
    <g id="xtick_13">
     <g id="line2d_25">
      <g>
       <use xlink:href="#mb4e426a9b0" x="325.381772" y="108.448524" style="stroke: #000000; stroke-width: 0.5"/>
      </g>
     </g>
     <g id="line2d_26">
      <g>
       <use xlink:href="#m10a7936796" x="325.381772" y="38.4533" style="stroke: #000000; stroke-width: 0.5"/>
      </g>
     </g>
    </g>
    <g id="xtick_14">
     <g id="line2d_27">
      <g>
       <use xlink:href="#mb4e426a9b0" x="380.675975" y="108.448524" style="stroke: #000000; stroke-width: 0.5"/>
      </g>
     </g>
     <g id="line2d_28">
      <g>
       <use xlink:href="#m10a7936796" x="380.675975" y="38.4533" style="stroke: #000000; stroke-width: 0.5"/>
      </g>
     </g>
    </g>
    <g id="xtick_15">
     <g id="line2d_29">
      <g>
       <use xlink:href="#mb4e426a9b0" x="408.323077" y="108.448524" style="stroke: #000000; stroke-width: 0.5"/>
      </g>
     </g>
     <g id="line2d_30">
      <g>
       <use xlink:href="#m10a7936796" x="408.323077" y="38.4533" style="stroke: #000000; stroke-width: 0.5"/>
      </g>
     </g>
    </g>
    <g id="xtick_16">
     <g id="line2d_31">
      <g>
       <use xlink:href="#mb4e426a9b0" x="435.970179" y="108.448524" style="stroke: #000000; stroke-width: 0.5"/>
      </g>
     </g>
     <g id="line2d_32">
      <g>
       <use xlink:href="#m10a7936796" x="435.970179" y="38.4533" style="stroke: #000000; stroke-width: 0.5"/>
      </g>
     </g>
    </g>
    <g id="xtick_17">
     <g id="line2d_33">
      <g>
       <use xlink:href="#mb4e426a9b0" x="463.61728" y="108.448524" style="stroke: #000000; stroke-width: 0.5"/>
      </g>
     </g>
     <g id="line2d_34">
      <g>
       <use xlink:href="#m10a7936796" x="463.61728" y="38.4533" style="stroke: #000000; stroke-width: 0.5"/>
      </g>
     </g>
    </g>
    <g id="xtick_18">
     <g id="line2d_35">
      <g>
       <use xlink:href="#mb4e426a9b0" x="518.911484" y="108.448524" style="stroke: #000000; stroke-width: 0.5"/>
      </g>
     </g>
     <g id="line2d_36">
      <g>
       <use xlink:href="#m10a7936796" x="518.911484" y="38.4533" style="stroke: #000000; stroke-width: 0.5"/>
      </g>
     </g>
    </g>
    <g id="xtick_19">
     <g id="line2d_37">
      <g>
       <use xlink:href="#mb4e426a9b0" x="546.558585" y="108.448524" style="stroke: #000000; stroke-width: 0.5"/>
      </g>
     </g>
     <g id="line2d_38">
      <g>
       <use xlink:href="#m10a7936796" x="546.558585" y="38.4533" style="stroke: #000000; stroke-width: 0.5"/>
      </g>
     </g>
    </g>
    <g id="xtick_20">
     <g id="line2d_39">
      <g>
       <use xlink:href="#mb4e426a9b0" x="574.205687" y="108.448524" style="stroke: #000000; stroke-width: 0.5"/>
      </g>
     </g>
     <g id="line2d_40">
      <g>
       <use xlink:href="#m10a7936796" x="574.205687" y="38.4533" style="stroke: #000000; stroke-width: 0.5"/>
      </g>
     </g>
    </g>
    <g id="xtick_21">
     <g id="line2d_41">
      <g>
       <use xlink:href="#mb4e426a9b0" x="601.852789" y="108.448524" style="stroke: #000000; stroke-width: 0.5"/>
      </g>
     </g>
     <g id="line2d_42">
      <g>
       <use xlink:href="#m10a7936796" x="601.852789" y="38.4533" style="stroke: #000000; stroke-width: 0.5"/>
      </g>
     </g>
    </g>
    <g id="xtick_22">
     <g id="line2d_43">
      <g>
       <use xlink:href="#mb4e426a9b0" x="657.146992" y="108.448524" style="stroke: #000000; stroke-width: 0.5"/>
      </g>
     </g>
     <g id="line2d_44">
      <g>
       <use xlink:href="#m10a7936796" x="657.146992" y="38.4533" style="stroke: #000000; stroke-width: 0.5"/>
      </g>
     </g>
    </g>
    <g id="xtick_23">
     <g id="line2d_45">
      <g>
       <use xlink:href="#mb4e426a9b0" x="684.794094" y="108.448524" style="stroke: #000000; stroke-width: 0.5"/>
      </g>
     </g>
     <g id="line2d_46">
      <g>
       <use xlink:href="#m10a7936796" x="684.794094" y="38.4533" style="stroke: #000000; stroke-width: 0.5"/>
      </g>
     </g>
    </g>
   </g>
   <g id="matplotlib.axis_2">
    <g id="ytick_1">
     <g id="line2d_47">
      <defs>
       <path id="ma7057826ec" d="M 0 0 
L 5 0 
" style="stroke: #000000; stroke-width: 0.5"/>
      </defs>
      <g>
       <use xlink:href="#ma7057826ec" x="75.175501" y="105.266923" style="stroke: #000000; stroke-width: 0.5"/>
      </g>
     </g>
     <g id="line2d_48">
      <defs>
       <path id="m511a66da47" d="M 0 0 
L -5 0 
" style="stroke: #000000; stroke-width: 0.5"/>
      </defs>
      <g>
       <use xlink:href="#m511a66da47" x="700" y="105.266923" style="stroke: #000000; stroke-width: 0.5"/>
      </g>
     </g>
     <g id="text_1">
      <!-- $\mathdefault{−5}$ -->
      <g transform="translate(50.735259 111.147649) scale(0.17 -0.17)">
       <defs>
        <path id="CMSY10-0" d="M 4218 1472 
C 4326 1472 4442 1472 4442 1600 
C 4442 1728 4326 1728 4218 1728 
L 755 1728 
C 646 1728 531 1728 531 1600 
C 531 1472 646 1472 755 1472 
L 4218 1472 
z
" transform="scale(0.015625)"/>
        <path id="CMR17-35" d="M 730 3692 
C 794 3666 1056 3584 1325 3584 
C 1920 3584 2246 3911 2432 4100 
C 2432 4157 2432 4192 2394 4192 
C 2387 4192 2374 4192 2323 4163 
C 2099 4058 1837 3973 1517 3973 
C 1325 3973 1037 3999 723 4139 
C 653 4171 640 4171 634 4171 
C 602 4171 595 4164 595 4037 
L 595 2203 
C 595 2089 595 2057 659 2057 
C 691 2057 704 2070 736 2114 
C 941 2401 1222 2522 1542 2522 
C 1766 2522 2246 2382 2246 1289 
C 2246 1085 2246 715 2054 421 
C 1894 159 1645 25 1370 25 
C 947 25 518 320 403 814 
C 429 807 480 795 506 795 
C 589 795 749 840 749 1038 
C 749 1210 627 1280 506 1280 
C 358 1280 262 1190 262 1011 
C 262 454 704 -128 1382 -128 
C 2042 -128 2669 440 2669 1264 
C 2669 2030 2170 2624 1549 2624 
C 1222 2624 947 2503 730 2274 
L 730 3692 
z
" transform="scale(0.015625)"/>
       </defs>
       <use xlink:href="#CMSY10-0" transform="scale(0.996264)"/>
       <use xlink:href="#CMR17-35" transform="translate(77.487468 0) scale(0.996264)"/>
      </g>
     </g>
    </g>
    <g id="ytick_2">
     <g id="line2d_49">
      <g>
       <use xlink:href="#ma7057826ec" x="75.175501" y="73.450912" style="stroke: #000000; stroke-width: 0.5"/>
      </g>
     </g>
     <g id="line2d_50">
      <g>
       <use xlink:href="#m511a66da47" x="700" y="73.450912" style="stroke: #000000; stroke-width: 0.5"/>
      </g>
     </g>
     <g id="text_2">
      <!-- $\mathdefault{0}$ -->
      <g transform="translate(63.90812 79.331638) scale(0.17 -0.17)">
       <defs>
        <path id="CMR17-30" d="M 2688 2025 
C 2688 2416 2682 3080 2413 3591 
C 2176 4039 1798 4198 1466 4198 
C 1158 4198 768 4058 525 3597 
C 269 3118 243 2524 243 2025 
C 243 1661 250 1106 448 619 
C 723 -39 1216 -128 1466 -128 
C 1760 -128 2208 -7 2470 600 
C 2662 1042 2688 1559 2688 2025 
z
M 1466 -26 
C 1056 -26 813 325 723 812 
C 653 1188 653 1738 653 2096 
C 653 2588 653 2997 736 3387 
C 858 3929 1216 4096 1466 4096 
C 1728 4096 2067 3923 2189 3400 
C 2272 3036 2278 2607 2278 2096 
C 2278 1680 2278 1169 2202 792 
C 2067 95 1690 -26 1466 -26 
z
" transform="scale(0.015625)"/>
       </defs>
       <use xlink:href="#CMR17-30" transform="scale(0.996264)"/>
      </g>
     </g>
    </g>
    <g id="ytick_3">
     <g id="line2d_51">
      <g>
       <use xlink:href="#ma7057826ec" x="75.175501" y="41.634901" style="stroke: #000000; stroke-width: 0.5"/>
      </g>
     </g>
     <g id="line2d_52">
      <g>
       <use xlink:href="#m511a66da47" x="700" y="41.634901" style="stroke: #000000; stroke-width: 0.5"/>
      </g>
     </g>
     <g id="text_3">
      <!-- $\mathdefault{5}$ -->
      <g transform="translate(63.90812 47.515627) scale(0.17 -0.17)">
       <use xlink:href="#CMR17-35" transform="scale(0.996264)"/>
      </g>
     </g>
    </g>
    <g id="ytick_4">
     <g id="line2d_53">
      <defs>
       <path id="mbc28d7059f" d="M 0 0 
L 2.5 0 
" style="stroke: #000000; stroke-width: 0.5"/>
      </defs>
      <g>
       <use xlink:href="#mbc28d7059f" x="75.175501" y="98.903721" style="stroke: #000000; stroke-width: 0.5"/>
      </g>
     </g>
     <g id="line2d_54">
      <defs>
       <path id="m44caa775e3" d="M 0 0 
L -2.5 0 
" style="stroke: #000000; stroke-width: 0.5"/>
      </defs>
      <g>
       <use xlink:href="#m44caa775e3" x="700" y="98.903721" style="stroke: #000000; stroke-width: 0.5"/>
      </g>
     </g>
    </g>
    <g id="ytick_5">
     <g id="line2d_55">
      <g>
       <use xlink:href="#mbc28d7059f" x="75.175501" y="92.540519" style="stroke: #000000; stroke-width: 0.5"/>
      </g>
     </g>
     <g id="line2d_56">
      <g>
       <use xlink:href="#m44caa775e3" x="700" y="92.540519" style="stroke: #000000; stroke-width: 0.5"/>
      </g>
     </g>
    </g>
    <g id="ytick_6">
     <g id="line2d_57">
      <g>
       <use xlink:href="#mbc28d7059f" x="75.175501" y="86.177317" style="stroke: #000000; stroke-width: 0.5"/>
      </g>
     </g>
     <g id="line2d_58">
      <g>
       <use xlink:href="#m44caa775e3" x="700" y="86.177317" style="stroke: #000000; stroke-width: 0.5"/>
      </g>
     </g>
    </g>
    <g id="ytick_7">
     <g id="line2d_59">
      <g>
       <use xlink:href="#mbc28d7059f" x="75.175501" y="79.814114" style="stroke: #000000; stroke-width: 0.5"/>
      </g>
     </g>
     <g id="line2d_60">
      <g>
       <use xlink:href="#m44caa775e3" x="700" y="79.814114" style="stroke: #000000; stroke-width: 0.5"/>
      </g>
     </g>
    </g>
    <g id="ytick_8">
     <g id="line2d_61">
      <g>
       <use xlink:href="#mbc28d7059f" x="75.175501" y="67.08771" style="stroke: #000000; stroke-width: 0.5"/>
      </g>
     </g>
     <g id="line2d_62">
      <g>
       <use xlink:href="#m44caa775e3" x="700" y="67.08771" style="stroke: #000000; stroke-width: 0.5"/>
      </g>
     </g>
    </g>
    <g id="ytick_9">
     <g id="line2d_63">
      <g>
       <use xlink:href="#mbc28d7059f" x="75.175501" y="60.724508" style="stroke: #000000; stroke-width: 0.5"/>
      </g>
     </g>
     <g id="line2d_64">
      <g>
       <use xlink:href="#m44caa775e3" x="700" y="60.724508" style="stroke: #000000; stroke-width: 0.5"/>
      </g>
     </g>
    </g>
    <g id="ytick_10">
     <g id="line2d_65">
      <g>
       <use xlink:href="#mbc28d7059f" x="75.175501" y="54.361306" style="stroke: #000000; stroke-width: 0.5"/>
      </g>
     </g>
     <g id="line2d_66">
      <g>
       <use xlink:href="#m44caa775e3" x="700" y="54.361306" style="stroke: #000000; stroke-width: 0.5"/>
      </g>
     </g>
    </g>
    <g id="ytick_11">
     <g id="line2d_67">
      <g>
       <use xlink:href="#mbc28d7059f" x="75.175501" y="47.998103" style="stroke: #000000; stroke-width: 0.5"/>
      </g>
     </g>
     <g id="line2d_68">
      <g>
       <use xlink:href="#m44caa775e3" x="700" y="47.998103" style="stroke: #000000; stroke-width: 0.5"/>
      </g>
     </g>
    </g>
    <g id="text_4">
     <!-- $q(t)$ -->
     <g transform="translate(20 68.982728) scale(0.18 -0.18)">
      <defs>
       <path id="CMMI12-71" d="M 2822 2759 
C 2822 2790 2797 2816 2765 2816 
C 2714 2816 2464 2585 2342 2362 
C 2227 2646 2029 2816 1754 2816 
C 1030 2816 250 1884 250 939 
C 250 307 621 -64 1056 -64 
C 1395 -64 1677 193 1811 339 
L 1818 333 
L 1574 -615 
L 1517 -842 
C 1459 -1031 1363 -1031 1062 -1031 
C 992 -1031 928 -1031 928 -1152 
C 928 -1197 966 -1216 1011 -1216 
C 1101 -1216 1216 -1216 1306 -1216 
L 1958 -1216 
C 2054 -1216 2163 -1216 2259 -1216 
C 2298 -1216 2374 -1216 2374 -1095 
C 2374 -1031 2323 -1031 2227 -1031 
C 1926 -1031 1907 -986 1907 -935 
C 1907 -904 1914 -898 1933 -815 
L 2822 2759 
z
M 1920 762 
C 1888 652 1888 640 1798 518 
C 1658 339 1376 64 1075 64 
C 813 64 666 301 666 678 
C 666 1030 864 1747 986 2016 
C 1203 2464 1504 2695 1754 2695 
C 2176 2695 2259 2170 2259 2119 
C 2259 2113 2240 2028 2234 2016 
L 1920 762 
z
" transform="scale(0.015625)"/>
       <path id="CMR17-28" d="M 1958 -1561 
C 1958 -1555 1958 -1542 1939 -1523 
C 1645 -1224 858 -407 858 1581 
C 858 3569 1632 4379 1946 4697 
C 1946 4704 1958 4717 1958 4736 
C 1958 4755 1939 4768 1914 4768 
C 1843 4768 1299 4296 986 3594 
C 666 2887 576 2199 576 1588 
C 576 1128 621 351 1005 -471 
C 1312 -1135 1837 -1600 1914 -1600 
C 1946 -1600 1958 -1587 1958 -1561 
z
" transform="scale(0.015625)"/>
       <path id="CMMI12-74" d="M 1286 2566 
L 1875 2566 
C 1997 2566 2061 2566 2061 2681 
C 2061 2752 2022 2752 1894 2752 
L 1331 2752 
L 1568 3692 
C 1594 3781 1594 3794 1594 3840 
C 1594 3943 1510 4000 1427 4000 
C 1376 4000 1229 3981 1178 3775 
L 928 2752 
L 326 2752 
C 198 2752 141 2752 141 2630 
C 141 2566 186 2566 307 2566 
L 877 2566 
L 454 881 
C 403 658 384 594 384 511 
C 384 211 595 -64 954 -64 
C 1600 -64 1946 868 1946 912 
C 1946 951 1920 970 1882 970 
C 1869 970 1843 970 1830 944 
C 1824 938 1818 931 1773 829 
C 1638 511 1344 64 973 64 
C 781 64 768 224 768 364 
C 768 370 768 492 787 568 
L 1286 2566 
z
" transform="scale(0.015625)"/>
       <path id="CMR17-29" d="M 1683 1581 
C 1683 2040 1638 2817 1254 3639 
C 947 4303 422 4768 346 4768 
C 326 4768 301 4761 301 4729 
C 301 4717 307 4710 314 4697 
C 621 4378 1402 3568 1402 1584 
C 1402 -407 627 -1217 314 -1537 
C 307 -1549 301 -1556 301 -1568 
C 301 -1600 326 -1600 346 -1600 
C 416 -1600 960 -1128 1274 -426 
C 1594 281 1683 969 1683 1581 
z
" transform="scale(0.015625)"/>
      </defs>
      <use xlink:href="#CMMI12-71" transform="scale(0.996264)"/>
      <use xlink:href="#CMR17-28" transform="translate(46.826324 0) scale(0.996264)"/>
      <use xlink:href="#CMMI12-74" transform="translate(82.107092 0) scale(0.996264)"/>
      <use xlink:href="#CMR17-29" transform="translate(117.333422 0) scale(0.996264)"/>
     </g>
    </g>
   </g>
   <g id="LineCollection_1">
    <path d="M 76.557856 77.861596 
L 698.617645 77.861596 
" clip-path="url(#pf9886a9029)" style="fill: none; stroke-dasharray: 2.22,0.96; stroke-dashoffset: 0; stroke: #800080; stroke-width: 0.6"/>
   </g>
   <g id="line2d_69">
    <path d="M 76.557856 67.08771 
L 78.425904 67.23082 
L 80.293951 67.604817 
L 82.784681 68.323561 
L 86.520776 69.656147 
L 92.747601 72.165789 
L 105.20125 77.486933 
L 126.995136 86.771259 
L 137.580738 91.041783 
L 146.298293 94.322575 
L 153.1478 96.662726 
L 158.751942 98.353428 
L 163.733402 99.633298 
L 168.09218 100.539298 
L 171.828274 101.123138 
L 175.564369 101.489874 
L 178.677782 101.599537 
L 181.791194 101.500108 
L 184.904606 101.157842 
L 187.395336 100.68364 
L 189.886066 100.007984 
L 192.376796 99.107379 
L 194.867526 97.956372 
L 197.358256 96.525784 
L 199.848986 94.784991 
L 202.339715 92.703586 
L 204.830445 90.252755 
L 207.321175 87.413399 
L 209.811905 84.189661 
L 212.925317 79.694006 
L 217.284095 73.231411 
L 219.152142 70.859411 
L 220.397507 69.566025 
L 221.642872 68.547196 
L 222.888237 67.815936 
L 224.133602 67.351364 
L 225.378967 67.116158 
L 226.624332 67.069355 
L 228.492379 67.259631 
L 230.983109 67.835129 
L 234.096521 68.840064 
L 238.455299 70.500023 
L 246.550171 73.870434 
L 283.288437 89.449186 
L 292.628674 93.087345 
L 300.100863 95.772593 
L 306.327688 97.776795 
L 311.309148 99.169678 
L 316.290608 100.321376 
L 320.649385 101.085902 
L 324.38548 101.525101 
L 328.121575 101.720083 
L 331.234987 101.661082 
L 334.348399 101.366431 
L 336.839129 100.936216 
L 339.329859 100.310236 
L 341.820589 99.465608 
L 344.311319 98.380571 
L 346.802049 97.020641 
L 349.292779 95.351561 
L 351.783509 93.343963 
L 354.274238 90.973365 
L 356.764968 88.22017 
L 359.255698 85.075806 
L 361.746428 81.569286 
L 368.595935 71.577307 
L 369.8413 70.150681 
L 371.086665 68.987079 
L 372.33203 68.110797 
L 373.577395 67.516474 
L 374.82276 67.177529 
L 376.068125 67.048595 
L 377.936172 67.151991 
L 379.80422 67.503324 
L 382.29495 68.203958 
L 386.031044 69.529367 
L 392.257869 72.039661 
L 404.711519 77.369408 
L 426.505405 86.679729 
L 437.71369 91.223669 
L 445.808562 94.288209 
L 452.658069 96.655277 
L 458.262211 98.378205 
L 463.243671 99.701704 
L 467.602448 100.655446 
L 471.961225 101.373134 
L 475.69732 101.758547 
L 478.810733 101.884823 
L 481.924145 101.802621 
L 485.037557 101.478573 
L 487.528287 101.020333 
L 490.019017 100.362755 
L 492.509747 99.483452 
L 495.000477 98.356542 
L 497.491207 96.951853 
L 499.981937 95.238927 
L 502.472667 93.186478 
L 504.963396 90.765358 
L 507.454126 87.953236 
L 509.944856 84.74763 
L 512.435586 81.187952 
L 518.662411 71.986812 
L 519.907776 70.487743 
L 521.153141 69.243178 
L 522.398506 68.285236 
L 523.643871 67.617959 
L 524.889235 67.21775 
L 526.1346 67.040014 
L 528.002648 67.088962 
L 529.870695 67.402896 
L 532.361425 68.073761 
L 536.09752 69.377251 
L 541.701662 71.617582 
L 552.909947 76.397063 
L 577.817246 87.046658 
L 589.02553 91.575161 
L 597.120402 94.623527 
L 603.969909 96.969936 
L 609.574052 98.667237 
L 614.555511 99.958382 
L 618.914289 100.879424 
L 623.273066 101.555917 
L 627.009161 101.899027 
L 630.122573 101.984548 
L 633.235985 101.855642 
L 636.349398 101.477635 
L 638.840128 100.969871 
L 641.330858 100.255988 
L 643.821587 99.312378 
L 646.312317 98.113623 
L 648.803047 96.629749 
L 651.293777 94.828988 
L 653.784507 92.680156 
L 656.275237 90.154699 
L 658.765967 87.234581 
L 661.256697 83.921726 
L 664.370109 79.327854 
L 668.728886 72.804762 
L 670.596934 70.468739 
L 671.842299 69.219756 
L 673.087664 68.259197 
L 674.333029 67.592752 
L 675.578393 67.199453 
L 676.823758 67.030281 
L 678.691806 67.090926 
L 680.559853 67.417753 
L 683.050583 68.102348 
L 686.786678 69.415044 
L 692.39082 71.660004 
L 698.617645 74.296037 
L 698.617645 74.296037 
" clip-path="url(#pf9886a9029)" style="fill: none; stroke: #008000; stroke-width: 1.5; stroke-linecap: square"/>
   </g>
   <g id="patch_3">
    <path d="M 75.175501 108.448524 
L 75.175501 38.4533 
" style="fill: none; stroke: #000000; stroke-width: 0.8; stroke-linejoin: miter; stroke-linecap: square"/>
   </g>
   <g id="patch_4">
    <path d="M 700 108.448524 
L 700 38.4533 
" style="fill: none; stroke: #000000; stroke-width: 0.8; stroke-linejoin: miter; stroke-linecap: square"/>
   </g>
   <g id="patch_5">
    <path d="M 75.175501 108.448524 
L 700 108.448524 
" style="fill: none; stroke: #000000; stroke-width: 0.8; stroke-linejoin: miter; stroke-linecap: square"/>
   </g>
   <g id="patch_6">
    <path d="M 75.175501 38.4533 
L 700 38.4533 
" style="fill: none; stroke: #000000; stroke-width: 0.8; stroke-linejoin: miter; stroke-linecap: square"/>
   </g>
   <g id="text_5">
    <!-- Position vs. Time with $\alpha = 0.66666, \beta = 1.33333, \gamma = 1.0, \delta = 1.0$ -->
    <g transform="translate(148.715805 32.4533) scale(0.18 -0.18)">
     <defs>
      <path id="CMR17-50" d="M 1267 2042 
L 2291 2042 
C 3117 2042 3718 2578 3718 3184 
C 3718 3791 3130 4352 2291 4352 
L 333 4352 
L 333 4186 
C 774 4186 845 4186 845 3899 
L 845 446 
C 845 160 774 160 333 160 
L 333 0 
C 518 0 858 0 1056 0 
C 1254 0 1594 0 1779 0 
L 1779 160 
C 1338 160 1267 160 1267 446 
L 1267 2042 
z
M 1254 2176 
L 1254 3938 
C 1254 4155 1267 4186 1523 4186 
L 2170 4186 
C 2995 4186 3232 3714 3232 3184 
C 3232 2604 2950 2176 2170 2176 
L 1254 2176 
z
" transform="scale(0.015625)"/>
      <path id="CMR17-6f" d="M 2758 1356 
C 2758 2176 2163 2816 1466 2816 
C 768 2816 173 2176 173 1356 
C 173 551 768 -64 1466 -64 
C 2163 -64 2758 551 2758 1356 
z
M 1466 51 
C 1165 51 909 230 762 480 
C 602 767 582 1126 582 1408 
C 582 1677 595 2010 762 2298 
C 890 2509 1139 2714 1466 2714 
C 1754 2714 1997 2554 2150 2330 
C 2349 2029 2349 1607 2349 1408 
C 2349 1158 2336 775 2163 467 
C 1984 173 1709 51 1466 51 
z
" transform="scale(0.015625)"/>
      <path id="CMR17-73" d="M 1978 2697 
C 1978 2813 1971 2819 1933 2819 
C 1907 2819 1901 2813 1824 2717 
C 1805 2691 1747 2626 1728 2601 
C 1523 2819 1235 2819 1126 2819 
C 416 2819 160 2447 160 2076 
C 160 1498 813 1365 998 1325 
C 1402 1243 1542 1217 1677 1101 
C 1760 1025 1901 884 1901 654 
C 1901 384 1747 38 1158 38 
C 602 38 403 460 288 1021 
C 269 1110 269 1117 218 1117 
C 166 1117 160 1110 160 983 
L 160 63 
C 160 -51 166 -58 205 -58 
C 237 -58 243 -51 275 0 
C 314 57 410 211 448 276 
C 576 103 800 -64 1158 -64 
C 1792 -64 2131 283 2131 784 
C 2131 1112 1958 1285 1875 1362 
C 1683 1561 1459 1606 1190 1657 
C 838 1735 390 1825 390 2217 
C 390 2383 480 2737 1126 2737 
C 1811 2737 1850 2094 1862 1888 
C 1869 1856 1901 1849 1920 1849 
C 1978 1849 1978 1869 1978 1978 
L 1978 2697 
z
" transform="scale(0.015625)"/>
      <path id="CMR17-69" d="M 992 3909 
C 992 4049 877 4170 730 4170 
C 589 4170 467 4056 467 3909 
C 467 3769 582 3648 730 3648 
C 870 3648 992 3763 992 3909 
z
M 243 2706 
L 243 2541 
C 602 2541 653 2502 653 2197 
L 653 427 
C 653 184 627 153 218 153 
L 218 -13 
C 371 0 646 0 806 0 
C 960 0 1222 0 1370 -13 
L 1370 153 
C 992 153 979 191 979 420 
L 979 2776 
L 243 2706 
z
" transform="scale(0.015625)"/>
      <path id="CMR17-74" d="M 966 2560 
L 1862 2560 
L 1862 2725 
L 966 2725 
L 966 3904 
L 851 3904 
C 838 3245 614 2668 70 2668 
L 70 2560 
L 627 2560 
L 627 771 
C 627 650 627 -64 1370 -64 
C 1747 -64 1965 306 1965 777 
L 1965 1140 
L 1850 1140 
L 1850 783 
C 1850 344 1677 51 1408 51 
C 1222 51 966 178 966 758 
L 966 2560 
z
" transform="scale(0.015625)"/>
      <path id="CMR17-6e" d="M 2656 1933 
C 2656 2259 2592 2790 1837 2790 
C 1331 2790 1069 2400 973 2144 
L 966 2144 
L 966 2790 
L 211 2720 
L 211 2554 
C 589 2554 646 2515 646 2208 
L 646 428 
C 646 184 621 153 211 153 
L 211 -13 
C 365 0 646 0 813 0 
C 979 0 1267 0 1421 -13 
L 1421 153 
C 1011 153 986 178 986 428 
L 986 1658 
C 986 2247 1344 2688 1792 2688 
C 2266 2688 2317 2266 2317 1958 
L 2317 428 
C 2317 184 2291 153 1882 153 
L 1882 -13 
C 2035 0 2317 0 2483 0 
C 2650 0 2938 0 3091 -13 
L 3091 153 
C 2682 153 2656 178 2656 428 
L 2656 1933 
z
" transform="scale(0.015625)"/>
      <path id="CMR17-76" d="M 2502 2163 
C 2560 2304 2662 2560 3034 2560 
L 3034 2726 
C 2912 2726 2752 2726 2630 2726 
C 2496 2726 2285 2726 2157 2732 
L 2157 2566 
C 2317 2553 2406 2477 2406 2311 
C 2406 2253 2406 2240 2368 2151 
L 1664 377 
L 902 2286 
C 864 2369 864 2381 864 2407 
C 864 2560 1075 2560 1171 2560 
L 1171 2732 
C 1018 2726 736 2726 576 2726 
C 403 2726 205 2726 64 2732 
L 64 2560 
C 307 2560 442 2560 518 2362 
L 1446 44 
C 1485 -51 1491 -64 1549 -64 
C 1606 -64 1613 -51 1651 44 
L 2502 2163 
z
" transform="scale(0.015625)"/>
      <path id="CMR17-2e" d="M 1062 261 
C 1062 420 934 522 800 522 
C 672 522 538 420 538 261 
C 538 102 666 0 800 0 
C 928 0 1062 102 1062 261 
z
" transform="scale(0.015625)"/>
      <path id="CMR17-54" d="M 3981 4326 
L 288 4326 
L 179 2918 
L 294 2918 
C 378 3976 467 4160 1453 4160 
C 1568 4160 1754 4160 1805 4154 
C 1926 4135 1926 4058 1926 3912 
L 1926 459 
C 1926 230 1907 160 1376 160 
L 1197 160 
L 1197 0 
C 1504 0 1824 0 2138 0 
C 2451 0 2771 0 3078 0 
L 3078 160 
L 2899 160 
C 2368 160 2349 230 2349 459 
L 2349 3912 
C 2349 4052 2349 4129 2464 4154 
C 2515 4160 2701 4160 2816 4160 
C 3795 4160 3891 3976 3974 2918 
L 4090 2918 
L 3981 4326 
z
" transform="scale(0.015625)"/>
      <path id="CMR17-6d" d="M 4326 1933 
C 4326 2252 4269 2790 3507 2790 
C 3072 2790 2771 2496 2656 2151 
L 2650 2151 
C 2573 2676 2195 2790 1837 2790 
C 1331 2790 1069 2400 973 2144 
L 966 2144 
L 966 2790 
L 211 2720 
L 211 2554 
C 589 2554 646 2515 646 2208 
L 646 428 
C 646 184 621 153 211 153 
L 211 -13 
C 365 0 646 0 813 0 
C 979 0 1267 0 1421 -13 
L 1421 153 
C 1011 153 986 178 986 428 
L 986 1658 
C 986 2247 1344 2688 1792 2688 
C 2266 2688 2317 2266 2317 1958 
L 2317 428 
C 2317 184 2291 153 1882 153 
L 1882 -13 
C 2035 0 2317 0 2483 0 
C 2650 0 2938 0 3091 -13 
L 3091 153 
C 2682 153 2656 178 2656 428 
L 2656 1658 
C 2656 2247 3014 2688 3462 2688 
C 3936 2688 3987 2266 3987 1958 
L 3987 428 
C 3987 184 3962 153 3552 153 
L 3552 -13 
C 3706 0 3987 0 4154 0 
C 4320 0 4608 0 4762 -13 
L 4762 153 
C 4352 153 4326 178 4326 428 
L 4326 1933 
z
" transform="scale(0.015625)"/>
      <path id="CMR17-65" d="M 2438 1472 
C 2464 1498 2464 1511 2464 1576 
C 2464 2238 2118 2816 1389 2816 
C 710 2816 173 2169 173 1383 
C 173 551 781 -64 1459 -64 
C 2176 -64 2458 607 2458 740 
C 2458 784 2419 784 2406 784 
C 2362 784 2355 771 2330 696 
C 2189 265 1837 51 1504 51 
C 1229 51 954 203 781 480 
C 582 803 582 1176 582 1472 
L 2438 1472 
z
M 589 1568 
C 634 2505 1126 2714 1382 2714 
C 1818 2714 2112 2297 2118 1568 
L 589 1568 
z
" transform="scale(0.015625)"/>
      <path id="CMR17-77" d="M 3725 2183 
C 3853 2560 4109 2560 4205 2560 
L 4205 2732 
C 4077 2732 3949 2732 3821 2732 
C 3699 2732 3424 2732 3315 2738 
L 3315 2560 
C 3514 2560 3622 2445 3622 2286 
C 3622 2241 3610 2184 3597 2140 
L 2995 407 
L 2342 2275 
C 2330 2319 2310 2370 2310 2395 
C 2310 2560 2528 2560 2630 2560 
L 2630 2738 
C 2483 2732 2214 2732 2061 2732 
C 1901 2732 1734 2732 1587 2738 
L 1587 2560 
C 1939 2560 1939 2547 2074 2149 
L 1485 451 
L 851 2281 
C 819 2363 819 2376 819 2395 
C 819 2560 1037 2560 1139 2560 
L 1139 2738 
C 986 2732 717 2732 557 2732 
C 416 2732 198 2732 64 2738 
L 64 2560 
C 346 2560 416 2541 486 2331 
L 1274 49 
C 1299 -33 1318 -52 1370 -52 
C 1414 -52 1440 -39 1472 56 
L 2131 1980 
L 2797 56 
C 2829 -39 2854 -52 2899 -52 
C 2950 -52 2970 -33 2995 50 
L 3725 2183 
z
" transform="scale(0.015625)"/>
      <path id="CMR17-68" d="M 2656 1933 
C 2656 2259 2592 2790 1837 2790 
C 1312 2790 1056 2368 979 2157 
L 973 2157 
L 973 4396 
L 211 4326 
L 211 4160 
C 589 4160 646 4122 646 3817 
L 646 426 
C 646 184 621 153 211 153 
L 211 -13 
C 365 0 646 0 813 0 
C 979 0 1267 0 1421 -13 
L 1421 153 
C 1011 153 986 178 986 428 
L 986 1658 
C 986 2247 1344 2688 1792 2688 
C 2266 2688 2317 2266 2317 1958 
L 2317 428 
C 2317 184 2291 153 1882 153 
L 1882 -13 
C 2035 0 2317 0 2483 0 
C 2650 0 2938 0 3091 -13 
L 3091 153 
C 2682 153 2656 178 2656 428 
L 2656 1933 
z
" transform="scale(0.015625)"/>
      <path id="CMMI12-b" d="M 2963 1616 
C 2963 2235 2611 2815 1933 2815 
C 1094 2815 256 1902 256 996 
C 256 441 602 -64 1254 -64 
C 1651 -64 2125 89 2579 472 
C 2669 115 2867 -64 3142 -64 
C 3488 -64 3661 294 3661 377 
C 3661 434 3616 434 3597 434 
C 3546 434 3539 415 3520 364 
C 3462 204 3315 64 3162 64 
C 2963 64 2963 472 2963 862 
C 3616 1641 3770 2446 3770 2452 
C 3770 2510 3718 2510 3699 2510 
C 3642 2510 3635 2491 3610 2376 
C 3526 2095 3360 1597 2963 1073 
L 2963 1616 
z
M 2560 626 
C 1997 121 1491 64 1267 64 
C 813 64 685 466 685 766 
C 685 1040 826 1692 1024 2044 
C 1286 2491 1645 2688 1933 2688 
C 2554 2688 2554 1877 2554 1341 
C 2554 1182 2547 1016 2547 856 
C 2547 728 2554 696 2560 626 
z
" transform="scale(0.015625)"/>
      <path id="CMR17-3d" d="M 4115 2017 
C 4211 2017 4307 2017 4307 2125 
C 4307 2240 4198 2240 4090 2240 
L 512 2240 
C 403 2240 294 2240 294 2125 
C 294 2017 390 2017 486 2017 
L 4115 2017 
z
M 4090 896 
C 4198 896 4307 896 4307 1011 
C 4307 1119 4211 1119 4115 1119 
L 486 1119 
C 390 1119 294 1119 294 1011 
C 294 896 403 896 512 896 
L 4090 896 
z
" transform="scale(0.015625)"/>
      <path id="CMMI12-3a" d="M 1178 307 
C 1178 492 1024 619 870 619 
C 685 619 557 466 557 313 
C 557 128 710 0 864 0 
C 1050 0 1178 153 1178 307 
z
" transform="scale(0.015625)"/>
      <path id="CMR17-36" d="M 678 2176 
C 678 3690 1395 4032 1811 4032 
C 1946 4032 2272 4009 2400 3776 
C 2298 3776 2106 3776 2106 3553 
C 2106 3381 2246 3323 2336 3323 
C 2394 3323 2566 3348 2566 3560 
C 2566 3954 2246 4179 1805 4179 
C 1043 4179 243 3390 243 1984 
C 243 253 966 -128 1478 -128 
C 2099 -128 2688 427 2688 1283 
C 2688 2081 2170 2662 1517 2662 
C 1126 2662 838 2407 678 1960 
L 678 2176 
z
M 1478 25 
C 691 25 691 1200 691 1436 
C 691 1896 909 2560 1504 2560 
C 1613 2560 1926 2560 2138 2120 
C 2253 1870 2253 1609 2253 1289 
C 2253 944 2253 690 2118 434 
C 1978 171 1773 25 1478 25 
z
" transform="scale(0.015625)"/>
      <path id="CMMI12-3b" d="M 1248 -31 
C 1248 343 1126 619 864 619 
C 659 619 557 453 557 313 
C 557 172 653 0 870 0 
C 954 0 1024 26 1082 83 
C 1094 96 1101 96 1107 96 
C 1120 96 1120 5 1120 -27 
C 1120 -240 1082 -659 710 -1080 
C 640 -1157 640 -1170 640 -1183 
C 640 -1216 672 -1248 704 -1248 
C 755 -1248 1248 -771 1248 -31 
z
" transform="scale(0.015625)"/>
      <path id="CMMI12-c" d="M 3622 3701 
C 3622 4081 3296 4480 2714 4480 
C 1888 4480 1363 3477 1197 2816 
L 186 -1172 
C 173 -1223 211 -1236 243 -1236 
C 288 -1236 320 -1230 326 -1198 
L 774 586 
C 838 229 1190 -64 1568 -64 
C 2483 -64 3347 650 3347 1599 
C 3347 1841 3290 2083 3155 2287 
C 3078 2408 2982 2497 2880 2574 
C 3341 2815 3622 3200 3622 3701 
z
M 2509 2580 
C 2406 2542 2304 2529 2182 2529 
C 2093 2529 2010 2523 1894 2561 
C 1958 2606 2054 2618 2189 2618 
C 2304 2618 2419 2606 2509 2580 
z
M 3290 3758 
C 3290 3410 3117 2903 2701 2669 
C 2579 2718 2413 2752 2272 2752 
C 2138 2752 1754 2752 1754 2555 
C 1754 2389 2106 2389 2214 2389 
C 2381 2389 2528 2432 2682 2484 
C 2886 2318 2976 2101 2976 1783 
C 2976 1413 2874 1115 2752 841 
C 2541 369 2042 64 1600 64 
C 1133 64 890 432 890 864 
C 890 922 890 1005 915 1099 
L 1331 2771 
C 1542 3603 2080 4353 2701 4353 
C 3162 4353 3290 4036 3290 3758 
z
" transform="scale(0.015625)"/>
      <path id="CMR17-31" d="M 1702 4058 
C 1702 4192 1696 4192 1606 4192 
C 1357 3916 979 3827 621 3827 
C 602 3827 570 3827 563 3808 
C 557 3795 557 3782 557 3648 
C 755 3648 1088 3686 1344 3839 
L 1344 461 
C 1344 236 1331 160 781 160 
L 589 160 
L 589 0 
C 896 0 1216 0 1523 0 
C 1830 0 2150 0 2458 0 
L 2458 160 
L 2266 160 
C 1715 160 1702 230 1702 458 
L 1702 4058 
z
" transform="scale(0.015625)"/>
      <path id="CMR17-33" d="M 1414 2157 
C 1984 2157 2234 1662 2234 1090 
C 2234 320 1824 25 1453 25 
C 1114 25 563 194 390 693 
C 422 680 454 680 486 680 
C 640 680 755 782 755 948 
C 755 1133 614 1216 486 1216 
C 378 1216 211 1165 211 926 
C 211 335 787 -128 1466 -128 
C 2176 -128 2720 430 2720 1085 
C 2720 1707 2208 2157 1600 2227 
C 2086 2328 2554 2756 2554 3329 
C 2554 3820 2048 4179 1472 4179 
C 890 4179 378 3829 378 3329 
C 378 3110 544 3072 627 3072 
C 762 3072 877 3155 877 3321 
C 877 3486 762 3569 627 3569 
C 602 3569 570 3569 544 3557 
C 730 3959 1235 4032 1459 4032 
C 1683 4032 2106 3925 2106 3320 
C 2106 3143 2080 2828 1862 2550 
C 1670 2304 1453 2304 1242 2284 
C 1210 2284 1062 2269 1037 2269 
C 992 2263 966 2257 966 2208 
C 966 2163 973 2157 1101 2157 
L 1414 2157 
z
" transform="scale(0.015625)"/>
      <path id="CMMI12-d" d="M 2419 760 
C 2406 1071 2394 1561 2150 2133 
C 2022 2452 1805 2788 1338 2788 
C 550 2788 122 1790 122 1625 
C 122 1567 166 1567 186 1567 
C 243 1567 243 1580 275 1663 
C 410 2057 819 2368 1261 2368 
C 2150 2368 2278 1383 2278 754 
C 2278 352 2234 220 2195 92 
C 2074 -302 1862 -1090 1862 -1268 
C 1862 -1319 1882 -1376 1933 -1376 
C 2029 -1376 2086 -1166 2157 -912 
C 2310 -353 2349 -73 2381 181 
C 2400 334 2765 1384 3270 2382 
C 3315 2483 3405 2655 3405 2674 
C 3405 2680 3398 2725 3341 2725 
C 3328 2725 3296 2725 3283 2699 
C 3270 2687 3046 2254 2854 1822 
C 2758 1606 2630 1320 2419 760 
z
" transform="scale(0.015625)"/>
      <path id="CMMI12-e" d="M 1664 2795 
C 845 2597 256 1748 256 1001 
C 256 319 717 -64 1229 -64 
C 1984 -64 2496 970 2496 1818 
C 2496 2392 2227 2744 2067 2954 
C 1830 3254 1446 3746 1446 4052 
C 1446 4161 1530 4352 1811 4352 
C 2010 4352 2131 4282 2323 4173 
C 2381 4134 2528 4052 2611 4052 
C 2746 4052 2842 4185 2842 4287 
C 2842 4409 2746 4428 2522 4479 
C 2221 4543 2131 4543 2022 4543 
C 1914 4543 1286 4543 1286 3892 
C 1286 3579 1446 3216 1664 2795 
z
M 1734 2669 
C 1978 2165 2074 1974 2074 1560 
C 2074 1063 1805 63 1235 63 
C 986 63 627 229 627 821 
C 627 1235 864 2439 1734 2669 
z
" transform="scale(0.015625)"/>
     </defs>
     <use xlink:href="#CMR17-50" transform="scale(0.996264)"/>
     <use xlink:href="#CMR17-6f" transform="translate(59.983847 0) scale(0.996264)"/>
     <use xlink:href="#CMR17-73" transform="translate(105.674324 0) scale(0.996264)"/>
     <use xlink:href="#CMR17-69" transform="translate(141.475661 0) scale(0.996264)"/>
     <use xlink:href="#CMR17-74" transform="translate(166.34672 0) scale(0.996264)"/>
     <use xlink:href="#CMR17-69" transform="translate(201.627488 0) scale(0.996264)"/>
     <use xlink:href="#CMR17-6f" transform="translate(226.498546 0) scale(0.996264)"/>
     <use xlink:href="#CMR17-6e" transform="translate(272.189023 0) scale(0.996264)"/>
     <use xlink:href="#CMR17-76" transform="translate(353.160359 0) scale(0.996264)"/>
     <use xlink:href="#CMR17-73" transform="translate(401.453275 0) scale(0.996264)"/>
     <use xlink:href="#CMR17-2e" transform="translate(437.254613 0) scale(0.996264)"/>
     <use xlink:href="#CMR17-54" transform="translate(502.611332 0) scale(0.996264)"/>
     <use xlink:href="#CMR17-69" transform="translate(569.121212 0) scale(0.996264)"/>
     <use xlink:href="#CMR17-6d" transform="translate(593.992271 0) scale(0.996264)"/>
     <use xlink:href="#CMR17-65" transform="translate(670.911861 0) scale(0.996264)"/>
     <use xlink:href="#CMR17-77" transform="translate(741.473487 0) scale(0.996264)"/>
     <use xlink:href="#CMR17-69" transform="translate(807.983368 0) scale(0.996264)"/>
     <use xlink:href="#CMR17-74" transform="translate(832.854427 0) scale(0.996264)"/>
     <use xlink:href="#CMR17-68" transform="translate(868.135194 0) scale(0.996264)"/>
     <use xlink:href="#CMMI12-b" transform="translate(949.10653 0) scale(0.996264)"/>
     <use xlink:href="#CMR17-3d" transform="translate(1039.461562 0) scale(0.996264)"/>
     <use xlink:href="#CMR17-30" transform="translate(1138.850359 0) scale(0.996264)"/>
     <use xlink:href="#CMMI12-3a" transform="translate(1184.540836 0) scale(0.996264)"/>
     <use xlink:href="#CMR17-36" transform="translate(1211.638013 0) scale(0.996264)"/>
     <use xlink:href="#CMR17-36" transform="translate(1257.32849 0) scale(0.996264)"/>
     <use xlink:href="#CMR17-36" transform="translate(1303.018968 0) scale(0.996264)"/>
     <use xlink:href="#CMR17-36" transform="translate(1348.709445 0) scale(0.996264)"/>
     <use xlink:href="#CMR17-36" transform="translate(1394.399922 0) scale(0.996264)"/>
     <use xlink:href="#CMMI12-3b" transform="translate(1440.090399 0) scale(0.996264)"/>
     <use xlink:href="#CMMI12-c" transform="translate(1483.791981 0) scale(0.996264)"/>
     <use xlink:href="#CMR17-3d" transform="translate(1572.060006 0) scale(0.996264)"/>
     <use xlink:href="#CMR17-31" transform="translate(1671.448803 0) scale(0.996264)"/>
     <use xlink:href="#CMMI12-3a" transform="translate(1717.13928 0) scale(0.996264)"/>
     <use xlink:href="#CMR17-33" transform="translate(1744.236457 0) scale(0.996264)"/>
     <use xlink:href="#CMR17-33" transform="translate(1789.926934 0) scale(0.996264)"/>
     <use xlink:href="#CMR17-33" transform="translate(1835.617411 0) scale(0.996264)"/>
     <use xlink:href="#CMR17-33" transform="translate(1881.307888 0) scale(0.996264)"/>
     <use xlink:href="#CMR17-33" transform="translate(1926.998366 0) scale(0.996264)"/>
     <use xlink:href="#CMMI12-3b" transform="translate(1972.688843 0) scale(0.996264)"/>
     <use xlink:href="#CMMI12-d" transform="translate(2016.390425 0) scale(0.996264)"/>
     <use xlink:href="#CMR17-3d" transform="translate(2100.083002 0) scale(0.996264)"/>
     <use xlink:href="#CMR17-31" transform="translate(2199.471799 0) scale(0.996264)"/>
     <use xlink:href="#CMMI12-3a" transform="translate(2245.162276 0) scale(0.996264)"/>
     <use xlink:href="#CMR17-30" transform="translate(2272.259453 0) scale(0.996264)"/>
     <use xlink:href="#CMMI12-3b" transform="translate(2317.94993 0) scale(0.996264)"/>
     <use xlink:href="#CMMI12-e" transform="translate(2361.651513 0) scale(0.996264)"/>
     <use xlink:href="#CMR17-3d" transform="translate(2436.266907 0) scale(0.996264)"/>
     <use xlink:href="#CMR17-31" transform="translate(2535.655705 0) scale(0.996264)"/>
     <use xlink:href="#CMMI12-3a" transform="translate(2581.346182 0) scale(0.996264)"/>
     <use xlink:href="#CMR17-30" transform="translate(2608.443359 0) scale(0.996264)"/>
    </g>
   </g>
  </g>
  <g id="axes_2">
   <g id="patch_7">
    <path d="M 75.175501 221.995591 
L 700 221.995591 
L 700 152.000367 
L 75.175501 152.000367 
z
" style="fill: #ffffff"/>
   </g>
   <g id="matplotlib.axis_3">
    <g id="xtick_24">
     <g id="line2d_70">
      <g>
       <use xlink:href="#me19f8b740a" x="76.557856" y="221.995591" style="stroke: #000000; stroke-width: 0.5"/>
      </g>
     </g>
     <g id="line2d_71">
      <g>
       <use xlink:href="#me9be7beb80" x="76.557856" y="152.000367" style="stroke: #000000; stroke-width: 0.5"/>
      </g>
     </g>
    </g>
    <g id="xtick_25">
     <g id="line2d_72">
      <g>
       <use xlink:href="#me19f8b740a" x="214.793365" y="221.995591" style="stroke: #000000; stroke-width: 0.5"/>
      </g>
     </g>
     <g id="line2d_73">
      <g>
       <use xlink:href="#me9be7beb80" x="214.793365" y="152.000367" style="stroke: #000000; stroke-width: 0.5"/>
      </g>
     </g>
    </g>
    <g id="xtick_26">
     <g id="line2d_74">
      <g>
       <use xlink:href="#me19f8b740a" x="353.028873" y="221.995591" style="stroke: #000000; stroke-width: 0.5"/>
      </g>
     </g>
     <g id="line2d_75">
      <g>
       <use xlink:href="#me9be7beb80" x="353.028873" y="152.000367" style="stroke: #000000; stroke-width: 0.5"/>
      </g>
     </g>
    </g>
    <g id="xtick_27">
     <g id="line2d_76">
      <g>
       <use xlink:href="#me19f8b740a" x="491.264382" y="221.995591" style="stroke: #000000; stroke-width: 0.5"/>
      </g>
     </g>
     <g id="line2d_77">
      <g>
       <use xlink:href="#me9be7beb80" x="491.264382" y="152.000367" style="stroke: #000000; stroke-width: 0.5"/>
      </g>
     </g>
    </g>
    <g id="xtick_28">
     <g id="line2d_78">
      <g>
       <use xlink:href="#me19f8b740a" x="629.499891" y="221.995591" style="stroke: #000000; stroke-width: 0.5"/>
      </g>
     </g>
     <g id="line2d_79">
      <g>
       <use xlink:href="#me9be7beb80" x="629.499891" y="152.000367" style="stroke: #000000; stroke-width: 0.5"/>
      </g>
     </g>
    </g>
    <g id="xtick_29">
     <g id="line2d_80">
      <g>
       <use xlink:href="#mb4e426a9b0" x="104.204958" y="221.995591" style="stroke: #000000; stroke-width: 0.5"/>
      </g>
     </g>
     <g id="line2d_81">
      <g>
       <use xlink:href="#m10a7936796" x="104.204958" y="152.000367" style="stroke: #000000; stroke-width: 0.5"/>
      </g>
     </g>
    </g>
    <g id="xtick_30">
     <g id="line2d_82">
      <g>
       <use xlink:href="#mb4e426a9b0" x="131.85206" y="221.995591" style="stroke: #000000; stroke-width: 0.5"/>
      </g>
     </g>
     <g id="line2d_83">
      <g>
       <use xlink:href="#m10a7936796" x="131.85206" y="152.000367" style="stroke: #000000; stroke-width: 0.5"/>
      </g>
     </g>
    </g>
    <g id="xtick_31">
     <g id="line2d_84">
      <g>
       <use xlink:href="#mb4e426a9b0" x="159.499161" y="221.995591" style="stroke: #000000; stroke-width: 0.5"/>
      </g>
     </g>
     <g id="line2d_85">
      <g>
       <use xlink:href="#m10a7936796" x="159.499161" y="152.000367" style="stroke: #000000; stroke-width: 0.5"/>
      </g>
     </g>
    </g>
    <g id="xtick_32">
     <g id="line2d_86">
      <g>
       <use xlink:href="#mb4e426a9b0" x="187.146263" y="221.995591" style="stroke: #000000; stroke-width: 0.5"/>
      </g>
     </g>
     <g id="line2d_87">
      <g>
       <use xlink:href="#m10a7936796" x="187.146263" y="152.000367" style="stroke: #000000; stroke-width: 0.5"/>
      </g>
     </g>
    </g>
    <g id="xtick_33">
     <g id="line2d_88">
      <g>
       <use xlink:href="#mb4e426a9b0" x="242.440467" y="221.995591" style="stroke: #000000; stroke-width: 0.5"/>
      </g>
     </g>
     <g id="line2d_89">
      <g>
       <use xlink:href="#m10a7936796" x="242.440467" y="152.000367" style="stroke: #000000; stroke-width: 0.5"/>
      </g>
     </g>
    </g>
    <g id="xtick_34">
     <g id="line2d_90">
      <g>
       <use xlink:href="#mb4e426a9b0" x="270.087568" y="221.995591" style="stroke: #000000; stroke-width: 0.5"/>
      </g>
     </g>
     <g id="line2d_91">
      <g>
       <use xlink:href="#m10a7936796" x="270.087568" y="152.000367" style="stroke: #000000; stroke-width: 0.5"/>
      </g>
     </g>
    </g>
    <g id="xtick_35">
     <g id="line2d_92">
      <g>
       <use xlink:href="#mb4e426a9b0" x="297.73467" y="221.995591" style="stroke: #000000; stroke-width: 0.5"/>
      </g>
     </g>
     <g id="line2d_93">
      <g>
       <use xlink:href="#m10a7936796" x="297.73467" y="152.000367" style="stroke: #000000; stroke-width: 0.5"/>
      </g>
     </g>
    </g>
    <g id="xtick_36">
     <g id="line2d_94">
      <g>
       <use xlink:href="#mb4e426a9b0" x="325.381772" y="221.995591" style="stroke: #000000; stroke-width: 0.5"/>
      </g>
     </g>
     <g id="line2d_95">
      <g>
       <use xlink:href="#m10a7936796" x="325.381772" y="152.000367" style="stroke: #000000; stroke-width: 0.5"/>
      </g>
     </g>
    </g>
    <g id="xtick_37">
     <g id="line2d_96">
      <g>
       <use xlink:href="#mb4e426a9b0" x="380.675975" y="221.995591" style="stroke: #000000; stroke-width: 0.5"/>
      </g>
     </g>
     <g id="line2d_97">
      <g>
       <use xlink:href="#m10a7936796" x="380.675975" y="152.000367" style="stroke: #000000; stroke-width: 0.5"/>
      </g>
     </g>
    </g>
    <g id="xtick_38">
     <g id="line2d_98">
      <g>
       <use xlink:href="#mb4e426a9b0" x="408.323077" y="221.995591" style="stroke: #000000; stroke-width: 0.5"/>
      </g>
     </g>
     <g id="line2d_99">
      <g>
       <use xlink:href="#m10a7936796" x="408.323077" y="152.000367" style="stroke: #000000; stroke-width: 0.5"/>
      </g>
     </g>
    </g>
    <g id="xtick_39">
     <g id="line2d_100">
      <g>
       <use xlink:href="#mb4e426a9b0" x="435.970179" y="221.995591" style="stroke: #000000; stroke-width: 0.5"/>
      </g>
     </g>
     <g id="line2d_101">
      <g>
       <use xlink:href="#m10a7936796" x="435.970179" y="152.000367" style="stroke: #000000; stroke-width: 0.5"/>
      </g>
     </g>
    </g>
    <g id="xtick_40">
     <g id="line2d_102">
      <g>
       <use xlink:href="#mb4e426a9b0" x="463.61728" y="221.995591" style="stroke: #000000; stroke-width: 0.5"/>
      </g>
     </g>
     <g id="line2d_103">
      <g>
       <use xlink:href="#m10a7936796" x="463.61728" y="152.000367" style="stroke: #000000; stroke-width: 0.5"/>
      </g>
     </g>
    </g>
    <g id="xtick_41">
     <g id="line2d_104">
      <g>
       <use xlink:href="#mb4e426a9b0" x="518.911484" y="221.995591" style="stroke: #000000; stroke-width: 0.5"/>
      </g>
     </g>
     <g id="line2d_105">
      <g>
       <use xlink:href="#m10a7936796" x="518.911484" y="152.000367" style="stroke: #000000; stroke-width: 0.5"/>
      </g>
     </g>
    </g>
    <g id="xtick_42">
     <g id="line2d_106">
      <g>
       <use xlink:href="#mb4e426a9b0" x="546.558585" y="221.995591" style="stroke: #000000; stroke-width: 0.5"/>
      </g>
     </g>
     <g id="line2d_107">
      <g>
       <use xlink:href="#m10a7936796" x="546.558585" y="152.000367" style="stroke: #000000; stroke-width: 0.5"/>
      </g>
     </g>
    </g>
    <g id="xtick_43">
     <g id="line2d_108">
      <g>
       <use xlink:href="#mb4e426a9b0" x="574.205687" y="221.995591" style="stroke: #000000; stroke-width: 0.5"/>
      </g>
     </g>
     <g id="line2d_109">
      <g>
       <use xlink:href="#m10a7936796" x="574.205687" y="152.000367" style="stroke: #000000; stroke-width: 0.5"/>
      </g>
     </g>
    </g>
    <g id="xtick_44">
     <g id="line2d_110">
      <g>
       <use xlink:href="#mb4e426a9b0" x="601.852789" y="221.995591" style="stroke: #000000; stroke-width: 0.5"/>
      </g>
     </g>
     <g id="line2d_111">
      <g>
       <use xlink:href="#m10a7936796" x="601.852789" y="152.000367" style="stroke: #000000; stroke-width: 0.5"/>
      </g>
     </g>
    </g>
    <g id="xtick_45">
     <g id="line2d_112">
      <g>
       <use xlink:href="#mb4e426a9b0" x="657.146992" y="221.995591" style="stroke: #000000; stroke-width: 0.5"/>
      </g>
     </g>
     <g id="line2d_113">
      <g>
       <use xlink:href="#m10a7936796" x="657.146992" y="152.000367" style="stroke: #000000; stroke-width: 0.5"/>
      </g>
     </g>
    </g>
    <g id="xtick_46">
     <g id="line2d_114">
      <g>
       <use xlink:href="#mb4e426a9b0" x="684.794094" y="221.995591" style="stroke: #000000; stroke-width: 0.5"/>
      </g>
     </g>
     <g id="line2d_115">
      <g>
       <use xlink:href="#m10a7936796" x="684.794094" y="152.000367" style="stroke: #000000; stroke-width: 0.5"/>
      </g>
     </g>
    </g>
   </g>
   <g id="matplotlib.axis_4">
    <g id="ytick_12">
     <g id="line2d_116">
      <g>
       <use xlink:href="#ma7057826ec" x="75.175501" y="218.81399" style="stroke: #000000; stroke-width: 0.5"/>
      </g>
     </g>
     <g id="line2d_117">
      <g>
       <use xlink:href="#m511a66da47" x="700" y="218.81399" style="stroke: #000000; stroke-width: 0.5"/>
      </g>
     </g>
     <g id="text_6">
      <!-- $\mathdefault{−5}$ -->
      <g transform="translate(50.735259 224.694716) scale(0.17 -0.17)">
       <use xlink:href="#CMSY10-0" transform="scale(0.996264)"/>
       <use xlink:href="#CMR17-35" transform="translate(77.487468 0) scale(0.996264)"/>
      </g>
     </g>
    </g>
    <g id="ytick_13">
     <g id="line2d_118">
      <g>
       <use xlink:href="#ma7057826ec" x="75.175501" y="186.997979" style="stroke: #000000; stroke-width: 0.5"/>
      </g>
     </g>
     <g id="line2d_119">
      <g>
       <use xlink:href="#m511a66da47" x="700" y="186.997979" style="stroke: #000000; stroke-width: 0.5"/>
      </g>
     </g>
     <g id="text_7">
      <!-- $\mathdefault{0}$ -->
      <g transform="translate(63.90812 192.878705) scale(0.17 -0.17)">
       <use xlink:href="#CMR17-30" transform="scale(0.996264)"/>
      </g>
     </g>
    </g>
    <g id="ytick_14">
     <g id="line2d_120">
      <g>
       <use xlink:href="#ma7057826ec" x="75.175501" y="155.181968" style="stroke: #000000; stroke-width: 0.5"/>
      </g>
     </g>
     <g id="line2d_121">
      <g>
       <use xlink:href="#m511a66da47" x="700" y="155.181968" style="stroke: #000000; stroke-width: 0.5"/>
      </g>
     </g>
     <g id="text_8">
      <!-- $\mathdefault{5}$ -->
      <g transform="translate(63.90812 161.062694) scale(0.17 -0.17)">
       <use xlink:href="#CMR17-35" transform="scale(0.996264)"/>
      </g>
     </g>
    </g>
    <g id="ytick_15">
     <g id="line2d_122">
      <g>
       <use xlink:href="#mbc28d7059f" x="75.175501" y="212.450788" style="stroke: #000000; stroke-width: 0.5"/>
      </g>
     </g>
     <g id="line2d_123">
      <g>
       <use xlink:href="#m44caa775e3" x="700" y="212.450788" style="stroke: #000000; stroke-width: 0.5"/>
      </g>
     </g>
    </g>
    <g id="ytick_16">
     <g id="line2d_124">
      <g>
       <use xlink:href="#mbc28d7059f" x="75.175501" y="206.087585" style="stroke: #000000; stroke-width: 0.5"/>
      </g>
     </g>
     <g id="line2d_125">
      <g>
       <use xlink:href="#m44caa775e3" x="700" y="206.087585" style="stroke: #000000; stroke-width: 0.5"/>
      </g>
     </g>
    </g>
    <g id="ytick_17">
     <g id="line2d_126">
      <g>
       <use xlink:href="#mbc28d7059f" x="75.175501" y="199.724383" style="stroke: #000000; stroke-width: 0.5"/>
      </g>
     </g>
     <g id="line2d_127">
      <g>
       <use xlink:href="#m44caa775e3" x="700" y="199.724383" style="stroke: #000000; stroke-width: 0.5"/>
      </g>
     </g>
    </g>
    <g id="ytick_18">
     <g id="line2d_128">
      <g>
       <use xlink:href="#mbc28d7059f" x="75.175501" y="193.361181" style="stroke: #000000; stroke-width: 0.5"/>
      </g>
     </g>
     <g id="line2d_129">
      <g>
       <use xlink:href="#m44caa775e3" x="700" y="193.361181" style="stroke: #000000; stroke-width: 0.5"/>
      </g>
     </g>
    </g>
    <g id="ytick_19">
     <g id="line2d_130">
      <g>
       <use xlink:href="#mbc28d7059f" x="75.175501" y="180.634777" style="stroke: #000000; stroke-width: 0.5"/>
      </g>
     </g>
     <g id="line2d_131">
      <g>
       <use xlink:href="#m44caa775e3" x="700" y="180.634777" style="stroke: #000000; stroke-width: 0.5"/>
      </g>
     </g>
    </g>
    <g id="ytick_20">
     <g id="line2d_132">
      <g>
       <use xlink:href="#mbc28d7059f" x="75.175501" y="174.271574" style="stroke: #000000; stroke-width: 0.5"/>
      </g>
     </g>
     <g id="line2d_133">
      <g>
       <use xlink:href="#m44caa775e3" x="700" y="174.271574" style="stroke: #000000; stroke-width: 0.5"/>
      </g>
     </g>
    </g>
    <g id="ytick_21">
     <g id="line2d_134">
      <g>
       <use xlink:href="#mbc28d7059f" x="75.175501" y="167.908372" style="stroke: #000000; stroke-width: 0.5"/>
      </g>
     </g>
     <g id="line2d_135">
      <g>
       <use xlink:href="#m44caa775e3" x="700" y="167.908372" style="stroke: #000000; stroke-width: 0.5"/>
      </g>
     </g>
    </g>
    <g id="ytick_22">
     <g id="line2d_136">
      <g>
       <use xlink:href="#mbc28d7059f" x="75.175501" y="161.54517" style="stroke: #000000; stroke-width: 0.5"/>
      </g>
     </g>
     <g id="line2d_137">
      <g>
       <use xlink:href="#m44caa775e3" x="700" y="161.54517" style="stroke: #000000; stroke-width: 0.5"/>
      </g>
     </g>
    </g>
    <g id="text_9">
     <!-- $\dot{q}(t)$ -->
     <g transform="translate(20 182.529795) scale(0.18 -0.18)">
      <defs>
       <path id="CMR17-5f" d="M 1056 3909 
C 1056 4062 934 4170 800 4170 
C 646 4170 538 4049 538 3909 
C 538 3756 659 3648 794 3648 
C 947 3648 1056 3769 1056 3909 
z
" transform="scale(0.015625)"/>
      </defs>
      <use xlink:href="#CMR17-5f" transform="translate(19.106786 0.006461) scale(0.996264)"/>
      <use xlink:href="#CMMI12-71" transform="scale(0.996264)"/>
      <use xlink:href="#CMR17-28" transform="translate(46.826324 0) scale(0.996264)"/>
      <use xlink:href="#CMMI12-74" transform="translate(82.107092 0) scale(0.996264)"/>
      <use xlink:href="#CMR17-29" transform="translate(117.333422 0) scale(0.996264)"/>
     </g>
    </g>
   </g>
   <g id="line2d_138">
    <path d="M 76.557856 186.934347 
L 77.803221 188.431938 
L 79.048586 189.55622 
L 80.293951 190.394263 
L 81.539316 191.014441 
L 83.407364 191.655874 
L 85.898093 192.181883 
L 89.011506 192.543847 
L 93.370283 192.792474 
L 100.21979 192.93717 
L 112.050757 192.942996 
L 126.372454 192.740214 
L 138.203421 192.368676 
L 147.543658 191.872859 
L 155.015848 191.272965 
L 161.242672 190.57273 
L 166.846815 189.734682 
L 171.828274 188.780241 
L 176.187052 187.739369 
L 180.545829 186.458633 
L 184.281924 185.130301 
L 188.018019 183.550232 
L 191.131431 182.011995 
L 194.244843 180.245348 
L 197.358256 178.226048 
L 200.471668 175.94038 
L 204.207763 172.869102 
L 210.434588 167.608866 
L 211.679953 166.807656 
L 212.925317 166.253457 
L 214.170682 166.053319 
L 214.793365 166.124268 
L 215.416047 166.331817 
L 216.03873 166.694276 
L 216.661412 167.231051 
L 217.284095 167.956731 
L 218.52946 169.959294 
L 219.774825 172.601141 
L 222.265555 178.868716 
L 224.133602 183.202118 
L 225.378967 185.530385 
L 226.624332 187.362647 
L 227.869697 188.758437 
L 229.115062 189.806507 
L 230.360427 190.588531 
L 231.605792 191.162125 
L 233.473839 191.754596 
L 235.964569 192.241824 
L 239.077981 192.577637 
L 244.059441 192.831017 
L 252.154313 192.958751 
L 265.230645 192.919418 
L 279.552342 192.663668 
L 290.760626 192.255836 
L 299.478181 191.742819 
L 306.950371 191.08664 
L 313.177195 190.318994 
L 318.781338 189.398541 
L 323.762797 188.350108 
L 328.121575 187.209075 
L 331.857669 186.025574 
L 335.593764 184.615651 
L 339.329859 182.94007 
L 342.443271 181.312281 
L 345.556684 179.451158 
L 348.670096 177.308707 
L 351.783509 174.887412 
L 356.142286 171.164026 
L 359.878381 167.989419 
L 361.746428 166.71173 
L 362.991793 166.142649 
L 364.237158 165.929913 
L 364.85984 165.999554 
L 365.482523 166.210532 
L 366.105205 166.581034 
L 366.727888 167.126874 
L 367.35057 167.85669 
L 368.595935 169.866755 
L 369.8413 172.536143 
L 374.82276 184.4945 
L 376.068125 186.560446 
L 377.31349 188.163683 
L 378.558855 189.373432 
L 379.80422 190.265643 
L 381.049585 190.920055 
L 382.917632 191.603915 
L 384.785679 192.059395 
L 387.276409 192.423621 
L 391.012504 192.714889 
L 396.616646 192.902354 
L 406.579566 192.975692 
L 421.523945 192.845993 
L 434.600277 192.525574 
L 444.563197 192.083885 
L 452.658069 191.520103 
L 459.507576 190.832721 
L 465.734401 189.980983 
L 470.715861 189.093044 
L 475.074638 188.122558 
L 479.433415 186.927447 
L 483.16951 185.68683 
L 486.905605 184.209192 
L 490.019017 182.768304 
L 493.132429 181.110319 
L 496.245842 179.209037 
L 499.359254 177.043583 
L 502.472667 174.608794 
L 506.208761 171.39278 
L 509.944856 168.157542 
L 511.812904 166.803009 
L 513.058269 166.14933 
L 514.303633 165.819579 
L 514.926316 165.81581 
L 515.548998 165.945477 
L 516.171681 166.229147 
L 516.794363 166.682423 
L 517.417046 167.315945 
L 518.039728 168.135387 
L 519.285093 170.329887 
L 520.530458 173.163376 
L 524.266553 182.573226 
L 525.511918 185.031527 
L 526.757283 186.99331 
L 528.002648 188.494753 
L 529.248013 189.605362 
L 530.493378 190.427572 
L 531.738743 191.041999 
L 533.60679 191.684487 
L 536.09752 192.220914 
L 539.210932 192.572785 
L 543.56971 192.814085 
L 551.041899 192.959447 
L 563.495549 192.951146 
L 578.439928 192.722387 
L 590.270895 192.331822 
L 599.611132 191.809039 
L 607.083322 191.173895 
L 613.310146 190.435586 
L 618.914289 189.55798 
L 623.895748 188.556842 
L 628.254526 187.462188 
L 631.990621 186.324356 
L 635.726715 184.966837 
L 639.46281 183.352098 
L 642.576223 181.780309 
L 645.689635 179.97538 
L 648.803047 177.91223 
L 651.91646 175.577579 
L 655.652554 172.443528 
L 661.256697 167.600209 
L 662.502062 166.726846 
L 663.747427 166.069329 
L 664.992791 165.729113 
L 665.615474 165.724419 
L 666.238156 165.85768 
L 666.860839 166.145654 
L 667.483521 166.601842 
L 668.106204 167.236487 
L 668.728886 168.056575 
L 669.974251 170.262686 
L 671.219616 173.102684 
L 675.578393 183.993287 
L 676.823758 186.171828 
L 678.069123 187.873742 
L 679.314488 189.170774 
L 680.559853 190.133115 
L 681.805218 190.830999 
L 683.673266 191.548011 
L 685.541313 192.018104 
L 688.032043 192.403861 
L 691.768138 192.707597 
L 697.37228 192.90296 
L 698.617645 192.925164 
L 698.617645 192.925164 
" clip-path="url(#p5a27ddbc7a)" style="fill: none; stroke: #ffa500; stroke-width: 1.5; stroke-linecap: square"/>
   </g>
   <g id="patch_8">
    <path d="M 75.175501 221.995591 
L 75.175501 152.000367 
" style="fill: none; stroke: #000000; stroke-width: 0.8; stroke-linejoin: miter; stroke-linecap: square"/>
   </g>
   <g id="patch_9">
    <path d="M 700 221.995591 
L 700 152.000367 
" style="fill: none; stroke: #000000; stroke-width: 0.8; stroke-linejoin: miter; stroke-linecap: square"/>
   </g>
   <g id="patch_10">
    <path d="M 75.175501 221.995591 
L 700 221.995591 
" style="fill: none; stroke: #000000; stroke-width: 0.8; stroke-linejoin: miter; stroke-linecap: square"/>
   </g>
   <g id="patch_11">
    <path d="M 75.175501 152.000367 
L 700 152.000367 
" style="fill: none; stroke: #000000; stroke-width: 0.8; stroke-linejoin: miter; stroke-linecap: square"/>
   </g>
   <g id="text_10">
    <!-- Velocity vs. Time with $\alpha = 0.66666, \beta = 1.33333, \gamma = 1.0, \delta = 1.0$ -->
    <g transform="translate(148.881558 146.000367) scale(0.18 -0.18)">
     <defs>
      <path id="CMR17-56" d="M 3776 3745 
C 3834 3886 3936 4160 4365 4160 
L 4365 4332 
C 4218 4319 4051 4319 3891 4319 
C 3738 4319 3475 4319 3328 4332 
L 3328 4160 
C 3648 4160 3661 3936 3661 3898 
C 3661 3827 3642 3783 3622 3732 
L 2362 446 
L 1043 3886 
C 1024 3931 1011 3963 1011 3994 
C 1011 4160 1267 4160 1402 4160 
L 1402 4319 
C 1197 4319 896 4319 685 4319 
C 518 4319 218 4319 64 4332 
L 64 4160 
C 435 4160 506 4135 582 3931 
L 2106 -26 
C 2138 -115 2144 -128 2214 -128 
C 2285 -128 2291 -115 2323 -26 
L 3776 3745 
z
" transform="scale(0.015625)"/>
      <path id="CMR17-6c" d="M 979 4396 
L 218 4326 
L 218 4160 
C 595 4160 653 4122 653 3817 
L 653 426 
C 653 184 627 153 218 153 
L 218 -13 
C 371 0 653 0 813 0 
C 979 0 1261 0 1414 -13 
L 1414 153 
C 1005 153 979 178 979 426 
L 979 4396 
z
" transform="scale(0.015625)"/>
      <path id="CMR17-63" d="M 2234 2240 
C 2112 2240 1933 2240 1933 2017 
C 1933 1838 2080 1787 2163 1787 
C 2208 1787 2394 1807 2394 2024 
C 2394 2467 1958 2803 1466 2803 
C 787 2803 211 2178 211 1363 
C 211 516 813 -64 1466 -64 
C 2259 -64 2458 677 2458 748 
C 2458 774 2451 793 2406 793 
C 2362 793 2355 787 2330 703 
C 2163 180 1798 51 1523 51 
C 1114 51 621 427 621 1369 
C 621 2338 1094 2688 1472 2688 
C 1722 2688 2093 2573 2234 2240 
z
" transform="scale(0.015625)"/>
      <path id="CMR17-79" d="M 2496 2197 
C 2656 2586 2944 2586 3034 2586 
L 3034 2752 
C 2912 2752 2752 2752 2630 2752 
C 2496 2752 2285 2752 2157 2758 
L 2157 2592 
C 2400 2573 2406 2394 2406 2343 
C 2406 2280 2394 2248 2362 2171 
L 1664 449 
L 902 2306 
C 870 2382 870 2426 870 2433 
C 870 2573 1018 2586 1171 2586 
L 1171 2758 
C 1018 2752 742 2752 582 2752 
C 410 2752 205 2752 64 2758 
L 64 2586 
C 410 2586 448 2554 531 2350 
L 1485 15 
C 1197 -738 1030 -1178 627 -1178 
C 557 -1178 397 -1159 282 -1044 
C 429 -1031 493 -942 493 -833 
C 493 -725 416 -629 288 -629 
C 147 -629 77 -725 77 -840 
C 77 -1095 339 -1280 627 -1280 
C 998 -1280 1229 -922 1357 -604 
L 2496 2197 
z
" transform="scale(0.015625)"/>
     </defs>
     <use xlink:href="#CMR17-56" transform="scale(0.996264)"/>
     <use xlink:href="#CMR17-65" transform="translate(61.265174 0) scale(0.996264)"/>
     <use xlink:href="#CMR17-6c" transform="translate(101.750835 0) scale(0.996264)"/>
     <use xlink:href="#CMR17-6f" transform="translate(126.621893 0) scale(0.996264)"/>
     <use xlink:href="#CMR17-63" transform="translate(174.914809 0) scale(0.996264)"/>
     <use xlink:href="#CMR17-69" transform="translate(215.40047 0) scale(0.996264)"/>
     <use xlink:href="#CMR17-74" transform="translate(240.271528 0) scale(0.996264)"/>
     <use xlink:href="#CMR17-79" transform="translate(272.949842 0) scale(0.996264)"/>
     <use xlink:href="#CMR17-76" transform="translate(351.318724 0) scale(0.996264)"/>
     <use xlink:href="#CMR17-73" transform="translate(399.61164 0) scale(0.996264)"/>
     <use xlink:href="#CMR17-2e" transform="translate(435.412978 0) scale(0.996264)"/>
     <use xlink:href="#CMR17-54" transform="translate(500.769697 0) scale(0.996264)"/>
     <use xlink:href="#CMR17-69" transform="translate(567.279577 0) scale(0.996264)"/>
     <use xlink:href="#CMR17-6d" transform="translate(592.150636 0) scale(0.996264)"/>
     <use xlink:href="#CMR17-65" transform="translate(669.070226 0) scale(0.996264)"/>
     <use xlink:href="#CMR17-77" transform="translate(739.631852 0) scale(0.996264)"/>
     <use xlink:href="#CMR17-69" transform="translate(806.141733 0) scale(0.996264)"/>
     <use xlink:href="#CMR17-74" transform="translate(831.012791 0) scale(0.996264)"/>
     <use xlink:href="#CMR17-68" transform="translate(866.293559 0) scale(0.996264)"/>
     <use xlink:href="#CMMI12-b" transform="translate(947.264895 0) scale(0.996264)"/>
     <use xlink:href="#CMR17-3d" transform="translate(1037.619927 0) scale(0.996264)"/>
     <use xlink:href="#CMR17-30" transform="translate(1137.008724 0) scale(0.996264)"/>
     <use xlink:href="#CMMI12-3a" transform="translate(1182.699201 0) scale(0.996264)"/>
     <use xlink:href="#CMR17-36" transform="translate(1209.796378 0) scale(0.996264)"/>
     <use xlink:href="#CMR17-36" transform="translate(1255.486855 0) scale(0.996264)"/>
     <use xlink:href="#CMR17-36" transform="translate(1301.177332 0) scale(0.996264)"/>
     <use xlink:href="#CMR17-36" transform="translate(1346.86781 0) scale(0.996264)"/>
     <use xlink:href="#CMR17-36" transform="translate(1392.558287 0) scale(0.996264)"/>
     <use xlink:href="#CMMI12-3b" transform="translate(1438.248764 0) scale(0.996264)"/>
     <use xlink:href="#CMMI12-c" transform="translate(1481.950346 0) scale(0.996264)"/>
     <use xlink:href="#CMR17-3d" transform="translate(1570.218371 0) scale(0.996264)"/>
     <use xlink:href="#CMR17-31" transform="translate(1669.607168 0) scale(0.996264)"/>
     <use xlink:href="#CMMI12-3a" transform="translate(1715.297645 0) scale(0.996264)"/>
     <use xlink:href="#CMR17-33" transform="translate(1742.394822 0) scale(0.996264)"/>
     <use xlink:href="#CMR17-33" transform="translate(1788.085299 0) scale(0.996264)"/>
     <use xlink:href="#CMR17-33" transform="translate(1833.775776 0) scale(0.996264)"/>
     <use xlink:href="#CMR17-33" transform="translate(1879.466253 0) scale(0.996264)"/>
     <use xlink:href="#CMR17-33" transform="translate(1925.15673 0) scale(0.996264)"/>
     <use xlink:href="#CMMI12-3b" transform="translate(1970.847207 0) scale(0.996264)"/>
     <use xlink:href="#CMMI12-d" transform="translate(2014.54879 0) scale(0.996264)"/>
     <use xlink:href="#CMR17-3d" transform="translate(2098.241367 0) scale(0.996264)"/>
     <use xlink:href="#CMR17-31" transform="translate(2197.630164 0) scale(0.996264)"/>
     <use xlink:href="#CMMI12-3a" transform="translate(2243.320641 0) scale(0.996264)"/>
     <use xlink:href="#CMR17-30" transform="translate(2270.417818 0) scale(0.996264)"/>
     <use xlink:href="#CMMI12-3b" transform="translate(2316.108295 0) scale(0.996264)"/>
     <use xlink:href="#CMMI12-e" transform="translate(2359.809877 0) scale(0.996264)"/>
     <use xlink:href="#CMR17-3d" transform="translate(2434.425272 0) scale(0.996264)"/>
     <use xlink:href="#CMR17-31" transform="translate(2533.814069 0) scale(0.996264)"/>
     <use xlink:href="#CMMI12-3a" transform="translate(2579.504547 0) scale(0.996264)"/>
     <use xlink:href="#CMR17-30" transform="translate(2606.601724 0) scale(0.996264)"/>
    </g>
   </g>
  </g>
  <g id="axes_3">
   <g id="patch_12">
    <path d="M 75.175501 335.542657 
L 700 335.542657 
L 700 265.547433 
L 75.175501 265.547433 
z
" style="fill: #ffffff"/>
   </g>
   <g id="matplotlib.axis_5">
    <g id="xtick_47">
     <g id="line2d_139">
      <g>
       <use xlink:href="#me19f8b740a" x="76.557856" y="335.542657" style="stroke: #000000; stroke-width: 0.5"/>
      </g>
     </g>
     <g id="line2d_140">
      <g>
       <use xlink:href="#me9be7beb80" x="76.557856" y="265.547433" style="stroke: #000000; stroke-width: 0.5"/>
      </g>
     </g>
     <g id="text_11">
      <!-- $\mathdefault{0}$ -->
      <g transform="translate(72.674166 350.804109) scale(0.17 -0.17)">
       <use xlink:href="#CMR17-30" transform="scale(0.996264)"/>
      </g>
     </g>
    </g>
    <g id="xtick_48">
     <g id="line2d_141">
      <g>
       <use xlink:href="#me19f8b740a" x="214.793365" y="335.542657" style="stroke: #000000; stroke-width: 0.5"/>
      </g>
     </g>
     <g id="line2d_142">
      <g>
       <use xlink:href="#me9be7beb80" x="214.793365" y="265.547433" style="stroke: #000000; stroke-width: 0.5"/>
      </g>
     </g>
     <g id="text_12">
      <!-- $\mathdefault{10}$ -->
      <g transform="translate(207.025984 350.804109) scale(0.17 -0.17)">
       <use xlink:href="#CMR17-31" transform="scale(0.996264)"/>
       <use xlink:href="#CMR17-30" transform="translate(45.690477 0) scale(0.996264)"/>
      </g>
     </g>
    </g>
    <g id="xtick_49">
     <g id="line2d_143">
      <g>
       <use xlink:href="#me19f8b740a" x="353.028873" y="335.542657" style="stroke: #000000; stroke-width: 0.5"/>
      </g>
     </g>
     <g id="line2d_144">
      <g>
       <use xlink:href="#me9be7beb80" x="353.028873" y="265.547433" style="stroke: #000000; stroke-width: 0.5"/>
      </g>
     </g>
     <g id="text_13">
      <!-- $\mathdefault{20}$ -->
      <g transform="translate(345.261492 350.804109) scale(0.17 -0.17)">
       <defs>
        <path id="CMR17-32" d="M 2669 989 
L 2554 989 
C 2490 536 2438 459 2413 420 
C 2381 369 1920 369 1830 369 
L 602 369 
C 832 619 1280 1072 1824 1597 
C 2214 1967 2669 2402 2669 3035 
C 2669 3790 2067 4224 1395 4224 
C 691 4224 262 3604 262 3030 
C 262 2780 448 2748 525 2748 
C 589 2748 781 2787 781 3010 
C 781 3207 614 3264 525 3264 
C 486 3264 448 3258 422 3245 
C 544 3790 915 4058 1306 4058 
C 1862 4058 2227 3617 2227 3035 
C 2227 2479 1901 2000 1536 1584 
L 262 146 
L 262 0 
L 2515 0 
L 2669 989 
z
" transform="scale(0.015625)"/>
       </defs>
       <use xlink:href="#CMR17-32" transform="scale(0.996264)"/>
       <use xlink:href="#CMR17-30" transform="translate(45.690477 0) scale(0.996264)"/>
      </g>
     </g>
    </g>
    <g id="xtick_50">
     <g id="line2d_145">
      <g>
       <use xlink:href="#me19f8b740a" x="491.264382" y="335.542657" style="stroke: #000000; stroke-width: 0.5"/>
      </g>
     </g>
     <g id="line2d_146">
      <g>
       <use xlink:href="#me9be7beb80" x="491.264382" y="265.547433" style="stroke: #000000; stroke-width: 0.5"/>
      </g>
     </g>
     <g id="text_14">
      <!-- $\mathdefault{30}$ -->
      <g transform="translate(483.497001 350.804109) scale(0.17 -0.17)">
       <use xlink:href="#CMR17-33" transform="scale(0.996264)"/>
       <use xlink:href="#CMR17-30" transform="translate(45.690477 0) scale(0.996264)"/>
      </g>
     </g>
    </g>
    <g id="xtick_51">
     <g id="line2d_147">
      <g>
       <use xlink:href="#me19f8b740a" x="629.499891" y="335.542657" style="stroke: #000000; stroke-width: 0.5"/>
      </g>
     </g>
     <g id="line2d_148">
      <g>
       <use xlink:href="#me9be7beb80" x="629.499891" y="265.547433" style="stroke: #000000; stroke-width: 0.5"/>
      </g>
     </g>
     <g id="text_15">
      <!-- $\mathdefault{40}$ -->
      <g transform="translate(621.73251 350.804109) scale(0.17 -0.17)">
       <defs>
        <path id="CMR17-34" d="M 2150 4122 
C 2150 4256 2144 4256 2029 4256 
L 128 1254 
L 128 1088 
L 1779 1088 
L 1779 457 
C 1779 224 1766 160 1318 160 
L 1197 160 
L 1197 0 
C 1402 0 1747 0 1965 0 
C 2182 0 2528 0 2733 0 
L 2733 160 
L 2611 160 
C 2163 160 2150 224 2150 457 
L 2150 1088 
L 2803 1088 
L 2803 1254 
L 2150 1254 
L 2150 4122 
z
M 1798 3703 
L 1798 1254 
L 256 1254 
L 1798 3703 
z
" transform="scale(0.015625)"/>
       </defs>
       <use xlink:href="#CMR17-34" transform="scale(0.996264)"/>
       <use xlink:href="#CMR17-30" transform="translate(45.690477 0) scale(0.996264)"/>
      </g>
     </g>
    </g>
    <g id="xtick_52">
     <g id="line2d_149">
      <g>
       <use xlink:href="#mb4e426a9b0" x="104.204958" y="335.542657" style="stroke: #000000; stroke-width: 0.5"/>
      </g>
     </g>
     <g id="line2d_150">
      <g>
       <use xlink:href="#m10a7936796" x="104.204958" y="265.547433" style="stroke: #000000; stroke-width: 0.5"/>
      </g>
     </g>
    </g>
    <g id="xtick_53">
     <g id="line2d_151">
      <g>
       <use xlink:href="#mb4e426a9b0" x="131.85206" y="335.542657" style="stroke: #000000; stroke-width: 0.5"/>
      </g>
     </g>
     <g id="line2d_152">
      <g>
       <use xlink:href="#m10a7936796" x="131.85206" y="265.547433" style="stroke: #000000; stroke-width: 0.5"/>
      </g>
     </g>
    </g>
    <g id="xtick_54">
     <g id="line2d_153">
      <g>
       <use xlink:href="#mb4e426a9b0" x="159.499161" y="335.542657" style="stroke: #000000; stroke-width: 0.5"/>
      </g>
     </g>
     <g id="line2d_154">
      <g>
       <use xlink:href="#m10a7936796" x="159.499161" y="265.547433" style="stroke: #000000; stroke-width: 0.5"/>
      </g>
     </g>
    </g>
    <g id="xtick_55">
     <g id="line2d_155">
      <g>
       <use xlink:href="#mb4e426a9b0" x="187.146263" y="335.542657" style="stroke: #000000; stroke-width: 0.5"/>
      </g>
     </g>
     <g id="line2d_156">
      <g>
       <use xlink:href="#m10a7936796" x="187.146263" y="265.547433" style="stroke: #000000; stroke-width: 0.5"/>
      </g>
     </g>
    </g>
    <g id="xtick_56">
     <g id="line2d_157">
      <g>
       <use xlink:href="#mb4e426a9b0" x="242.440467" y="335.542657" style="stroke: #000000; stroke-width: 0.5"/>
      </g>
     </g>
     <g id="line2d_158">
      <g>
       <use xlink:href="#m10a7936796" x="242.440467" y="265.547433" style="stroke: #000000; stroke-width: 0.5"/>
      </g>
     </g>
    </g>
    <g id="xtick_57">
     <g id="line2d_159">
      <g>
       <use xlink:href="#mb4e426a9b0" x="270.087568" y="335.542657" style="stroke: #000000; stroke-width: 0.5"/>
      </g>
     </g>
     <g id="line2d_160">
      <g>
       <use xlink:href="#m10a7936796" x="270.087568" y="265.547433" style="stroke: #000000; stroke-width: 0.5"/>
      </g>
     </g>
    </g>
    <g id="xtick_58">
     <g id="line2d_161">
      <g>
       <use xlink:href="#mb4e426a9b0" x="297.73467" y="335.542657" style="stroke: #000000; stroke-width: 0.5"/>
      </g>
     </g>
     <g id="line2d_162">
      <g>
       <use xlink:href="#m10a7936796" x="297.73467" y="265.547433" style="stroke: #000000; stroke-width: 0.5"/>
      </g>
     </g>
    </g>
    <g id="xtick_59">
     <g id="line2d_163">
      <g>
       <use xlink:href="#mb4e426a9b0" x="325.381772" y="335.542657" style="stroke: #000000; stroke-width: 0.5"/>
      </g>
     </g>
     <g id="line2d_164">
      <g>
       <use xlink:href="#m10a7936796" x="325.381772" y="265.547433" style="stroke: #000000; stroke-width: 0.5"/>
      </g>
     </g>
    </g>
    <g id="xtick_60">
     <g id="line2d_165">
      <g>
       <use xlink:href="#mb4e426a9b0" x="380.675975" y="335.542657" style="stroke: #000000; stroke-width: 0.5"/>
      </g>
     </g>
     <g id="line2d_166">
      <g>
       <use xlink:href="#m10a7936796" x="380.675975" y="265.547433" style="stroke: #000000; stroke-width: 0.5"/>
      </g>
     </g>
    </g>
    <g id="xtick_61">
     <g id="line2d_167">
      <g>
       <use xlink:href="#mb4e426a9b0" x="408.323077" y="335.542657" style="stroke: #000000; stroke-width: 0.5"/>
      </g>
     </g>
     <g id="line2d_168">
      <g>
       <use xlink:href="#m10a7936796" x="408.323077" y="265.547433" style="stroke: #000000; stroke-width: 0.5"/>
      </g>
     </g>
    </g>
    <g id="xtick_62">
     <g id="line2d_169">
      <g>
       <use xlink:href="#mb4e426a9b0" x="435.970179" y="335.542657" style="stroke: #000000; stroke-width: 0.5"/>
      </g>
     </g>
     <g id="line2d_170">
      <g>
       <use xlink:href="#m10a7936796" x="435.970179" y="265.547433" style="stroke: #000000; stroke-width: 0.5"/>
      </g>
     </g>
    </g>
    <g id="xtick_63">
     <g id="line2d_171">
      <g>
       <use xlink:href="#mb4e426a9b0" x="463.61728" y="335.542657" style="stroke: #000000; stroke-width: 0.5"/>
      </g>
     </g>
     <g id="line2d_172">
      <g>
       <use xlink:href="#m10a7936796" x="463.61728" y="265.547433" style="stroke: #000000; stroke-width: 0.5"/>
      </g>
     </g>
    </g>
    <g id="xtick_64">
     <g id="line2d_173">
      <g>
       <use xlink:href="#mb4e426a9b0" x="518.911484" y="335.542657" style="stroke: #000000; stroke-width: 0.5"/>
      </g>
     </g>
     <g id="line2d_174">
      <g>
       <use xlink:href="#m10a7936796" x="518.911484" y="265.547433" style="stroke: #000000; stroke-width: 0.5"/>
      </g>
     </g>
    </g>
    <g id="xtick_65">
     <g id="line2d_175">
      <g>
       <use xlink:href="#mb4e426a9b0" x="546.558585" y="335.542657" style="stroke: #000000; stroke-width: 0.5"/>
      </g>
     </g>
     <g id="line2d_176">
      <g>
       <use xlink:href="#m10a7936796" x="546.558585" y="265.547433" style="stroke: #000000; stroke-width: 0.5"/>
      </g>
     </g>
    </g>
    <g id="xtick_66">
     <g id="line2d_177">
      <g>
       <use xlink:href="#mb4e426a9b0" x="574.205687" y="335.542657" style="stroke: #000000; stroke-width: 0.5"/>
      </g>
     </g>
     <g id="line2d_178">
      <g>
       <use xlink:href="#m10a7936796" x="574.205687" y="265.547433" style="stroke: #000000; stroke-width: 0.5"/>
      </g>
     </g>
    </g>
    <g id="xtick_67">
     <g id="line2d_179">
      <g>
       <use xlink:href="#mb4e426a9b0" x="601.852789" y="335.542657" style="stroke: #000000; stroke-width: 0.5"/>
      </g>
     </g>
     <g id="line2d_180">
      <g>
       <use xlink:href="#m10a7936796" x="601.852789" y="265.547433" style="stroke: #000000; stroke-width: 0.5"/>
      </g>
     </g>
    </g>
    <g id="xtick_68">
     <g id="line2d_181">
      <g>
       <use xlink:href="#mb4e426a9b0" x="657.146992" y="335.542657" style="stroke: #000000; stroke-width: 0.5"/>
      </g>
     </g>
     <g id="line2d_182">
      <g>
       <use xlink:href="#m10a7936796" x="657.146992" y="265.547433" style="stroke: #000000; stroke-width: 0.5"/>
      </g>
     </g>
    </g>
    <g id="xtick_69">
     <g id="line2d_183">
      <g>
       <use xlink:href="#mb4e426a9b0" x="684.794094" y="335.542657" style="stroke: #000000; stroke-width: 0.5"/>
      </g>
     </g>
     <g id="line2d_184">
      <g>
       <use xlink:href="#m10a7936796" x="684.794094" y="265.547433" style="stroke: #000000; stroke-width: 0.5"/>
      </g>
     </g>
    </g>
    <g id="text_16">
     <!-- Time ($t$) -->
     <g transform="translate(356.569266 371.531816) scale(0.18 -0.18)">
      <use xlink:href="#CMR17-54" transform="scale(0.996264)"/>
      <use xlink:href="#CMR17-69" transform="translate(66.509881 0) scale(0.996264)"/>
      <use xlink:href="#CMR17-6d" transform="translate(91.380939 0) scale(0.996264)"/>
      <use xlink:href="#CMR17-65" transform="translate(168.300529 0) scale(0.996264)"/>
      <use xlink:href="#CMR17-28" transform="translate(238.862156 0) scale(0.996264)"/>
      <use xlink:href="#CMMI12-74" transform="translate(274.142924 0) scale(0.996264)"/>
      <use xlink:href="#CMR17-29" transform="translate(309.369254 0) scale(0.996264)"/>
     </g>
    </g>
   </g>
   <g id="matplotlib.axis_6">
    <g id="ytick_23">
     <g id="line2d_185">
      <g>
       <use xlink:href="#ma7057826ec" x="75.175501" y="329.179455" style="stroke: #000000; stroke-width: 0.5"/>
      </g>
     </g>
     <g id="line2d_186">
      <g>
       <use xlink:href="#m511a66da47" x="700" y="329.179455" style="stroke: #000000; stroke-width: 0.5"/>
      </g>
     </g>
     <g id="text_17">
      <!-- $\mathdefault{−5}$ -->
      <g transform="translate(50.735259 335.060181) scale(0.17 -0.17)">
       <use xlink:href="#CMSY10-0" transform="scale(0.996264)"/>
       <use xlink:href="#CMR17-35" transform="translate(77.487468 0) scale(0.996264)"/>
      </g>
     </g>
    </g>
    <g id="ytick_24">
     <g id="line2d_187">
      <g>
       <use xlink:href="#ma7057826ec" x="75.175501" y="297.363444" style="stroke: #000000; stroke-width: 0.5"/>
      </g>
     </g>
     <g id="line2d_188">
      <g>
       <use xlink:href="#m511a66da47" x="700" y="297.363444" style="stroke: #000000; stroke-width: 0.5"/>
      </g>
     </g>
     <g id="text_18">
      <!-- $\mathdefault{0}$ -->
      <g transform="translate(63.90812 303.24417) scale(0.17 -0.17)">
       <use xlink:href="#CMR17-30" transform="scale(0.996264)"/>
      </g>
     </g>
    </g>
    <g id="ytick_25">
     <g id="line2d_189">
      <g>
       <use xlink:href="#ma7057826ec" x="75.175501" y="265.547433" style="stroke: #000000; stroke-width: 0.5"/>
      </g>
     </g>
     <g id="line2d_190">
      <g>
       <use xlink:href="#m511a66da47" x="700" y="265.547433" style="stroke: #000000; stroke-width: 0.5"/>
      </g>
     </g>
     <g id="text_19">
      <!-- $\mathdefault{5}$ -->
      <g transform="translate(63.90812 271.428159) scale(0.17 -0.17)">
       <use xlink:href="#CMR17-35" transform="scale(0.996264)"/>
      </g>
     </g>
    </g>
    <g id="ytick_26">
     <g id="line2d_191">
      <g>
       <use xlink:href="#mbc28d7059f" x="75.175501" y="335.542657" style="stroke: #000000; stroke-width: 0.5"/>
      </g>
     </g>
     <g id="line2d_192">
      <g>
       <use xlink:href="#m44caa775e3" x="700" y="335.542657" style="stroke: #000000; stroke-width: 0.5"/>
      </g>
     </g>
    </g>
    <g id="ytick_27">
     <g id="line2d_193">
      <g>
       <use xlink:href="#mbc28d7059f" x="75.175501" y="322.816253" style="stroke: #000000; stroke-width: 0.5"/>
      </g>
     </g>
     <g id="line2d_194">
      <g>
       <use xlink:href="#m44caa775e3" x="700" y="322.816253" style="stroke: #000000; stroke-width: 0.5"/>
      </g>
     </g>
    </g>
    <g id="ytick_28">
     <g id="line2d_195">
      <g>
       <use xlink:href="#mbc28d7059f" x="75.175501" y="316.453051" style="stroke: #000000; stroke-width: 0.5"/>
      </g>
     </g>
     <g id="line2d_196">
      <g>
       <use xlink:href="#m44caa775e3" x="700" y="316.453051" style="stroke: #000000; stroke-width: 0.5"/>
      </g>
     </g>
    </g>
    <g id="ytick_29">
     <g id="line2d_197">
      <g>
       <use xlink:href="#mbc28d7059f" x="75.175501" y="310.089849" style="stroke: #000000; stroke-width: 0.5"/>
      </g>
     </g>
     <g id="line2d_198">
      <g>
       <use xlink:href="#m44caa775e3" x="700" y="310.089849" style="stroke: #000000; stroke-width: 0.5"/>
      </g>
     </g>
    </g>
    <g id="ytick_30">
     <g id="line2d_199">
      <g>
       <use xlink:href="#mbc28d7059f" x="75.175501" y="303.726646" style="stroke: #000000; stroke-width: 0.5"/>
      </g>
     </g>
     <g id="line2d_200">
      <g>
       <use xlink:href="#m44caa775e3" x="700" y="303.726646" style="stroke: #000000; stroke-width: 0.5"/>
      </g>
     </g>
    </g>
    <g id="ytick_31">
     <g id="line2d_201">
      <g>
       <use xlink:href="#mbc28d7059f" x="75.175501" y="291.000242" style="stroke: #000000; stroke-width: 0.5"/>
      </g>
     </g>
     <g id="line2d_202">
      <g>
       <use xlink:href="#m44caa775e3" x="700" y="291.000242" style="stroke: #000000; stroke-width: 0.5"/>
      </g>
     </g>
    </g>
    <g id="ytick_32">
     <g id="line2d_203">
      <g>
       <use xlink:href="#mbc28d7059f" x="75.175501" y="284.63704" style="stroke: #000000; stroke-width: 0.5"/>
      </g>
     </g>
     <g id="line2d_204">
      <g>
       <use xlink:href="#m44caa775e3" x="700" y="284.63704" style="stroke: #000000; stroke-width: 0.5"/>
      </g>
     </g>
    </g>
    <g id="ytick_33">
     <g id="line2d_205">
      <g>
       <use xlink:href="#mbc28d7059f" x="75.175501" y="278.273838" style="stroke: #000000; stroke-width: 0.5"/>
      </g>
     </g>
     <g id="line2d_206">
      <g>
       <use xlink:href="#m44caa775e3" x="700" y="278.273838" style="stroke: #000000; stroke-width: 0.5"/>
      </g>
     </g>
    </g>
    <g id="ytick_34">
     <g id="line2d_207">
      <g>
       <use xlink:href="#mbc28d7059f" x="75.175501" y="271.910636" style="stroke: #000000; stroke-width: 0.5"/>
      </g>
     </g>
     <g id="line2d_208">
      <g>
       <use xlink:href="#m44caa775e3" x="700" y="271.910636" style="stroke: #000000; stroke-width: 0.5"/>
      </g>
     </g>
    </g>
    <g id="text_20">
     <!-- $\ddot{q}(t)$ -->
     <g transform="translate(20 296.076861) scale(0.18 -0.18)">
      <defs>
       <path id="CMR17-7f" d="M 1133 3961 
C 1133 4120 1005 4215 883 4215 
C 717 4215 627 4075 627 3967 
C 627 3840 730 3712 883 3712 
C 1018 3712 1133 3821 1133 3961 
z
M 2304 3961 
C 2304 4088 2202 4215 2048 4215 
C 1914 4215 1798 4107 1798 3967 
C 1798 3808 1926 3712 2048 3712 
C 2214 3712 2304 3852 2304 3961 
z
" transform="scale(0.015625)"/>
      </defs>
      <use xlink:href="#CMR17-7f" transform="translate(8.697077 0.006461) scale(0.996264)"/>
      <use xlink:href="#CMMI12-71" transform="scale(0.996264)"/>
      <use xlink:href="#CMR17-28" transform="translate(46.826324 0) scale(0.996264)"/>
      <use xlink:href="#CMMI12-74" transform="translate(82.107092 0) scale(0.996264)"/>
      <use xlink:href="#CMR17-29" transform="translate(117.333422 0) scale(0.996264)"/>
     </g>
    </g>
   </g>
   <g id="line2d_209">
    <path d="M 76.557856 316.372135 
L 77.803221 311.761752 
L 79.048586 308.09273 
L 80.293951 305.299421 
L 81.539316 303.237814 
L 82.784681 301.741551 
L 84.030046 300.652713 
L 85.275411 299.855405 
L 86.520776 299.269065 
L 88.388823 298.665329 
L 90.879553 298.171004 
L 93.992966 297.820695 
L 98.974425 297.54346 
L 107.69198 297.335724 
L 140.694151 296.704657 
L 151.902435 296.223187 
L 160.61999 295.624411 
L 167.469497 294.945923 
L 173.696322 294.112971 
L 179.300464 293.128112 
L 184.281924 292.015318 
L 188.640701 290.824975 
L 192.999478 289.415321 
L 198.603621 287.332848 
L 202.962398 285.784899 
L 204.830445 285.342748 
L 206.07581 285.225305 
L 207.321175 285.338142 
L 208.56654 285.79183 
L 209.189223 286.192309 
L 209.811905 286.741291 
L 210.434588 287.46806 
L 211.05727 288.405267 
L 211.679953 289.588408 
L 212.302635 291.054771 
L 212.925317 292.841635 
L 214.170682 297.507806 
L 215.416047 303.743623 
L 216.661412 311.370419 
L 218.52946 323.505345 
L 219.152142 326.977078 
L 219.774825 329.80476 
L 220.397507 331.810682 
L 221.02019 332.879558 
L 221.642872 332.981865 
L 222.265555 332.179574 
L 222.888237 330.609385 
L 224.133602 325.916533 
L 226.624332 315.168152 
L 227.869697 310.769133 
L 229.115062 307.307308 
L 230.360427 304.69102 
L 231.605792 302.78475 
L 232.851157 301.407718 
L 234.096521 300.405906 
L 235.341886 299.672255 
L 237.209934 298.920789 
L 239.077981 298.438159 
L 241.568711 298.036182 
L 245.304806 297.705348 
L 250.908948 297.471806 
L 262.739915 297.258773 
L 286.401849 296.831951 
L 298.855498 296.38141 
L 308.195736 295.821416 
L 315.667925 295.151031 
L 321.89475 294.38128 
L 327.498892 293.474504 
L 332.480352 292.448845 
L 336.839129 291.34638 
L 341.197907 290.027331 
L 346.179366 288.263669 
L 353.028873 285.723281 
L 354.896921 285.276696 
L 356.142286 285.158078 
L 357.387651 285.267384 
L 358.633016 285.716426 
L 359.255698 286.116499 
L 359.878381 286.665881 
L 360.501063 287.393585 
L 361.123746 288.332315 
L 361.746428 289.517953 
L 362.369111 290.988511 
L 362.991793 292.782344 
L 364.237158 297.476777 
L 365.482523 303.774093 
L 366.727888 311.492847 
L 368.595935 323.751792 
L 369.218618 327.26454 
L 369.8413 330.121168 
L 370.463983 332.127746 
L 371.086665 333.179707 
L 371.709348 333.257532 
L 372.33203 332.41822 
L 372.954713 330.788967 
L 374.200077 325.926328 
L 376.690807 315.081655 
L 377.936172 310.649494 
L 379.181537 307.193821 
L 380.426902 304.624795 
L 381.672267 302.745943 
L 382.917632 301.36806 
L 384.162997 300.353653 
L 385.408362 299.61775 
L 387.276409 298.884709 
L 389.144457 298.412822 
L 391.635187 298.019316 
L 395.371282 297.697207 
L 400.975424 297.468765 
L 412.806391 297.25996 
L 437.091007 296.824671 
L 448.921974 296.394261 
L 458.262211 295.836009 
L 465.734401 295.176568 
L 471.961225 294.421704 
L 477.565368 293.526572 
L 482.546827 292.511607 
L 486.905605 291.419135 
L 491.264382 290.110369 
L 495.623159 288.58111 
L 503.718031 285.591845 
L 505.586079 285.171826 
L 506.831444 285.085852 
L 508.076809 285.251754 
L 509.322174 285.792503 
L 509.944856 286.254818 
L 510.567539 286.879748 
L 511.190221 287.698234 
L 511.812904 288.744982 
L 512.435586 290.057766 
L 513.058269 291.676098 
L 513.680951 293.639025 
L 514.926316 298.731599 
L 516.171681 305.454662 
L 518.039728 317.720264 
L 519.285093 325.690871 
L 519.907776 328.959186 
L 520.530458 331.46535 
L 521.153141 333.055272 
L 521.775823 333.647057 
L 522.398506 333.246222 
L 523.021188 331.950562 
L 523.643871 329.943361 
L 524.889235 324.75298 
L 526.757283 316.446304 
L 528.002648 311.753443 
L 529.248013 308.076377 
L 530.493378 305.296764 
L 531.738743 303.231605 
L 532.984108 301.724882 
L 534.229473 300.6174 
L 535.474837 299.803688 
L 536.720202 299.222326 
L 538.58825 298.63051 
L 541.07898 298.147017 
L 544.192392 297.806733 
L 549.173852 297.53792 
L 557.891406 297.337213 
L 591.51626 296.711746 
L 602.724544 296.234214 
L 611.442099 295.639097 
L 618.914289 294.896089 
L 625.141113 294.046827 
L 630.122573 293.165341 
L 635.104033 292.058366 
L 639.46281 290.871897 
L 643.821587 289.46237 
L 648.803047 287.603583 
L 653.784507 285.743947 
L 655.652554 285.237407 
L 656.897919 285.055261 
L 658.143284 285.077949 
L 659.388649 285.408012 
L 660.011332 285.732023 
L 660.634014 286.192167 
L 661.256697 286.815721 
L 661.879379 287.633801 
L 662.502062 288.681206 
L 663.124744 289.995941 
L 663.747427 291.618228 
L 664.370109 293.589074 
L 665.615474 298.71353 
L 666.860839 305.476923 
L 668.728886 317.839316 
L 669.974251 325.885578 
L 670.596934 329.189832 
L 671.219616 331.728468 
L 671.842299 333.336426 
L 672.464981 333.919555 
L 673.087664 333.472484 
L 673.710346 332.08631 
L 674.333029 329.944195 
L 676.201076 321.646866 
L 678.069123 313.757773 
L 679.314488 309.548699 
L 680.559853 306.319752 
L 681.805218 303.962157 
L 683.050583 302.254391 
L 684.295948 301.010774 
L 685.541313 300.099542 
L 686.786678 299.435614 
L 688.654725 298.766657 
L 690.522773 298.334469 
L 693.013503 297.972109 
L 696.749598 297.673147 
L 698.617645 297.581819 
L 698.617645 297.581819 
" clip-path="url(#p74dba8e9a6)" style="fill: none; stroke: #ff0000; stroke-width: 1.5; stroke-linecap: square"/>
   </g>
   <g id="patch_13">
    <path d="M 75.175501 335.542657 
L 75.175501 265.547433 
" style="fill: none; stroke: #000000; stroke-width: 0.8; stroke-linejoin: miter; stroke-linecap: square"/>
   </g>
   <g id="patch_14">
    <path d="M 700 335.542657 
L 700 265.547433 
" style="fill: none; stroke: #000000; stroke-width: 0.8; stroke-linejoin: miter; stroke-linecap: square"/>
   </g>
   <g id="patch_15">
    <path d="M 75.175501 335.542657 
L 700 335.542657 
" style="fill: none; stroke: #000000; stroke-width: 0.8; stroke-linejoin: miter; stroke-linecap: square"/>
   </g>
   <g id="patch_16">
    <path d="M 75.175501 265.547433 
L 700 265.547433 
" style="fill: none; stroke: #000000; stroke-width: 0.8; stroke-linejoin: miter; stroke-linecap: square"/>
   </g>
   <g id="text_21">
    <!-- Acceleration vs. Time with $\alpha = 0.66666, \beta = 1.33333, \gamma = 1.0, \delta = 1.0$ -->
    <g transform="translate(133.369849 259.547433) scale(0.18 -0.18)">
     <defs>
      <path id="CMR17-41" d="M 2323 4378 
C 2291 4461 2278 4480 2214 4480 
C 2150 4480 2138 4461 2106 4378 
L 749 566 
C 627 223 371 153 147 153 
L 147 -13 
C 262 0 518 0 640 0 
C 800 0 1056 0 1210 -13 
L 1210 153 
C 909 153 864 361 864 439 
C 864 497 877 530 890 569 
L 1229 1536 
L 2906 1536 
L 3290 442 
C 3322 365 3322 352 3322 327 
C 3322 153 3046 153 2925 153 
L 2925 0 
C 3110 0 3443 0 3642 0 
C 3808 0 4128 0 4282 -13 
L 4282 153 
C 3942 153 3827 153 3744 387 
L 2323 4378 
z
M 2067 3893 
L 2848 1702 
L 1286 1702 
L 2067 3893 
z
" transform="scale(0.015625)"/>
      <path id="CMR17-72" d="M 960 1497 
C 960 2112 1222 2688 1702 2688 
C 1747 2688 1792 2682 1837 2662 
C 1837 2662 1696 2617 1696 2452 
C 1696 2298 1818 2234 1914 2234 
C 1990 2234 2131 2279 2131 2458 
C 2131 2663 1926 2790 1709 2790 
C 1222 2790 1011 2317 947 2093 
L 941 2093 
L 941 2790 
L 198 2720 
L 198 2554 
C 576 2554 634 2515 634 2208 
L 634 428 
C 634 184 608 153 198 153 
L 198 -13 
C 352 0 646 0 813 0 
C 998 0 1325 0 1498 -13 
L 1498 153 
C 1037 153 960 153 960 440 
L 960 1497 
z
" transform="scale(0.015625)"/>
      <path id="CMR17-61" d="M 2304 1653 
C 2304 2072 2304 2294 2035 2543 
C 1798 2752 1523 2816 1306 2816 
C 800 2816 435 2407 435 1971 
C 435 1728 627 1728 666 1728 
C 749 1728 896 1778 896 1954 
C 896 2112 774 2181 666 2181 
C 640 2181 608 2174 589 2168 
C 723 2592 1069 2714 1293 2714 
C 1613 2714 1965 2429 1965 1885 
L 1965 1600 
C 1587 1600 1133 1549 774 1357 
C 371 1133 256 813 256 570 
C 256 77 832 -64 1171 -64 
C 1523 -64 1850 139 1990 511 
C 2003 233 2182 -18 2464 -18 
C 2598 -18 2938 70 2938 567 
L 2938 920 
L 2822 920 
L 2822 562 
C 2822 178 2650 128 2566 128 
C 2304 128 2304 458 2304 738 
L 2304 1653 
z
M 1965 870 
C 1965 317 1568 38 1216 38 
C 896 38 646 275 646 570 
C 646 761 730 1100 1101 1305 
C 1408 1478 1760 1504 1965 1504 
L 1965 870 
z
" transform="scale(0.015625)"/>
     </defs>
     <use xlink:href="#CMR17-41" transform="scale(0.996264)"/>
     <use xlink:href="#CMR17-63" transform="translate(69.07243 0) scale(0.996264)"/>
     <use xlink:href="#CMR17-63" transform="translate(109.55809 0) scale(0.996264)"/>
     <use xlink:href="#CMR17-65" transform="translate(150.043751 0) scale(0.996264)"/>
     <use xlink:href="#CMR17-6c" transform="translate(190.529411 0) scale(0.996264)"/>
     <use xlink:href="#CMR17-65" transform="translate(215.40047 0) scale(0.996264)"/>
     <use xlink:href="#CMR17-72" transform="translate(255.88613 0) scale(0.996264)"/>
     <use xlink:href="#CMR17-61" transform="translate(291.166898 0) scale(0.996264)"/>
     <use xlink:href="#CMR17-74" transform="translate(336.857375 0) scale(0.996264)"/>
     <use xlink:href="#CMR17-69" transform="translate(372.138143 0) scale(0.996264)"/>
     <use xlink:href="#CMR17-6f" transform="translate(397.009201 0) scale(0.996264)"/>
     <use xlink:href="#CMR17-6e" transform="translate(442.699678 0) scale(0.996264)"/>
     <use xlink:href="#CMR17-76" transform="translate(523.671015 0) scale(0.996264)"/>
     <use xlink:href="#CMR17-73" transform="translate(571.96393 0) scale(0.996264)"/>
     <use xlink:href="#CMR17-2e" transform="translate(607.765268 0) scale(0.996264)"/>
     <use xlink:href="#CMR17-54" transform="translate(673.121987 0) scale(0.996264)"/>
     <use xlink:href="#CMR17-69" transform="translate(739.631868 0) scale(0.996264)"/>
     <use xlink:href="#CMR17-6d" transform="translate(764.502926 0) scale(0.996264)"/>
     <use xlink:href="#CMR17-65" transform="translate(841.422516 0) scale(0.996264)"/>
     <use xlink:href="#CMR17-77" transform="translate(911.984143 0) scale(0.996264)"/>
     <use xlink:href="#CMR17-69" transform="translate(978.494023 0) scale(0.996264)"/>
     <use xlink:href="#CMR17-74" transform="translate(1003.365082 0) scale(0.996264)"/>
     <use xlink:href="#CMR17-68" transform="translate(1038.64585 0) scale(0.996264)"/>
     <use xlink:href="#CMMI12-b" transform="translate(1119.617186 0) scale(0.996264)"/>
     <use xlink:href="#CMR17-3d" transform="translate(1209.972217 0) scale(0.996264)"/>
     <use xlink:href="#CMR17-30" transform="translate(1309.361014 0) scale(0.996264)"/>
     <use xlink:href="#CMMI12-3a" transform="translate(1355.051491 0) scale(0.996264)"/>
     <use xlink:href="#CMR17-36" transform="translate(1382.148669 0) scale(0.996264)"/>
     <use xlink:href="#CMR17-36" transform="translate(1427.839146 0) scale(0.996264)"/>
     <use xlink:href="#CMR17-36" transform="translate(1473.529623 0) scale(0.996264)"/>
     <use xlink:href="#CMR17-36" transform="translate(1519.2201 0) scale(0.996264)"/>
     <use xlink:href="#CMR17-36" transform="translate(1564.910577 0) scale(0.996264)"/>
     <use xlink:href="#CMMI12-3b" transform="translate(1610.601054 0) scale(0.996264)"/>
     <use xlink:href="#CMMI12-c" transform="translate(1654.302636 0) scale(0.996264)"/>
     <use xlink:href="#CMR17-3d" transform="translate(1742.570661 0) scale(0.996264)"/>
     <use xlink:href="#CMR17-31" transform="translate(1841.959458 0) scale(0.996264)"/>
     <use xlink:href="#CMMI12-3a" transform="translate(1887.649935 0) scale(0.996264)"/>
     <use xlink:href="#CMR17-33" transform="translate(1914.747112 0) scale(0.996264)"/>
     <use xlink:href="#CMR17-33" transform="translate(1960.437589 0) scale(0.996264)"/>
     <use xlink:href="#CMR17-33" transform="translate(2006.128067 0) scale(0.996264)"/>
     <use xlink:href="#CMR17-33" transform="translate(2051.818544 0) scale(0.996264)"/>
     <use xlink:href="#CMR17-33" transform="translate(2097.509021 0) scale(0.996264)"/>
     <use xlink:href="#CMMI12-3b" transform="translate(2143.199498 0) scale(0.996264)"/>
     <use xlink:href="#CMMI12-d" transform="translate(2186.90108 0) scale(0.996264)"/>
     <use xlink:href="#CMR17-3d" transform="translate(2270.593657 0) scale(0.996264)"/>
     <use xlink:href="#CMR17-31" transform="translate(2369.982454 0) scale(0.996264)"/>
     <use xlink:href="#CMMI12-3a" transform="translate(2415.672931 0) scale(0.996264)"/>
     <use xlink:href="#CMR17-30" transform="translate(2442.770108 0) scale(0.996264)"/>
     <use xlink:href="#CMMI12-3b" transform="translate(2488.460585 0) scale(0.996264)"/>
     <use xlink:href="#CMMI12-e" transform="translate(2532.162168 0) scale(0.996264)"/>
     <use xlink:href="#CMR17-3d" transform="translate(2606.777563 0) scale(0.996264)"/>
     <use xlink:href="#CMR17-31" transform="translate(2706.16636 0) scale(0.996264)"/>
     <use xlink:href="#CMMI12-3a" transform="translate(2751.856837 0) scale(0.996264)"/>
     <use xlink:href="#CMR17-30" transform="translate(2778.954014 0) scale(0.996264)"/>
    </g>
   </g>
  </g>
 </g>
 <defs>
  <clipPath id="pf9886a9029">
   <rect x="75.175501" y="38.4533" width="624.824499" height="69.995224"/>
  </clipPath>
  <clipPath id="p5a27ddbc7a">
   <rect x="75.175501" y="152.000367" width="624.824499" height="69.995224"/>
  </clipPath>
  <clipPath id="p74dba8e9a6">
   <rect x="75.175501" y="265.547433" width="624.824499" height="69.995224"/>
  </clipPath>
 </defs>
</svg>
